<svg xmlns="http://www.w3.org/2000/svg" width="1835" height="922" viewBox="0 0 1835 922"><defs><style>.a,.b,.c,.e{fill:none;}.a{stroke:#dceef5;}.a,.b,.c{stroke-width:30px;}.b{stroke:#fbe9ec;}.c{stroke:#2596be;opacity:0.16;}.d{stroke:none;}</style></defs><g transform="translate(226 -552)"><g class="a" transform="translate(-172 1066)"><circle class="d" cx="116.5" cy="116.5" r="116.5"/><circle class="e" cx="116.5" cy="116.5" r="101.5"/></g><g class="a" transform="translate(-220 1007)"><ellipse class="d" cx="175" cy="170" rx="175" ry="170"/><ellipse class="e" cx="175" cy="170" rx="160" ry="155"/></g><g class="b" transform="translate(1259 1134)"><ellipse class="d" cx="175" cy="170" rx="175" ry="170"/><ellipse class="e" cx="175" cy="170" rx="160" ry="155"/></g><g class="b" transform="translate(1222 594)"><ellipse class="d" cx="175" cy="170" rx="175" ry="170"/><ellipse class="e" cx="175" cy="170" rx="160" ry="155"/></g><g class="b" transform="translate(1315 1175)"><ellipse class="d" cx="127.5" cy="134" rx="127.5" ry="134"/><ellipse class="e" cx="127.5" cy="134" rx="112.5" ry="119"/></g><g class="b" transform="translate(1278 635)"><ellipse class="d" cx="127.5" cy="124" rx="127.5" ry="124"/><ellipse class="e" cx="127.5" cy="124" rx="112.5" ry="109"/></g><g class="c" transform="translate(-178 611)"><circle class="d" cx="116.5" cy="116.5" r="116.5"/><circle class="e" cx="116.5" cy="116.5" r="101.5"/></g><g class="c" transform="translate(-226 552)"><ellipse class="d" cx="175" cy="170" rx="175" ry="170"/><ellipse class="e" cx="175" cy="170" rx="160" ry="155"/></g></g></svg>