<svg xmlns="http://www.w3.org/2000/svg" xmlns:xlink="http://www.w3.org/1999/xlink" width="105" height="91" viewBox="0 0 105 91"><defs><style>.a,.g{fill:#fff;}.a{stroke:#707070;}.b{clip-path:url(#a);}.c{fill:#78a0cf;}.d{fill:#f1bc19;}.e{fill:#cee1f4;}.f{fill:#fbcd59;}.h{fill:#fdfcee;}.i{fill:#efeddf;}.j{fill:#836f61;}.k{fill:#472b29;}.l{fill:#ee3e54;}.m{fill:#88ae45;}.n{fill:#fdfcef;}.o{fill:#c5def0;}.p{clip-path:url(#b);}.q{fill:#fff59d;}.r{fill:#fbc02d;}.s{fill:#5c6bc0;}.t{fill:#9fa8da;}.u{fill:#546e7a;}.v{fill:#455a64;}</style><clipPath id="a"><rect class="a" width="71" height="63" transform="translate(251 1391)"/></clipPath><clipPath id="b"><rect class="a" width="57" height="56" transform="translate(205 1363)"/></clipPath></defs><g transform="translate(-669 -2154)"><g class="b" transform="translate(452 791)"><g transform="translate(254.478 1391)"><path class="c" d="M13.35,28.731A1.626,1.626,0,1,0,15,30.357,1.636,1.636,0,0,0,13.35,28.731Z" transform="translate(-11.705 -15.722)"/><path class="d" d="M81.694,12.769a.813.813,0,1,0,.822.813A.818.818,0,0,0,81.694,12.769Z" transform="translate(-27.409 -11.956)"/><path class="e" d="M44.266,13.833A30.085,30.085,0,1,0,74.7,43.917,30.259,30.259,0,0,0,44.266,13.833Z" transform="translate(-12.188 -12.207)"/><path class="d" d="M87.354,11.705a3.252,3.252,0,1,0,3.29,3.252A3.271,3.271,0,0,0,87.354,11.705Z" transform="translate(-28.134 -11.705)"/><path class="c" d="M92.094,23.41a1.626,1.626,0,1,0,1.645,1.626A1.636,1.636,0,0,0,92.094,23.41Z" transform="translate(-29.584 -14.467)"/><path class="f" d="M69.28,74.978A1.626,1.626,0,1,0,70.925,76.6,1.636,1.636,0,0,0,69.28,74.978ZM15,62.782a3.252,3.252,0,1,0,3.29,3.252A3.271,3.271,0,0,0,15,62.782Z" transform="translate(-11.705 -23.755)"/><path class="c" d="M26.119,90.449a1.626,1.626,0,1,0,1.645,1.626A1.636,1.636,0,0,0,26.119,90.449Z" transform="translate(-14.604 -30.282)"/><path class="g" d="M19.082,54.269A2.033,2.033,0,1,0,21.138,56.3,2.045,2.045,0,0,0,19.082,54.269Z" transform="translate(-12.913 -21.747)"/><path class="d" d="M22.1,70.231a.813.813,0,1,0,.822.813A.818.818,0,0,0,22.1,70.231Z" transform="translate(-13.88 -25.513)"/><path class="g" d="M84.887,35.115a.813.813,0,1,0,.822.813A.818.818,0,0,0,84.887,35.115Z" transform="translate(-28.134 -17.228)"/><g transform="translate(12.337 13.822)"><path class="h" d="M62.453,65.007H32.843a4.09,4.09,0,0,1-4.112-4.065V34.924a4.09,4.09,0,0,1,4.112-4.065h29.61a4.09,4.09,0,0,1,4.112,4.065V60.942A4.09,4.09,0,0,1,62.453,65.007Z" transform="translate(-27.908 -30.046)"/><path class="i" d="M28.731,37.776H66.566V62.167H28.731Z" transform="translate(-27.908 -31.678)"/><path class="j" d="M28.2,37.776H45.574V62.167H28.2Z" transform="translate(-27.787 -31.678)"/><path class="k" d="M62.212,30.933A3.767,3.767,0,0,1,66,34.673V60.691a3.767,3.767,0,0,1-3.783,3.74H32.6a3.767,3.767,0,0,1-3.783-3.74V34.673a3.767,3.767,0,0,1,3.783-3.74h29.61m0-1.138H32.6a4.907,4.907,0,0,0-4.935,4.878V60.691A4.907,4.907,0,0,0,32.6,65.569h29.61a4.907,4.907,0,0,0,4.935-4.878V34.673a4.907,4.907,0,0,0-4.935-4.878Z" transform="translate(-27.667 -29.795)"/><path class="k" d="M52.783,38.057H28.314a.407.407,0,1,1,0-.813H52.783a.407.407,0,1,1,0,.813Zm4.935,0h-3.29a.407.407,0,1,1,0-.813h3.29a.407.407,0,1,1,0,.813Zm8.739,0H60.185a.407.407,0,1,1,0-.813h6.272a.407.407,0,1,1,0,.813Zm0,24.392h-3.8a.407.407,0,1,1,0-.813h3.8a.407.407,0,1,1,0,.813Zm-6.272,0H28.211a.407.407,0,1,1,0-.813H60.185a.407.407,0,1,1,0,.813Z" transform="translate(-27.697 -31.552)"/><path class="l" d="M34.294,33.314a.97.97,0,1,0,.981.97A.976.976,0,0,0,34.294,33.314Z" transform="translate(-28.949 -30.625)"/><path class="k" d="M34.222,33.6a.61.61,0,1,1-.618.61.613.613,0,0,1,.618-.61m0-.61a1.22,1.22,0,1,0,1.233,1.22,1.228,1.228,0,0,0-1.233-1.22Z" transform="translate(-28.875 -30.548)"/><path class="d" d="M38.552,33.314a.97.97,0,1,0,.981.97A.976.976,0,0,0,38.552,33.314Z" transform="translate(-29.915 -30.625)"/><path class="k" d="M38.477,33.6a.61.61,0,1,1-.617.61.614.614,0,0,1,.617-.61m0-.61a1.22,1.22,0,1,0,1.234,1.22,1.228,1.228,0,0,0-1.234-1.22Z" transform="translate(-29.841 -30.548)"/><path class="m" d="M42.809,33.314a.97.97,0,1,0,.981.97A.976.976,0,0,0,42.809,33.314Z" transform="translate(-30.882 -30.625)"/><path class="k" d="M42.735,33.6a.61.61,0,1,1-.618.61.613.613,0,0,1,.618-.61m0-.61a1.22,1.22,0,1,0,1.233,1.22,1.228,1.228,0,0,0-1.233-1.22Z" transform="translate(-30.808 -30.548)"/></g><g transform="translate(17.478 21.14)"><path class="k" d="M46.963,61.324a.307.307,0,0,1-.308-.3V39.677a.308.308,0,0,1,.617,0V61.019A.307.307,0,0,1,46.963,61.324Zm-12.337,0a.307.307,0,0,1-.308-.3V39.677a.308.308,0,0,1,.617,0V61.019A.307.307,0,0,1,34.626,61.324Z" transform="translate(-34.317 -39.372)"/></g><g transform="translate(14.805 22.156)"><path class="n" d="M32.2,41.312H31.167a.3.3,0,1,1,0-.61H32.2a.3.3,0,1,1,0,.61Zm0,1.626H31.167a.3.3,0,1,1,0-.61H32.2a.3.3,0,1,1,0,.61Zm0,1.626H31.167a.3.3,0,1,1,0-.61H32.2a.3.3,0,1,1,0,.61Zm0,1.626H31.167a.3.3,0,1,1,0-.61H32.2a.3.3,0,1,1,0,.61Zm0,1.626H31.167a.3.3,0,1,1,0-.61H32.2a.3.3,0,1,1,0,.61Zm0,1.626H31.167a.3.3,0,1,1,0-.61H32.2a.3.3,0,1,1,0,.61Zm0,1.626H31.167a.3.3,0,1,1,0-.61H32.2a.3.3,0,1,1,0,.61Zm0,1.626H31.167a.3.3,0,1,1,0-.61H32.2a.3.3,0,1,1,0,.61Zm0,1.626H31.167a.3.3,0,1,1,0-.61H32.2a.3.3,0,1,1,0,.61Zm0,1.626H31.167a.3.3,0,1,1,0-.61H32.2a.3.3,0,1,1,0,.61Zm0,1.626H31.167a.3.3,0,1,1,0-.61H32.2a.3.3,0,1,1,0,.61Zm0,1.626H31.167a.3.3,0,1,1,0-.61H32.2a.3.3,0,1,1,0,.61Zm0,1.626H31.167a.3.3,0,1,1,0-.61H32.2a.3.3,0,1,1,0,.61Z" transform="translate(-30.859 -40.702)"/></g><g transform="translate(19.739 21.952)"><path class="n" d="M40.842,46.127a.314.314,0,0,1-.1-.018.3.3,0,0,1-.186-.39L42.4,40.637a.308.308,0,0,1,.395-.184.3.3,0,0,1,.186.39l-1.851,5.082A.308.308,0,0,1,40.842,46.127Zm-2.262-.813a.309.309,0,0,1-.245-.119l-1.028-1.321a.3.3,0,0,1,0-.372l1.028-1.321a.311.311,0,0,1,.433-.056.3.3,0,0,1,.057.428l-.883,1.135.883,1.135a.306.306,0,0,1-.244.491Zm6.374,0a.306.306,0,0,1-.244-.491l.883-1.135-.883-1.135a.3.3,0,0,1,.057-.428.311.311,0,0,1,.433.056L46.227,43.5a.3.3,0,0,1,0,.372L45.2,45.2A.312.312,0,0,1,44.954,45.314Z" transform="translate(-37.243 -40.435)"/></g><g transform="translate(32.9 24.392)"><path class="o" d="M54.668,44.027h9.253v5.895H54.668Z" transform="translate(-54.36 -43.722)"/><path class="k" d="M63.831,50.133H54.578a.307.307,0,0,1-.308-.3V43.933a.307.307,0,0,1,.308-.3h9.253a.307.307,0,0,1,.308.3v5.895A.307.307,0,0,1,63.831,50.133Zm-8.945-.61h8.636V44.238H54.886Zm13.982-5.488H65.99a.2.2,0,1,1,0-.407h2.879a.2.2,0,1,1,0,.407Zm0,2.033H65.99a.2.2,0,1,1,0-.407h2.879a.2.2,0,1,1,0,.407Zm0,2.033H65.99a.2.2,0,1,1,0-.407h2.879a.2.2,0,1,1,0,.407Zm0,2.033H65.99a.2.2,0,1,1,0-.407h2.879a.2.2,0,1,1,0,.407Z" transform="translate(-54.269 -43.628)"/><path class="k" d="M0,0,10.688.056l0,.408L0,.408Z" transform="matrix(0.844, -0.537, 0.537, 0.844, 0.302, 5.928)"/><path class="k" d="M0,0,.408,0,.436,5.346l-.408,0Z" transform="matrix(0.537, -0.844, 0.844, 0.537, 0.301, 0.576)"/><path class="k" d="M65.592,51.185a.208.208,0,0,1-.11-.032l-2.908-1.829a.2.2,0,0,1-.063-.281.209.209,0,0,1,.284-.063L65.7,50.81a.2.2,0,0,1,.063.281A.206.206,0,0,1,65.592,51.185Z" transform="translate(-56.133 -44.884)"/></g><g transform="translate(32.9 34.148)"><path class="o" d="M61.053,56.8h9.253v5.895H61.053Z" transform="translate(-55.809 -56.492)"/><path class="k" d="M70.215,62.9H60.962a.307.307,0,0,1-.308-.3V56.7a.307.307,0,0,1,.308-.3h9.253a.307.307,0,0,1,.308.3V62.6A.307.307,0,0,1,70.215,62.9Zm-8.945-.61h8.636V57.007H61.271Z" transform="translate(-55.719 -56.397)"/><path class="k" d="M0,0,10.688.056l0,.408L0,.408Z" transform="matrix(0.844, -0.537, 0.537, 0.844, 5.237, 5.928)"/><path class="k" d="M0,0,.408,0,.436,5.346l-.408,0Z" transform="matrix(0.537, -0.844, 0.844, 0.537, 5.236, 0.575)"/><path class="k" d="M68.663,62.7a.208.208,0,0,1-.11-.032l-2.908-1.829a.2.2,0,0,1-.063-.281.209.209,0,0,1,.284-.063l2.908,1.829a.2.2,0,0,1,.063.281A.206.206,0,0,1,68.663,62.7ZM57.354,56.8H54.475a.2.2,0,1,1,0-.407h2.879a.2.2,0,1,1,0,.407Zm0,2.033H54.475a.2.2,0,1,1,0-.407h2.879a.2.2,0,1,1,0,.407Zm0,2.033H54.475a.2.2,0,1,1,0-.407h2.879a.2.2,0,1,1,0,.407Zm0,2.033H54.475a.2.2,0,1,1,0-.407h2.879a.2.2,0,1,1,0,.407Z" transform="translate(-54.269 -56.397)"/></g></g></g><g class="p" transform="translate(464 791)"><g transform="translate(208.525 1363)"><path class="q" d="M31.638,3.773c-12.264,0-22.206,10.781-22.206,24.08s9.942,24.08,22.206,24.08,22.206-10.781,22.206-24.08S43.9,3.773,31.638,3.773Z" transform="translate(-9.432 -3.773)"/><path class="r" d="M51.152,31.574c0-9.759-7.714-17.49-16.947-16.349C27.193,16.112,21.583,22.2,20.882,29.8a16.694,16.694,0,0,0,5.376,14.321A8.294,8.294,0,0,1,28.946,50.2v.38H42.971v-.127a8.4,8.4,0,0,1,2.571-6.083A17.132,17.132,0,0,0,51.152,31.574Z" transform="translate(-13.752 -7.494)"/><path class="q" d="M43.755,56.149H41.418V42.207a1.338,1.338,0,0,1,.256-.792l3.879-5.257-1.8-1.3L40.9,36.925a1.093,1.093,0,0,1-1.3,0l-2.859-2.066-1.8,1.3,3.878,5.257a1.331,1.331,0,0,1,.257.792V56.149H36.743v-13.5l-4.419-5.99a1.352,1.352,0,0,1-.243-.986,1.277,1.277,0,0,1,.507-.861l3.506-2.535a1.093,1.093,0,0,1,1.3,0l2.859,2.066,2.858-2.066a1.093,1.093,0,0,1,1.3,0l3.506,2.535a1.283,1.283,0,0,1,.507.861,1.346,1.346,0,0,1-.242.986l-4.419,5.99Z" transform="translate(-18.043 -13.057)"/><path class="s" d="M43.12,75.455a3.815,3.815,0,1,0,3.506,3.8A3.663,3.663,0,0,0,43.12,75.455Z" transform="translate(-20.914 -27.294)"/><path class="t" d="M43.3,77.429H38.629a4.9,4.9,0,0,1-4.675-5.07V66.023H47.979V72.36A4.9,4.9,0,0,1,43.3,77.429Z" transform="translate(-18.761 -24.199)"/><path class="s" d="M47.979,72.979,34.422,75.006a4.926,4.926,0,0,0,1.87,2.281L47.278,75.64A4.979,4.979,0,0,0,47.979,72.979ZM33.955,70.064V72.6l14.025-2.155V67.909Z" transform="translate(-18.761 -24.818)"/><path class="u" d="M71.672,19.108a6.149,6.149,0,0,0,.117-1.394,5.623,5.623,0,0,0-.117-1.394l2.688-2.155a.887.887,0,0,0,.234-.887L71.906,8.335a.643.643,0,0,0-.818-.253L68.049,9.6a9.436,9.436,0,0,0-2.337-1.521l-.351-3.675a.652.652,0,0,0-.584-.634H59.4a.652.652,0,0,0-.584.634l-.351,3.675a6.458,6.458,0,0,0-2.337,1.394L53.089,7.955a.643.643,0,0,0-.818.253l-2.688,5.07a.887.887,0,0,0,.234.887l2.688,2.155a6.149,6.149,0,0,0-.117,1.394,5.623,5.623,0,0,0,.117,1.394l-2.688,2.155a.887.887,0,0,0-.234.887l2.688,4.943a.643.643,0,0,0,.818.253l3.039-1.521a9.436,9.436,0,0,0,2.337,1.521l.351,3.675a.652.652,0,0,0,.584.634H64.66a.577.577,0,0,0,.584-.634l.351-3.675a9.436,9.436,0,0,0,2.337-1.521l3.039,1.521a.643.643,0,0,0,.818-.253l2.688-4.943c.117-.253.117-.76-.234-.887Zm-9.584,5.2a6.306,6.306,0,0,1-6.077-6.59,6.1,6.1,0,1,1,12.155,0,6.306,6.306,0,0,1-6.077,6.59" transform="translate(-24.689 -3.773)"/><path class="v" d="M65.49,13.2c-3.857,0-7.012,3.422-7.012,7.6s3.156,7.6,7.012,7.6,7.012-3.422,7.012-7.6-3.156-7.6-7.012-7.6m0,11.406a3.6,3.6,0,0,1-3.506-3.8,3.518,3.518,0,1,1,7.012,0,3.6,3.6,0,0,1-3.506,3.8" transform="translate(-28.09 -6.868)"/><path class="q" d="M67.643,18.864a3.663,3.663,0,0,0-3.506,3.8,3.518,3.518,0,1,0,7.012,0A3.663,3.663,0,0,0,67.643,18.864Z" transform="translate(-30.243 -8.725)"/></g></g></g></svg>