<svg xmlns="http://www.w3.org/2000/svg" xmlns:xlink="http://www.w3.org/1999/xlink" width="403" height="349" viewBox="0 0 403 349"><defs><style>.a{fill:#fff;}.b{clip-path:url(#a);}.c{fill:#ebebeb;}.d{fill:#fafafa;}.e{fill:#e0e0e0;}.f{fill:#f5f5f5;}.g{fill:#263238;}.h,.o{fill:#e8505b;}.i{fill:#ffbe9d;}.j{fill:#eb996e;}.k{fill:#455a64;}.l{fill:none;stroke:#fff;stroke-miterlimit:10;stroke-width:0.021px;}.m{opacity:0.3;}.n{opacity:0.2;}.o{font-size:23px;font-family:Bauhaus93, 'Bauhaus \39 3';letter-spacing:0.03em;}</style><clipPath id="a"><rect class="a" width="403" height="349" transform="translate(-1211 6574)"/></clipPath></defs><g transform="translate(-887 -3443)"><g class="b" transform="translate(2098 -3131)"><g transform="translate(-1211 6583.839)"><g transform="translate(2.486 0)"><path class="c" d="M5.719,0,84.376,1.322a5.864,5.864,0,0,1,5.918,5.5l1.247,68.65a5.39,5.39,0,0,1-5.722,5.3L7.162,79.444a5.865,5.865,0,0,1-5.918-5.5L0,5.3A5.39,5.39,0,0,1,5.719,0Z" transform="translate(269.749 19.88) rotate(-12.49)"/><path class="d" d="M423.637,113.065q-.292.094-.594.158l-1.721.38L415,114.973l-21.267,4.451h-.172l-.069-.15c-.4-1.006-.86-2.067-1.282-3.168-3.725-9.21-7.046-17.422-9.223-22.807l.155.071-5.687,1.117-1.514.285a4.282,4.282,0,0,1-.525.071,4.879,4.879,0,0,1,.508-.143l1.506-.341,5.652-1.22h.112l.043.1c2.2,5.361,5.575,13.565,9.36,22.759l1.282,3.168-.232-.119,21.293-4.332,6.349-1.251,1.721-.317A3.1,3.1,0,0,1,423.637,113.065Z" transform="translate(-82.847 -55.052)"/><path class="d" d="M393.484,112.613l.146-.048.43-.1,1.721-.38,6.392-1.378,22.067-4.617-.155.182c-.181-3.556-.37-7.4-.568-11.38-.1-2.051-.2-4.062-.292-5.979l.241.174L397.416,94.4l-7.743,1.536-2.082.4-.542.1a.673.673,0,0,1-.189,0l.181-.055.533-.127,2.073-.459,7.683-1.631,26.016-5.425.241-.055v.23c.095,1.916.2,3.96.3,5.979.189,3.96.379,7.824.551,11.38v.158h-.163l-22.1,4.49-6.418,1.267-1.721.325-.447.071Z" transform="translate(-84.879 -53.967)"/><path class="d" d="M407.645,134.69a4.889,4.889,0,0,0-.327-.626,3.047,3.047,0,0,0-1.445-1.2,3.182,3.182,0,0,0-2.77.214,2.564,2.564,0,0,0-1.242,2.808,2.8,2.8,0,0,0,2.429,2.047,3.075,3.075,0,0,0,2.581-.895,2.722,2.722,0,0,0,.749-1.655c0-.436,0-.689,0-.689a1.321,1.321,0,0,1,.146.689,2.672,2.672,0,0,1-.68,1.829,3.381,3.381,0,0,1-2.882,1.053,3.159,3.159,0,0,1-2.78-2.314,2.89,2.89,0,0,1,1.446-3.182,3.432,3.432,0,0,1,3.089-.158,2.919,2.919,0,0,1,1.463,1.378,1.4,1.4,0,0,1,.224.7Z" transform="translate(-87.451 -64.57)"/><path class="d" d="M431.028,129.444a4.583,4.583,0,0,0-.327-.618,3.086,3.086,0,0,0-5.144-.087,2.532,2.532,0,0,0,.85,3.489,3.069,3.069,0,0,0,3.855-.441,2.694,2.694,0,0,0,.757-1.655v-.689a1.344,1.344,0,0,1,.146.7,2.659,2.659,0,0,1-.688,1.821,3.331,3.331,0,0,1-2.865,1.069,3.16,3.16,0,0,1-2.786-2.31,2.89,2.89,0,0,1,1.444-3.185,3.451,3.451,0,0,1,3.1-.158,2.919,2.919,0,0,1,1.463,1.378,1.4,1.4,0,0,1,.2.689Z" transform="translate(-91.606 -63.299)"/><path class="d" d="M435.147,81.4c1.056,4.34-1.909,8.647-6.624,9.619s-9.394-1.757-10.451-6.1,1.908-8.647,6.622-9.621S434.091,77.061,435.147,81.4Z" transform="translate(-90.382 -50.671)"/><path class="e" d="M431.556,80.608a6.743,6.743,0,0,1-.8,1.5c-.533.9-1.308,2.13-2.177,3.476l-.938,1.433-.095.15-.163-.087a29.636,29.636,0,0,1-3.734-2.059,28.754,28.754,0,0,1,3.923,1.742l-.267.063c.293-.451.6-.934.921-1.441.86-1.346,1.678-2.55,2.28-3.413a7.441,7.441,0,0,1,1.05-1.362Z" transform="translate(-91.411 -52.008)"/><path class="e" d="M73.69,201.827c-1.583-5.179-8.887-4.672-8.887-4.672l.2,3.6c4.224-.673,6.883,3.888,6.883,3.888Z" transform="translate(-27.697 -80.319)"/><path class="e" d="M205.557,121.421c8.474,2.376,13.765-6.628,13.765-6.628l-5.162-2.708c-2.521,5.543-10.986,4.878-10.986,4.878Z" transform="translate(-52.265 -59.655)"/><path class="e" d="M289.893,187.066c-1.635-4.308-7.795-3.524-7.795-3.524l.379,3.033c3.536-.792,6.022,2.954,6.022,2.954Z" transform="translate(-66.278 -77.002)"/><path class="e" d="M171.71,53.959c-1.635-4.3-7.795-3.516-7.795-3.516l.379,3.033c3.536-.792,6.022,2.954,6.022,2.954Z" transform="translate(-45.295 -44.665)"/><path class="c" d="M82.44,126.668c-1.635-4.3-7.795-3.524-7.795-3.524l.379,3.041c3.536-.792,6.022,2.954,6.022,2.954Z" transform="translate(-29.445 -62.328)"/><path class="c" d="M64.253,74.7c-4.887.736-5.162,6.454-5.162,6.454l3.321.182C62.2,78,66.619,76.393,66.619,76.393Z" transform="translate(-26.683 -50.572)"/><path class="c" d="M22.07,248.463c8.474,2.376,13.765-6.628,13.765-6.628l-5.162-2.708C28.152,244.67,19.687,244,19.687,244Z" transform="translate(-19.687 -90.52)"/><path class="e" d="M315.022,123.419c.576-3.611-4.1-5.163-4.1-5.163l-.964,2.281c2.822.665,3.08,4.158,3.08,4.158Z" transform="translate(-71.224 -61.154)"/><path class="c" d="M281.435,72.669c-3.3,2.019-1.428,6.264-1.428,6.264l2.478-.863c-1.342-2.376,1.308-4.886,1.308-4.886Z" transform="translate(-65.813 -50.079)"/><path class="f" d="M437.037,132.942l-11.442,31.019,33.836,6.185,1.944-32.753Z" transform="translate(-78.051 -29.498)"/><path class="a" d="M477.167,189.711c.043,0-.06.348-.379.887a9.574,9.574,0,0,1-5.308,4.142,10.892,10.892,0,0,1-5.162.245,10.766,10.766,0,0,1-4.723-1.956,7.551,7.551,0,0,1-2.418-3.168,7.8,7.8,0,0,1-.585-2.558,2.019,2.019,0,0,1,.077-.95,13.919,13.919,0,0,0,.921,3.358,7.724,7.724,0,0,0,2.383,2.93,11.623,11.623,0,0,0,9.326,1.608,9.57,9.57,0,0,0,3.441-1.837,16.773,16.773,0,0,0,2.426-2.7Z" transform="translate(-97.61 -77.698)"/></g><g transform="translate(0 327.032)"><path class="g" d="M410.811,475.017c0,.111-88.234.206-197.065.206s-197.082-.1-197.082-.206,88.217-.206,197.082-.206S410.811,474.883,410.811,475.017Z" transform="translate(-16.664 -474.811)"/></g><g transform="translate(14.273 82.886)"><rect class="d" width="209.789" height="151.176" transform="translate(0.206 0.182)"/><path class="g" d="M244.013,303.665c0-1.418-.069-59.971-.181-151.168l.181.166H34.241l.224-.206V303.625l-.2-.182,209.789.182-209.832.253h-.206V152.315h210.2v.174C244.091,243.693,244.013,302.247,244.013,303.665Z" transform="translate(-34.017 -152.315)"/><path class="h" d="M160.314,219.229c-9.213,0-16.682-6.875-16.682-15.355s7.469-15.355,16.682-15.355S177,195.393,177,203.874,169.523,219.22,160.314,219.229Zm0-29.119c-8.264,0-14.963,6.167-14.961,13.774s6.7,13.77,14.964,13.769,14.963-6.173,14.958-13.779-6.7-13.767-14.961-13.771Z" transform="translate(-53.48 -161.111)"/><path class="h" d="M161.367,212.007a.9.9,0,0,1-.568-.2,54.9,54.9,0,0,1-4.3-3.674.753.753,0,0,1,.224-1.1.908.908,0,0,1,1.2.206c.232.269,1.815,1.584,3.441,2.9l8.448-7.373a.914.914,0,0,1,1.213,0,.748.748,0,0,1,0,1.124l-9.051,7.9A.9.9,0,0,1,161.367,212.007Z" transform="translate(-55.737 -164.516)"/><path class="g" d="M244.171,171.988c0,.119-46.853.206-104.624.206s-104.641-.087-104.641-.206,46.836-.206,104.641-.206S244.171,171.877,244.171,171.988Z" transform="translate(-34.175 -157.044)"/><ellipse class="g" cx="1.222" cy="1.125" rx="1.222" ry="1.125" transform="translate(6.409 6.232)"/><ellipse class="g" cx="1.222" cy="1.125" rx="1.222" ry="1.125" transform="translate(10.952 6.232)"/><path class="g" d="M55.207,161.642a1.234,1.234,0,0,1-2.435,0,1.1,1.1,0,0,1,.577-1.052,1.312,1.312,0,0,1,1.28,0A1.1,1.1,0,0,1,55.207,161.642Z" transform="translate(-37.347 -154.285)"/></g><g transform="translate(74.955 58.171)"><path class="i" d="M455.761,281.533s10.436-5.844,12.793-4.126a13.522,13.522,0,0,1,4.525,6.668s5.515-19.362,10.78-18.626c3.02.42,1.54,2.582.181,5.306-1.256,2.518-3.441,11.784-3.441,11.784s9.98-10.9,12.9-10.7c2.271.15,2.581,1.988-.671,4.934S484.221,289,484.221,289s6.986-6,9.877-6.034c2.306,0,3.794,1.449.809,3.825s-7.493,4.173-9.894,8.481c-2.968,5.314-9.291,18.547-9.291,18.547l-22.127-7.206s-3.6-13.518-3.751-16.8c0,0,.3-6.937.258-8.173s3.519-1.584,4.6.792.585,4.862,1.024,6.438a6.013,6.013,0,0,0,2.478,3.746c1.256.713,4.439.752,5.257-.119a11.969,11.969,0,0,0,2.013-4.973,20.872,20.872,0,0,0-.06-4.031S456.209,286.957,455.761,281.533Z" transform="translate(-168.529 -155.08)"/><path class="i" d="M146.364,364.4l-15.383-5.314s-15.658-8.434-18.557-5.44a3.47,3.47,0,0,0-2.651-.088,3.08,3.08,0,0,0-1.822,1.775c-.8,1.758,1.832,4.316,1.832,4.316s-.86.792.482,3.35,16.157,10.746,16.157,10.746,19.323,9.7,27.134,14.334L167.038,371.2l-1.876-.641s-1.11-8.41-4.852-10.651c-4.069-2.447-8.982-9.044-10.057-11.633s-6.272-1.394-5.4,3.96,5.4,6.771,4.973,10.35S146.364,364.4,146.364,364.4Z" transform="translate(-107.799 -174.889)"/><path class="j" d="M123.176,370.411a66.338,66.338,0,0,1-6.685-3.215,64.134,64.134,0,0,1-6.478-3.579,69.126,69.126,0,0,1,6.693,3.215,64.5,64.5,0,0,1,6.47,3.579Z" transform="translate(-108.192 -178.935)"/><path class="j" d="M131.292,364.529a20.3,20.3,0,0,1-2.762-1.006c-1.721-.673-3.992-1.647-6.487-2.819q-3.2-1.488-6.229-3.271c-.766-.467-1.377-.855-1.781-1.148a3.112,3.112,0,0,1-.611-.483c.017-.024.989.523,2.581,1.378s3.777,1.988,6.263,3.168,4.766,2.178,6.409,2.914a20.2,20.2,0,0,1,2.615,1.267Z" transform="translate(-108.798 -177.037)"/><path class="j" d="M136.208,374.176a10.64,10.64,0,0,1-1.368-.681l-3.622-1.988h0v-.048a45.034,45.034,0,0,0-2.581-4.6,11.638,11.638,0,0,0-1.953-2.376,2.636,2.636,0,0,0-3.028-.206,1.682,1.682,0,0,0-.49.4.241.241,0,0,1,0,.1l.06.174a1.191,1.191,0,0,0,.129.356c.189.475.4.934.594,1.394l1.179,2.645c.757,1.679,1.463,3.223,2.073,4.569v-.048l2.985,3.318c.336.364.6.673.86.926a1.661,1.661,0,0,1,.267.341,1.719,1.719,0,0,1-.336-.285l-.86-.871c-.86-.792-1.9-1.916-3.209-3.239h0c-.645-1.315-1.368-2.851-2.151-4.538l-1.2-2.645c-.2-.459-.4-.919-.594-1.4a3.858,3.858,0,0,1-.146-.372l-.06-.19a1.25,1.25,0,0,1-.052-.277.906.906,0,0,1,.318-.42,2.2,2.2,0,0,1,.284-.333,3.086,3.086,0,0,1,3.553.253,11.085,11.085,0,0,1,2.022,2.487,39.26,39.26,0,0,1,2.581,4.68l-.06-.071,3.545,2.106A10.35,10.35,0,0,1,136.208,374.176Z" transform="translate(-110.445 -178.891)"/><path class="j" d="M155.164,377.3a10.2,10.2,0,0,1-1.893-.428,20.212,20.212,0,0,0-4.542-.736,8.888,8.888,0,0,0-4.388.99c-1.007.554-1.454,1.125-1.514,1.069a3.342,3.342,0,0,1,1.342-1.315,8.388,8.388,0,0,1,4.568-1.156,16.653,16.653,0,0,1,4.629.871A8.312,8.312,0,0,1,155.164,377.3Z" transform="translate(-114.019 -181.876)"/><path class="j" d="M156.118,372.872c.095.071-.284.681-.654,1.473s-.611,1.457-.74,1.433a2.218,2.218,0,0,1,.327-1.584C155.447,373.339,156.023,372.8,156.118,372.872Z" transform="translate(-116.125 -181.182)"/><path class="g" d="M264.141,251.945c1.067-6.676,9.507-16.242,16.974-16.25a16.593,16.593,0,0,1-.163-19.521c2.882-3.96,7.536-6.882,9.464-11.285,2.228-4.981.516-10.6.731-15.973.31-7.856,4.749-15.046,9.076-21.849,3.957-6.248,8.784-13.1,16.578-14.635,4.93-.974,10.04.459,14.668,2.273,22.153,8.711,39.377,26.988,45.287,48.116,1.42,5.06,2.366,10.532,6.194,14.444,4.052,4.134,11.184,6.383,12.38,11.8.86,3.88-1.841,7.784-1.437,11.736.344,3.3,7.072,12.94,8.6,15.949,2.667,5.187,1.721,10.786-1.015,15.949s-9.644,10.2-15.787,11.6l-68.654-21.057c-6.461,3.389-12.9,16.48-20.312,17.287s-16.458,3.769-23.59-3.413C265.716,269.589,263.083,258.613,264.141,251.945Z" transform="translate(-135.518 -127.552)"/><path class="g" d="M398.774,200.956c-.774,5.282.8,14.025,3.94,18.547,2.108,3.033,5.626,5,9.1,6.739s7.1,3.4,9.73,6.082,4.044,6.692,2.28,9.9c6.186,2.122,8.965,9.376,6.693,14.991s-8.491,9.376-14.987,10.5l-28.322-7.84-6.22-33.26,16.346-25.658" transform="translate(-156.305 -139.417)"/><path class="k" d="M406.839,245.748a3.287,3.287,0,0,1,.551.222,15.874,15.874,0,0,1,1.549.736,20.4,20.4,0,0,1,4.964,3.809,20.189,20.189,0,0,1,4.706,7.816,17.752,17.752,0,0,1,.077,11.087l-.1-.245a21.219,21.219,0,0,1,4.6,3.223,19.236,19.236,0,0,1,6.177,11.609,17.7,17.7,0,0,1-2.03,10.429,19.913,19.913,0,0,1-4.646,5.757,16.572,16.572,0,0,1-1.652,1.235,5.435,5.435,0,0,1-.611.38,3.631,3.631,0,0,1,.559-.444c.379-.269.921-.713,1.583-1.291a20.448,20.448,0,0,0,4.482-5.765,17.552,17.552,0,0,0,1.9-10.295,18.947,18.947,0,0,0-6.082-11.285,20.557,20.557,0,0,0-4.5-3.168l-.163-.079.06-.158a17.56,17.56,0,0,0,0-10.873,20.143,20.143,0,0,0-4.551-7.745,20.752,20.752,0,0,0-4.826-3.857,16.6,16.6,0,0,0-1.5-.792A3.509,3.509,0,0,1,406.839,245.748Z" transform="translate(-160.894 -150.299)"/><path class="h" d="M279.391,291.241s-12.655,3.54-17.086,9.5c-3.14,4.205-35.273,68.239-35.273,68.239L178.268,355.52l-17.439,21.2L215.09,404.4a35.55,35.55,0,0,0,32.305-.127h0a31.753,31.753,0,0,0,13.025-12.4l13.765-24.335Z" transform="translate(-117.215 -161.351)"/><path class="h" d="M288.619,427.055l7.614-30.211-5.773-21.936c-3.708-11.293-6.883-29.7-2.856-44.513l13.481-42.613,14.823-6.28,33.94-5.345c1.308.4,35.488,9.281,35.488,9.281a57.3,57.3,0,0,1,6.624,1.7l3.923,23.33L384.1,348.925l-5.162,38.3,11.27,39.849Z" transform="translate(-139.391 -157.687)"/><path class="l" d="M286.178,351.325" transform="translate(-139.471 -175.949)"/><path class="l" d="M382.853,355.049" transform="translate(-156.636 -176.854)"/><path class="i" d="M313.014,286.215l9.842-4.055,44.35.57,10.487,5.607s-36.633,37.22-45.829,38.455C308.73,329.881,313.014,286.215,313.014,286.215Z" transform="translate(-144.18 -159.146)"/><path class="h" d="M410.188,290.215s6.65,1.378,12.337,12.56,14.9,42.3,14.9,42.3l3.94-32.975,32.064,3.247-6.211,78.819s-11.339,15.149-30.326,13.748-43.076-56.622-43.076-56.622Z" transform="translate(-158.582 -161.102)"/><path class="g" d="M440.761,392.369a.634.634,0,0,1,0-.19v-.562c0-.523.077-1.243.138-2.146.12-1.861.361-4.553.7-7.872.671-6.644,1.893-15.838,3.39-25.88s2.77-19.228,3.519-25.864c.379-3.318.671-6,.86-7.856.095-.9.172-1.584.224-2.138a3.845,3.845,0,0,1,.069-.554.5.5,0,0,1,.043-.19.632.632,0,0,1,0,.19v.554c0,.531-.086,1.243-.146,2.146-.12,1.861-.361,4.553-.7,7.879-.671,6.644-1.893,15.8-3.39,25.888s-2.77,19.22-3.519,25.848c-.379,3.318-.662,6-.86,7.864-.095.9-.163,1.584-.224,2.138a4,4,0,0,1-.069.554A.675.675,0,0,1,440.761,392.369Z" transform="translate(-166.916 -168.124)"/><path class="g" d="M241.435,410.975a2.455,2.455,0,0,1-.353-.586,16.251,16.251,0,0,1-.74-1.7,23.5,23.5,0,0,1-1.265-11.95,16.121,16.121,0,0,1,.379-1.8,2.312,2.312,0,0,1,.224-.641,24.882,24.882,0,0,1-.284,2.479,28.332,28.332,0,0,0,0,5.963,29.062,29.062,0,0,0,1.265,5.86C241.133,410.1,241.5,410.975,241.435,410.975Z" transform="translate(-131.059 -186.389)"/><path class="g" d="M247.041,411.441a5.5,5.5,0,0,1-.559-.586,20.329,20.329,0,0,1-1.342-1.75,29.469,29.469,0,0,1-3.338-6.335,27.958,27.958,0,0,1-1.66-6.89c-.095-.895-.138-1.623-.138-2.13a2.7,2.7,0,0,1,.052-.792c.077,0,.129,1.109.4,2.883a34.04,34.04,0,0,0,1.772,6.787,35.87,35.87,0,0,0,3.183,6.335A26.976,26.976,0,0,1,247.041,411.441Z" transform="translate(-131.271 -186.064)"/><path class="g" d="M292.824,324.275a5.184,5.184,0,0,1-.163.641c-.138.443-.318,1.045-.551,1.806-.49,1.584-1.187,3.872-2.048,6.644a137.238,137.238,0,0,0-5.093,22.245,48.675,48.675,0,0,0,2.048,22.514c.9,2.788,1.764,5.013,2.349,6.549l.68,1.774a2.979,2.979,0,0,1,.206.626,4.58,4.58,0,0,1-.292-.594l-.757-1.75c-.637-1.521-1.54-3.73-2.495-6.517a46.971,46.971,0,0,1-2.211-22.593,127.288,127.288,0,0,1,5.239-22.276c.86-2.8,1.652-5.052,2.185-6.612.258-.744.473-1.338.628-1.79A3.019,3.019,0,0,1,292.824,324.275Z" transform="translate(-139.088 -169.377)"/><path class="g" d="M400.946,368.618a.779.779,0,0,1-.12-.2l-.3-.586c-.267-.546-.637-1.3-1.118-2.265s-1.075-2.194-1.721-3.6l-2.108-4.854c-.757-1.8-1.48-3.809-2.314-5.955-.37-1.085-.748-2.209-1.136-3.366-.2-.578-.387-1.172-.585-1.766s-.353-1.212-.525-1.829a74.815,74.815,0,0,1-3.037-16.4,43.842,43.842,0,0,1,1.858-16.527,28.713,28.713,0,0,1,7.1-11.879,24.847,24.847,0,0,1,8.01-5.4,20.224,20.224,0,0,1,2.538-.871l.68-.174.232-.04-.224.087-.662.206a24.7,24.7,0,0,0-2.495.934,25.407,25.407,0,0,0-7.846,5.456,28.68,28.68,0,0,0-6.934,11.76,43.842,43.842,0,0,0-1.807,16.393,76.475,76.475,0,0,0,2.985,16.321q.258.927.516,1.829l.576,1.766c.379,1.156.749,2.281,1.11,3.366.817,2.138,1.523,4.15,2.263,5.955s1.437,3.429,2.039,4.862,1.2,2.637,1.652,3.635l1.041,2.3.258.6a.625.625,0,0,1,.077.245Z" transform="translate(-157.522 -161.756)"/><g class="m" transform="translate(228.312 171.156)"><path d="M388.261,345.75c-4.19,18.253-4.241,37.03,2.968,54.468.422,1.014,2.082,4.609,3.252,4.656,1.488.071,2.194-1.639,2.452-2.986.533-2.78.86-7.349,1.385-10.129.662-3.484,1.566-11.538,1.566-11.538s-3.441-7.3-4.99-11.213a104.61,104.61,0,0,1-6.547-22.68" transform="translate(-385.399 -345.75)"/></g><path class="g" d="M373.2,439.162a2.137,2.137,0,0,1-.327.475c-.267.333-.6.792-1.032,1.323l-.757.95c-.284.341-.628.681-.981,1.061a34.265,34.265,0,0,1-2.512,2.518l-1.54,1.386c-.542.475-1.161.919-1.772,1.4q-1.975,1.533-4.112,2.875a55.526,55.526,0,0,1-21.869,7.84c-1.807.2-3.519.428-5.162.451-.809,0-1.592.087-2.34.071l-2.159-.063a36.391,36.391,0,0,1-3.691-.285c-.542-.063-1.05-.1-1.506-.174l-1.256-.23-1.721-.325a3.109,3.109,0,0,1-.594-.151,4.323,4.323,0,0,1,.611.063l1.721.253,1.256.2c.465.055.964.087,1.506.135q1.833.2,3.682.222l2.142.04c.74,0,1.514-.071,2.314-.1a46.429,46.429,0,0,0,5.093-.483,56.762,56.762,0,0,0,21.706-7.784c1.471-.966,2.9-1.845,4.1-2.819.611-.475,1.239-.911,1.781-1.378s1.058-.927,1.549-1.362a33.9,33.9,0,0,0,2.581-2.455c.361-.372.714-.7,1.007-1.037l.749-.9,1.093-1.275a4.4,4.4,0,0,1,.439-.444Z" transform="translate(-145.453 -197.289)"/><path class="g" d="M373.464,423.21a2.967,2.967,0,0,1-.112.863,19.025,19.025,0,0,1-.6,2.3,26.436,26.436,0,0,1-3.562,7.127,28.887,28.887,0,0,1-5.592,5.9,20.155,20.155,0,0,1-2.048,1.441,3.51,3.51,0,0,1-.809.451c-.043-.055,1.05-.792,2.65-2.114a30.364,30.364,0,0,0,9.059-12.876C373.128,424.406,373.386,423.194,373.464,423.21Z" transform="translate(-152.709 -193.413)"/><path class="h" d="M357.182,145.861c12.271.082,23.592,6.1,29.8,15.839a29.878,29.878,0,0,1,.5,31.675c-1.97,3.3-4.809,6.43-8.706,7.579,1.209-19.223-6.749-37.976-21.792-51.355" transform="translate(-152.042 -126.031)"/><path class="h" d="M374.159,143.726c-1.781-3.413.12-7.682,3.3-10.089s7.321-3.366,11.322-4.253,8.139-1.79,11.391-4.11c-.465,5.931-2.073,12.037-6.237,16.575s-11.4,7.072-17.353,4.751" transform="translate(-154.97 -121.03)"/><path class="h" d="M375.456,146.276a9.728,9.728,0,0,1-8.448-1.148,18.13,18.13,0,0,1-5.644-6.248,25.45,25.45,0,0,1-3.656-9.455,14.753,14.753,0,0,1,1.815-9.756c4.706,4.617,9.894,8.5,12.587,14.326a15.985,15.985,0,0,1-.31,12.29" transform="translate(-152.137 -119.668)"/><path class="g" d="M394.042,180.171a5.972,5.972,0,0,1,.232,1.1c.06.356.129.792.172,1.307s.129,1.093.146,1.742a31.819,31.819,0,0,1-.095,4.538,36.265,36.265,0,0,1-.946,5.5,37.6,37.6,0,0,1-1.841,5.306,35.862,35.862,0,0,1-2.142,4.094c-.327.57-.688,1.053-.981,1.489a11.8,11.8,0,0,1-.792,1.093,6.529,6.529,0,0,1-.748.887,5.557,5.557,0,0,1,.6-.974c.206-.3.456-.673.723-1.124s.611-.934.912-1.513a38.106,38.106,0,0,0,2.039-4.094,36.613,36.613,0,0,0,2.951-15.189c0-.641-.052-1.22-.077-1.734s-.06-.942-.095-1.307a4.967,4.967,0,0,1-.06-1.117Z" transform="translate(-157.38 -134.367)"/><path class="g" d="M388.862,148a6.049,6.049,0,0,1-.955.7,10.747,10.747,0,0,1-3.106,1.109,26.257,26.257,0,0,1-10.986-.578h-.12v-.111c-.052-.238-.112-.5-.181-.752a16.438,16.438,0,0,1-.284-5.892,9.591,9.591,0,0,1,1.807-4.514,8.946,8.946,0,0,1,2.581-2.249,7.246,7.246,0,0,1,1.161-.523,7.736,7.736,0,0,1-1.1.6,9,9,0,0,0-4.043,6.684,16.561,16.561,0,0,0,.31,5.757c.06.245.12.5.181.729l-.155-.15a27.333,27.333,0,0,0,10.8.7,12.128,12.128,0,0,0,3.089-.966,6.572,6.572,0,0,1,1.007-.538Z" transform="translate(-154.901 -123.439)"/><path class="g" d="M392.568,138.555c0,.079-1.256.245-3.235.792a31.6,31.6,0,0,0-3.372,1.156,27.505,27.505,0,0,0-7.356,4.435,26.06,26.06,0,0,0-2.495,2.376c-1.325,1.449-2,2.455-2.065,2.376a2.934,2.934,0,0,1,.422-.736,15.87,15.87,0,0,1,1.394-1.861,24.316,24.316,0,0,1,2.46-2.487,25.732,25.732,0,0,1,7.468-4.506,25.426,25.426,0,0,1,3.441-1.085,19.09,19.09,0,0,1,2.409-.436,4.511,4.511,0,0,1,.929-.024Z" transform="translate(-155.072 -124.253)"/><path class="g" d="M376.714,152.617a.687.687,0,0,1,0,.238,3.194,3.194,0,0,1-.232.657,5.232,5.232,0,0,1-1.721,1.98,6.286,6.286,0,0,1-3.863,1.148,5.934,5.934,0,0,1-4.258-2.307,5.009,5.009,0,0,1-.8-4.488,5.563,5.563,0,0,1,2.581-2.906,5.9,5.9,0,0,1,2.581-.744,3.845,3.845,0,0,1,.749.04c.163,0,.249.04.249.055s-.361,0-.989.063a5.764,5.764,0,0,0-4.8,3.6,4.722,4.722,0,0,0,.767,4.162,5.583,5.583,0,0,0,3.931,2.174,6.057,6.057,0,0,0,3.648-1.006,5.565,5.565,0,0,0,1.721-1.813C376.584,152.926,376.662,152.609,376.714,152.617Z" transform="translate(-153.576 -126.112)"/><path class="g" d="M366.395,154.315c-.043,0-.293-.428.112-1.045a1.886,1.886,0,0,1,1.024-.736,4.067,4.067,0,0,1,1.531-.15,7.5,7.5,0,0,1,3.656,1.006c-.052.111-1.635-.459-3.682-.594a2.618,2.618,0,0,0-2.271.641A2.049,2.049,0,0,0,366.395,154.315Z" transform="translate(-153.693 -127.612)"/><path class="g" d="M359.573,119.668a9.03,9.03,0,0,0-1.316,3.381,21.951,21.951,0,0,0-.207,3.96,23.857,23.857,0,0,0,.465,4.751,22.714,22.714,0,0,0,3.674,8.014c.7.927,1.308,1.639,1.721,2.122a8.178,8.178,0,0,1,.688.752,11.985,11.985,0,0,1-2.693-2.7,21.327,21.327,0,0,1-3.854-8.109,22.314,22.314,0,0,1-.439-4.87,19.715,19.715,0,0,1,.31-3.96,7.45,7.45,0,0,1,.981-2.542,2.694,2.694,0,0,1,.671-.8Z" transform="translate(-152.153 -119.668)"/><path class="g" d="M365.414,132.074a6.144,6.144,0,0,1,1.2,1.354,22.648,22.648,0,0,1,2.288,3.667,21.608,21.608,0,0,1,1.514,4,5.805,5.805,0,0,1,.293,1.734c-.138,0-.723-2.59-2.211-5.543S365.294,132.153,365.414,132.074Z" transform="translate(-153.538 -122.682)"/><path class="g" d="M363.648,138.59c.086-.071,1.54,1.275,3.441,2.843a25.29,25.29,0,0,1,3.321,2.978,21.858,21.858,0,0,1-3.622-2.669A14.715,14.715,0,0,1,363.648,138.59Z" transform="translate(-153.226 -124.264)"/><path class="d" d="M387.609,163.183a.561.561,0,0,1-.129.111l-.379.3c-.327.253-.86.6-1.463,1.006a23.5,23.5,0,0,1-11.348,3.429H371.8a.748.748,0,0,1,.172,0h.5c.43,0,1.05,0,1.815-.048a24.823,24.823,0,0,0,11.287-3.413c.645-.38,1.153-.713,1.488-.958l.4-.269a.5.5,0,0,1,.146-.158Z" transform="translate(-154.672 -130.24)"/><path class="d" d="M393.784,175.788a.56.56,0,0,1-.129.111l-.379.293c-.336.261-.86.6-1.48,1.006a25.388,25.388,0,0,1-5.386,2.5,26.73,26.73,0,0,1-5.885,1.235,17.742,17.742,0,0,1-1.824.1h-.009a18.155,18.155,0,0,0,1.815-.15,27.737,27.737,0,0,0,11.184-3.722c.645-.38,1.161-.713,1.506-.95l.4-.269Z" transform="translate(-155.779 -133.302)"/><path class="d" d="M393.112,194.261a2.178,2.178,0,0,1-.361.245c-.241.15-.6.348-1.058.586a18.112,18.112,0,0,1-3.785,1.37,18.353,18.353,0,0,1-4.035.507q-.615.029-1.23,0l-.447-.048a2.008,2.008,0,0,1,.447,0h1.23a19.941,19.941,0,0,0,7.76-1.869c.465-.214.86-.4,1.084-.531A1.526,1.526,0,0,1,393.112,194.261Z" transform="translate(-156.519 -137.79)"/><path class="d" d="M398.516,191.426a4.6,4.6,0,0,1-1.161.285,4.133,4.133,0,0,1-1.2.127,4.36,4.36,0,0,1,1.161-.285,4.114,4.114,0,0,1,1.2-.127Z" transform="translate(-158.998 -137.101)"/><path class="d" d="M387.8,213.056a6.531,6.531,0,0,1-1.962.1,6.32,6.32,0,0,1-1.927-.356c0-.048.86.119,1.944.19S387.8,213.009,387.8,213.056Z" transform="translate(-156.823 -142.291)"/><path class="d" d="M368.28,158.445a5.539,5.539,0,0,1-1.153.673,5.376,5.376,0,0,1-1.23.531,5.324,5.324,0,0,1,1.144-.673A5.529,5.529,0,0,1,368.28,158.445Z" transform="translate(-153.625 -129.089)"/><path class="d" d="M362.589,147.493a16.106,16.106,0,0,0-2.538,1.259,15.1,15.1,0,0,0-2.125,1.79,2.638,2.638,0,0,1,.5-.641,8.438,8.438,0,0,1,3.338-2.186,3.422,3.422,0,0,1,.826-.222Z" transform="translate(-152.21 -126.428)"/><path class="d" d="M372.868,158.122a9.979,9.979,0,0,0,0-2.376,10.577,10.577,0,0,0-.705-2.312,2.028,2.028,0,0,1,.379.618,5.628,5.628,0,0,1,.482,3.4A2.214,2.214,0,0,1,372.868,158.122Z" transform="translate(-154.737 -127.871)"/><path class="d" d="M399.942,125.526a10.176,10.176,0,0,1-.946.927,18.7,18.7,0,0,1-2.977,2.106,39.118,39.118,0,0,1-4.947,2.376c-1.91.792-4.061,1.584-6.237,2.518a24.647,24.647,0,0,0-5.7,3.35,13.4,13.4,0,0,0-3.347,4.015,8.826,8.826,0,0,0-1.024,3.286,5.33,5.33,0,0,0,0,1.259v-.325a7.017,7.017,0,0,1,0-.942,8.8,8.8,0,0,1,.972-3.326,13.4,13.4,0,0,1,3.355-4.078,24.607,24.607,0,0,1,5.738-3.389c2.185-.966,4.3-1.734,6.254-2.5a40.4,40.4,0,0,0,4.938-2.312,19.927,19.927,0,0,0,3-2.059c.318-.277.568-.491.731-.649Z" transform="translate(-155.192 -121.091)"/><path class="d" d="M398.827,137.921a1.01,1.01,0,0,1-.112.182c-.112.15-.224.317-.361.491-.3.436-.792,1.037-1.42,1.766a33.759,33.759,0,0,1-12.32,8.806,16.7,16.7,0,0,1-2.211.792l-.611.2a1.075,1.075,0,0,1-.215.055.772.772,0,0,1,.207-.087l.594-.23c.525-.182,1.273-.483,2.177-.879a35.68,35.68,0,0,0,12.285-8.774c.637-.7,1.136-1.3,1.463-1.718l.387-.483Z" transform="translate(-156.409 -124.103)"/><path class="d" d="M358.888,123.224a16.763,16.763,0,0,1,2.581,1.267,20.325,20.325,0,0,1,8.715,10.121,14.52,14.52,0,0,1,.748,2.629,1,1,0,0,1-.069-.182l-.146-.515a18,18,0,0,0-.654-1.893,21.021,21.021,0,0,0-8.672-10.057,19.877,19.877,0,0,0-1.841-1.014l-.516-.261A.76.76,0,0,1,358.888,123.224Z" transform="translate(-152.38 -120.532)"/><path class="g" d="M303.646,162.556c.336,4.2-2.676,7.919-5.7,11.087s-6.409,6.43-7.072,10.6c-1.161,7.389,6.693,14.254,5.076,21.548-.86,3.92-4.353,7.064-4.973,11.015-.6,3.833,1.626,7.579,4.388,10.493s5.962,2.487,8.4,5.63a33.768,33.768,0,0,0,10.6,8.671c8.8,4.435,19.366-1.988,23.607-3.168" transform="translate(-140.283 -130.087)"/><path class="g" d="M372.944,173.357c4.052-1.631,4.37-15.007-5.8-16.551-4.086-.626-7.485-2.455-10.917-4.585-3.037-1.877-3.94-6.66-6.513-9.059a26.985,26.985,0,0,0-24.83-6.151c-8.876,2.229-15.756,8.692-18,16.906-1.48,5.425-.473,11.831,4.173,15.434,5.386,4.181,13.378,3.255,20.278,1.956s14.686-2.59,20.484,1.156c3.441,2.249,5.472,5.908,7.6,9.3s4.792,6.85,8.81,8.117c0,0,3.054,6.62.559,11.229s2.934-3.247,2.934-3.247,9.911-16.218,1.222-24.494" transform="translate(-143.036 -123.68)"/><path class="i" d="M320.532,273.191c-.052-8.711,0-33.26,0-33.221s-15.073-2.336-18.153-20.455c-1.531-9.012-1.007-23.757-.146-35.842.766-10.865,8.6-24.177,20.381-23.013l36.7,8.624a6.54,6.54,0,0,1,6.177,6.47h0L363.256,259.7Z" transform="translate(-142.174 -129.61)"/><path class="g" d="M310.006,204.081a2.412,2.412,0,0,0,2.426,2.376,2.552,2.552,0,0,0,1.765-.549,2.164,2.164,0,0,0,.816-1.541,2.42,2.42,0,0,0-2.426-2.376,2.552,2.552,0,0,0-1.765.549,2.164,2.164,0,0,0-.816,1.541Z" transform="translate(-143.701 -139.667)"/><path class="g" d="M306.609,200.458c.31.3,2.228-1,4.947-.982s4.7,1.259,4.99.958c.146-.135-.172-.681-1.032-1.267a7.3,7.3,0,0,0-4-1.14,6.976,6.976,0,0,0-3.932,1.156C306.738,199.769,306.454,200.316,306.609,200.458Z" transform="translate(-143.091 -138.705)"/><path class="g" d="M339.06,205.717c.318.3,2.228-1,4.947-.982s4.7,1.259,5,.958c.146-.135-.172-.681-1.041-1.267a7.386,7.386,0,0,0-4-1.148,7.056,7.056,0,0,0-3.932,1.164C339.2,205.028,338.939,205.575,339.06,205.717Z" transform="translate(-148.855 -139.981)"/><path class="g" d="M325.551,219.7a20.15,20.15,0,0,0-4.413-.736c-.688-.071-1.351-.2-1.463-.634a3.054,3.054,0,0,1,.465-1.893c.662-1.544,1.342-3.168,2.065-4.854,2.865-6.913,4.938-12.6,4.637-12.671s-2.873,5.417-5.738,12.33c-.688,1.7-1.351,3.334-1.97,4.886a3.41,3.41,0,0,0-.37,2.5,1.68,1.68,0,0,0,1.136.934,5.328,5.328,0,0,0,1.179.158C323.83,219.838,325.542,219.846,325.551,219.7Z" transform="translate(-145.24 -138.921)"/><path class="j" d="M324.662,263.386a53.5,53.5,0,0,0,26.369-6.414c-.224.04-7.253,12.583-26.111,10.691Z" transform="translate(-146.304 -153.026)"/><path class="j" d="M327.98,234.564c-.327-1.544,1.643-2.043,3.089-2.867s2.271-1.924,3.631-.982a4.947,4.947,0,0,1,1.669,2.162,2.792,2.792,0,0,1-.938,3.619,5.954,5.954,0,0,1-2.951,1.418,4.408,4.408,0,0,1-3.192-.689,2.862,2.862,0,0,1-1.213-2.74" transform="translate(-146.886 -146.559)"/><path class="g" d="M334.871,228.687c-.439,0-.456,2.685-2.977,4.609s-5.67,1.584-5.7,2c0,.166.705.523,2.03.562a7.8,7.8,0,0,0,4.749-1.513,5.769,5.769,0,0,0,2.306-3.865C335.4,229.344,335.078,228.671,334.871,228.687Z" transform="translate(-146.577 -146.154)"/><path class="g" d="M338.571,198.521c.267.681,2.985.364,6.169.729s5.756,1.164,6.186.554c.189-.293-.258-.934-1.3-1.584a11.57,11.57,0,0,0-9.4-.974C339.053,197.665,338.459,198.243,338.571,198.521Z" transform="translate(-148.771 -138.375)"/><path class="g" d="M307.063,188.989c.473.57,2.349,0,4.594-.04s4.155.388,4.594-.206c.2-.285-.1-.855-.938-1.394a7.14,7.14,0,0,0-7.4.2C307.115,188.126,306.856,188.712,307.063,188.989Z" transform="translate(-143.167 -135.883)"/><path class="g" d="M371.249,228.625c-5.411,1.006-5.893-1.528-9.937-4.989a15.628,15.628,0,0,1-5.437-13.8c.611-4.451,3.218-8.972,1.54-13.185-2.211-5.543-10.685-7.278-12.9-12.829-1.308-3.231-.129-7.008-1.617-10.168-1.394-2.978-4.792-4.688-8.1-5.789s-6.883-1.869-9.636-3.857-4.508-5.741-2.719-8.529a199.645,199.645,0,0,1,43.016,9.622c3.218,1.1,6.59,2.431,8.483,5.052,2.013,2.78,1.919,6.375,1.721,9.709q-1.239,24.391-2.469,48.782" transform="translate(-145.779 -128.37)"/><path class="k" d="M383.842,220.588a1.8,1.8,0,0,0,.215-.23,5.552,5.552,0,0,0,.542-.721,9.1,9.1,0,0,0,1.3-3.168,10.378,10.378,0,0,0-4.9-11.015c-2.331-1.513-5.377-2.574-7.3-4.981a5.117,5.117,0,0,1-1.067-4.253,22.53,22.53,0,0,1,1.721-4.7,12.523,12.523,0,0,0-.258-10.81,11.928,11.928,0,0,0-3.992-4.561,16.292,16.292,0,0,0-6.022-2.3c-2.134-.451-4.259-.7-6.229-1.259a12.519,12.519,0,0,1-5.222-2.621,7.7,7.7,0,0,1-2.263-4.751,37.163,37.163,0,0,0-.921-5.266,17.841,17.841,0,0,0-5.317-8.568,16.029,16.029,0,0,0-8.354-3.817,13.369,13.369,0,0,0-7.605,1.061,11.819,11.819,0,0,0-4.4,3.5,9.124,9.124,0,0,0-1.531,3.073,4.6,4.6,0,0,0-.2,1.172,11.179,11.179,0,0,1,2-4.062,12.4,12.4,0,0,1,11.64-4.189,15.526,15.526,0,0,1,7.958,3.738,17.231,17.231,0,0,1,5.016,8.291,36.9,36.9,0,0,1,.86,5.195,8.443,8.443,0,0,0,2.478,5.187,13.407,13.407,0,0,0,5.575,2.835c2.065.578,4.2.831,6.289,1.275a15.58,15.58,0,0,1,5.713,2.162,11.316,11.316,0,0,1,3.734,4.26,11.856,11.856,0,0,1,.275,10.224,23.652,23.652,0,0,0-1.721,4.854,5.763,5.763,0,0,0,1.247,4.751c2.142,2.6,5.274,3.611,7.536,5.06a9.925,9.925,0,0,1,4.465,5.337,10.327,10.327,0,0,1,.447,5.155A11.629,11.629,0,0,1,383.842,220.588Z" transform="translate(-145.837 -126.406)"/><path class="g" d="M363.7,220.3a42.48,42.48,0,0,0-2.306,30.211c.86,2.962,2.125,6.034,1.368,9.028-.86,3.239-3.768,5.583-5.919,8.26a19.134,19.134,0,0,0-3.863,16.3,20.586,20.586,0,0,0,10.651,13.5c.568-2.986,3.579-5.013,6.547-6.335s6.255-2.257,8.517-4.451,2.908-6.209.275-8.014c7.571-1.821,11.864-10.1,10.272-17.161s-7.829-12.631-14.918-15.68" transform="translate(-151.248 -144.116)"/><path class="g" d="M371.711,307.842c-1.351.681-2.667,1.291-2.83,2.708-.2,1.655,1.531,4.569,2.151,6.137a8.057,8.057,0,0,1-2.244,9.025,9.862,9.862,0,0,1-9.861,1.824,4.706,4.706,0,0,0,4.7-4.237c.224-2.233-.964-4.379-2.409-6.177a61.892,61.892,0,0,1-4.413-5.33c-2.495-3.96-6.2-14.642-3.355-20.637" transform="translate(-151.232 -161.331)"/><path class="k" d="M383.393,283.006a2.95,2.95,0,0,1,.465-.356c.318-.222.774-.562,1.351-1.006a29.236,29.236,0,0,0,4.422-4.213,20.656,20.656,0,0,0,4.19-7.7,16.069,16.069,0,0,0-.551-10.4,15.435,15.435,0,0,0-3.114-4.625c-1.265-1.338-2.65-2.51-3.94-3.643a40.669,40.669,0,0,1-3.536-3.381,14.541,14.541,0,0,1-2.314-3.508,8.585,8.585,0,0,1-.757-5.821,6.05,6.05,0,0,1,.645-1.5,2.647,2.647,0,0,1,.336-.475,9.294,9.294,0,0,0-.809,2.012,8.623,8.623,0,0,0,.86,5.662,14.261,14.261,0,0,0,2.314,3.405,40.187,40.187,0,0,0,3.527,3.326c1.3,1.125,2.693,2.3,3.983,3.651a15.523,15.523,0,0,1,3.2,4.751,16.246,16.246,0,0,1,.542,10.643,20.616,20.616,0,0,1-4.345,7.784,27.044,27.044,0,0,1-4.56,4.15,11.615,11.615,0,0,1-1.411.95A2.506,2.506,0,0,1,383.393,283.006Z" transform="translate(-156.023 -148.024)"/></g><g transform="translate(25.578 260.07)"><path class="h" d="M83.092,414.028c2.177,2.51,6.022,1.418,7.683-.293s2.3-4.07,2.83-6.335c1.239-5.155,2.469-10.548.946-15.632a8.538,8.538,0,0,0-2.443-4.1,5.21,5.21,0,0,0-4.732-1.148c-1.927.586-3.02,2.423-3.785,4.15a34.43,34.43,0,0,0-2.882,16.1c.163,2.558.671,5.219,2.383,7.238" transform="translate(-53.6 -386.36)"/><g class="n" transform="translate(27.039)"><path d="M83.092,414.028c2.177,2.51,6.022,1.418,7.683-.293s2.3-4.07,2.83-6.335c1.239-5.155,2.469-10.548.946-15.632a8.538,8.538,0,0,0-2.443-4.1,5.21,5.21,0,0,0-4.732-1.148c-1.927.586-3.02,2.423-3.785,4.15a34.43,34.43,0,0,0-2.882,16.1c.163,2.558.671,5.219,2.383,7.238" transform="translate(-80.639 -386.36)"/></g><path class="h" d="M93.056,439.254a18.668,18.668,0,0,1,10.651-1.821,9.393,9.393,0,0,1,5.446,1.869c1.411,1.267,1.832,3.627.387,4.87a5.351,5.351,0,0,1-3.312,1.006c-2.839.135-6.022-.143-8.173,1.584-1.239.974-2,2.51-3.51,3.041a3.823,3.823,0,0,1-4.13-1.418,5.339,5.339,0,0,1-.748-4.213,6.46,6.46,0,0,1,3.39-4.918Z" transform="translate(-55.176 -398.734)"/><path class="h" d="M72.032,421.389a8.91,8.91,0,0,0,1.015-8.877,17.334,17.334,0,0,0-6.168-7.222,31.64,31.64,0,0,0-10.5-4.91,11.587,11.587,0,0,0-4.594-.443,4.791,4.791,0,0,0-3.682,2.376c-.929,1.932.241,4.142,1.471,5.931a73.1,73.1,0,0,0,7.287,8.933c2.159,2.249,4.6,4.451,7.743,5.345s6.255.586,7.743-1.449" transform="translate(-47.763 -389.643)"/><path class="g" d="M86.708,467.184a5.662,5.662,0,0,0,.1-1.2c0-.871.069-1.972.12-3.271a42.737,42.737,0,0,1,.465-4.823,35.467,35.467,0,0,1,1.5-5.741,20.284,20.284,0,0,1,2.779-5.274,11.335,11.335,0,0,1,3.742-3.255,11.644,11.644,0,0,1,3.269-1.148,7.1,7.1,0,0,0,1.273-.245,6.605,6.605,0,0,0-1.316.055,10.764,10.764,0,0,0-3.441,1.037,11.33,11.33,0,0,0-3.957,3.286,19.853,19.853,0,0,0-2.891,5.385,33.012,33.012,0,0,0-1.48,5.836,36.5,36.5,0,0,0-.353,4.87v3.286A5.259,5.259,0,0,0,86.708,467.184Z" transform="translate(-54.644 -399.93)"/><path class="g" d="M86.593,454.481a2.706,2.706,0,0,0,0-.554c0-.42-.069-.942-.112-1.584-.095-1.37-.232-3.358-.318-5.821-.206-4.91-.206-11.712.163-19.2a191.365,191.365,0,0,1,1.867-19.141c.172-1.22.353-2.312.533-3.279s.3-1.8.447-2.471.215-1.148.293-1.584a1.939,1.939,0,0,0,.069-.554,2.371,2.371,0,0,0-.172.531c-.1.4-.232.919-.4,1.544s-.344,1.5-.542,2.463-.413,2.059-.611,3.278a165.831,165.831,0,0,0-2.022,19.164,177.651,177.651,0,0,0,0,19.243c.138,2.463.327,4.451.49,5.821.086.641.155,1.164.215,1.584a1.66,1.66,0,0,0,.095.562Z" transform="translate(-54.469 -389.745)"/><path class="g" d="M81.12,443.144a11.079,11.079,0,0,0-.129-1.647,41.817,41.817,0,0,0-.86-4.451,54.227,54.227,0,0,0-2.022-6.43,56.247,56.247,0,0,0-3.493-7.547A41.394,41.394,0,0,0,65.058,411.1a21.828,21.828,0,0,0-2.151-1.655c-.327-.222-.619-.451-.921-.626l-.86-.459a11.211,11.211,0,0,0-1.574-.792,51.816,51.816,0,0,1,5.231,3.777,43.59,43.59,0,0,1,9.369,11.942,59.193,59.193,0,0,1,3.527,7.476c.938,2.376,1.609,4.53,2.125,6.335a36.751,36.751,0,0,1,1.015,4.387A9,9,0,0,0,81.12,443.144Z" transform="translate(-49.856 -391.514)"/></g><g transform="translate(9.997 18.694)"><path class="h" d="M243.472,213.731c-1.592-5.179-8.9-4.672-8.9-4.672l.2,3.6c4.224-.665,6.883,3.888,6.883,3.888Z" transform="translate(-65.351 -101.905)"/><path class="h" d="M157,135.714c-3.949.388-4.422,4.949-4.422,4.949l2.641.285c0-2.677,3.613-3.769,3.613-3.769Z" transform="translate(-50.792 -84.09)"/><path class="h" d="M202.64,70.864c2.409,5.638,10.539,4.332,10.539,4.332l-.662-4.023c-4.654,1.188-8.147-3.651-8.147-3.651Z" transform="translate(-59.681 -67.522)"/><path class="h" d="M90.137,197.839c-3.94.388-4.413,4.942-4.413,4.942l2.641.293c0-2.677,3.613-3.777,3.613-3.777Z" transform="translate(-38.922 -99.183)"/><path class="h" d="M109.782,94.085c.551-3.587-4.13-5.171-4.13-5.171l-.964,2.289c2.822.657,3.08,4.15,3.08,4.15Z" transform="translate(-42.289 -72.719)"/><path class="h" d="M28.862,168.224c-.705,5.662,7.442,7.032,7.442,7.032l1.506-3.706c-4.887-.4-5.592-5.71-5.592-5.71Z" transform="translate(-28.818 -91.409)"/><path class="h" d="M264.076,131.277c3.957.206,5.222-4.221,5.222-4.221l-2.581-.673c-.473,2.645-4.233,3.168-4.233,3.168Z" transform="translate(-70.306 -81.823)"/></g></g></g><text class="o" transform="translate(955 3639)"><tspan x="0" y="0">Submitted</tspan></text></g></svg>