<svg xmlns="http://www.w3.org/2000/svg" width="1787" height="853" viewBox="0 0 1787 853"><defs><style>.a,.c{fill:none;}.a{stroke:rgba(255,255,255,0.24);stroke-width:30px;}.b{stroke:none;}</style></defs><g transform="translate(294 -3792)"><g class="a" transform="translate(-195 4337)"><circle class="b" cx="116.5" cy="116.5" r="116.5"/><circle class="c" cx="116.5" cy="116.5" r="101.5"/></g><g class="a" transform="translate(-260 4284)"><ellipse class="b" cx="175" cy="170" rx="175" ry="170"/><ellipse class="c" cx="175" cy="170" rx="160" ry="155"/></g><g class="a" transform="translate(-225 3846)"><circle class="b" cx="116.5" cy="116.5" r="116.5"/><circle class="c" cx="116.5" cy="116.5" r="101.5"/></g><g class="a" transform="translate(-294 3792)"><ellipse class="b" cx="175" cy="170" rx="175" ry="170"/><ellipse class="c" cx="175" cy="170" rx="160" ry="155"/></g><g class="a" transform="translate(-225 3846)"><circle class="b" cx="116.5" cy="116.5" r="116.5"/><circle class="c" cx="116.5" cy="116.5" r="101.5"/></g><g class="a" transform="translate(1208 4358)"><circle class="b" cx="116.5" cy="116.5" r="116.5"/><circle class="c" cx="116.5" cy="116.5" r="101.5"/></g><g class="a" transform="translate(1143 4305)"><ellipse class="b" cx="175" cy="170" rx="175" ry="170"/><ellipse class="c" cx="175" cy="170" rx="160" ry="155"/></g></g></svg>