<svg xmlns="http://www.w3.org/2000/svg" xmlns:xlink="http://www.w3.org/1999/xlink" width="59" height="88" viewBox="0 0 59 88"><defs><style>.a,.e{fill:#fff;}.a{stroke:#707070;}.b{clip-path:url(#a);}.c{fill:#e4e4e7;}.d{fill:#c9c9c9;}.f{fill:#444b54;}.g{clip-path:url(#b);}.h{fill:#f6851f;}.i{fill:#c56528;}</style><clipPath id="a"><rect class="a" width="59" height="60" transform="translate(-0.14)"/></clipPath><clipPath id="b"><rect class="a" width="42" height="35" transform="translate(-0.05)"/></clipPath></defs><g transform="translate(-683 -1932)"><g class="b" transform="translate(683.14 1960)"><g transform="translate(0 7.664)"><path class="c" d="M48.664,32.889a10.443,10.443,0,0,0-7.506,2.516,18.943,18.943,0,0,0-1.36-2.569H6.35A24.8,24.8,0,0,0,2.925,45.471,34.306,34.306,0,0,0,9.211,64.554l1.783,3.093A2.231,2.231,0,0,0,12.683,68.8a75.631,75.631,0,0,0,19.468.157,2.31,2.31,0,0,0,1.642-1.1l2.3-3.565a48.174,48.174,0,0,0,5.066-8.86A10.293,10.293,0,0,0,47.961,58c6.474,0,11.634-6.081,11.259-13.369C58.844,38.393,54.247,33.308,48.664,32.889Zm-.7,17.825a5,5,0,0,1-4.691-5.243,5,5,0,0,1,4.691-5.243,5,5,0,0,1,4.691,5.243A5,5,0,0,1,47.961,50.713Z" transform="translate(-1.518 -31.316)"/><path class="d" d="M50.329,68.17a1.237,1.237,0,0,1-.891-.367,1.646,1.646,0,0,1-.188-2.2l.047-.052a47.513,47.513,0,0,0,4.6-8.021,1.289,1.289,0,0,1,1.876-.682,1.594,1.594,0,0,1,.61,2.1,49.131,49.131,0,0,1-4.926,8.6l-.047.052A1.223,1.223,0,0,1,50.329,68.17Zm14.12-7.549a1.583,1.583,0,0,1,0-3.146,6.628,6.628,0,0,0,5.113-2.464,8.113,8.113,0,0,0,1.876-5.872,1.533,1.533,0,0,1,1.314-1.678,1.482,1.482,0,0,1,1.5,1.468A11.36,11.36,0,0,1,71.58,57.16,9.206,9.206,0,0,1,64.449,60.62Z" transform="translate(-18.007 -35.456)"/><path class="e" d="M35.925,89.52,37,87.842a80.494,80.494,0,0,1-17.4-.157l.938,1.625Z" transform="translate(-7.496 -46.845)"/><path class="f" d="M69.723,54.585c-3.378,0-6.1-3.041-6.1-6.815s2.721-6.815,6.1-6.815,6.1,3.041,6.1,6.815S73.1,54.585,69.723,54.585Zm0-10.485a3.692,3.692,0,1,0,3.284,3.67A3.471,3.471,0,0,0,69.723,44.1Z" transform="translate(-23.281 -33.614)"/><path class="f" d="M47.174,30.715A11.293,11.293,0,0,0,40.888,32.6c-.235-.419-.422-.839-.657-1.206a1.427,1.427,0,0,0-1.173-.682H5.61a1.427,1.427,0,0,0-1.173.682A25.763,25.763,0,0,0,.731,44.87,36.062,36.062,0,0,0,7.3,64.95a1.4,1.4,0,0,0,2.017.262,1.7,1.7,0,0,0,.235-2.2,33.154,33.154,0,0,1-6-18.139A23.172,23.172,0,0,1,6.314,33.861H38.261a14.042,14.042,0,0,1,.844,1.678,1.289,1.289,0,0,0,1.876.682,1.012,1.012,0,0,0,.235-.157,8.992,8.992,0,0,1,5.911-2.2c5.442,0,9.851,4.928,9.851,11.009S52.569,55.88,47.127,55.88a9.168,9.168,0,0,1-5.958-2.254,1.321,1.321,0,0,0-1.97.315,1.179,1.179,0,0,0-.141.262h0a50.619,50.619,0,0,1-4.926,8.545,1.757,1.757,0,0,0,.188,2.2,1.237,1.237,0,0,0,.891.367,1.351,1.351,0,0,0,1.079-.577,50.45,50.45,0,0,0,4.5-7.6,11.674,11.674,0,0,0,6.286,1.835c6.99,0,12.666-6.344,12.666-14.155S54.164,30.715,47.174,30.715Z" transform="translate(-0.731 -30.715)"/><path class="f" d="M22.314,90.6a79.851,79.851,0,0,1-20.5-2.674A1.581,1.581,0,0,1,.781,86.041,1.4,1.4,0,0,1,2.47,84.888a78.314,78.314,0,0,0,39.687,0,1.4,1.4,0,0,1,1.689,1.153,1.581,1.581,0,0,1-1.032,1.887A79.851,79.851,0,0,1,22.314,90.6Z" transform="translate(-0.734 -46.04)"/><g transform="translate(10.095 25.07)"><path class="e" d="M19.228,70.867A1.437,1.437,0,0,1,18.1,70.29a23.722,23.722,0,0,1-1.407-2.2,1.638,1.638,0,0,1,.422-2.149,1.288,1.288,0,0,1,1.923.472c.375.682.8,1.311,1.22,1.94a1.7,1.7,0,0,1-.235,2.2A1.11,1.11,0,0,1,19.228,70.867Z" transform="translate(-16.469 -65.687)"/></g><g transform="translate(6.568 7.34)"><path class="e" d="M12.893,54.008a1.4,1.4,0,0,1-1.36-1.206,24.1,24.1,0,0,1-.563-5.033A18.259,18.259,0,0,1,11.908,42a1.37,1.37,0,0,1,1.83-.944,1.629,1.629,0,0,1,.844,2.045,14.561,14.561,0,0,0-.751,4.718,23.749,23.749,0,0,0,.469,4.3,1.581,1.581,0,0,1-1.032,1.887C13.128,53.956,13.034,54.008,12.893,54.008Z" transform="translate(-10.97 -40.954)"/></g></g></g><g class="g" transform="translate(692.05 1932)"><g transform="translate(3.833)"><path class="h" d="M24.444,45.847l.132.11.053-.192A.55.55,0,0,1,24.444,45.847Z" transform="translate(-11.058 -14.223)"/><path class="i" d="M29.8,22.539a9.646,9.646,0,0,0-.812-7.971A11.427,11.427,0,0,0,18.238,8.976a8.605,8.605,0,0,0-5.489,2.279,11.562,11.562,0,0,0-2.771,5.171A32.5,32.5,0,0,0,8.937,22.74a16.2,16.2,0,0,0,.935,7.111,13.935,13.935,0,0,0,3.6,5.034c1.015.933,2.656,2.315,4.042,1.611a7.439,7.439,0,0,1,1.3-3.24,26.355,26.355,0,0,1,3.548-5.015,20.7,20.7,0,0,1,7.492-5.207A.535.535,0,0,1,29.8,22.539ZM19.739,28.625c-.944,1.254-2.453,2.938-4.157,2.7a.516.516,0,0,1-.177-.915,5.058,5.058,0,0,0,2.78-3.835,11.96,11.96,0,0,0-.935-4.8,10.552,10.552,0,0,1-.194-6.855c.406-1.245,1.138-3.157,2.559-3.4.353-.064.53.247.494.54a.5.5,0,0,1,.4.448,1.461,1.461,0,0,1-.282.815,7.128,7.128,0,0,0-.468.851,4.908,4.908,0,0,0-.282,1.785c-.018,2.416,1.562,4.329,1.959,6.635A8.012,8.012,0,0,1,19.739,28.625Z" transform="translate(-7.941 -7.937)"/><path class="h" d="M22.541,23.124c-.547-1.885-1.659-3.606-1.853-5.592a6.27,6.27,0,0,1,.353-3.048,7.58,7.58,0,0,1,.379-.7c.062-.11.124-.22.185-.339-.009-.018-.009-.046-.018-.064a3.67,3.67,0,0,0-1.006,1.492,10.242,10.242,0,0,0-.777,2.288,8.4,8.4,0,0,0,.1,3.569c.238,1,.6,1.949.883,2.929a8.856,8.856,0,0,1,.371,4.667,5.118,5.118,0,0,1-.274.76q.252-.3.477-.631A6.553,6.553,0,0,0,22.541,23.124Zm13.723,5.692a26.1,26.1,0,0,1-1.138,2.416,6.626,6.626,0,0,1-4.2,2.874c-1.7.394-3.459.567-4.951,1.611a4.808,4.808,0,0,0-2.092,3.853,4.779,4.779,0,0,1,1.747-2.2c2.295-1.538,5.189-1.345,7.678-2.315a4.167,4.167,0,0,0,2.577-2.407,10.22,10.22,0,0,0,.274-3.194A3.581,3.581,0,0,1,36.264,28.816Z" transform="translate(-10.1 -8.696)"/><path class="i" d="M40.612,26.928a6.846,6.846,0,0,0-5.78-.778,18.362,18.362,0,0,0-6.2,2.883,20.939,20.939,0,0,0-5.066,5.162,34.916,34.916,0,0,0-1.853,3.038,6.34,6.34,0,0,0-.838,1.894.49.49,0,0,1,.115.183.449.449,0,0,1,.256.2,13.765,13.765,0,0,0,1.9,2.416,5.885,5.885,0,0,1,2.18-4.658,11.484,11.484,0,0,1,5.057-1.876,5.856,5.856,0,0,0,4.377-2.919c.812-1.629,1.244-3.523,3.133-4.127a.506.506,0,0,1,.432.9c-.079.092-.106.1-.1.055a.552.552,0,0,1-.079.119.5.5,0,0,1-.053.329,4.3,4.3,0,0,0-.732,2.123,9.327,9.327,0,0,1-.212,2.929,4.923,4.923,0,0,1-2.471,3,14.206,14.206,0,0,1-3.909,1.162,14.643,14.643,0,0,0-3.821,1.089,4.05,4.05,0,0,0-2.18,2.883.537.537,0,0,1-.132.256,8.306,8.306,0,0,0,1.589.842,10.9,10.9,0,0,0,6.663.256c3.936-.988,7.792-3.176,9.54-7.148C43.877,33.865,43.63,29.151,40.612,26.928Z" transform="translate(-10.344 -10.825)"/><path d="M40.983,26.35A7.139,7.139,0,0,0,37.5,22.378a8.783,8.783,0,0,0-6.151-.146c-.265.073-.538.156-.8.247A11.232,11.232,0,0,0,26.765,10.49a12.586,12.586,0,0,0-11.843-2.1c-3.962,1.419-5.754,5.427-6.548,9.417C7.474,22.323,7.2,27.2,9.38,31.383A15.3,15.3,0,0,0,13.3,36.032c1.165.952,2.8,1.849,4.21,1.254.018.037.035.064.053.1a.407.407,0,0,0,.627.146,12.018,12.018,0,0,0,3.971,3.789,10.534,10.534,0,0,0,5.666,1.226,16.9,16.9,0,0,0,6.063-1.556A14.283,14.283,0,0,0,38.8,37.442,11.205,11.205,0,0,0,40.983,26.35Zm-23.7,9.93c-1.386.7-3.027-.668-4.042-1.611a13.935,13.935,0,0,1-3.6-5.034A16.353,16.353,0,0,1,8.7,22.524,31.843,31.843,0,0,1,9.742,16.21a11.747,11.747,0,0,1,2.771-5.171A8.557,8.557,0,0,1,18,8.76a11.444,11.444,0,0,1,10.749,5.592,9.646,9.646,0,0,1,.812,7.971.514.514,0,0,0,.053.485,20.7,20.7,0,0,0-7.492,5.207,26.355,26.355,0,0,0-3.548,5.015A7.52,7.52,0,0,0,17.279,36.28Zm3.945,3.185-.132-.11a.626.626,0,0,0,.177-.082A1.509,1.509,0,0,0,21.223,39.464ZM33.5,31.685a4.186,4.186,0,0,1-2.577,2.407c-2.5.979-5.383.778-7.678,2.315A4.779,4.779,0,0,0,21.5,38.6a4.832,4.832,0,0,1,2.092-3.853c1.491-1.043,3.248-1.208,4.951-1.611a6.614,6.614,0,0,0,4.2-2.874,26.1,26.1,0,0,0,1.138-2.416,3.592,3.592,0,0,0-.1.641A10.78,10.78,0,0,1,33.5,31.685Zm6.31,2.325c-1.747,3.972-5.6,6.159-9.54,7.148a10.97,10.97,0,0,1-6.663-.256,8.853,8.853,0,0,1-1.589-.842.537.537,0,0,0,.132-.256,4.05,4.05,0,0,1,2.18-2.883,14.643,14.643,0,0,1,3.821-1.089,14.206,14.206,0,0,0,3.909-1.162,4.894,4.894,0,0,0,2.471-3,9.575,9.575,0,0,0,.212-2.929,4.361,4.361,0,0,1,.732-2.123.454.454,0,0,0,.053-.329.551.551,0,0,0,.079-.119c-.009.055.018.037.1-.055a.506.506,0,0,0-.432-.9c-1.889.6-2.33,2.5-3.133,4.127a5.8,5.8,0,0,1-4.377,2.919,11.6,11.6,0,0,0-5.057,1.876,5.872,5.872,0,0,0-2.18,4.658,13.842,13.842,0,0,1-1.9-2.416.449.449,0,0,0-.256-.2A.635.635,0,0,0,18.258,36,5.926,5.926,0,0,1,19.1,34.1c.582-1.034,1.183-2.059,1.853-3.038A20.786,20.786,0,0,1,26.015,25.9a18.362,18.362,0,0,1,6.2-2.883,6.841,6.841,0,0,1,5.78.778C40.991,26.057,41.238,30.77,39.809,34.01Z" transform="translate(-7.705 -7.73)"/><path d="M23,23.134c-.388-2.315-1.977-4.228-1.959-6.635a5.1,5.1,0,0,1,.282-1.785,6.629,6.629,0,0,1,.468-.851,1.461,1.461,0,0,0,.282-.815.5.5,0,0,0-.4-.448c.035-.293-.141-.595-.494-.54-1.421.256-2.153,2.169-2.559,3.4a10.5,10.5,0,0,0,.194,6.855,11.96,11.96,0,0,1,.935,4.8,5.053,5.053,0,0,1-2.78,3.835.517.517,0,0,0,.177.915c1.7.238,3.2-1.446,4.157-2.7A7.96,7.96,0,0,0,23,23.134Zm-2.224,5.1q-.225.316-.477.631a5.118,5.118,0,0,0,.274-.76,8.863,8.863,0,0,0-.371-4.667c-.282-.979-.644-1.931-.882-2.929a8.541,8.541,0,0,1-.1-3.569A9.557,9.557,0,0,1,20,14.651a3.732,3.732,0,0,1,1.006-1.492c.009.018.009.046.018.064-.062.11-.124.229-.185.339-.132.229-.265.448-.379.7a6.27,6.27,0,0,0-.353,3.048c.194,1.986,1.315,3.706,1.853,5.592A6.553,6.553,0,0,1,20.779,28.232Z" transform="translate(-9.52 -8.468)"/></g></g></g></svg>