<svg xmlns="http://www.w3.org/2000/svg" xmlns:xlink="http://www.w3.org/1999/xlink" width="344" height="343" viewBox="0 0 344 343"><defs><style>.a{fill:#fff;}.b{clip-path:url(#a);}.c{fill:#f5f5f5;}.d{fill:#e0e0e0;}.e{fill:#ebebeb;}.f{fill:#fafafa;}.g{fill:#263238;}.h{fill:#a56959;}.i{fill:#455a64;}.j{fill:#ff725e;}.k{opacity:0.3;}.l{fill:#7c4435;}.m{opacity:0.78;}.n{opacity:0.2;}</style><clipPath id="a"><rect class="a" width="344" height="343" transform="translate(-660 6574)"/></clipPath></defs><g class="b" transform="translate(660 -6574)"><g transform="translate(-655.819 6574)"><g transform="translate(0 0)"><path class="c" d="M115.211,464.237c12.225-9.062,15-25.867,14.513-41.02-.079-2.5.181-5.19-.951-7.4s-3.766-3.73-5.9-2.67c-1.769.884-2.539,3.071-3.53,4.873a14.389,14.389,0,0,1-5.574,5.657c-1.517.834-3.4,1.343-4.89.467-2.052-1.2-2.3-4.214-2.28-6.725q.047-7.026.086-14.043a24.667,24.667,0,0,0-.715-7.46c-.739-2.378-2.359-4.6-4.615-5.265a4.408,4.408,0,0,0-5.5,3.171,24.268,24.268,0,0,0-.063,3.121,2.71,2.71,0,0,1-1.454,2.5c-.928.3-1.895-.417-2.6-1.151-2.445-2.5-4.1-5.8-5.645-9.045a47.212,47.212,0,0,0-5.275-9.345c-2.217-2.77-5.275-4.956-8.648-5.157a7.7,7.7,0,0,0-7.862,5.549c-.857,3.538,1.093,7.126,3.208,10.013a54.567,54.567,0,0,0,11.006,11.123,4.511,4.511,0,0,1,1.84,2.1c.511,1.669-.983,3.338-2.539,3.888-1.761.617-3.679.426-5.5.659s-3.844,1.093-4.544,2.945c-.967,2.562,1.053,5.257,3.042,7.017a44.689,44.689,0,0,0,13.365,8.2,14.763,14.763,0,0,1,4.976,2.57c1.4,1.3,2.256,3.555,1.407,5.324s-3.027,2.336-4.851,1.978-3.475-1.427-5.228-2.136c-3.255-1.31-7.453-1.068-9.536,1.911a8.363,8.363,0,0,0-.786,7.034,18.583,18.583,0,0,0,3.585,6.208A45.648,45.648,0,0,0,93.175,463.62c7.539,2.779,14.528,3.53,22.013.617" transform="translate(-54.731 -141.787)"/><path class="d" d="M116.937,476.191a116.128,116.128,0,0,0-3.868-20.693,234.371,234.371,0,0,0-8.42-24.2l-2.508-6.233c-.833-2.036-1.651-4.064-2.571-5.991a113.137,113.137,0,0,0-5.888-10.764c-2.028-3.338-4.065-6.408-5.991-9.27s-3.781-5.49-5.558-7.81a86.5,86.5,0,0,0-9.167-10.28c-1.164-1.118-2.1-1.961-2.736-2.5l-.731-.626a1.192,1.192,0,0,0-.259-.2l.236.234c.173.167.4.392.7.668.621.584,1.533,1.444,2.681,2.578A93.319,93.319,0,0,1,81.9,391.456c1.761,2.328,3.585,4.965,5.5,7.827s3.931,5.958,5.951,9.279a115.482,115.482,0,0,1,5.833,10.731c.912,1.919,1.73,3.93,2.555,5.983l2.516,6.225a241.487,241.487,0,0,1,8.428,24.2,118.358,118.358,0,0,1,3.931,20.61" transform="translate(-56.268 -142.526)"/><path class="d" d="M112.324,423.762a6.145,6.145,0,0,0,.228-1.076c.126-.693.275-1.669.44-2.954.338-2.5.684-5.974,1.061-9.8s.786-7.284,1.14-9.771c.181-1.243.338-2.253.448-2.945a4.811,4.811,0,0,0,.134-1.093,5.062,5.062,0,0,0-.3,1.051c-.165.684-.369,1.669-.59,2.929-.448,2.5-.9,5.949-1.266,9.779s-.684,7.193-.936,9.8c-.118,1.177-.22,2.169-.3,2.97A5.043,5.043,0,0,0,112.324,423.762Z" transform="translate(-69.147 -147.262)"/><path class="d" d="M68.926,425.135a5.7,5.7,0,0,0,1.219.159c.786.075,1.91.175,3.3.342,2.783.317,6.62.9,10.818,1.744s7.98,1.794,10.692,2.553c1.36.376,2.453.7,3.208.926a6.6,6.6,0,0,0,1.187.317,5.752,5.752,0,0,0-1.14-.484c-.739-.284-1.824-.659-3.145-1.076-2.7-.834-6.47-1.844-10.684-2.7A101,101,0,0,0,73.5,425.31c-1.4-.134-2.531-.184-3.318-.2A6.666,6.666,0,0,0,68.926,425.135Z" transform="translate(-56.174 -154.676)"/><path class="d" d="M131.212,467.295a3.038,3.038,0,0,0,.212-.392l.519-1.168c.448-1.018,1.061-2.5,1.792-4.356,1.47-3.7,3.341-8.87,5.338-14.619s3.829-10.931,5.22-14.652c.684-1.811,1.242-3.338,1.667-4.414l.44-1.2a2,2,0,0,0,.134-.434,1.921,1.921,0,0,0-.212.4c-.142.309-.314.7-.519,1.168-.448,1.01-1.061,2.5-1.792,4.347-1.47,3.7-3.341,8.878-5.338,14.627s-3.829,10.931-5.22,14.652l-1.667,4.414-.44,1.2A2.22,2.22,0,0,0,131.212,467.295Z" transform="translate(-74.796 -154.924)"/><path class="d" d="M73.557,462.9a1.616,1.616,0,0,0,.4.175l1.179.417,4.324,1.494c3.656,1.26,8.687,3.054,14.245,5.048s10.605,3.755,14.285,4.931c1.84.592,3.333,1.051,4.371,1.343l1.195.334a1.283,1.283,0,0,0,.425.083,1.85,1.85,0,0,0-.4-.175l-1.171-.417-4.332-1.485c-3.656-1.26-8.648-3.054-14.238-5.057s-10.605-3.747-14.285-4.923c-1.84-.592-3.333-1.051-4.371-1.352l-1.2-.334A1.591,1.591,0,0,0,73.557,462.9Z" transform="translate(-57.559 -164.354)"/><path class="e" d="M434.716,363.886V332.729h7.838v31.366Z" transform="translate(-165.538 -131.035)"/><path class="d" d="M446.1,363.886V332.729h7.83v31.366Z" transform="translate(-168.941 -131.035)"/><path class="e" d="M465,367.212V344.875h5.613v22.487Z" transform="translate(-174.591 -134.144)"/><path class="d" d="M473.16,367.212V344.875h5.613v22.487Z" transform="translate(-177.032 -134.144)"/><rect class="c" width="126.377" height="61.863" transform="translate(177.88 232.977)"/><path class="d" d="M429.088,434.836H308.606V379.147H429.088ZM309.393,434H428.3v-54.02H309.393Z" transform="translate(-127.834 -142.916)"/><rect class="d" width="30.873" height="61.863" transform="translate(304.265 232.977)"/><path class="d" d="M309.1,402.19H428.8a.167.167,0,0,0,0-.334H309.1a.167.167,0,0,0,0,.334Z" transform="translate(-127.934 -148.729)"/><path class="d" d="M394.882,396.252a147.96,147.96,0,0,0,.047-16.805.163.163,0,0,0-.322,0,146.109,146.109,0,0,0,.039,16.805.118.118,0,1,0,.236,0Z" transform="translate(-153.479 -142.958)"/><path class="d" d="M439.664,390.194a1.63,1.63,0,1,1-1.627-1.727A1.68,1.68,0,0,1,439.664,390.194Z" transform="translate(-166.044 -145.302)"/><path class="d" d="M350.058,390.194a1.63,1.63,0,1,1-1.627-1.727A1.68,1.68,0,0,1,350.058,390.194Z" transform="translate(-139.254 -145.302)"/><path class="d" d="M395.471,415.976a1.741,1.741,0,0,1-1.006,1.61,1.567,1.567,0,0,1-1.786-.375,1.814,1.814,0,0,1-.353-1.9,1.637,1.637,0,0,1,1.517-1.068A1.68,1.68,0,0,1,395.471,415.976Z" transform="translate(-152.827 -151.901)"/><path class="d" d="M323.261,457.919l-6.5,38.834h3.656l12-38.834Z" transform="translate(-130.271 -163.079)"/><path class="d" d="M468.105,457.919l5.448,38.9H469.89l-10.928-38.9Z" transform="translate(-172.787 -163.079)"/><path class="d" d="M502.957,457.919l6.164,38.9h-3.656l-11.659-38.9Z" transform="translate(-183.204 -163.079)"/><path class="d" d="M395.314,439.5a1.741,1.741,0,0,1-1.006,1.61,1.567,1.567,0,0,1-1.786-.375,1.814,1.814,0,0,1-.353-1.9,1.637,1.637,0,0,1,1.517-1.068,1.688,1.688,0,0,1,1.627,1.727Z" transform="translate(-152.78 -157.924)"/><path class="d" d="M309.1,427.939H428.8a.167.167,0,0,0,0-.334H309.1a.167.167,0,0,0,0,.334Z" transform="translate(-127.934 -155.32)"/><rect class="e" width="85.206" height="162.46" transform="translate(225.294 4.431)"/><rect class="f" width="77.517" height="152.906" transform="translate(228.698 9.145)"/><path class="c" d="M454.5,75.741,376.971,180.393V73.939H454.5Z" transform="translate(-148.273 -64.793)"/><rect class="e" width="79.199" height="1.627" transform="translate(228.698 53.135)"/><rect class="e" width="79.199" height="1.627" transform="translate(228.698 89.549)"/><rect class="e" width="79.199" height="1.627" transform="translate(228.698 125.955)"/><rect class="e" width="112.446" height="3.915" transform="translate(265.507 166.382) rotate(-90)"/><rect class="e" width="1.777" height="44.8" transform="translate(243.627 9.145)"/><rect class="e" width="1.777" height="44.8" transform="translate(258.934 9.145)"/><rect class="e" width="1.777" height="44.8" transform="translate(274.233 9.145)"/><rect class="e" width="1.777" height="44.8" transform="translate(289.532 9.145)"/><rect class="c" width="3.601" height="166.215" transform="translate(221.693 1.677)"/><path class="d" d="M497.269,230.584l-3.609-1.469V63.9h3.609Z" transform="translate(-183.161 -62.224)"/><rect class="d" width="92.415" height="4.431" transform="translate(221.693)"/><rect class="d" width="97.407" height="4.13" transform="translate(219.138 168.902)"/><path class="e" d="M454.7,285.953l6.046,2.011H363.334l6.156-2.011Z" transform="translate(-144.196 -119.062)"/><rect class="e" width="85.206" height="162.46" transform="translate(6.164 7.184)"/><rect class="f" width="77.517" height="152.906" transform="translate(9.568 11.89)"/><path class="c" d="M141.9,79.431,64.384,184.091V77.628H141.9Z" transform="translate(-54.816 -65.738)"/><rect class="e" width="79.199" height="1.627" transform="translate(9.568 55.881)"/><rect class="e" width="79.199" height="1.627" transform="translate(9.568 92.294)"/><rect class="e" width="79.199" height="1.627" transform="translate(9.568 128.708)"/><rect class="e" width="112.446" height="3.915" transform="translate(46.369 169.136) rotate(-90)"/><rect class="e" width="1.777" height="44.8" transform="translate(24.497 11.89)"/><rect class="e" width="1.777" height="44.8" transform="translate(39.796 11.89)"/><rect class="e" width="1.777" height="44.8" transform="translate(55.103 11.89)"/><rect class="e" width="1.777" height="44.8" transform="translate(70.402 11.89)"/><rect class="c" width="3.601" height="166.215" transform="translate(2.555 4.431)"/><path class="d" d="M184.673,234.276l-3.6-1.46V67.6h3.6Z" transform="translate(-89.704 -63.172)"/><rect class="d" width="92.415" height="4.431" transform="translate(2.555 2.754)"/><rect class="d" width="97.407" height="4.13" transform="translate(0 171.656)"/><path class="e" d="M142.1,289.654l6.046,2.011H50.735l6.164-2.011Z" transform="translate(-50.735 -120.009)"/></g><g transform="translate(4.363 333.523)"><path class="g" d="M379.668,510.127c0,.125-72.249.217-161.347.217s-161.362-.092-161.362-.217,72.226-.217,161.362-.217S379.668,510.01,379.668,510.127Z" transform="translate(-56.959 -509.91)"/></g><g transform="translate(96.055 20.951)"><path class="h" d="M333.8,221.311c-.487.626-.511,5.841-.511,5.841s-11.517,20.86-13.121,21.144-8.585-14.469-8.585-14.469l-7.178,7.009s3.742,18.641,15.44,21.837c5.5,1.51,15.157-17.072,21.588-32.542.1-.242,3.436-8.653,3.436-8.653Z" transform="translate(-222.631 -123.466)"/><path class="g" d="M0,0,3.6-.065,2.209,81.088l-3.6.065Z" transform="matrix(0.951, -0.31, 0.31, 0.951, 99.791, 47.566)"/><path class="i" d="M0,0,3.6-.065,2.205,81.03l-3.6.065Z" transform="matrix(0.951, -0.31, 0.31, 0.951, 98.001, 47.952)"/><path class="j" d="M0,0,51.924-.933l-.753,43.987-51.924.933Z" transform="matrix(0.951, -0.31, 0.31, 0.951, 67.27, 16.967)"/><g class="k" transform="translate(67.27)"><path d="M0,0,51.924-.933l-.753,43.987-51.924.933Z" transform="matrix(0.951, -0.31, 0.31, 0.951, 0, 16.967)"/></g><path class="j" d="M0,0,51.924-.933l-.753,43.987-51.924.933Z" transform="matrix(0.951, -0.31, 0.31, 0.951, 65.506, 17.574)"/><path class="a" d="M317.186,124.985l1.659-.609,1.871-6.675-1.156-3.53s2.516-1.118,3.726,3.613,1.156,3.429,1.156,3.429,5.464-1.994,6.085-1.669c.448.242,2.484,5.941,3.569,9.045a3.712,3.712,0,0,1-1.14,4.239,2.808,2.808,0,0,1-.558.3c-1.368.5-8.711,1.9-8.711,1.9l-2.87,1.06Z" transform="translate(-226.453 -96.013)"/><path class="a" d="M309.941,129.4l4.984,11.7,2.846-1.051-3.884-11.832Z" transform="translate(-224.287 -99.638)"/><path class="h" d="M361.826,219.4a.42.42,0,0,1-.047.184c-.338.834-1.926,3.2-2.469,3.079s-1.439,0-1.187-1.519a25.058,25.058,0,0,1,1.832-3.263s.425-.551,1.627-.058C362.321,218.129,361.826,219.4,361.826,219.4Z" transform="translate(-238.68 -122.52)"/><path class="h" d="M359.192,215.9a.463.463,0,0,1-.055.2c-.393.968-2.539,4.89-3.082,4.79s-1.722-1.185-1.533-1.761,2.838-4.848,2.838-4.848.464-.651,1.667-.159C359.766,214.427,359.192,215.9,359.192,215.9Z" transform="translate(-237.61 -121.58)"/><path class="h" d="M356.6,213.191a.54.54,0,0,1-.055.209c-.385.96-2.539,4.89-3.082,4.781s-1.722-1.177-1.533-1.752,2.846-4.856,2.846-4.856.456-.643,1.659-.159C357.183,211.722,356.6,213.191,356.6,213.191Z" transform="translate(-236.835 -120.887)"/><path class="h" d="M354,210.554a.519.519,0,0,1-.055.2c-.393.96-2.539,4.89-3.082,4.79s-1.722-1.185-1.533-1.761,2.838-4.848,2.838-4.848.464-.651,1.667-.159C354.581,209.077,354,210.554,354,210.554Z" transform="translate(-236.058 -120.211)"/><path class="l" d="M357.491,221.766a8.625,8.625,0,0,0,1.195-1.827,9.16,9.16,0,0,0,.951-1.936,8.431,8.431,0,0,0-1.195,1.819A9.111,9.111,0,0,0,357.491,221.766Z" transform="translate(-238.504 -122.62)"/><path class="l" d="M354.385,219.46a16.435,16.435,0,0,0,1.659-2.612,17.425,17.425,0,0,0,1.431-2.77,18.866,18.866,0,0,0-1.659,2.62A18.415,18.415,0,0,0,354.385,219.46Z" transform="translate(-237.575 -121.615)"/><g class="m" transform="translate(114.994 90.936)"><path class="l" d="M351.794,216.531a12.657,12.657,0,0,0,1.486-2.178,12.529,12.529,0,0,0,1.258-2.328,13.358,13.358,0,0,0-1.486,2.186,12.616,12.616,0,0,0-1.258,2.32Z" transform="translate(-351.794 -212.025)"/></g><path class="h" d="M346.921,227.277l-.786-3.663a6.712,6.712,0,0,1,.708-4.681l.605-1.076,7.862,4.214s-2.193,2.42-4.088.884c1.281,1.669,1.3,4.756.48,7.168Z" transform="translate(-235.065 -122.582)"/><path class="l" d="M352.5,226.442c-.047,0,0-.417-.071-1.135a4.237,4.237,0,0,0-1.352-2.5l-.723-.609.88.3,1.95.668h-.039a2.23,2.23,0,0,0,2.256-.993c.039-.067.071-.142.094-.184l.1.267c-2.17-1.043-4.12-2.019-5.5-2.812a11.412,11.412,0,0,1-2.146-1.393,19.238,19.238,0,0,1,2.272,1.126c1.4.718,3.357,1.669,5.5,2.687l.173.083-.063.184a2.717,2.717,0,0,1-.126.267,2.388,2.388,0,0,1-1.219,1.026,2.973,2.973,0,0,1-1.431.15h-.039l-1.942-.718.165-.309a4.2,4.2,0,0,1,1.337,2.754A2.314,2.314,0,0,1,352.5,226.442Z" transform="translate(-235.65 -122.631)"/><path class="l" d="M358.316,221.256c.079,0-.11.434-.063,1.035a.753.753,0,0,0,.5.693,1.074,1.074,0,0,0,.975-.517c.574-.793,1.148-1.5,1.5-2.028s.55-.893.613-.834-.063.426-.37,1.026a20.114,20.114,0,0,1-1.439,2.144,1.373,1.373,0,0,1-1.36.617,1.056,1.056,0,0,1-.715-1.06,1.866,1.866,0,0,1,.189-.834C358.229,221.323,358.292,221.24,358.316,221.256Z" transform="translate(-238.644 -123.028)"/><path class="h" d="M209.507,223.526s10.873,22.679,12.477,23,8.286-13.693,8.286-13.693l10.134,8.536s-6.612,16.6-16.887,21.586c-5.189,2.5-15.15-17.08-21.588-32.542l-3.428-8.6" transform="translate(-190.969 -123.596)"/><path class="h" d="M209.775,223.468s-.275-1.151-1.336-4.356l.11-8.152s-1.329-1-1.572,2.729a1.766,1.766,0,0,1-1.631,1.59,1.743,1.743,0,0,1-1.757-1.431,3.042,3.042,0,0,1,.965-3.1,2.637,2.637,0,0,1,3.068-.238s1.053-.417.786-1.31-3.483-1.769-5.134-.159a6.93,6.93,0,0,0-1.572,2.395s-2.759-7.067-3.31-6.859-1.085,1.01,2,8.728c0,0-2.964-5.841-3.428-6.508s-1.659-.709-.9,1.252l2.437,6.233s-2.414-3.53-2.626-3.8c-.558-.718-1.274-.234-.841.876l1.69,4.456,4.513,10.989h-.071" transform="translate(-189.893 -119.182)"/><path class="l" d="M202.459,222.1a5.814,5.814,0,0,1,.653.225,3.158,3.158,0,0,1,1.336,1.018l.118.142.047-.184a5.431,5.431,0,0,1,.228-.617,4.28,4.28,0,0,1,1.376-1.669c.448-.317.786-.426.786-.459a1.852,1.852,0,0,0-.841.334,3.918,3.918,0,0,0-1.478,1.669,4.418,4.418,0,0,0-.236.659l.165-.042a3.019,3.019,0,0,0-1.447-1.01A1.486,1.486,0,0,0,202.459,222.1Z" transform="translate(-192.152 -123.274)"/><path class="g" d="M260.855,165.011a6.508,6.508,0,0,0-6.934-3.413,8.841,8.841,0,0,0-6.14,5.223,14.5,14.5,0,0,0-.786,8.494c.511,2.854,1.667,5.841.747,8.561a9.209,9.209,0,0,1-3.145,4.03,33.9,33.9,0,0,0-3.931,3.263,6.345,6.345,0,0,0-1.895,4.748c.165,1.769,1.682,3.429,3.341,3.2-2.359,1.919-2.877,5.641-1.769,8.536a11.971,11.971,0,0,0,6.289,6.275,9.379,9.379,0,0,0,7.076.734,9.052,9.052,0,0,0,4.992-5.415,21.916,21.916,0,0,0,1.179-7.668c.055-4.23-.377-8.628-2.429-12.249a2.311,2.311,0,0,0,3.231,1.577,3.723,3.723,0,0,0,1.745-3.655,7.28,7.28,0,0,0-1.777-3.855c-.9-1.11-1.95-2.053-2.854-3.146a10.426,10.426,0,0,1-2.555-7.96c.432-2.854,2.846-5.44,5.566-5.3" transform="translate(-203.008 -108.153)"/><path class="g" d="M240.335,188.279a2.049,2.049,0,0,0-.047-1.8,1.681,1.681,0,0,0-1.659-.985,2.2,2.2,0,0,0-1.9,1.669,2.9,2.9,0,0,0,1.179,2.962,3.554,3.554,0,0,0,3.593.167,6.686,6.686,0,0,0,2.956-3.071,10.157,10.157,0,0,0,1.038-4.664,18.6,18.6,0,0,0-.857-4.79,15.14,15.14,0,0,1-.684-4.6,11.139,11.139,0,0,1,3.1-7.034,14.356,14.356,0,0,1,4.1-2.979c.535-.259.967-.426,1.258-.542a1.787,1.787,0,0,1,.456-.134,3.336,3.336,0,0,1-.425.217c-.283.133-.7.325-1.219.609a15.2,15.2,0,0,0-3.931,3.046,10.957,10.957,0,0,0-2.925,6.834,14.909,14.909,0,0,0,.692,4.464,18.8,18.8,0,0,1,.881,4.9,10.559,10.559,0,0,1-1.093,4.873,7.078,7.078,0,0,1-3.145,3.238,3.9,3.9,0,0,1-3.931-.234,3.244,3.244,0,0,1-1.274-3.338,2.437,2.437,0,0,1,2.17-1.877,1.776,1.776,0,0,1,1.164.334,2.154,2.154,0,0,1,.653.834,2.079,2.079,0,0,1,.134,1.435,1.069,1.069,0,0,1-.283.467Z" transform="translate(-202.307 -108.407)"/><path class="j" d="M195.2,497.8l-.55,2.22s-7.571,13.075-6.675,14.294a4.681,4.681,0,0,0,5.252,1.744c2.634-.7,13.75-11.915,13.75-11.915l.637-1.786Z" transform="translate(-187.799 -194.238)"/><g class="k" transform="translate(0 308.949)"><path d="M188.684,513.2s3.278-1.535,5.165,2.954c0,0,1.423-.559,5.354-4.055s7.728-6.909,7.728-6.909.409-.342.283,0-.283.951-.283.951l-7.587,7.1s-4.552,4.172-5.692,4.464-2.288.743-3.734.05a4.082,4.082,0,0,1-2.162-1.986C187.757,515.606,188.684,513.2,188.684,513.2Z" transform="translate(-187.757 -505.041)"/></g><path class="g" d="M194.759,520.282a9.063,9.063,0,0,0-.4-1.118,6.4,6.4,0,0,0-1.572-2.253,5.783,5.783,0,0,0-2.359-1.26c-.668-.175-1.109-.175-1.1-.225a2.685,2.685,0,0,1,1.14.05,5.278,5.278,0,0,1,2.484,1.235,5.856,5.856,0,0,1,1.572,2.386A2.915,2.915,0,0,1,194.759,520.282Z" transform="translate(-188.226 -198.74)"/><path class="g" d="M207.625,504.482a1.057,1.057,0,0,1-.181.192l-.527.5-1.973,1.811-6.58,5.916a28.288,28.288,0,0,1-3.789,3.054,5.831,5.831,0,0,1-3.766.951,3.853,3.853,0,0,1-2.358-1.252,2.365,2.365,0,0,1-.5-.876,4.724,4.724,0,0,0,.574.834,3.718,3.718,0,0,0,2.28,1.143,5.769,5.769,0,0,0,3.632-.976,29.241,29.241,0,0,0,3.742-3.054l6.627-5.841,2.02-1.744.558-.467A1.59,1.59,0,0,1,207.625,504.482Z" transform="translate(-187.814 -195.948)"/><path class="g" d="M197.727,511.216a8.149,8.149,0,0,1-1.4-.926,8.355,8.355,0,0,1-1.36-.985,4.086,4.086,0,0,1,1.494.768,4.435,4.435,0,0,1,1.266,1.143Z" transform="translate(-189.913 -197.183)"/><path class="g" d="M199.77,508.8a11.145,11.145,0,0,1-1.722-.759,11.732,11.732,0,0,1-1.69-.834,8.224,8.224,0,0,1,3.412,1.594Z" transform="translate(-190.328 -196.646)"/><path class="g" d="M201.832,506.528c-.047.058-.731-.576-1.73-1.093s-1.879-.709-1.871-.784a3.808,3.808,0,0,1,1.981.551,4.082,4.082,0,0,1,1.619,1.327Z" transform="translate(-190.888 -195.992)"/><path class="g" d="M203.255,504.078c-.047.067-.684-.426-1.572-.834s-1.651-.592-1.635-.668a4.659,4.659,0,0,1,3.192,1.51Z" transform="translate(-191.431 -195.46)"/><path class="g" d="M203.064,501.022a3.085,3.085,0,0,1-.936-.668,7.321,7.321,0,0,1-.857-.935,6.218,6.218,0,0,1-.425-.617,1.424,1.424,0,0,1-.2-.384.543.543,0,0,1,.079-.517.75.75,0,0,1,.857-.1,1.637,1.637,0,0,1,.629.459,2.559,2.559,0,0,1,.574,1.177,3.949,3.949,0,0,1,.079.876c0,.209,0,.317-.047.317a10.72,10.72,0,0,0-.2-1.151,2.427,2.427,0,0,0-.566-1.051,1.688,1.688,0,0,0-.55-.392.546.546,0,0,0-.59.042c-.118.134,0,.375.134.584a7.144,7.144,0,0,0,.409.609,8.3,8.3,0,0,0,.786.951C202.718,500.721,203.064,500.988,203.064,501.022Z" transform="translate(-191.602 -194.215)"/><path class="g" d="M203.758,501.081a.874.874,0,0,1,.086-.317,3.486,3.486,0,0,1,.448-.768,3.316,3.316,0,0,1,1-.834,3.032,3.032,0,0,1,.708-.284.979.979,0,0,1,.44,0,.5.5,0,0,1,.362.375,1.109,1.109,0,0,1-.33.834,3.209,3.209,0,0,1-.574.534,2.844,2.844,0,0,1-1.179.492,2.41,2.41,0,0,1-.849,0c-.2,0-.3-.083-.3-.1a5.413,5.413,0,0,0,1.116-.092,2.865,2.865,0,0,0,1.085-.509,2.98,2.98,0,0,0,.519-.5.857.857,0,0,0,.267-.626c0-.192-.283-.234-.511-.184a3.027,3.027,0,0,0-.66.25,3.343,3.343,0,0,0-.959.743,10.28,10.28,0,0,0-.668.985Z" transform="translate(-192.484 -194.507)"/><path class="g" d="M211.361,503a1.858,1.858,0,0,0-1.069.067,4.027,4.027,0,0,0-1.91,1.844,4.74,4.74,0,0,0-.5,2.7c.079.726.259,1.143.22,1.16a2.461,2.461,0,0,1-.393-1.126,4.578,4.578,0,0,1,.464-2.862,3.863,3.863,0,0,1,2.068-1.886A1.136,1.136,0,0,1,211.361,503Z" transform="translate(-193.703 -195.515)"/><path class="g" d="M205.381,510.157a13.272,13.272,0,0,1-2.72,2.453,6.928,6.928,0,0,1,1.281-1.327,6.327,6.327,0,0,1,1.439-1.126Z" transform="translate(-192.213 -197.401)"/><path class="g" d="M208.656,509.013c.071,0,.157.167.2.384a.574.574,0,0,1-.039.434c-.039.025-.157-.15-.2-.384S208.593,509.022,208.656,509.013Z" transform="translate(-193.986 -197.108)"/><path class="g" d="M208.841,506.8c.071,0,.079.217,0,.434s-.142.384-.2.375-.086-.2,0-.434S208.778,506.778,208.841,506.8Z" transform="translate(-193.983 -196.542)"/><path class="g" d="M209.924,504.915c.055.058,0,.209-.157.392s-.275.292-.33.259,0-.225.134-.417S209.885,504.865,209.924,504.915Z" transform="translate(-194.232 -196.056)"/><path class="g" d="M211.732,503.741c0,.067-.11.2-.3.292s-.37.125-.409.067.1-.2.307-.3S211.716,503.674,211.732,503.741Z" transform="translate(-194.711 -195.749)"/><path class="g" d="M213.922,503.494c0,.067-.189.134-.393.134s-.385-.058-.393-.134.165-.125.393-.134S213.929,503.386,213.922,503.494Z" transform="translate(-195.344 -195.661)"/><path class="j" d="M333.007,503.357l-.055-1.577-15.071.459.126,5.207h.936c4.151.108,21.093.267,23.837-.643C345.829,505.827,333.007,503.357,333.007,503.357Z" transform="translate(-226.661 -195.257)"/><g class="k" transform="translate(91.243 307.815)"><path d="M323.457,507.623a5.147,5.147,0,0,0-2-3.1,5.077,5.077,0,0,0-3.538-.976l.118,4.172Z" transform="translate(-317.915 -503.516)"/></g><g class="k" transform="translate(91.346 309.502)"><path d="M339.342,505.783s4.5,1.143,3.97,1.886-17.673,1.218-25.252.776v-.334l19.992-.384S338.469,505.867,339.342,505.783Z" transform="translate(-318.06 -505.783)"/></g><path class="g" d="M317.746,508.7h1.006l2.728.042c2.3,0,5.5,0,9.01-.092s6.7-.25,9-.392l2.728-.192.739-.067h-.747l-2.728.125c-2.3.117-5.5.25-9,.342s-6.7.134-9,.15h-3.475Z" transform="translate(-226.621 -196.85)"/><path class="g" d="M346.594,507.923a3.9,3.9,0,0,1,1.376-2.353,2.035,2.035,0,0,0-1.061.968,2,2,0,0,0-.314,1.385Z" transform="translate(-235.24 -196.227)"/><path class="g" d="M340.2,505.487a1.757,1.757,0,0,0,.456-.576c.2-.342.346-.651.3-.676s-.244.234-.456.584S340.156,505.462,340.2,505.487Z" transform="translate(-233.331 -195.885)"/><path class="g" d="M338.436,504.825a1.733,1.733,0,0,0,.519-.367c.252-.234.432-.459.393-.492s-.267.125-.519.359S338.4,504.783,338.436,504.825Z" transform="translate(-232.806 -195.815)"/><path class="g" d="M337.282,503.24a3.413,3.413,0,0,0,1.572,0,1.93,1.93,0,0,0-.786-.075,1.775,1.775,0,0,0-.786.075Z" transform="translate(-232.462 -195.608)"/><path class="g" d="M336.867,501.948a2.171,2.171,0,0,0,1.785.083,5.333,5.333,0,0,0-.9,0A5.522,5.522,0,0,0,336.867,501.948Z" transform="translate(-232.338 -195.3)"/><path class="g" d="M340.927,503.706a2.81,2.81,0,0,0,.967,0,5.836,5.836,0,0,0,1.014-.25,2.7,2.7,0,0,0,.582-.259.561.561,0,0,0,.236-.3.385.385,0,0,0-.157-.375,1.794,1.794,0,0,0-2.178.567,1.638,1.638,0,0,0-.291.651.512.512,0,0,0,0,.25,2.846,2.846,0,0,1,.417-.834,1.678,1.678,0,0,1,.786-.551,1.54,1.54,0,0,1,1.156,0c.157.108.1.284-.071.392a2.286,2.286,0,0,1-.535.242,6.9,6.9,0,0,1-.983.284C341.257,503.664,340.927,503.672,340.927,503.706Z" transform="translate(-233.552 -195.405)"/><path class="g" d="M340.68,503.6a.949.949,0,0,0,.094-.668,1.611,1.611,0,0,0-.307-.676.994.994,0,0,0-.786-.467.384.384,0,0,0-.283.451.938.938,0,0,0,.173.417,2.807,2.807,0,0,0,.472.567,1.372,1.372,0,0,0,.566.367,6.541,6.541,0,0,1-.472-.459,2.9,2.9,0,0,1-.425-.559c-.134-.2-.236-.559,0-.609a.878.878,0,0,1,.653.392,1.6,1.6,0,0,1,.291.609A3.875,3.875,0,0,1,340.68,503.6Z" transform="translate(-233.093 -195.26)"/><path class="g" d="M318.027,503.5a5.531,5.531,0,0,1,1.109,0,5.007,5.007,0,0,1,2.445.918,4.846,4.846,0,0,1,1.572,2.069c.244.626.283,1.051.315,1.051a.886.886,0,0,0,0-.3,4.1,4.1,0,0,0-.189-.793,4.557,4.557,0,0,0-1.572-2.17,4.7,4.7,0,0,0-2.547-.9,4.334,4.334,0,0,0-.825.05C318.121,503.413,318.019,503.446,318.027,503.5Z" transform="translate(-226.705 -195.663)"/><path class="g" d="M328.456,506.983a8.208,8.208,0,0,0,2.193.159,9.131,9.131,0,0,0,2.193-.234,16.47,16.47,0,0,0-2.193.05C329.439,507.008,328.464,506.9,328.456,506.983Z" transform="translate(-229.823 -196.563)"/><path class="g" d="M324.259,507.127c-.039,0,.086.2.189.417s.173.417.22.409.071-.234-.055-.484S324.29,507.085,324.259,507.127Z" transform="translate(-228.566 -196.623)"/><path class="g" d="M322.625,505.332a.892.892,0,0,0,.228.342c.165.15.314.242.354.209s-.071-.192-.228-.342S322.656,505.3,322.625,505.332Z" transform="translate(-228.079 -196.164)"/><path class="g" d="M320.337,504.53c0,.05.212,0,.432.117s.385.175.425.142-.094-.234-.37-.317S320.321,504.488,320.337,504.53Z" transform="translate(-227.395 -195.937)"/><path class="g" d="M318.711,504.2a.406.406,0,0,0,.2.159.493.493,0,0,0,.259,0c.016,0-.071-.125-.2-.167S318.727,504.15,318.711,504.2Z" transform="translate(-226.909 -195.866)"/><path class="g" d="M297.359,451.7,279.646,315.3h0l-.5-8.786-44.372-2.236-1.879,7.4C226.666,334.976,195.2,447.63,195.2,447.63l15.37,5.148,45.755-129.084,21.3,127.765Z" transform="translate(-189.983 -144.703)"/><path class="i" d="M311.652,305.061c-.118,0-.236-.259-.267-.6s.039-.634.149-.642.228.259.259.6S311.73,305.053,311.652,305.061Z" transform="translate(-224.717 -144.585)"/><path class="i" d="M312.237,311.306c-.118,0-.259-.534-.322-1.218a2.4,2.4,0,0,1,.086-1.268c.086-.017.252.534.322,1.227S312.347,311.289,312.237,311.306Z" transform="translate(-224.87 -145.865)"/><path class="i" d="M312.92,317.97c-.11,0-.252-.526-.322-1.21a2.45,2.45,0,0,1,.079-1.268,2.383,2.383,0,0,1,.33,1.218C313.077,317.395,313.038,317.962,312.92,317.97Z" transform="translate(-225.073 -147.573)"/><path class="i" d="M313.642,324.643c-.118,0-.267-.534-.338-1.218a2.394,2.394,0,0,1,.079-1.26,2.371,2.371,0,0,1,.33,1.21C313.784,324.059,313.792,324.626,313.642,324.643Z" transform="translate(-225.284 -149.281)"/><path class="i" d="M314.377,331.3c-.11,0-.259-.534-.338-1.218s-.039-1.252.071-1.26.267.526.338,1.21S314.487,331.288,314.377,331.3Z" transform="translate(-225.5 -150.987)"/><path class="i" d="M315.14,337.966c-.11,0-.259-.534-.338-1.218s-.039-1.252.071-1.26.259.526.338,1.21S315.258,337.95,315.14,337.966Z" transform="translate(-225.728 -152.692)"/><path class="i" d="M315.932,344.616c-.118,0-.267-.526-.346-1.21s-.047-1.252.063-1.268.267.534.346,1.218S316.042,344.575,315.932,344.616Z" transform="translate(-225.962 -154.394)"/><path class="i" d="M316.738,351.289c-.118,0-.267-.534-.346-1.218s-.055-1.243.055-1.26.267.526.346,1.21S316.848,351.289,316.738,351.289Z" transform="translate(-226.202 -156.102)"/><path class="i" d="M317.557,357.928c-.11,0-.267-.526-.346-1.21s-.055-1.252.055-1.268.267.526.354,1.21S317.675,357.912,317.557,357.928Z" transform="translate(-226.447 -157.801)"/><path class="i" d="M318.4,364.579c-.11,0-.267-.526-.346-1.21s-.063-1.252.055-1.268.267.534.346,1.21S318.515,364.562,318.4,364.579Z" transform="translate(-226.697 -159.503)"/><path class="i" d="M319.257,371.229c-.118,0-.275-.526-.354-1.21s-.063-1.252.047-1.268.275.526.354,1.21S319.39,371.212,319.257,371.229Z" transform="translate(-226.952 -161.206)"/><path class="i" d="M320.119,377.879c-.11,0-.267-.526-.354-1.21s-.063-1.252.047-1.268.275.526.362,1.21S320.229,377.863,320.119,377.879Z" transform="translate(-227.209 -162.908)"/><path class="i" d="M320.994,384.521c-.11,0-.267-.526-.354-1.2s-.063-1.252.047-1.268.275.526.362,1.21S321.111,384.5,320.994,384.521Z" transform="translate(-227.47 -164.61)"/><path class="i" d="M321.88,391.172c-.11,0-.267-.526-.354-1.21s-.063-1.252.047-1.26.267.517.354,1.2S322,391.155,321.88,391.172Z" transform="translate(-227.735 -166.313)"/><path class="i" d="M322.807,397.811c-.11,0-.275-.517-.362-1.2s-.063-1.252.047-1.268.275.526.362,1.21A2.316,2.316,0,0,1,322.807,397.811Z" transform="translate(-228.01 -168.012)"/><path class="i" d="M323.671,404.461c-.11,0-.275-.526-.362-1.21s-.063-1.243.047-1.26.275.517.362,1.2S323.781,404.444,323.671,404.461Z" transform="translate(-228.268 -169.714)"/><path class="i" d="M324.566,411.1c-.11,0-.267-.526-.362-1.2s-.063-1.252.047-1.268.275.526.362,1.21S324.684,411.083,324.566,411.1Z" transform="translate(-228.535 -171.414)"/><path class="i" d="M325.491,417.739c-.118,0-.283-.526-.369-1.21a2.742,2.742,0,0,1,0-1.26,2.315,2.315,0,0,1,.369,1.2C325.578,417.147,325.6,417.723,325.491,417.739Z" transform="translate(-228.807 -173.113)"/><path class="i" d="M326.462,424.359c-.11,0-.283-.517-.377-1.193a2.672,2.672,0,0,1,0-1.268,2.326,2.326,0,0,1,.377,1.2C326.557,423.783,326.572,424.342,326.462,424.359Z" transform="translate(-229.095 -174.809)"/><path class="i" d="M327.459,430.987c-.11,0-.283-.517-.377-1.2a2.511,2.511,0,0,1,0-1.26c.086-.017.283.517.377,1.193S327.569,430.937,327.459,430.987Z" transform="translate(-229.392 -176.506)"/><path class="i" d="M328.457,437.648c-.11,0-.283-.517-.377-1.2a2.511,2.511,0,0,1,0-1.26c.086-.017.283.517.385,1.193S328.567,437.648,328.457,437.648Z" transform="translate(-229.69 -178.211)"/><path class="i" d="M329.523,444.231c-.118,0-.283-.517-.377-1.2a2.51,2.51,0,0,1,0-1.26c.086-.017.283.517.377,1.2A2.742,2.742,0,0,1,329.523,444.231Z" transform="translate(-230.009 -179.896)"/><path class="i" d="M330.463,450.848c-.11,0-.275-.517-.377-1.193a2.458,2.458,0,0,1,0-1.268c.086-.017.275.517.377,1.2S330.589,450.831,330.463,450.848Z" transform="translate(-230.289 -181.59)"/><path class="i" d="M331.474,457.476c-.11,0-.283-.517-.377-1.2a2.511,2.511,0,0,1,0-1.26c.086-.017.283.517.385,1.193S331.584,457.459,331.474,457.476Z" transform="translate(-230.592 -183.286)"/><path class="i" d="M332.483,464.1c-.11,0-.283-.517-.377-1.2a2.511,2.511,0,0,1,0-1.26c.086-.017.283.517.385,1.2S332.593,464.087,332.483,464.1Z" transform="translate(-230.894 -184.983)"/><path class="i" d="M333.493,470.732c-.11,0-.283-.517-.377-1.193a2.56,2.56,0,0,1,0-1.268c.086-.017.283.517.377,1.2S333.6,470.715,333.493,470.732Z" transform="translate(-231.196 -186.679)"/><path class="i" d="M334.5,477.359c-.11,0-.283-.517-.377-1.193a2.561,2.561,0,0,1,0-1.268c.086-.017.283.517.377,1.2S334.612,477.343,334.5,477.359Z" transform="translate(-231.497 -188.376)"/><path class="i" d="M335.5,484c-.11,0-.275-.526-.377-1.2a2.458,2.458,0,0,1,0-1.268c.086-.017.275.517.377,1.2S335.617,483.971,335.5,484Z" transform="translate(-231.795 -190.072)"/><path class="i" d="M336.5,490.624c-.11,0-.275-.517-.377-1.2a2.549,2.549,0,0,1,0-1.268,2.364,2.364,0,0,1,.377,1.2C336.592,490.031,336.616,490.607,336.5,490.624Z" transform="translate(-232.094 -191.769)"/><path class="i" d="M337.5,497.263c-.118,0-.283-.526-.377-1.2a2.561,2.561,0,0,1,0-1.268c.086-.017.275.517.37,1.2S337.606,497.246,337.5,497.263Z" transform="translate(-232.393 -193.468)"/><path class="i" d="M338.277,502.7c-.11,0-.244-.242-.283-.584s0-.634.118-.651.244.25.283.592S338.387,502.684,338.277,502.7Z" transform="translate(-232.67 -195.176)"/><path class="i" d="M215.421,499.055c.1,0,.118.334,0,.659s-.267.567-.37.534-.118-.334,0-.668S215.311,499.055,215.421,499.055Z" transform="translate(-195.893 -194.559)"/><path class="i" d="M217.352,492.583c.11,0,0,.609-.165,1.277s-.456,1.177-.558,1.135,0-.6.165-1.268S217.273,492.55,217.352,492.583Z" transform="translate(-196.376 -192.902)"/><path class="i" d="M219.474,486.1c.11.042,0,.609-.173,1.277s-.456,1.168-.566,1.135,0-.609.173-1.268S219.356,486.068,219.474,486.1Z" transform="translate(-197.005 -191.243)"/><path class="i" d="M221.587,479.63c.11.042,0,.609-.181,1.277s-.464,1.168-.574,1.135,0-.609.181-1.277S221.477,479.6,221.587,479.63Z" transform="translate(-197.633 -189.587)"/><path class="i" d="M223.761,473.171c.1.042,0,.609-.189,1.277s-.472,1.168-.574,1.126,0-.609.181-1.268S223.651,473.137,223.761,473.171Z" transform="translate(-198.281 -187.933)"/><path class="i" d="M225.956,466.722c.11.042,0,.609-.2,1.268s-.472,1.168-.574,1.135,0-.609.189-1.277S225.846,466.68,225.956,466.722Z" transform="translate(-198.935 -186.282)"/><path class="i" d="M228.18,460.284c.11,0,0,.609-.2,1.268s-.48,1.168-.59,1.126,0-.609.2-1.268S228.069,460.243,228.18,460.284Z" transform="translate(-199.594 -184.635)"/><path class="i" d="M230.43,453.847c.11.042,0,.609-.2,1.268s-.487,1.168-.6,1.126,0-.609.2-1.268S230.328,453.806,230.43,453.847Z" transform="translate(-200.265 -182.987)"/><path class="i" d="M232.715,447.465c.11.042,0,.609-.2,1.268s-.487,1.16-.6,1.118,0-.6.212-1.26S232.613,447.389,232.715,447.465Z" transform="translate(-200.946 -181.352)"/><path class="i" d="M235.023,441.006c.1.042,0,.609-.212,1.268s-.5,1.16-.6,1.118,0-.609.212-1.268S234.913,440.965,235.023,441.006Z" transform="translate(-201.634 -179.7)"/><path class="i" d="M237.386,434.592c.1.042,0,.609-.22,1.268s-.5,1.16-.6,1.118,0-.609.212-1.268S237.252,434.55,237.386,434.592Z" transform="translate(-202.338 -178.058)"/><path class="i" d="M239.7,428.188c.1.042,0,.609-.228,1.268s-.5,1.16-.605,1.118,0-.609.228-1.268S239.589,428.146,239.7,428.188Z" transform="translate(-203.025 -176.419)"/><path class="i" d="M242.066,421.8c.11.042,0,.609-.228,1.268s-.5,1.152-.605,1.11,0-.609.228-1.26S241.964,421.754,242.066,421.8Z" transform="translate(-203.732 -174.783)"/><path class="i" d="M244.451,415.4c.11,0,0,.609-.228,1.268s-.5,1.151-.613,1.11,0-.609.228-1.26S244.349,415.362,244.451,415.4Z" transform="translate(-204.443 -173.147)"/><path class="i" d="M246.859,409.022c.1,0,0,.609-.236,1.268s-.5,1.151-.613,1.11,0-.609.236-1.268S246.749,408.98,246.859,409.022Z" transform="translate(-205.16 -171.513)"/><path class="i" d="M249.278,402.608c.1.042,0,.609-.236,1.268s-.511,1.151-.621,1.11,0-.609.236-1.268S249.168,402.608,249.278,402.608Z" transform="translate(-205.881 -169.872)"/><path class="i" d="M251.713,396.271c.1,0,0,.609-.236,1.26s-.519,1.151-.621,1.11,0-.609.236-1.26S251.6,396.229,251.713,396.271Z" transform="translate(-206.61 -168.249)"/><path class="i" d="M254.192,389.9c.1.042,0,.609-.244,1.26s-.511,1.152-.613,1.11,0-.609.236-1.26S254.058,389.859,254.192,389.9Z" transform="translate(-207.351 -166.619)"/><path class="i" d="M256.609,383.542c.1.05,0,.609-.244,1.268s-.511,1.143-.621,1.1,0-.609.244-1.26S256.483,383.492,256.609,383.542Z" transform="translate(-208.071 -164.991)"/><path class="i" d="M259.078,377.172c.1.042,0,.609-.244,1.26s-.519,1.151-.621,1.11,0-.609.236-1.26S258.968,377.131,259.078,377.172Z" transform="translate(-208.81 -163.361)"/><path class="i" d="M261.545,370.814c.1.05,0,.609-.244,1.26s-.519,1.151-.621,1.11,0-.609.244-1.26S261.443,370.772,261.545,370.814Z" transform="translate(-209.548 -161.733)"/><path class="i" d="M264.024,364.477c.1.042,0,.609-.244,1.26s-.519,1.143-.621,1.1,0-.609.244-1.26S263.921,364.418,264.024,364.477Z" transform="translate(-210.289 -160.111)"/><path class="i" d="M266.524,358.107c.11.042,0,.609-.244,1.26s-.519,1.151-.621,1.1,0-.6.244-1.26S266.407,358.065,266.524,358.107Z" transform="translate(-211.036 -158.481)"/><path class="i" d="M268.987,351.76c.1,0,0,.609-.244,1.26s-.519,1.143-.629,1.1,0-.609.244-1.26S268.885,351.718,268.987,351.76Z" transform="translate(-211.769 -156.856)"/><path class="i" d="M271.567,345.413c.1.05,0,.609-.275,1.252s-.55,1.126-.653,1.085,0-.609.275-1.252S271.465,345.413,271.567,345.413Z" transform="translate(-212.525 -155.232)"/><path class="i" d="M274.437,339.3c.094.058-.063.609-.354,1.235s-.613,1.085-.715,1.035.055-.6.354-1.235S274.335,339.241,274.437,339.3Z" transform="translate(-213.343 -153.666)"/><path class="i" d="M277.944,333.522c.086.083-.142.6-.511,1.168s-.786.985-.849.918a2.41,2.41,0,0,1,.511-1.168C277.472,333.856,277.857,333.447,277.944,333.522Z" transform="translate(-214.311 -152.186)"/><path class="i" d="M281.979,330.346c0,.117-.181.284-.448.434s-.527.234-.6.134.1-.35.409-.517S281.947,330.229,281.979,330.346Z" transform="translate(-215.61 -151.355)"/><path class="j" d="M287.1,276.23s-2.359-8.519-3.632-13.225a27.27,27.27,0,0,1-.9-5.841l-.189-4.264.668-3.6,2.17,2.67,10.59-11.74c.2.284-4.8-7.41-9.851-14.936-3.522-5.24-6.966-6.675-9.19-6.876a8.058,8.058,0,0,0-3.215-.3l-18.224-.167a16.64,16.64,0,0,0-10.873,4.23c-.841.734-7.822,10.589-12.579,20.326l14.662,11.231,2.414-4.506v.267c.189,1.6.653,4.172,1.006,5.757,1.171,4.965,1.761,11.515-.6,15.812a123.219,123.219,0,0,0-4.2,13.351h44.961S288.669,280.244,287.1,276.23Z" transform="translate(-200.947 -122.605)"/><path class="d" d="M262.068,225.947a.677.677,0,0,1,.212.259,1.541,1.541,0,0,1,.11.985,2.459,2.459,0,0,1-.786,1.318c-.44.4-.967.776-1.572,1.227-1.164.9-2.516,1.953-4.017,3.1a9.2,9.2,0,0,1-2.563,1.619,2.755,2.755,0,0,1-1.643,0,2.1,2.1,0,0,1-1.289-1.218,3.443,3.443,0,0,1,.582-3.338,8.9,8.9,0,0,1,2.359-1.936l2.28-1.435a19.774,19.774,0,0,1,2.036-1.2,15.532,15.532,0,0,1,1.824-.684,2.456,2.456,0,0,1,1.462.259c.786.384.912.918.88.91a2.244,2.244,0,0,0-.943-.759,2.344,2.344,0,0,0-1.352-.167,16.343,16.343,0,0,0-1.753.718c-.629.3-1.258.784-1.981,1.235l-2.256,1.469a8.566,8.566,0,0,0-2.248,1.861,3,3,0,0,0-.519,2.9,1.608,1.608,0,0,0,1.03.976,2.317,2.317,0,0,0,1.407,0,9.155,9.155,0,0,0,2.469-1.535l4.065-3.029c.574-.434,1.124-.834,1.572-1.168a2.245,2.245,0,0,0,.786-1.168,1.538,1.538,0,0,0-.149-1.2Z" transform="translate(-206.462 -124.314)"/><path class="d" d="M310.771,245.866a.645.645,0,0,1,0,.35,1.513,1.513,0,0,1-.55.834,2.195,2.195,0,0,1-1.423.392c-.582,0-1.211-.117-1.91-.192l-4.937-.617a8.752,8.752,0,0,1-2.917-.659,2.957,2.957,0,0,1-1.234-1.16,2.27,2.27,0,0,1-.165-1.811,3.127,3.127,0,0,1,2.563-2.044,8.478,8.478,0,0,1,2.98.275l2.594.592a19.012,19.012,0,0,1,2.264.576,14.972,14.972,0,0,1,1.777.834,2.573,2.573,0,0,1,.9,1.243,1.638,1.638,0,0,1,.071,1.3,2.637,2.637,0,0,0-.212-1.235,2.512,2.512,0,0,0-.881-1.1,17.177,17.177,0,0,0-1.753-.734,20.473,20.473,0,0,0-2.241-.517l-2.6-.551a8.328,8.328,0,0,0-2.846-.25,2.744,2.744,0,0,0-2.233,1.769,1.759,1.759,0,0,0,.134,1.452,2.606,2.606,0,0,0,1.053,1,8.835,8.835,0,0,0,2.791.643l4.921.7c.7.092,1.336.217,1.887.259a2.081,2.081,0,0,0,1.329-.292A1.5,1.5,0,0,0,310.771,245.866Z" transform="translate(-220.573 -128.488)"/><path class="d" d="M298.928,224.875a.677.677,0,0,1,.212.259,1.541,1.541,0,0,1,.11.985,2.434,2.434,0,0,1-.786,1.318c-.44.4-.967.784-1.533,1.235l-4.009,3.1a9.568,9.568,0,0,1-2.571,1.619,2.755,2.755,0,0,1-1.643,0,2.05,2.05,0,0,1-1.281-1.21,3.444,3.444,0,0,1,.574-3.338,8.86,8.86,0,0,1,2.359-1.936l2.28-1.444a21.4,21.4,0,0,1,2.036-1.2,14.969,14.969,0,0,1,1.832-.676,2.366,2.366,0,0,1,1.454.25c.786.392.912.926.888.918A2.314,2.314,0,0,0,297.9,224a2.271,2.271,0,0,0-1.352-.175,18.533,18.533,0,0,0-1.753.726,21.94,21.94,0,0,0-1.973,1.227l-2.264,1.477a8.566,8.566,0,0,0-2.248,1.861,3,3,0,0,0-.519,2.9,1.663,1.663,0,0,0,1.03.968,2.34,2.34,0,0,0,1.415,0,9.453,9.453,0,0,0,2.461-1.535c1.509-1.135,2.885-2.153,4.065-3.029.574-.434,1.124-.834,1.572-1.168a2.355,2.355,0,0,0,.786-1.168,1.588,1.588,0,0,0-.189-1.21Z" transform="translate(-217.496 -124.043)"/><path class="d" d="M244.49,241.582a.614.614,0,0,1,.291-.167,1.274,1.274,0,0,1,.928.1,2.372,2.372,0,0,1,1.038,1.11c.275.542.5,1.168.786,1.852l1.981,4.831a10.667,10.667,0,0,1,.928,3.012,3.177,3.177,0,0,1-.33,1.711,2.032,2.032,0,0,1-1.392,1.068,3.013,3.013,0,0,1-2.956-1.327,9.58,9.58,0,0,1-1.266-2.87c-.291-.935-.566-1.836-.825-2.678a22.11,22.11,0,0,1-.66-2.37,16.049,16.049,0,0,1-.236-2.036,2.831,2.831,0,0,1,.558-1.46c.519-.693,1.038-.743,1.03-.718a2.294,2.294,0,0,0-.9.834,2.7,2.7,0,0,0-.456,1.36c.047.559.157,1.26.291,1.978a22.423,22.423,0,0,0,.7,2.311c.267.834.558,1.736.865,2.67a9.285,9.285,0,0,0,1.219,2.737,2.653,2.653,0,0,0,2.563,1.16,1.578,1.578,0,0,0,1.116-.834,2.774,2.774,0,0,0,.283-1.469,10.342,10.342,0,0,0-.873-2.887c-.715-1.811-1.352-3.463-1.9-4.873-.275-.684-.5-1.335-.739-1.852a2.247,2.247,0,0,0-.9-1.076,1.3,1.3,0,0,0-1.132-.117Z" transform="translate(-204.206 -128.601)"/><path class="d" d="M272.445,239.241a.537.537,0,0,1,.354.058,1.486,1.486,0,0,1,.731.776,2.1,2.1,0,0,1,.118.359.584.584,0,0,0,.2.25,5.686,5.686,0,0,0,.739.434,15.525,15.525,0,0,1,1.91,1.01.9.9,0,0,1,.252.25.338.338,0,0,1,.079.242.277.277,0,0,1-.039.192,2.819,2.819,0,0,1-.244.651,5.936,5.936,0,0,1-.786,1.177c-.621.751-1.36,1.444-2.091,2.211a5.4,5.4,0,0,0-1.643,2.77,7.577,7.577,0,0,1-.566,1.769,3.106,3.106,0,0,1-1.305,1.41,1.947,1.947,0,0,1-1.887,0,3.1,3.1,0,0,1-1.226-1.427,5.437,5.437,0,0,1,0-3.513c.605-2.119,1.179-3.972,1.69-5.566a18.3,18.3,0,0,1,.967-2.011,2.381,2.381,0,0,1,1.3-1.051,1.49,1.49,0,0,1,1.352,0,2.136,2.136,0,0,0-1.3.142,2.253,2.253,0,0,0-1.148,1.01,19.363,19.363,0,0,0-.9,2c-.456,1.56-1.022,3.48-1.572,5.566a5.1,5.1,0,0,0,0,3.229,2.641,2.641,0,0,0,1.061,1.218,1.544,1.544,0,0,0,1.509,0,2.692,2.692,0,0,0,1.124-1.218,7.626,7.626,0,0,0,.542-1.669,4.67,4.67,0,0,1,.252-.884,4.943,4.943,0,0,1,.44-.784,9.853,9.853,0,0,1,1.077-1.285c.739-.776,1.486-1.452,2.091-2.161a6.039,6.039,0,0,0,.786-1.1,2.8,2.8,0,0,0,.228-.584s.047-.117,0-.117h0v-.042a.809.809,0,0,0-.181-.184,17.354,17.354,0,0,0-1.84-1.035,5.262,5.262,0,0,1-.786-.484.708.708,0,0,1-.259-.375,2.043,2.043,0,0,0-.094-.334,1.39,1.39,0,0,0-.613-.759,2.588,2.588,0,0,0-.322-.142Z" transform="translate(-211.375 -128.012)"/><path class="d" d="M285.491,249.946a.577.577,0,0,1,.236-.234,1.292,1.292,0,0,1,.92-.15,2.265,2.265,0,0,1,1.266.834,19.683,19.683,0,0,1,1.2,1.585l3.043,4.172a9.923,9.923,0,0,1,1.572,2.67,3.3,3.3,0,0,1,.079,1.752,2.124,2.124,0,0,1-1.109,1.393,3,3,0,0,1-3.145-.517A9.2,9.2,0,0,1,287.669,259l-1.392-2.378a23.3,23.3,0,0,1-1.195-2.128,18,18,0,0,1-.692-1.919,2.8,2.8,0,0,1,.2-1.552c.346-.834.841-.993.833-.968a2.55,2.55,0,0,0-.684,1.035,2.8,2.8,0,0,0-.126,1.435c.173.526.44,1.177.731,1.836q.559,1.063,1.219,2.061l1.454,2.361a9.083,9.083,0,0,0,1.816,2.336,2.6,2.6,0,0,0,2.752.459,1.729,1.729,0,0,0,.888-1.118,2.871,2.871,0,0,0-.063-1.5,10.12,10.12,0,0,0-1.517-2.562l-2.972-4.23c-.425-.592-.786-1.168-1.148-1.61a2.167,2.167,0,0,0-1.124-.834,1.26,1.26,0,0,0-1.156.225Z" transform="translate(-216.638 -130.691)"/><path class="d" d="M261.628,270.438a.668.668,0,0,1,.063-.342,1.47,1.47,0,0,1,.66-.7,2.174,2.174,0,0,1,1.47-.142c.566.117,1.171.317,1.855.517l4.78,1.444a9.312,9.312,0,0,1,2.783,1.143,3.034,3.034,0,0,1,1.038,1.36,2.262,2.262,0,0,1-.11,1.819,3.045,3.045,0,0,1-2.838,1.577,8.337,8.337,0,0,1-2.893-.776l-2.476-1.026a19.88,19.88,0,0,1-2.146-.96,15.488,15.488,0,0,1-1.635-1.11,2.7,2.7,0,0,1-.708-1.377,1.591,1.591,0,0,1,.134-1.293,2.474,2.474,0,0,0,0,1.252,2.671,2.671,0,0,0,.7,1.235,17.159,17.159,0,0,0,1.62,1.018,21.541,21.541,0,0,0,2.123.926l2.492.985a8.244,8.244,0,0,0,2.767.726,2.656,2.656,0,0,0,2.469-1.36,1.76,1.76,0,0,0,.086-1.452,2.563,2.563,0,0,0-.888-1.168,8.922,8.922,0,0,0-2.657-1.11l-4.717-1.535c-.676-.209-1.289-.442-1.824-.576a2.074,2.074,0,0,0-1.352.058,1.457,1.457,0,0,0-.794.868Z" transform="translate(-209.772 -135.721)"/><path class="d" d="M296.995,291.641a.487.487,0,0,1-.314.075,1.294,1.294,0,0,1-.873-.359,2.437,2.437,0,0,1-.715-1.368c-.134-.592-.2-1.268-.307-2.011-.2-1.51-.432-3.271-.684-5.223a10.7,10.7,0,0,1-.134-3.162,3.124,3.124,0,0,1,.786-1.552,1.957,1.957,0,0,1,1.572-.634,3.189,3.189,0,0,1,2.508,2.128,10.1,10.1,0,0,1,.5,3.121c0,.993.079,1.927.118,2.82a23.932,23.932,0,0,1,0,2.5,16.719,16.719,0,0,1-.291,2.028,2.647,2.647,0,0,1-.9,1.243,1.416,1.416,0,0,1-1.171.4,2.3,2.3,0,0,0,1.077-.534,2.6,2.6,0,0,0,.786-1.185,19.436,19.436,0,0,0,.228-1.978q.013-1.216-.094-2.428c-.047-.884-.094-1.827-.149-2.812a9.777,9.777,0,0,0-.487-2.987,2.76,2.76,0,0,0-2.17-1.852,1.567,1.567,0,0,0-1.3.509,2.7,2.7,0,0,0-.645,1.327,10.555,10.555,0,0,0,.118,3.029c.22,1.953.425,3.721.6,5.24.086.743.134,1.427.236,1.994a2.369,2.369,0,0,0,.6,1.293A1.347,1.347,0,0,0,296.995,291.641Z" transform="translate(-219.494 -137.823)"/><path class="d" d="M263.867,298.76a.691.691,0,0,1-.189-.284,1.518,1.518,0,0,1,0-.993,2.369,2.369,0,0,1,.912-1.227c.464-.359,1.022-.684,1.627-1.076l4.269-2.7a9.424,9.424,0,0,1,2.7-1.352,2.765,2.765,0,0,1,1.635.133A2.1,2.1,0,0,1,276,292.6a3.413,3.413,0,0,1-.873,3.279,8.587,8.587,0,0,1-2.524,1.669l-2.4,1.21a20.538,20.538,0,0,1-2.162,1.035,14.331,14.331,0,0,1-1.871.492,2.345,2.345,0,0,1-1.431-.4c-.715-.459-.825-1-.786-.993a2.413,2.413,0,0,0,.88.834,2.336,2.336,0,0,0,1.329.3,14.952,14.952,0,0,0,1.808-.542,21.8,21.8,0,0,0,2.076-1.026l2.359-1.243a8.515,8.515,0,0,0,2.406-1.627,3,3,0,0,0,.786-2.845,1.691,1.691,0,0,0-.936-1.068,2.408,2.408,0,0,0-1.415-.117,8.886,8.886,0,0,0-2.579,1.285l-4.324,2.612c-.605.375-1.187.684-1.643,1.01a2.235,2.235,0,0,0-.888,1.085A1.568,1.568,0,0,0,263.867,298.76Z" transform="translate(-210.431 -141.321)"/><path class="g" d="M260.56,247.206a77.373,77.373,0,0,1-3.8,7.067,77.961,77.961,0,0,1-4.151,6.834,76.847,76.847,0,0,1,3.8-7.059,75.992,75.992,0,0,1,4.151-6.842Z" transform="translate(-207.147 -130.095)"/><path class="g" d="M261.384,237.2a20.505,20.505,0,0,0-.267-2.845,18.924,18.924,0,0,0-2.634-6.233,9.824,9.824,0,0,0-2.469-2.662,6.643,6.643,0,0,0-2.649-1.126,6.367,6.367,0,0,0-2.649.159,1.742,1.742,0,0,1,.684-.317,4.98,4.98,0,0,1,2.013-.142,6.619,6.619,0,0,1,2.815,1.093,9.846,9.846,0,0,1,2.594,2.745A17.447,17.447,0,0,1,261.4,234.3a9.338,9.338,0,0,1,.11,2.136A2.158,2.158,0,0,1,261.384,237.2Z" transform="translate(-206.58 -124.152)"/><path class="g" d="M283.24,217.745a1.454,1.454,0,0,1,.094.275,5.675,5.675,0,0,1,.149.834,8.586,8.586,0,0,1-2.476,6.967,7.514,7.514,0,0,1-9.9.409,8.518,8.518,0,0,1-2.524-3.7,8.343,8.343,0,0,1-.456-3.046,5.389,5.389,0,0,1,.086-.834c.039-.192.063-.292.079-.284a10.187,10.187,0,0,0,.566,4.047,8.317,8.317,0,0,0,2.476,3.5,7.241,7.241,0,0,0,9.434-.392A8.418,8.418,0,0,0,283,221.825a10.245,10.245,0,0,0,.244-4.08Z" transform="translate(-211.785 -122.554)"/><path class="g" d="M299.545,243.875a9.846,9.846,0,0,1,1.376,1.986,19.432,19.432,0,0,1,2.233,5.474,14.291,14.291,0,0,1,.134,5.966,9.846,9.846,0,0,1-.511,1.736,1.77,1.77,0,0,1-.3.584c-.071,0,.291-.893.527-2.378a15.422,15.422,0,0,0-.252-5.841,22.886,22.886,0,0,0-2.076-5.415q-.617-1.024-1.132-2.111Z" transform="translate(-221.179 -129.242)"/><path class="g" d="M318.55,247.935a13.858,13.858,0,0,1-1.486,1.811l-3.7,4.247c-1.462,1.669-2.807,3.121-3.805,4.172a11.773,11.773,0,0,1-1.69,1.6,14.2,14.2,0,0,1,1.486-1.819l3.711-4.239c1.454-1.669,2.8-3.121,3.8-4.172A11.768,11.768,0,0,1,318.55,247.935Z" transform="translate(-223.667 -130.281)"/><path class="g" d="M310.68,259.79c-.071.1-.487-.134-.928-.517s-.739-.759-.668-.834.487.142.928.517S310.751,259.731,310.68,259.79Z" transform="translate(-224.028 -132.966)"/><path class="g" d="M314.156,256.178c-.079.092-.48-.1-.912-.434s-.723-.676-.66-.776.464.092.9.426S314.227,256.087,314.156,256.178Z" transform="translate(-225.075 -132.075)"/><path class="g" d="M318.661,251.32c-.071.092-.456-.117-.857-.476s-.66-.718-.59-.834.456.117.857.476S318.74,251.229,318.661,251.32Z" transform="translate(-226.458 -130.805)"/><path class="g" d="M280.927,233.566c-.1.05-.464-.509-.629-1.31s-.055-1.477.055-1.469.189.626.346,1.377S281.029,233.508,280.927,233.566Z" transform="translate(-215.4 -125.892)"/><path class="g" d="M287.162,230.78c-.086.075-.456-.284-.786-.834s-.582-.993-.487-1.068.456.292.786.834S287.256,230.713,287.162,230.78Z" transform="translate(-217.09 -125.401)"/><path class="g" d="M291.067,225.755c-.055.108-.511-.05-1.014-.342s-.873-.626-.786-.726.511.05,1.014.342S291.122,225.655,291.067,225.755Z" transform="translate(-218.102 -124.323)"/><path class="g" d="M292.144,220.839c0,.125-.44.2-.967.175s-.951-.15-.951-.267.44-.192.967-.167S292.144,220.739,292.144,220.839Z" transform="translate(-218.393 -123.278)"/><path class="g" d="M272.227,232.181c-.094-.058.094-.592.425-1.193s.676-1.035.786-.976-.086.592-.417,1.193S272.329,232.24,272.227,232.181Z" transform="translate(-213.004 -125.692)"/><path class="g" d="M267.5,227.407c-.039-.117.385-.392.9-.709s.951-.584,1.03-.492-.267.517-.786.834S267.543,227.516,267.5,227.407Z" transform="translate(-211.599 -124.715)"/><path class="g" d="M267.512,221.269c0,.117-.472.325-1.109.459s-1.164.142-1.187,0,.472-.317,1.108-.451S267.5,221.152,267.512,221.269Z" transform="translate(-210.915 -123.433)"/><path class="g" d="M246.593,262.268a2.363,2.363,0,0,1-.645-.325c-.4-.234-.959-.6-1.643-1.076-1.36-.943-3.145-2.361-5.134-3.972s-3.726-3.071-5.047-4.072a18.436,18.436,0,0,1-2.115-1.669,2.3,2.3,0,0,1,.637.325c.4.234.967.6,1.643,1.076,1.368.943,3.145,2.361,5.134,3.972s3.734,3.071,5.047,4.072A25.374,25.374,0,0,1,246.593,262.268Z" transform="translate(-200.987 -131.105)"/><path class="g" d="M235.885,249.75c.1.058-.079.651-.4,1.335s-.668,1.185-.786,1.126.079-.643.4-1.327S235.791,249.7,235.885,249.75Z" transform="translate(-201.781 -130.745)"/><path class="g" d="M240.972,253.328c.094.058-.11.668-.456,1.36s-.715,1.2-.786,1.143a2.985,2.985,0,0,1,.448-1.352C240.524,253.787,240.87,253.278,240.972,253.328Z" transform="translate(-203.291 -131.661)"/><path class="g" d="M246.41,257.734c.094.067-.149.617-.55,1.227s-.786,1.043-.9.976.157-.617.558-1.227S246.324,257.667,246.41,257.734Z" transform="translate(-204.853 -132.788)"/><path class="g" d="M251.178,259.877a4.583,4.583,0,0,1-.723,1.761c-.5.926-.991,1.6-1.085,1.544a4.509,4.509,0,0,1,.731-1.761C250.6,260.511,251.084,259.819,251.178,259.877Z" transform="translate(-206.178 -133.337)"/><path class="h" d="M275.41,215.205h0a6.966,6.966,0,0,0,5.359-1.917,7.866,7.866,0,0,0,2.417-5.426c.149-4.172.283-8.394.283-8.394a7.247,7.247,0,0,0,6.384-6.851c.432-6.258.236-20.7.236-20.7h0a19.545,19.545,0,0,0-20.763,1.418l-.912.659.33,33.652A7.485,7.485,0,0,0,275.41,215.205Z" transform="translate(-211.871 -110.226)"/><path class="g" d="M295.219,186.981a.959.959,0,0,1-.19-1,.847.847,0,0,1,1.6,0,.959.959,0,0,1-.19,1,.83.83,0,0,1-1.219,0Z" transform="translate(-219.809 -114.278)"/><path class="g" d="M297.333,185.756c-.1.1-.652-.409-1.462-.467s-1.431.35-1.517.234.063-.242.338-.426a1.849,1.849,0,0,1,1.211-.325,1.907,1.907,0,0,1,1.164.509C297.3,185.506,297.38,185.714,297.333,185.756Z" transform="translate(-219.62 -114.112)"/><path class="g" d="M283.762,185.872a.947.947,0,0,1,.212,1.268.827.827,0,0,1-1.2.225.947.947,0,0,1-.212-1.268A.827.827,0,0,1,283.762,185.872Z" transform="translate(-216.057 -114.353)"/><path class="g" d="M284.7,186.025a1.619,1.619,0,0,0-1.462-.467c-.786-.067-1.431.35-1.509.234s.063-.242.33-.434a1.919,1.919,0,0,1,2.374.192C284.7,185.775,284.738,185.983,284.7,186.025Z" transform="translate(-215.845 -114.181)"/><path class="g" d="M290.054,192.779a3.723,3.723,0,0,1,1.336-.217c.212,0,.385-.05.4-.167a1.257,1.257,0,0,0-.11-.659c-.181-.584-.354-1.177-.542-1.794a21.43,21.43,0,0,1-1.124-4.7,26.259,26.259,0,0,1,1.572,4.556c.173.626.346,1.218.511,1.8a1.562,1.562,0,0,1,.063.943.575.575,0,0,1-.393.342,1.423,1.423,0,0,1-.362,0A4,4,0,0,1,290.054,192.779Z" transform="translate(-218.324 -114.235)"/><path class="l" d="M286.678,208.658a13.237,13.237,0,0,1-7.555-2.812s1.572,4.623,7.477,4.439Z" transform="translate(-215.073 -119.508)"/><path class="g" d="M276.026,168.619a5.751,5.751,0,0,0,4.717,5.157c1.454.184,3.019-.242,4.324.459a7.871,7.871,0,0,1,2.217,2.386,3.481,3.481,0,0,0,2.61,1.669,6.737,6.737,0,0,0,1.478-.375,1.694,1.694,0,0,1,1.462.167,12.768,12.768,0,0,0,.873-5.841,5.351,5.351,0,0,0-3.255-4.473c-1.179-.367-2.445-.133-3.648-.35a11.6,11.6,0,0,1-2.83-1.11,8.414,8.414,0,0,0-4.859-1.1,3.752,3.752,0,0,0-3.223,3.5" transform="translate(-214.107 -109.099)"/><path class="g" d="M267.595,185.976c2.138,1.819,4.717-2.9,5.857-5.841a30.526,30.526,0,0,0,1.659-9.462,4.927,4.927,0,0,0-.519-3.054c-.613-.834-.881.2-1.572-.626-1.313-1.619-3.734-.743-4.929-.192-1.989.918-3.231,3.271-3.624,5.666a24.774,24.774,0,0,0,.252,7.268c.141,1.1.291,2.195.44,3.3a5.56,5.56,0,0,0,.613,2.228,1.458,1.458,0,0,0,1.8.743" transform="translate(-210.644 -109.325)"/><path class="h" d="M267.21,185.579a.92.92,0,0,0-.849-.951c-1.1,0-2.9.434-3.066,3.663-.244,4.606,3.931,3.454,3.931,3.338S267.225,187.365,267.21,185.579Z" transform="translate(-210.338 -114.077)"/><path class="l" d="M266.764,190.32a1.706,1.706,0,0,1-.212.108.692.692,0,0,1-.558,0,2,2,0,0,1-.786-1.827,2.722,2.722,0,0,1,.275-1.135.871.871,0,0,1,.6-.584.373.373,0,0,1,.432.242c.055.134,0,.225.047.234s.094-.075.071-.267a.527.527,0,0,0-.566-.434,1.063,1.063,0,0,0-.833.668,2.806,2.806,0,0,0-.322,1.268,2.115,2.115,0,0,0,1,2.053.784.784,0,0,0,.7-.083C266.748,190.462,266.78,190.328,266.764,190.32Z" transform="translate(-210.82 -114.596)"/><path class="l" d="M287.024,196.645a1.3,1.3,0,0,0,.362,1.7,1.137,1.137,0,0,0,1.61-.325,1.3,1.3,0,0,0-.25-1.719,1.133,1.133,0,0,0-1.627.206" transform="translate(-217.384 -116.998)"/><path class="g" d="M289.574,197.63a2.16,2.16,0,0,1-1.84-.067c-1-.375-1.572-1.118-1.462-1.185s.7.442,1.572.776S289.566,197.505,289.574,197.63Z" transform="translate(-217.207 -117.083)"/><path class="j" d="M269.936,165.675c0,.134-.943.434-1.926,1.193a12.5,12.5,0,0,0-1.572,1.469l-.346.325.22-.392c.047-.092.086-.125.11-.117s0,.058,0,.167l-.126-.067a4.282,4.282,0,0,1,1.423-1.736,3.2,3.2,0,0,1,2.217-.843Z" transform="translate(-211.177 -109.225)"/><path class="g" d="M283.541,181.956c-.134.334-.786.384-1.447.534s-1.3.334-1.572.075c-.11-.134-.071-.392.157-.676a1.969,1.969,0,0,1,1.148-.676,1.915,1.915,0,0,1,1.305.167A.708.708,0,0,1,283.541,181.956Z" transform="translate(-215.474 -113.191)"/></g><g transform="translate(51.967 279.729)"><path class="j" d="M145.38,459.546c-1.392,2.111-4.1,1.41-5.354.117a11.058,11.058,0,0,1-2.272-4.931c-1.1-4.072-2.209-8.344-1.392-12.516a7.2,7.2,0,0,1,1.5-3.4,3.289,3.289,0,0,1,3.231-1.135c1.368.376,2.217,1.794,2.83,3.146a31.292,31.292,0,0,1,2.767,12.767,10.843,10.843,0,0,1-1.313,5.916" transform="translate(-128.218 -437.609)"/><g class="n" transform="translate(7.862)"><path d="M145.38,459.546c-1.392,2.111-4.1,1.41-5.354.117a11.058,11.058,0,0,1-2.272-4.931c-1.1-4.072-2.209-8.344-1.392-12.516a7.2,7.2,0,0,1,1.5-3.4,3.289,3.289,0,0,1,3.231-1.135c1.368.376,2.217,1.794,2.83,3.146a31.292,31.292,0,0,1,2.767,12.767,10.843,10.843,0,0,1-1.313,5.916" transform="translate(-136.08 -437.609)"/></g><path class="j" d="M136.807,481.04a11.4,11.4,0,0,0-7.484-.968,6,6,0,0,0-3.7,1.752c-.928,1.085-1.1,2.987,0,3.922a3.4,3.4,0,0,0,2.359.626c1.981,0,4.175-.392,5.763.834.9.718,1.5,1.919,2.579,2.278a2.511,2.511,0,0,0,2.807-1.327,4.9,4.9,0,0,0,.314-3.413,5.181,5.181,0,0,0-2.642-3.7Z" transform="translate(-124.865 -448.415)"/><path class="j" d="M154.13,464.92a8.1,8.1,0,0,1-1.124-7.076,13.692,13.692,0,0,1,3.931-6.066,20.949,20.949,0,0,1,7.076-4.422,7.123,7.123,0,0,1,3.145-.576,3.312,3.312,0,0,1,2.665,1.711c.747,1.5,0,3.338-.739,4.823a57.58,57.58,0,0,1-4.638,7.51c-1.392,1.9-2.98,3.78-5.1,4.639s-4.316.759-5.44-.834" transform="translate(-133.171 -439.955)"/><path class="g" d="M145.035,503.209a4.933,4.933,0,0,1-.126-.96c-.063-.7-.142-1.577-.244-2.62q-.182-1.933-.55-3.838a31.617,31.617,0,0,0-1.313-4.531,17.134,17.134,0,0,0-2.186-4.105,8.279,8.279,0,0,0-2.752-2.428,7.331,7.331,0,0,0-2.359-.768,3.764,3.764,0,0,1-.9-.142,4.516,4.516,0,0,1,.912,0,6.543,6.543,0,0,1,2.421.668,8.23,8.23,0,0,1,2.909,2.453,16.6,16.6,0,0,1,2.264,4.172,29.817,29.817,0,0,1,1.305,4.606,37.035,37.035,0,0,1,.48,3.888c.079,1.11.11,2.011.118,2.637a4.959,4.959,0,0,1,.016.968Z" transform="translate(-127.779 -449.431)"/><path class="g" d="M147.273,492.29a3.187,3.187,0,0,1,0-.442v-1.277c0-1.1,0-2.7-.055-4.673-.094-3.947-.417-9.4-1.03-15.387s-1.454-11.381-2.2-15.245c-.181-.968-.362-1.844-.527-2.612s-.3-1.419-.432-1.953-.2-.918-.283-1.243a2.009,2.009,0,0,1-.071-.434,1.733,1.733,0,0,1,.149.417c.086.317.2.726.346,1.218s.314,1.185.5,1.944.385,1.669.574,2.6a151.943,151.943,0,0,1,2.319,15.261c.621,6,.9,11.465.92,15.42,0,1.978,0,3.58-.063,4.689,0,.517-.055.935-.071,1.268a1.762,1.762,0,0,1-.071.442Z" transform="translate(-130.19 -440.532)"/><path class="g" d="M149.145,482.868a9.03,9.03,0,0,1,0-1.327c.047-.834.157-2.094.385-3.6a50.808,50.808,0,0,1,1.1-5.249,49.22,49.22,0,0,1,2.068-6.208,33.449,33.449,0,0,1,6.077-10.013,18.064,18.064,0,0,1,1.423-1.41c.22-.192.417-.392.613-.542l.558-.409a7.235,7.235,0,0,1,1.053-.718,39.319,39.319,0,0,0-3.459,3.271,35.155,35.155,0,0,0-5.92,10.013,51.374,51.374,0,0,0-2.083,6.15c-.535,1.928-.9,3.7-1.171,5.2s-.409,2.72-.5,3.563A9.806,9.806,0,0,1,149.145,482.868Z" transform="translate(-132.117 -441.648)"/></g><g transform="translate(72.534 34.907)"><path class="g" d="M202.867,149.387h0l.063.184.165.526.645,2.069,2.429,7.919v.108h-.11l-10.37-2.011h-.071v-.075h0l.141.075a25.058,25.058,0,0,1-15.676,5.515,27.278,27.278,0,0,1-3.821-.342,26.416,26.416,0,0,1-3.884-.918c-.629-.25-1.266-.5-1.91-.743a7.065,7.065,0,0,1-.951-.442l-.936-.476a26.791,26.791,0,0,1-6.926-5.332,27.107,27.107,0,0,1-5.087-7.86,28.987,28.987,0,0,1,2.02-26.8,25.514,25.514,0,0,1,22.579-12.2c13.314.507,24.089,11.661,24.9,25.775a28.334,28.334,0,0,1-2.414,13.426c-.252.551-.456.968-.6,1.235l-.228.417.2-.417c.142-.292.338-.7.582-1.26a28.953,28.953,0,0,0,1.651-5.006,28.637,28.637,0,0,0-10.417-29.079,24.641,24.641,0,0,0-28.947-.217c-10.5,7.439-14.353,21.873-9.088,34.052a27.011,27.011,0,0,0,5.032,7.793,26.559,26.559,0,0,0,6.91,5.157l.928.476a5.957,5.957,0,0,0,.936.434l1.895.743a25.934,25.934,0,0,0,3.844.918,26.838,26.838,0,0,0,3.789.342,23.815,23.815,0,0,0,3.648-.242,25,25,0,0,0,11.911-5.173l.134-.108v.184h0l-.071-.092L206.122,160l-.071.092c-1.022-3.438-1.824-6.116-2.359-7.935l-.613-2.078c-.063-.234-.118-.409-.149-.534l-.047-.192h0Z" transform="translate(-154.204 -108.563)"/><path class="i" d="M184.119,151.995l-9-10.28,2.917-2.87,6.219,7.093,13.05-13.626,2.791,3Z" transform="translate(-160.457 -114.642)"/></g></g></g></svg>