<svg xmlns="http://www.w3.org/2000/svg" xmlns:xlink="http://www.w3.org/1999/xlink" width="93" height="92" viewBox="0 0 93 92"><defs><style>.a{fill:#fff;}.b{clip-path:url(#a);}.c{fill:#c7ede6;}.d{fill:#fdfcef;}.e{fill:#472b29;}.f{fill:#be7841;}.g{fill:#f1bc19;}</style><clipPath id="a"><rect class="a" width="93" height="92" transform="translate(0 0)"/></clipPath></defs><g class="b" transform="translate(0 0)"><g transform="translate(0 7.471)"><path class="c" d="M98.193,69.636a16.449,16.449,0,0,0-8.671-23c0-.007,0-.015,0-.023a22.138,22.138,0,0,0-43.6-5.56A15.786,15.786,0,0,0,25.262,54.3a12.2,12.2,0,0,0,2.522,24.125c.187,0,.371-.013.555-.023,0,.186-.027.367-.027.554A21.607,21.607,0,0,0,66.764,92.624a12.6,12.6,0,0,0,20.3-3.08,11.521,11.521,0,0,0,3.519.549,11.668,11.668,0,0,0,7.614-20.458Z" transform="translate(-11.426 -24.341)"/><path class="d" d="M114.7,56.788h-6.068c-2.623.8-4.749-1.342-4.749-3.977a4.747,4.747,0,0,1,4.28-4.725,4.717,4.717,0,0,1,8.413-3.509,5.265,5.265,0,1,1,10.328,1.64,3.66,3.66,0,0,1,6.482,1.88,4.676,4.676,0,0,1,.575-.058,4.761,4.761,0,0,1,4.749,4.772c0,2.635-2.127,4.772-4.749,3.977H117.867v1.061H114.7Z" transform="translate(-46.102 -30.274)"/><path class="e" d="M121.048,38.25a5.825,5.825,0,0,1,5.8,5.833v.05a4.136,4.136,0,0,1,2.111-.58,4.223,4.223,0,0,1,4.072,3.187c.05,0,.1-.005.15-.005a5.3,5.3,0,0,1,5.164,6.413,5.419,5.419,0,0,1-5.371,4.192H117.486a.53.53,0,0,1,0-1.061h15.533a4.335,4.335,0,0,0,4.3-3.354,4.243,4.243,0,0,0-4.131-5.13,2.718,2.718,0,0,0-.362.034l-.149.02a.452.452,0,0,1-.065,0,.531.531,0,0,1-.522-.463,3.133,3.133,0,0,0-5.551-1.61.529.529,0,0,1-.407.193.511.511,0,0,1-.241-.059.531.531,0,0,1-.268-.608,4.264,4.264,0,0,0,.155-1.643,4.883,4.883,0,0,0-4.319-4.335,4.745,4.745,0,0,0-5.128,4.5.53.53,0,0,1-.368.477.521.521,0,0,1-.574-.178,4.188,4.188,0,0,0-3.308-1.637,4.236,4.236,0,0,0-4.221,4.242,2.758,2.758,0,0,0,.034.364l.02.15a.533.533,0,0,1-.112.4.526.526,0,0,1-.359.2,4.218,4.218,0,0,0-3.7,5.159,4.344,4.344,0,0,0,4.3,3.28h6.282a.53.53,0,0,1,0,1.061h-6.267a5.414,5.414,0,0,1-5.4-4.388,5.273,5.273,0,0,1,4.149-6.087c0-.042,0-.086,0-.129a5.3,5.3,0,0,1,5.277-5.3,5.19,5.19,0,0,1,3.359,1.234,5.8,5.8,0,0,1,5.611-4.416Z" transform="translate(-45.589 -29.766)"/><path class="e" d="M126.136,50.855a3.179,3.179,0,0,1,3.074,2.483,2.464,2.464,0,0,1,1.279-.362,2.513,2.513,0,0,1,2.483,2.193,2.826,2.826,0,0,1,.617-.072,3.109,3.109,0,0,1,3.08,2.9.265.265,0,0,1-.245.283h-.019a.264.264,0,0,1-.263-.246,2.58,2.58,0,0,0-2.553-2.405,2.554,2.554,0,0,0-.779.135.233.233,0,0,1-.071.011.276.276,0,0,1-.272-.279,1.986,1.986,0,0,0-1.979-1.988,1.964,1.964,0,0,0-1.3.5.265.265,0,0,1-.174.067.243.243,0,0,1-.1-.02.262.262,0,0,1-.164-.225,2.651,2.651,0,0,0-2.616-2.445,2.589,2.589,0,0,0-.72.113.254.254,0,0,1-.074.011.266.266,0,0,1-.071-.521,3.136,3.136,0,0,1,.862-.131Zm-14.652,1.591a3.176,3.176,0,0,1,3.033,2.314.265.265,0,0,1-.182.328.245.245,0,0,1-.072.011.264.264,0,0,1-.253-.193,2.644,2.644,0,0,0-2.525-1.928,2.687,2.687,0,0,0-.361.031.217.217,0,0,1-.037,0,.265.265,0,0,1-.034-.528,3.024,3.024,0,0,1,.431-.037Z" transform="translate(-48.83 -34.682)"/><path class="a" d="M19.674,85.28H9.221a.53.53,0,0,1,0-1.061H19.674a.53.53,0,0,1,0,1.061Zm3.266,0H21.885a.53.53,0,0,1,0-1.061h1.055a.53.53,0,0,1,0,1.061ZM28.208,87.4H18.719a.53.53,0,0,1,0-1.061h9.489a.53.53,0,0,1,0,1.061Zm-11.6,0H15.553a.53.53,0,0,1,0-1.061h1.055a.53.53,0,0,1,0,1.061Zm-3.166,0H11.332a.53.53,0,0,1,0-1.061h2.111a.53.53,0,0,1,0,1.061Zm6.332,2.121H17.664a.53.53,0,0,1,0-1.061h2.111a.53.53,0,0,1,0,1.061Zm3.166-9.545H21.885a.53.53,0,0,0,0,1.061h1.055a.53.53,0,0,0,0-1.061Zm0,2.121H17.664a.53.53,0,0,0,0,1.061h5.277a.53.53,0,0,0,0-1.061Zm5.277,2.121H25.051a.53.53,0,0,0,0,1.061h3.166a.53.53,0,0,0,0-1.061Zm62.795,16.968H80.458a.53.53,0,0,1,0-1.061H91.012a.53.53,0,0,1,0,1.061Zm4.221,0H93.123a.53.53,0,0,1,0-1.061h2.111a.53.53,0,0,1,0,1.061Zm5.277,2.121H89.957a.53.53,0,0,1,0-1.061H100.51a.53.53,0,0,1,0,1.061Zm-12.664,0H86.791a.53.53,0,0,1,0-1.061h1.055a.53.53,0,0,1,0,1.061Zm-3.3,0H82.569a.53.53,0,0,1,0-1.061h1.979a.53.53,0,0,1,0,1.061Zm9.63-4.242H88.9a.53.53,0,0,1,0-1.061h5.277a.53.53,0,0,1,0,1.061Zm-3.166,6.363H88.9a.53.53,0,0,1,0-1.061h2.111a.53.53,0,0,1,0,1.061Z" transform="translate(-8.693 -46.04)"/><g transform="translate(39.049 15.908)"><path class="e" d="M81.734,51.905a6.722,6.722,0,0,1,6.7,6.73v.539a6.722,6.722,0,0,1-6.7,6.73H81.2a6.722,6.722,0,0,1-6.7-6.73v-.539a6.722,6.722,0,0,1,6.7-6.73h.536m0-1.485H81.2a8.219,8.219,0,0,0-8.175,8.215v.539A8.219,8.219,0,0,0,81.2,67.389h.536a8.219,8.219,0,0,0,8.175-8.215v-.539a8.219,8.219,0,0,0-8.175-8.215Z" transform="translate(-73.023 -50.42)"/></g><g transform="translate(22.163 22.271)"><path class="f" d="M49.9,100.885a3.5,3.5,0,0,1-3.483-3.5V65.569a3.5,3.5,0,0,1,3.483-3.5H92.119a3.5,3.5,0,0,1,3.483,3.5V97.385a3.5,3.5,0,0,1-3.483,3.5Z" transform="translate(-45.683 -61.327)"/><path class="e" d="M91.641,62.337a2.753,2.753,0,0,1,2.744,2.757V96.91a2.753,2.753,0,0,1-2.744,2.757H49.426a2.753,2.753,0,0,1-2.744-2.757V65.094a2.753,2.753,0,0,1,2.744-2.757H91.641m0-1.485H49.426A4.232,4.232,0,0,0,45.2,65.094V96.91a4.232,4.232,0,0,0,4.221,4.242H91.641a4.232,4.232,0,0,0,4.221-4.242V65.094a4.232,4.232,0,0,0-4.221-4.242Z" transform="translate(-45.205 -60.852)"/></g><g transform="translate(22.163 22.271)"><path class="f" d="M54.8,80.735a8.412,8.412,0,0,1-8.382-8.423V65.569a3.5,3.5,0,0,1,3.483-3.5H92.119a3.5,3.5,0,0,1,3.483,3.5v6.742a8.411,8.411,0,0,1-8.382,8.423H54.8Z" transform="translate(-45.683 -61.327)"/><path class="e" d="M91.641,62.337a2.753,2.753,0,0,1,2.744,2.757v6.743a7.671,7.671,0,0,1-7.643,7.68H54.325a7.671,7.671,0,0,1-7.643-7.68V65.094a2.753,2.753,0,0,1,2.744-2.757H91.641m0-1.485H49.426A4.232,4.232,0,0,0,45.2,65.094v6.743A9.143,9.143,0,0,0,54.325,81H86.742a9.143,9.143,0,0,0,9.12-9.165V65.094a4.232,4.232,0,0,0-4.221-4.242Z" transform="translate(-45.205 -60.852)"/></g><g transform="translate(31.661 37.118)"><path class="g" d="M63.545,93.41a1.481,1.481,0,0,1-1.475-1.483V87.895a1.481,1.481,0,0,1,1.475-1.483h1.9a1.481,1.481,0,0,1,1.475,1.483v4.033a1.481,1.481,0,0,1-1.475,1.483Z" transform="translate(-61.331 -85.669)"/><path class="e" d="M64.97,86.678a.739.739,0,0,1,.737.74v4.034a.739.739,0,0,1-.737.74h-1.9a.739.739,0,0,1-.737-.74V87.418a.739.739,0,0,1,.737-.74h1.9m0-1.485h-1.9a2.219,2.219,0,0,0-2.214,2.225v4.034a2.219,2.219,0,0,0,2.214,2.225h1.9a2.219,2.219,0,0,0,2.214-2.225V87.418a2.219,2.219,0,0,0-2.214-2.225Z" transform="translate(-60.852 -85.193)"/></g><g transform="translate(56.99 37.118)"><path class="g" d="M105.272,93.41a1.481,1.481,0,0,1-1.475-1.483V87.895a1.481,1.481,0,0,1,1.475-1.483h1.9a1.481,1.481,0,0,1,1.475,1.483v4.033a1.481,1.481,0,0,1-1.475,1.483Z" transform="translate(-103.058 -85.669)"/><path class="e" d="M106.7,86.678a.739.739,0,0,1,.737.74v4.034a.739.739,0,0,1-.737.74h-1.9a.739.739,0,0,1-.737-.74V87.418a.739.739,0,0,1,.737-.74h1.9m0-1.485h-1.9a2.219,2.219,0,0,0-2.214,2.225v4.034a2.219,2.219,0,0,0,2.214,2.225h1.9a2.219,2.219,0,0,0,2.214-2.225V87.418a2.219,2.219,0,0,0-2.214-2.225Z" transform="translate(-102.58 -85.193)"/></g><g transform="translate(59.628 26.447)"><path class="e" d="M110.62,68.76h-3.166a.53.53,0,0,1,0-1.061h3.166a.53.53,0,0,1,0,1.061Z" transform="translate(-106.926 -67.699)"/></g><g transform="translate(26.352 26.447)"><path class="e" d="M82.681,68.76H52.633a.53.53,0,0,1,0-1.061H82.681a.53.53,0,0,1,0,1.061Z" transform="translate(-52.105 -67.699)"/></g><g transform="translate(26.384 26.413)"><path class="e" d="M52.687,75.167a.529.529,0,0,1-.528-.53V68.174a.528.528,0,1,1,1.055,0v6.463A.529.529,0,0,1,52.687,75.167Z" transform="translate(-52.159 -67.643)"/></g><g transform="translate(26.384 49.845)"><path class="e" d="M52.687,116.132a.529.529,0,0,1-.528-.53v-9.014a.528.528,0,1,1,1.055,0V115.6A.529.529,0,0,1,52.687,116.132Z" transform="translate(-52.159 -106.057)"/></g><g transform="translate(26.384 44.874)"><path class="e" d="M52.687,101.752a.529.529,0,0,1-.528-.53V98.438a.528.528,0,1,1,1.055,0v2.784A.529.529,0,0,1,52.687,101.752Z" transform="translate(-52.159 -97.908)"/></g><g transform="translate(65.895 26.447)"><path class="e" d="M119.889,68.76h-2.111a.53.53,0,0,1,0-1.061h2.111a.53.53,0,0,1,0,1.061Z" transform="translate(-117.25 -67.699)"/></g><g transform="translate(8.179 53.026)"><path class="d" d="M30.425,125.929H26.731a3.7,3.7,0,0,1-.47-7.376,3.639,3.639,0,0,1,3.636-4.29A3.661,3.661,0,0,1,32.63,115.5a4.21,4.21,0,0,1,8.289,1.477,2.6,2.6,0,0,1,1.642-.592,2.638,2.638,0,0,1,2.591,2.179,3.7,3.7,0,1,1,.575,7.365H37.812v.53H30.425Z" transform="translate(-22.509 -111.612)"/><path class="e" d="M29.844,125.247a.265.265,0,0,0,.264-.265,2.349,2.349,0,0,0-2.341-2.352,6.638,6.638,0,0,0-1.313.144.265.265,0,0,0-.186.325.262.262,0,0,0,.323.187,5.292,5.292,0,0,1,1.175-.125,1.82,1.82,0,0,1,1.814,1.822A.265.265,0,0,0,29.844,125.247Zm7.124,4.242a.53.53,0,1,0,.528.53A.529.529,0,0,0,36.968,129.489Z" transform="translate(-23.776 -115.702)"/><path class="e" d="M26.389,126.12h3.694a.53.53,0,0,0,0-1.061H26.389a3.173,3.173,0,0,1-.4-6.32.53.53,0,0,0,.454-.608,3.351,3.351,0,0,1-.051-.5,3.178,3.178,0,0,1,3.166-3.182,3.115,3.115,0,0,1,2.342,1.061.527.527,0,0,0,.908-.245,3.691,3.691,0,0,1,7.3.775,3.077,3.077,0,0,1-.043.443.583.583,0,0,0,.255.573.516.516,0,0,0,.587-.011,2.073,2.073,0,0,1,1.312-.475,2.107,2.107,0,0,1,2.072,1.743.526.526,0,0,0,.6.43,3.174,3.174,0,1,1,.494,6.311H37.47a.53.53,0,0,0,0,1.061h7.915a4.242,4.242,0,0,0,0-8.484c-.062,0-.122,0-.184.006a3.16,3.16,0,0,0-2.982-2.127,3.054,3.054,0,0,0-1.067.191,4.743,4.743,0,0,0-9.121-1.491,4.186,4.186,0,0,0-2.477-.821,4.236,4.236,0,0,0-4.221,4.242c0,.051,0,.1,0,.151a4.235,4.235,0,0,0,1.051,8.334Z" transform="translate(-22.168 -111.273)"/><path class="e" d="M38.343,133.875H39.4a.53.53,0,0,1,0,1.061H38.343a.53.53,0,0,1,0-1.061Z" transform="translate(-28.317 -120.088)"/></g></g></g></svg>