<svg xmlns="http://www.w3.org/2000/svg" xmlns:xlink="http://www.w3.org/1999/xlink" width="538" height="215" viewBox="0 0 538 215"><defs><style>.a,.c{fill:#fff;}.a{stroke:#707070;}.b{clip-path:url(#a);}.d{fill:#feefdc;}.e{fill:#21111d;}.f{fill:#ea2d3f;}.g{fill:#ff424d;}.h{fill:#258d8c;}.i{fill:#4cb7d8;}.j{fill:#3aa1c9;}.k{fill:#dcf4ff;}.l{fill:#fe9f73;}.m{fill:#351b2e;}.n{fill:#49263e;}.o{fill:#f07162;}.p{fill:#aac9f8;}.q{fill:#d6e8f4;}.r{fill:#edfcfb;}.s{fill:#fec786;}.t{fill:#ef3a4c;}.u{fill:#d82540;}.v{fill:#f75553;}.w{fill:#7fc6a6;}.x{fill:#3f9896;}.y{fill:#4c222e;}.z{fill:#f99247;}.aa{fill:#472a31;}.ab{fill:#d7e4f7;}.ac{fill:#683d46;}.ad{fill:#fd7583;}.ae{fill:#f9b59d;}.af{fill:#e23e3d;}.ag{fill:#cc2323;}.ah{fill:#e2f2f1;}.ai{fill:#fbfdfc;}.aj,.ap{fill:#fecc86;}.ak{fill:#f78c63;}.al{fill:#f7ab48;}.am{fill:#61a3c5;}.an{fill:#3a1f33;}.ao{fill:#febac7;}.ap{opacity:0.3;}.aq{opacity:0.5;}.ar{fill:#f3fffe;}</style><clipPath id="a"><rect class="a" width="538" height="215" transform="translate(381.222 122)"/></clipPath></defs><g class="b" transform="translate(-381.222 -122)"><g transform="translate(469.298 122)"><rect class="c" width="361.567" height="214.795"/><path class="d" d="M304.241,203.313l24.184.215c20.191-15.98,19.784-61.991,4.544-81.342-25.606-32.511-35.256-26.271-48.663-37.717s.754-53.495-37.406-69.613S157.172,26.3,136.288,35.646s-30.682,3.27-42.8-.467-37.129.233-56.725,31.3S24.134,135.387,28,149.681s5.415,13.5-2.836,29.33c-6.07,11.643,3.068,20.6,8.326,24.517H304.252Z" transform="translate(2.38 -0.009)"/><path class="e" d="M231.734,77.216a.3.3,0,0,0,.3-.2c.007-.02.17-.507.39-1.369a.28.28,0,0,0-.231-.336.311.311,0,0,0-.37.209c-.216.842-.378,1.33-.379,1.335a.276.276,0,0,0,.206.348.316.316,0,0,0,.089.012Z" transform="translate(23.781 -0.072)"/><path class="e" d="M237.162,73.025a.314.314,0,0,1-.2-.113.259.259,0,0,1-.054-.209c.164-.931.3-1.875.39-2.807a.3.3,0,0,1,.335-.252.289.289,0,0,1,.279.3c-.1.944-.229,1.9-.395,2.844a.3.3,0,0,1-.3.235A.372.372,0,0,1,237.162,73.025Zm.616-5.665a.293.293,0,0,1-.3-.286c.007-.287.011-.576.011-.859,0-.663-.02-1.324-.059-1.969a.291.291,0,0,1,.292-.294.3.3,0,0,1,.325.264c.039.653.059,1.326.059,2,0,.286,0,.579-.011.87a.3.3,0,0,1-.308.273Zm-.652-5.921a27.375,27.375,0,0,0-.593-2.765.279.279,0,0,1,.225-.338.312.312,0,0,1,.373.2,26.516,26.516,0,0,1,.606,2.82.259.259,0,0,1-.056.211.287.287,0,0,1-.25.111A.3.3,0,0,1,237.126,61.439Zm-27.78-2.77a5.964,5.964,0,0,1-2.917-1.338.261.261,0,0,1-.011-.395.331.331,0,0,1,.436-.01,5.336,5.336,0,0,0,2.608,1.194.285.285,0,0,1,.247.3.3.3,0,0,1-.3.253A.365.365,0,0,1,209.346,58.669Zm2.878-.288a.274.274,0,0,1,.187-.358,3.685,3.685,0,0,0,2.045-1.785.325.325,0,0,1,.415-.121.267.267,0,0,1,.133.376,4.288,4.288,0,0,1-2.386,2.056.32.32,0,0,1-.1.016.308.308,0,0,1-.29-.185Zm23.386-2.4a20.784,20.784,0,0,0-1.274-2.561.257.257,0,0,1,.006-.283.318.318,0,0,1,.276-.133.312.312,0,0,1,.262.154,21.193,21.193,0,0,1,1.3,2.627.272.272,0,0,1-.18.36.344.344,0,0,1-.108.017.309.309,0,0,1-.286-.18Zm-30.892-1.172A8.1,8.1,0,0,1,204.244,52v-.077a.3.3,0,0,1,.309-.278h0a.3.3,0,0,1,.307.281V52a7.571,7.571,0,0,0,.448,2.639.274.274,0,0,1-.194.353.318.318,0,0,1-.1.015.31.31,0,0,1-.3-.188Zm10.824-.9a.288.288,0,0,1-.271-.309,10.373,10.373,0,0,0,.078-1.289,12.558,12.558,0,0,0-.091-1.487.287.287,0,0,1,.273-.308.3.3,0,0,1,.34.248,13.07,13.07,0,0,1,.095,1.548,10.945,10.945,0,0,1-.082,1.356.3.3,0,0,1-.306.247Zm17.148-2.869a19.684,19.684,0,0,0-2-2.135.262.262,0,0,1-.086-.274.3.3,0,0,1,.223-.2.329.329,0,0,1,.3.081,20.28,20.28,0,0,1,2.064,2.2.26.26,0,0,1,.056.208.276.276,0,0,1-.123.183.339.339,0,0,1-.183.054.318.318,0,0,1-.249-.117Zm-27.781-1.668a.278.278,0,0,1-.215-.344,10.615,10.615,0,0,1,1.254-2.685.327.327,0,0,1,.422-.1.265.265,0,0,1,.109.382,10.145,10.145,0,0,0-1.186,2.549.3.3,0,0,1-.3.2.366.366,0,0,1-.089,0Zm9.746-1.3a17.98,17.98,0,0,0-1.074-2.63.27.27,0,0,1,.158-.359.323.323,0,0,1,.4.128,18.419,18.419,0,0,1,1.106,2.707.255.255,0,0,1-.026.212.3.3,0,0,1-.185.133.332.332,0,0,1-.085.011.306.306,0,0,1-.3-.2Zm13.711-1.036a25.927,25.927,0,0,0-2.555-1.6.265.265,0,0,1-.106-.383.327.327,0,0,1,.423-.1,26.717,26.717,0,0,1,2.618,1.636A.262.262,0,0,1,228.8,47,.331.331,0,0,1,228.366,47.046ZM208,44.512a.261.261,0,0,1-.07-.2.272.272,0,0,1,.111-.189,10.026,10.026,0,0,1,2.8-1.452.319.319,0,0,1,.4.164.273.273,0,0,1-.181.36,9.361,9.361,0,0,0-2.623,1.362.335.335,0,0,1-.439-.038Zm15.055-.362a23.664,23.664,0,0,0-2.913-.957.3.3,0,0,1-.239-.2.264.264,0,0,1,.089-.283.334.334,0,0,1,.319-.055,24.494,24.494,0,0,1,2.993.984.27.27,0,0,1,.157.369.322.322,0,0,1-.407.142Zm-10.942-1.161a22.727,22.727,0,0,0-1.816-2.278.261.261,0,0,1,.051-.381.332.332,0,0,1,.423.025,23.244,23.244,0,0,1,1.861,2.336.258.258,0,0,1,.031.291.323.323,0,0,1-.55.006Zm5.009-.338a16.724,16.724,0,0,0-3.075-.045.3.3,0,0,1-.318-.255.288.288,0,0,1,.262-.3,17.524,17.524,0,0,1,3.2.047.29.29,0,0,1,.282.294.3.3,0,0,1-.317.264Zm-8.937-3.994a20.113,20.113,0,0,0-2.423-1.742.264.264,0,0,1-.082-.388.329.329,0,0,1,.429-.075,20.7,20.7,0,0,1,2.5,1.8.261.261,0,0,1,.016.395.331.331,0,0,1-.436.015Zm-5.1-3.16a30.085,30.085,0,0,0-2.855-1.119.273.273,0,0,1-.182-.359.319.319,0,0,1,.4-.165A30.846,30.846,0,0,1,203.363,35a.272.272,0,0,1,.163.315.3.3,0,0,1-.3.215.325.325,0,0,1-.146-.035Zm-5.823-1.975c-.976-.238-2-.449-3.043-.625a.283.283,0,0,1-.244-.329.309.309,0,0,1,.363-.221c1.059.179,2.1.393,3.089.636a.281.281,0,0,1,.225.306.3.3,0,0,1-.3.243.344.344,0,0,1-.094-.015ZM191.13,32.47c-1.023-.107-2.071-.188-3.115-.237a.292.292,0,0,1-.292-.294.3.3,0,0,1,.324-.265c1.057.05,2.118.131,3.155.241a.29.29,0,0,1,.283.294.3.3,0,0,1-.319.263Z" transform="translate(19.29 -0.03)"/><path class="e" d="M183.761,32.227h.024s.568-.038,1.521-.05a.281.281,0,1,0,0-.558h0c-.974.013-1.541.05-1.56.052a.292.292,0,0,0-.3.29.3.3,0,0,0,.32.268Z" transform="translate(18.851 -0.03)"/><path class="f" d="M181.282,34.788l-1.741-1.808s-8.64-.85-8.761-.9L166.219,30l5.581-.293,9.128,1.19Z" transform="translate(17.081 -0.028)"/><path class="g" d="M182.991,26.849,166.219,30l14.7.9Z" transform="translate(17.081 -0.026)"/><path class="g" d="M179.541,32.98l-2.168,4.308L166.219,30Z" transform="translate(17.081 -0.029)"/><path class="h" d="M242.145,203.636c1.165-1.041,10.255-15.621,16.549-8.122,0,0,10.285-21.14,23.309-17,0,0,8.3,4.3,2.272,15,0,0,20.1-1.145,19.842,10.128Z" transform="translate(24.883 -0.17)"/><path d="M270.362,180.975a.1.1,0,0,1-.1-.061.086.086,0,0,1,.033-.1,12.17,12.17,0,0,1,4.715-1.987.1.1,0,0,1,.112.08.094.094,0,0,1-.088.1,12.19,12.19,0,0,0-4.611,1.949A.114.114,0,0,1,270.362,180.975Z" transform="translate(27.772 -0.17)"/><path d="M270.362,182.035a.106.106,0,0,1-.079-.034.084.084,0,0,1-.022-.067.088.088,0,0,1,.037-.061,12.708,12.708,0,0,1,3.776-1.746.11.11,0,0,1,.077.007.094.094,0,0,1,.048.055.089.089,0,0,1-.069.107,12.213,12.213,0,0,0-3.7,1.718A.111.111,0,0,1,270.362,182.035Z" transform="translate(27.772 -0.172)"/><path class="h" d="M6.094.154c3.412.167,6.25,1.812,6.34,3.674S9.831,7.063,6.42,6.9.169,5.083.079,3.221,2.682-.014,6.094.154Z" transform="translate(312.553 178.478) rotate(-49.64)"/><path class="h" d="M290.409,184c-1.374,1.482-1.769,3.222-.88,3.875s2.727-.01,4.1-1.492,1.769-3.222.88-3.874S291.784,182.514,290.409,184Z" transform="translate(29.703 -0.174)"/><rect class="i" width="17.663" height="33.526" transform="translate(94.675 149.827)"/><path class="i" d="M45.623,162.119V116.193a4.171,4.171,0,0,1,4.361-3.951h98.291a4.171,4.171,0,0,1,4.361,3.951v45.926Z" transform="translate(4.688 -0.107)"/><path class="j" d="M152.636,162.167v7.36a2.644,2.644,0,0,1-2.489,2.772H48.117a2.641,2.641,0,0,1-2.489-2.772v-7.36Z" transform="translate(4.689 -0.154)"/><path class="k" d="M47.894,160.131V116.313a2.245,2.245,0,0,1,2.378-2.079H147.52a2.244,2.244,0,0,1,2.378,2.079v43.818Z" transform="translate(4.922 -0.109)"/><path class="j" d="M72.2,184.482a2.434,2.434,0,0,1,2.623-2.869h42.508a3.83,3.83,0,0,1,3.71,2.869H72.2Z" transform="translate(7.414 -0.173)"/><path class="e" d="M47.885,172.366H149.91a2.767,2.767,0,0,0,2.622-2.887V116.193a4.3,4.3,0,0,0-4.489-4.067v.232a4.053,4.053,0,0,1,4.23,3.835v53.286a2.531,2.531,0,0,1-2.371,2.656H47.885Z" transform="translate(4.921 -0.107)"/><path class="e" d="M0,0,.248.011.434,3.927.186,3.916Z" transform="matrix(0.812, -0.583, 0.583, 0.812, 76.826, 164.077)"/><path class="e" d="M0,0,.248.012.432,3.862.184,3.851Z" transform="matrix(0.805, -0.594, 0.594, 0.805, 76.828, 165.613)"/><path class="e" d="M0,0,.25.01l.1,2.269L.1,2.269Z" transform="translate(106.778 172.909) rotate(-29.75)"/><path class="e" d="M0,0,.25.011.339,2.025l-.25-.011Z" transform="translate(107.186 173.417) rotate(-30.669)"/><path class="e" d="M47.778,160.239H149.912v-.232H48.034V116.313a2.124,2.124,0,0,1,2.252-1.963v-.232a2.369,2.369,0,0,0-2.506,2.2Z" transform="translate(4.91 -0.109)"/><path class="l" d="M110.516,107.561s1.185-4.025,2.276-4.447a3,3,0,0,1,2.3.285s1.163-1.437,1.955-1.3a1.247,1.247,0,0,1,.984.779s1.4.135,1.541,1.181c0,0,1.1.242,1.087,1.061,0,0,.568.233.531,1.225,0,0-1.89,3.347-4.667,4.532S110.516,107.561,110.516,107.561Z" transform="translate(11.357 -0.097)"/><path class="m" d="M90.333,160.024l.356-28.3-.755-3.635-18.32,5.543s.563,11.964,1.752,26.4Z" transform="translate(7.359 -0.122)"/><path class="n" d="M77.529,160.022l2.058-19.963,3.482-14.572L59.388,133.98s-.17,11.755.119,26.042Z" transform="translate(6.098 -0.12)"/><path class="n" d="M106.2,87.315l18.049,27.24-1.5,1.035L108.458,91.583Z" transform="translate(10.914 -0.083)"/><path class="l" d="M114.6,103.312a7.137,7.137,0,0,1,1.278-.967c.479-.22,3.336,4.536,3.336,4.536l.414,1.181s-.366.622-.6.6a4.208,4.208,0,0,1-.948-.521l-.185-.644-.289-.073-.376-.315-.186-.514-.4.151-.569-.2-.263-.48-.119-.047-1.694-2.47Z" transform="translate(11.714 -0.098)"/><path class="o" d="M115.773,106.1a2,2,0,0,1-.844-.322,4.649,4.649,0,0,0-.653-.313,1.615,1.615,0,0,0-.973-.133.1.1,0,0,1-.119-.046.081.081,0,0,1,.05-.107,1.79,1.79,0,0,1,1.113.132,4.783,4.783,0,0,1,.68.322c.474.256.772.4.972.2a.752.752,0,0,0,.237-.632,2.986,2.986,0,0,0-1.423-1.741,2.179,2.179,0,0,0-1.977-.346.1.1,0,0,1-.123-.042.081.081,0,0,1,.047-.111,2.375,2.375,0,0,1,2.166.366,3.1,3.1,0,0,1,1.494,1.859.911.911,0,0,1-.28.759A.5.5,0,0,1,115.773,106.1Z" transform="translate(11.582 -0.098)"/><path class="o" d="M115.786,104.67a.1.1,0,0,1-.063-.021.079.079,0,0,1,0-.119l1.715-1.708a.1.1,0,0,1,.092-.042.09.09,0,0,1,.078.061.079.079,0,0,1-.032.088l-1.715,1.709A.1.1,0,0,1,115.786,104.67Z" transform="translate(11.889 -0.098)"/><path class="o" d="M117.552,107.551a.616.616,0,0,1-.369-.118.786.786,0,0,1-.428-.859.093.093,0,0,1,.111-.064.084.084,0,0,1,.071.1.639.639,0,0,0,.356.688.458.458,0,0,0,.364.079c.921-.159,2.274-2.277,2.288-2.3a.092.092,0,0,1,.056-.04.1.1,0,0,1,.071.008.081.081,0,0,1,.034.115c-.057.09-1.411,2.207-2.414,2.38A.831.831,0,0,1,117.552,107.551Z" transform="translate(11.996 -0.1)"/><path class="o" d="M116.43,106.809a.87.87,0,0,1-.525-.158.993.993,0,0,1-.364-.655.078.078,0,0,1,.021-.061.1.1,0,0,1,.063-.029.1.1,0,0,1,.068.019.082.082,0,0,1,.033.057.832.832,0,0,0,.3.537.747.747,0,0,0,.545.107c.676-.084,1.965-1.918,2.407-2.618a.1.1,0,0,1,.127-.031.08.08,0,0,1,.034.115c-.066.107-1.638,2.589-2.543,2.7a1.216,1.216,0,0,1-.162.016Z" transform="translate(11.873 -0.099)"/><path class="p" d="M93.633,153.117l.109-.129-.57-29s10.527,6.4,13.681,6.519,16.2-17.418,16.2-17.418a11.987,11.987,0,0,0-8.535-6.508l-10.771,10.7L91.122,106.911c-1.682-.926-14.617-1.126-14.617-1.126s-14.722-.3-16.406.622-7.871,16.169-8.833,23.082,0,11.392,5.829,12.209l2.12.041.164,11.378s11.748,2.395,34.252,0Z" transform="translate(5.235 -0.101)"/><path class="g" d="M114.513,106.584l-10.771,10.7-12.619-10.37a20.91,20.91,0,0,0-5.378-.764l-7.587,16.366L66.711,105.785c-4.01.033-5.739.143-6.611.622-1.682.926-7.871,16.169-8.833,23.082s0,11.392,5.829,12.209l2.12.041.164,11.378s11.748,2.395,34.252,0l.109-.129-.57-29s10.527,6.4,13.681,6.519,16.2-17.418,16.2-17.418A11.978,11.978,0,0,0,114.513,106.584Z" transform="translate(5.235 -0.101)"/><rect class="n" width="15.711" height="18.006" rx="1.287" transform="translate(79.609 125.659)"/><path class="q" d="M83.683,125.1H76.365a.719.719,0,0,0-.752.681h8.821a.719.719,0,0,0-.752-.681Z" transform="translate(7.77 -0.119)"/><path class="l" d="M88.109,135.054c1.7-1.354-.082-1.583-.082-1.583.83-.812.637-1.19.332-1.365a.913.913,0,0,0-.748-.056c-.781.275-3.16,1.121-4.614,1.729-1.034-.067-.7-1.644-.237-2.453.237-.417.255-1.105-.867-.412a12.752,12.752,0,0,0-2.294,2.432l-5.76-.5.858,7.2s6.575-.083,7.566-.089a14.271,14.271,0,0,0,5.311-1.826c1.819-1.434.675-1.5.675-1.5C89.976,134.969,88.109,135.054,88.109,135.054Z" transform="translate(7.588 -0.124)"/><path class="o" d="M84.829,134.662a.12.12,0,0,1-.119-.067.1.1,0,0,1,0-.083.114.114,0,0,1,.065-.058,14.762,14.762,0,0,0,2.066-1.074.126.126,0,0,1,.165.028.1.1,0,0,1-.031.149,14.987,14.987,0,0,1-2.11,1.091A.137.137,0,0,1,84.829,134.662Z" transform="translate(8.704 -0.127)"/><path class="o" d="M84.938,136.026a.119.119,0,0,1-.138-.09.111.111,0,0,1,.1-.125,7.756,7.756,0,0,0,2.015-.843.127.127,0,0,1,.166.027.1.1,0,0,1-.03.15,7.914,7.914,0,0,1-2.088.875Z" transform="translate(8.714 -0.129)"/><path class="o" d="M85.3,137.562a.118.118,0,0,1-.119-.076.1.1,0,0,1,.009-.082.117.117,0,0,1,.071-.052,6.621,6.621,0,0,0,1.75-.813.128.128,0,0,1,.167.02.1.1,0,0,1-.023.151,6.782,6.782,0,0,1-1.826.847Z" transform="translate(8.753 -0.13)"/><path class="e" d="M61.394,131.482l-.239-.257,2.345-1.8.9-9.848.37.028-.908,9.987Z" transform="translate(6.284 -0.114)"/><path class="e" d="M59.229,141.929l-2.145-.042c-2.861-.4-4.694-1.685-5.607-3.926-.791-1.944-.91-4.635-.378-8.469l.369.042c-1.086,7.815.554,11.3,5.662,12.019l2.108.041Z" transform="translate(5.218 -0.123)"/><path class="g" d="M71.817,130.047l5.8.336s1.171,3.349-.237,10.137c-.136.658-.424,1.786-.424,1.786s-5.885.424-6.808-1.307c-.581-1.088.688-5.786.688-5.786Z" transform="translate(7.192 -0.124)"/><path class="e" d="M78.281,142.478l-19.841-.549.011-.336,19.542.537c.28-1.047,2.069-8.1.675-11.589l-14.722-.854.023-.336,14.962.868.043.1c1.625,3.817-.561,11.691-.654,12.029Z" transform="translate(6.005 -0.123)"/><path class="e" d="M100.355,120.143l-.308-2.779-12.22-10.043a5.048,5.048,0,0,0-2.654-.745v-.337h0a5.359,5.359,0,0,1,2.9.833l12.329,10.13.322,2.908Z" transform="translate(8.752 -0.101)"/><path class="e" d="M98.972,117.4l-.275-.227L109.536,106.4l.1.015a12.672,12.672,0,0,1,8.676,6.6l-.338.141a12.315,12.315,0,0,0-8.3-6.4Z" transform="translate(10.142 -0.101)"/><path class="e" d="M76.927,154.3H76.6v-.337c4.646.045,12.929-.84,14.2-.978l-.461-31.764h.372l.465,32.066-.165.018C90.926,153.308,82.024,154.3,76.927,154.3Z" transform="translate(7.872 -0.115)"/><path class="e" d="M71.28,112.077a8.1,8.1,0,0,1-3.824-4.606l.356-.091a7.752,7.752,0,0,0,3.663,4.412Z" transform="translate(6.932 -0.102)"/><path class="l" d="M72.314,93.686a8.625,8.625,0,0,1,4.955-.286,3.069,3.069,0,0,1,2.246,2.875v1.264l-7.178-2.778s-1.136.487-1.044.338S72.314,93.686,72.314,93.686Z" transform="translate(7.326 -0.089)"/><path class="l" d="M79.5,96.134v5.331a2.046,2.046,0,0,1-1.752,2.148l.344,2.542a1.985,1.985,0,0,1-1.5,2.131,6.286,6.286,0,0,1-1.738.243,3.481,3.481,0,0,1-3.417-2.148,23.834,23.834,0,0,1,.356-4.127l-.062-1.672.237-6.5Z" transform="translate(7.337 -0.09)"/><path class="e" d="M74.153,98.651a.088.088,0,0,1-.06-.021.073.073,0,0,1,0-.107c.012-.011,1.216-1.128,2.318-.322a.074.074,0,0,1,.011.11.094.094,0,0,1-.121.014c-.976-.712-2.037.269-2.082.311A.093.093,0,0,1,74.153,98.651Z" transform="translate(7.611 -0.093)"/><path class="e" d="M77.427,98.175a.094.094,0,0,1-.066-.028.074.074,0,0,1,.009-.107c.036-.028.871-.676,1.4-.264a.073.073,0,0,1,.01.107.094.094,0,0,1-.119.009c-.414-.322-1.163.258-1.17.264a.094.094,0,0,1-.063.019Z" transform="translate(7.948 -0.093)"/><path d="M75.8,98.973a.239.239,0,0,1-.163.22.283.283,0,0,1-.287-.052.222.222,0,0,1-.056-.26.265.265,0,0,1,.244-.146.276.276,0,0,1,.186.07.226.226,0,0,1,.076.169Z" transform="translate(7.735 -0.094)"/><path d="M78.334,98.734a.239.239,0,0,1-.162.221.284.284,0,0,1-.287-.051.222.222,0,0,1-.058-.26.265.265,0,0,1,.243-.147.277.277,0,0,1,.186.069A.227.227,0,0,1,78.334,98.734Z" transform="translate(7.995 -0.094)"/><path class="e" d="M72.5,93.6s-2.225-.1-2.791,1.668.4,2.7.417,3.222-.373,4.07,2.371,3.806l.742-5.855-.953-2.332Z" transform="translate(7.145 -0.089)"/><path class="l" d="M1.561.012a1.566,1.566,0,0,1,1.6,1.456A1.452,1.452,0,0,1,1.608,2.877a1.566,1.566,0,0,1-1.6-1.456A1.452,1.452,0,0,1,1.561.012Z" transform="matrix(0.987, -0.161, 0.161, 0.987, 77.998, 97.62)"/><path class="o" d="M72.308,99.765a.647.647,0,0,1-.619-.446.533.533,0,0,1,.249-.653.8.8,0,0,1,.83.027.662.662,0,0,0-.318-.352,1.09,1.09,0,0,0-.7-.041.047.047,0,0,1-.033,0,.04.04,0,0,1-.022-.023.035.035,0,0,1,0-.031.042.042,0,0,1,.026-.02,1.169,1.169,0,0,1,.769.046.774.774,0,0,1,.4.521l.038.137-.111-.1a.731.731,0,0,0-.83-.1.462.462,0,0,0-.211.563.555.555,0,0,0,.533.389h.009a.04.04,0,1,1,0,.079Z" transform="translate(7.363 -0.094)"/><path class="o" d="M73.291,102s.119,3.188,4.519,3.493l-.254-1.875S74.707,104.134,73.291,102Z" transform="translate(7.531 -0.097)"/><path class="o" d="M76.6,100.579a.045.045,0,0,1-.041-.028.035.035,0,0,1,0-.03.042.042,0,0,1,.026-.019l.878-.263-.277-1.876a.036.036,0,0,1,.008-.029.044.044,0,0,1,.029-.015.047.047,0,0,1,.033.008.039.039,0,0,1,.017.027l.287,1.933-.948.284Z" transform="translate(7.866 -0.094)"/><path class="l" d="M71.7,102.708l.3-2.688.737.074v2.691Z" transform="translate(7.368 -0.095)"/><path class="e" d="M72.763,93.55a3.778,3.778,0,0,0,.331,2.976c.846,1.86-2.171-.694-2.171-.694S71.132,93.108,72.763,93.55Z" transform="translate(7.288 -0.089)"/><path class="o" d="M118.773,108.719h-.015a1.591,1.591,0,0,1-1.08-.537.91.91,0,0,1-.164-.711.1.1,0,0,1,.111-.064.084.084,0,0,1,.07.1.773.773,0,0,0,.139.584,1.414,1.414,0,0,0,.954.462.086.086,0,0,1,.073.09.09.09,0,0,1-.088.078Z" transform="translate(12.074 -0.102)"/><path class="e" d="M73.152,96.524s6.7-.36,7.113-1.781S79.1,93.285,79.1,93.285s.3-2.02-1.728-1.422-5.771.52-6.828,2.219S73.152,96.524,73.152,96.524Z" transform="translate(7.23 -0.087)"/><path class="c" d="M139.983,186.027s-3.924,8.945-.633,15.711l-75.442.574-6.961-.574-6.136-3.444v-5.271l1.706-4.362,5.572-2.638Z" transform="translate(5.221 -0.177)"/><path class="n" d="M60.495,203.18H142a.988.988,0,0,0,.861-.426.8.8,0,0,0,0-.889.989.989,0,0,0-.861-.426H60.495c-4.921,0-8.923-3.365-8.923-7.5s4-7.5,8.923-7.5H142a.875.875,0,1,0,0-1.742H60.495c-5.981,0-10.846,4.147-10.846,9.243S54.514,203.18,60.495,203.18Z" transform="translate(5.102 -0.176)"/><path class="p" d="M94.417,194.145h40a.194.194,0,1,0,0-.387h-40a.194.194,0,1,0,0,.387Z" transform="translate(9.68 -0.185)"/><path class="p" d="M54.071,194.145H92.93a.194.194,0,1,0,0-.387H54.071a.194.194,0,1,0,0,.387Z" transform="translate(5.534 -0.185)"/><path class="p" d="M55.018,197.61H74.955a.194.194,0,1,0,0-.387H55.018a.194.194,0,1,0,0,.387Z" transform="translate(5.632 -0.188)"/><path class="p" d="M75.75,197.61h60.583a.194.194,0,1,0,0-.387H75.756a.194.194,0,1,0,0,.387Z" transform="translate(7.763 -0.188)"/><path class="e" d="M60.513,203.372H142.02a1.07,1.07,0,1,0,0-2.129.194.194,0,1,0,0,.387.77.77,0,0,1,.673.33.623.623,0,0,1,0,.693.77.77,0,0,1-.673.33H60.513c-5.862,0-10.631-4.059-10.631-9.048s4.769-9.048,10.631-9.048H142.02a.77.77,0,0,1,.673.331.623.623,0,0,1,0,.693.77.77,0,0,1-.673.331.194.194,0,1,0,0,.387,1.07,1.07,0,1,0,0-2.129H60.513c-6.1,0-11.058,4.233-11.058,9.436S54.417,203.372,60.513,203.372Z" transform="translate(5.082 -0.176)"/><path class="i" d="M111.873,190.475s2.567,5.793,1.087,10.059l-2.085-2.92a25.551,25.551,0,0,0-2.3,2.92s-1.593-9.526-4.68-10.059Z" transform="translate(10.677 -0.181)"/><path class="p" d="M55.018,190.668h83.446a.194.194,0,1,0,0-.387H55.018a.194.194,0,1,0,0,.387Z" transform="translate(5.632 -0.181)"/><path class="c" d="M138.879,118.819v29.068h-23.9V123.6l5.144-4.783Z" transform="translate(11.816 -0.113)"/><path class="j" d="M114.983,123.611l5.114-4.792v4.792Z" transform="translate(11.816 -0.113)"/><path class="j" d="M121.76,122.442h10.425a.285.285,0,0,0,.192-.072.234.234,0,0,0,.079-.174h0a.259.259,0,0,0-.27-.245H121.76a.26.26,0,0,0-.271.245h0a.26.26,0,0,0,.271.246Z" transform="translate(12.484 -0.116)"/><path class="j" d="M120.472,124.343h13.268a.259.259,0,0,0,.27-.245h0a.234.234,0,0,0-.079-.174.285.285,0,0,0-.192-.072H120.472a.26.26,0,0,0-.271.246h0a.26.26,0,0,0,.271.245Z" transform="translate(12.352 -0.118)"/><path class="j" d="M117.279,128.886H136.5a.261.261,0,0,0,.271-.246h0a.26.26,0,0,0-.271-.245H117.279a.259.259,0,0,0-.27.245h0a.26.26,0,0,0,.27.246Z" transform="translate(12.024 -0.122)"/><path class="j" d="M117.279,131.033H136.5a.26.26,0,0,0,.271-.245h0a.261.261,0,0,0-.271-.246H117.279a.26.26,0,0,0-.27.246h0a.258.258,0,0,0,.27.245Z" transform="translate(12.024 -0.124)"/><path class="j" d="M117.279,133.182H136.5a.261.261,0,0,0,.271-.246h0a.26.26,0,0,0-.271-.245H117.279a.259.259,0,0,0-.27.245h0a.26.26,0,0,0,.27.246Z" transform="translate(12.024 -0.126)"/><path class="j" d="M117.279,137.479H136.5a.26.26,0,0,0,.271-.246h0a.26.26,0,0,0-.271-.245H117.279a.259.259,0,0,0-.27.245h0a.234.234,0,0,0,.079.174A.285.285,0,0,0,117.279,137.479Z" transform="translate(12.024 -0.131)"/><path class="j" d="M117.279,139.627H136.5a.26.26,0,0,0,.271-.245h0a.26.26,0,0,0-.271-.245H117.279a.259.259,0,0,0-.27.245h0A.259.259,0,0,0,117.279,139.627Z" transform="translate(12.024 -0.133)"/><path class="j" d="M117.279,145.152H136.5a.261.261,0,0,0,.271-.246h0a.26.26,0,0,0-.271-.245H117.279a.259.259,0,0,0-.27.245h0a.26.26,0,0,0,.27.246Z" transform="translate(12.024 -0.138)"/><path class="e" d="M72.879,97.542l.288,1.107.292-.331s.573-1.589.178-2.353-1.979.334-1.979.334Z" transform="translate(7.364 -0.091)"/><path class="r" d="M71.614,105.136l3.9,2.486,2.607-2.293,1.554.6-1.36,4.077-2.689-1.5-2.5,1.5-3.358-4.223Z" transform="translate(7.169 -0.1)"/><rect class="s" width="101.877" height="8.039" transform="translate(52.944 151.863)"/><path class="c" d="M137.7,157.164H52.418a.458.458,0,0,1-.308-.115.375.375,0,0,1-.127-.278h0a.416.416,0,0,1,.435-.394H137.7a.458.458,0,0,1,.307.116.375.375,0,0,1,.127.279h0A.415.415,0,0,1,137.7,157.164Z" transform="translate(5.342 -0.149)"/><path class="t" d="M99.047,157.164H52.418a.458.458,0,0,1-.308-.115.375.375,0,0,1-.127-.278h0a.416.416,0,0,1,.435-.394H99.047a.416.416,0,0,1,.435.394h0a.375.375,0,0,1-.128.278.458.458,0,0,1-.308.115Z" transform="translate(5.342 -0.149)"/><ellipse class="u" cx="0.843" cy="0.764" rx="0.843" ry="0.764" transform="translate(103.77 155.862)"/><rect class="t" width="0.703" height="3.691" transform="translate(146.447 154.842)"/><rect class="t" width="0.703" height="3.691" transform="translate(148.343 154.842)"/><path class="c" d="M171.193,186.027s3.925,8.945.633,15.711l75.442.572,6.961-.572,6.136-3.445v-5.27l-1.7-4.362-5.572-2.638Z" transform="translate(17.592 -0.177)"/><path class="v" d="M251.068,203.18h-81.5a.988.988,0,0,1-.861-.426.8.8,0,0,1,0-.889.989.989,0,0,1,.861-.426h81.5c4.92,0,8.922-3.365,8.922-7.5s-4-7.5-8.922-7.5h-81.5a.875.875,0,1,1,0-1.742h81.5c5.979,0,10.845,4.147,10.845,9.243S257.051,203.18,251.068,203.18Z" transform="translate(17.322 -0.176)"/><path class="p" d="M172.218,194.145h40a.194.194,0,1,0,0-.387h-40a.194.194,0,1,0,0,.387Z" transform="translate(17.675 -0.185)"/><path class="p" d="M213.6,194.145h38.861a.194.194,0,1,0,0-.387H213.6a.194.194,0,1,0,0,.387Z" transform="translate(21.927 -0.185)"/><path class="p" d="M229.809,197.61h19.938a.194.194,0,1,0,0-.387H229.809a.194.194,0,1,0,0,.387Z" transform="translate(23.593 -0.188)"/><path class="p" d="M172.217,197.61H232.8a.194.194,0,1,0,0-.387H172.223a.194.194,0,1,0,0,.387Z" transform="translate(17.676 -0.188)"/><path class="e" d="M169.581,203.372h81.5c6.1,0,11.058-4.234,11.058-9.436s-4.961-9.436-11.058-9.436h-81.5a1.125,1.125,0,0,0-1.175,1.064c0,.587.557.6,1.206.6a.194.194,0,1,0,0-.388c-.413,0-.779.162-.779-.215a.716.716,0,0,1,.748-.677h81.5c5.862,0,10.631,4.059,10.631,9.048s-4.769,9.048-10.631,9.048h-81.5a.77.77,0,0,1-.673-.331.623.623,0,0,1,0-.693.77.77,0,0,1,.673-.331.194.194,0,1,0,0-.387,1.07,1.07,0,1,0,0,2.129Z" transform="translate(17.305 -0.176)"/><path class="w" d="M181.33,190.475s-2.568,5.793-1.087,10.059l2.085-2.92a25.548,25.548,0,0,1,2.3,2.92s1.593-9.526,4.68-10.059Z" transform="translate(18.474 -0.181)"/><path class="p" d="M172.218,190.668h83.447a.194.194,0,1,0,0-.387H172.218a.194.194,0,1,0,0,.387Z" transform="translate(17.675 -0.181)"/><path class="c" d="M265.492,167.493s-3.924,8.945-.633,15.71l-75.441.574-6.962-.574-6.136-3.444v-5.271l1.706-4.357,5.572-2.638Z" transform="translate(18.119 -0.16)"/><path class="x" d="M186,184.646h81.507a.988.988,0,0,0,.861-.426.8.8,0,0,0,0-.889.988.988,0,0,0-.861-.426H186c-4.92,0-8.923-3.365-8.923-7.5s4-7.5,8.923-7.5h81.507a.875.875,0,1,0,0-1.742H186c-5.979,0-10.845,4.147-10.845,9.243S180.025,184.646,186,184.646Z" transform="translate(17.999 -0.158)"/><path class="p" d="M259.926,175.606h-40a.194.194,0,1,1,0-.387h40a.194.194,0,1,1,0,.387Z" transform="translate(22.578 -0.167)"/><path class="p" d="M218.44,175.606H179.58a.194.194,0,1,1,0-.387h38.86a.194.194,0,1,1,0,.387Z" transform="translate(18.432 -0.167)"/><path class="p" d="M200.466,179.076H180.527a.194.194,0,1,1,0-.387h19.938a.194.194,0,1,1,0,.387Z" transform="translate(18.529 -0.17)"/><path class="p" d="M261.844,179.076H201.26a.194.194,0,1,1,0-.387h60.584a.194.194,0,1,1,0,.387Z" transform="translate(20.66 -0.17)"/><path class="e" d="M267.531,184.839H186.024c-6.1,0-11.058-4.233-11.058-9.435s4.96-9.436,11.058-9.436h81.507a1.069,1.069,0,1,1,0,2.129.194.194,0,1,1,0-.387.678.678,0,1,0,0-1.354H186.024c-5.862,0-10.631,4.059-10.631,9.048s4.769,9.048,10.631,9.048h81.507a.678.678,0,1,0,0-1.354.194.194,0,1,1,0-.388,1.069,1.069,0,1,1,0,2.129Z" transform="translate(17.979 -0.158)"/><path class="g" d="M247.933,171.941s2.568,5.793,1.088,10.058l-2.086-2.919a25.507,25.507,0,0,0-2.3,2.919s-1.593-9.525-4.681-10.058Z" transform="translate(24.658 -0.164)"/><path class="p" d="M263.975,172.134H180.527a.194.194,0,1,1,0-.387h83.447a.194.194,0,1,1,0,.387Z" transform="translate(18.529 -0.164)"/><path class="y" d="M184.946,203.873h.567l-1.244-18.432h-1.4Z" transform="translate(18.792 -0.177)"/><path class="y" d="M166.865,203.873H166.3l1.244-18.432h1.4Z" transform="translate(17.089 -0.177)"/><path class="s" d="M190.611,159.645h-12.2l-6.452,26.026,13.979-1.35Z" transform="translate(17.671 -0.152)"/><path class="z" d="M163.649,182.652s16.089.368,20.874.368a1.573,1.573,0,0,0,1.574-1.214l4.252-21.333a1.006,1.006,0,0,1,.475-.671,1.21,1.21,0,0,1,.864-.15,1.05,1.05,0,0,1,.849,1.22l-4.819,24.164a1,1,0,0,1-.253.486,1.863,1.863,0,0,1-1.619.9H163.707a1.772,1.772,0,0,1-1.836-1.7h0A2.054,2.054,0,0,1,163.649,182.652Z" transform="translate(16.634 -0.152)"/><path class="e" d="M182.42,183.1a1.66,1.66,0,0,0,1.66-1.281l4.253-21.333a.945.945,0,0,1,.442-.62,1.088,1.088,0,0,1,.79-.135.1.1,0,0,0,.068-.012.082.082,0,0,0,.039-.052.084.084,0,0,0-.069-.1,1.277,1.277,0,0,0-.926.159,1.1,1.1,0,0,0-.519.728L183.9,181.791a1.483,1.483,0,0,1-1.485,1.146.083.083,0,1,0,0,.165Z" transform="translate(18.736 -0.152)"/><path class="e" d="M175.193,186.543h0l8.684-.015a2.18,2.18,0,0,0,2.632-1.76l.516-2.589a.083.083,0,0,0-.071-.1.1.1,0,0,0-.068.013.08.08,0,0,0-.037.053l-.518,2.6c-.008.074-.224,1.8-2.441,1.616h-.008l-8.688.014a.083.083,0,0,0,0,.166Z" transform="translate(17.994 -0.173)"/><path class="e" d="M184.62,159.728h4.268a.083.083,0,0,0,0-.166H184.62a.1.1,0,0,0-.064.025.077.077,0,0,0-.025.059.077.077,0,0,0,.025.058.094.094,0,0,0,.064.024Z" transform="translate(18.962 -0.152)"/><path class="l" d="M181.985,168.16l-1.4.548-1.553.666s-2.411.38-2.447.373l.2.322c-2.991.334-12.42.685-13.968.841-.933.094-1.83,1.146-2.4,1.966l.767.469s8.234-.329,8.218-.172c0,.049-.237.789-.6,1.759,5.087.307,12.21.278,13.531-1.621C183.429,171.758,182.371,169.526,181.985,168.16Z" transform="translate(16.485 -0.16)"/><path class="l" d="M150.969,201.671l6.257.077.09-5.3-6.233-.7Z" transform="translate(15.514 -0.187)"/><path class="j" d="M145.137,202.991l12.777-.019v-2.309a2.1,2.1,0,0,0-2.345-.537,3.411,3.411,0,0,1-3.982-.259l-4.728,1.826S145.136,202.205,145.137,202.991Z" transform="translate(14.914 -0.19)"/><path class="aa" d="M.141,0,13.332,0V.811L.141.809A.135.135,0,0,1,0,.681V.128A.135.135,0,0,1,.141,0Z" transform="translate(159.511 202.791) rotate(-0.1)"/><path class="ab" d="M149.712,200.407l1.842,2.578h.87c-.49-.686-1.517-2.123-2.03-2.837Z" transform="translate(15.384 -0.191)"/><path class="ab" d="M150.26,202.984h.87c-.4-.558-1.176-1.645-1.727-2.415l-.683.264Z" transform="translate(15.282 -0.191)"/><path class="i" d="M168.712,182.748s5.387.081,9.162-.037a26.093,26.093,0,0,0,2.928-.088c2.628-.529,3.275-7.96.292-12.513s-13.423,9.425-13.423,9.425Z" transform="translate(17.23 -0.161)"/><path class="l" d="M159.775,201.671l6.258.077.089-5.3-6.232-.7Z" transform="translate(16.418 -0.187)"/><path class="i" d="M153.952,202.99l12.777-.018v-2.308a2.1,2.1,0,0,0-2.346-.537,3.41,3.41,0,0,1-3.982-.26l-4.726,1.826S153.951,202.205,153.952,202.99Z" transform="translate(15.82 -0.19)"/><path class="ac" d="M.141,0,13.332,0V.81L.141.808A.135.135,0,0,1,0,.68V.127A.135.135,0,0,1,.141,0Z" transform="matrix(1, -0.002, 0.002, 1, 169.232, 202.791)"/><path class="ab" d="M158.528,200.407l1.841,2.578h.871l-2.03-2.837Z" transform="translate(16.29 -0.191)"/><path class="ab" d="M159.075,202.984h.871c-.4-.558-1.177-1.646-1.728-2.415l-.682.264Z" transform="translate(16.188 -0.191)"/><path class="j" d="M164.712,172.806s-13.231.766-13.613,2.148-1.477,16.1-.658,22.378a37.764,37.764,0,0,0,7.421-.215l.584-15.308,3.963-.412,9.078-9.887Z" transform="translate(15.429 -0.163)"/><path class="i" d="M170.195,172.581s-10.2,2.609-10.586,3.993-1.469,14.517-.651,20.8a42.664,42.664,0,0,0,7.8-.247l.647-14.441,2.328.073,5.646-9Z" transform="translate(16.304 -0.164)"/><path class="e" d="M163.185,197.549a9.984,9.984,0,0,0,3.275-.342l.053-.021.626-14.526-.985.421.078.151.711-.3-.611,14.143a14.144,14.144,0,0,1-4.417.282l-.008.166C162.375,197.541,162.8,197.549,163.185,197.549Z" transform="translate(16.638 -0.174)"/><path class="e" d="M165.111,194.418c.254-.889.327-9.566.33-9.935h-.183c0,.09-.076,9.021-.325,9.895Z" transform="translate(16.949 -0.176)"/><path class="e" d="M156.5,182.149a13.944,13.944,0,0,1,2.893-.408l-.006-.168a14.154,14.154,0,0,0-2.942.417Z" transform="translate(16.076 -0.173)"/><path class="e" d="M154.043,197.517a18.01,18.01,0,0,0,3.459-.306l.068-.014.593-15.479-.754.55.119.13.441-.322-.582,14.987a18.332,18.332,0,0,1-3.527.287v.166Z" transform="translate(15.811 -0.173)"/><path class="e" d="M156.371,194.741c.254-1.344.012-10.44,0-10.826h-.184c0,.095.251,9.466,0,10.795Z" transform="translate(16.05 -0.175)"/><path class="e" d="M172.992,182.916c2.351,0,5.169-.072,8.336-.288l-.014-.165a103.217,103.217,0,0,1-15.831,0l-.021.165C165.5,182.633,168.326,182.916,172.992,182.916Z" transform="translate(17.003 -0.174)"/><path class="ad" d="M170.061,167.915c-.183,0-7.512,2.854-7.512,2.854l1.477,2.56,4.114-.818Z" transform="translate(16.703 -0.16)"/><path class="ad" d="M178.988,156s3.117-.1,4.6.665c2.22,1.139,1.43,7.666,1.43,7.666a9.054,9.054,0,0,1-2-1.244C182.905,162.779,178.988,156,178.988,156Z" transform="translate(18.393 -0.149)"/><path class="e" d="M179.9,170.183h-.012l-2.293.475a.086.086,0,0,1-.1-.059.078.078,0,0,1,.065-.093l2.293-.475a.093.093,0,0,1,.065.01.078.078,0,0,1,.038.048A.077.077,0,0,1,179.9,170.183Z" transform="translate(18.239 -0.162)"/><path class="ae" d="M182.772,168.947l-1.4.547-1.553.667s-2.411.379-2.446.373l.2.322c-2.992.335-12.421.685-13.97.842-.933.094-1.829,1.146-2.395,1.965l.766.47s8.235-.33,8.219-.173c0,.049-.237.79-.593,1.759,5.086.308,12.21.278,13.531-1.62C184.215,172.544,183.158,170.308,182.772,168.947Z" transform="translate(16.566 -0.161)"/><path class="ad" d="M183.441,156.512c-1.771-.222-6.445-.375-6.445-.375s-.619.147-.422.063c-5.162.826-5.732,4.3-5.732,4.3l-2.52,10.019-2.8.137c-.907,1.558-.237,5.76-.237,5.76l13.581,1.387a6.374,6.374,0,0,0,5.418-2.447c1.643-1.908,2.2-7.767,2.2-12.048C186.476,163.3,186.194,156.858,183.441,156.512Z" transform="translate(16.96 -0.149)"/><path class="af" d="M147.233,164.278h12.93l4.51,10.4h-12.93Z" transform="translate(15.13 -0.157)"/><path class="ag" d="M163.53,174.683h-.675l-4.51-10.4h.675Z" transform="translate(16.272 -0.157)"/><path class="ah" d="M155.021,169.153c.18.478.049.95-.293,1.056s-.763-.2-.948-.676-.047-.95.294-1.055S154.842,168.675,155.021,169.153Z" transform="translate(15.794 -0.16)"/><path class="ag" d="M167.374,173.851H162.54v.841h4.831a.444.444,0,0,0,.464-.421h0A.443.443,0,0,0,167.374,173.851Z" transform="translate(16.703 -0.166)"/><rect class="af" width="3.051" height="0.132" transform="translate(179.802 173.974)"/><path class="e" d="M177.6,170.693a.1.1,0,0,1-.05,0,.086.086,0,0,1-.054-.035.071.071,0,0,1-.01-.059c.014-.055,1.434-5.521,2.038-8.96a.085.085,0,0,1,.1-.065.079.079,0,0,1,.072.089c-.6,3.445-2.026,8.914-2.04,8.972A.081.081,0,0,1,177.6,170.693Z" transform="translate(18.238 -0.154)"/><path class="e" d="M169.632,170.6a.09.09,0,0,1-.056,0,.077.077,0,0,1-.056-.1c.021-.061,2.127-6.114,2.567-8.206a.086.086,0,0,1,.1-.062.078.078,0,0,1,.068.091c-.441,2.1-2.55,8.162-2.571,8.223a.079.079,0,0,1-.052.052Z" transform="translate(17.42 -0.155)"/><path class="e" d="M177.411,159.074q-.1.01-.2.016a.076.076,0,0,1-.052-.016.062.062,0,0,1-.024-.044.059.059,0,0,1,.017-.047.072.072,0,0,1,.05-.021c2.953-.188,3.5-2.148,3.505-2.166a.071.071,0,0,1,.082-.053.072.072,0,0,1,.046.025.059.059,0,0,1,.013.047C180.838,156.835,180.3,158.8,177.411,159.074Z" transform="translate(18.202 -0.149)"/><path class="e" d="M169.138,169.153a.09.09,0,0,1-.1-.033l-.576-.894.008-.03,1.941-7.715a4.472,4.472,0,0,1,1.021-1.961,7.831,7.831,0,0,1,5.275-2.465.084.084,0,0,1,.088.068.079.079,0,0,1-.066.087,7.663,7.663,0,0,0-5.156,2.4,4.449,4.449,0,0,0-.995,1.9v.005l-1.934,7.689.542.841a.071.071,0,0,1,.01.06.079.079,0,0,1-.04.048Z" transform="translate(17.311 -0.149)"/><path class="e" d="M166.333,169.193a.091.091,0,0,1-.11-.044.071.071,0,0,1,0-.059.082.082,0,0,1,.047-.042l2.478-.9a.09.09,0,0,1,.111.043.071.071,0,0,1,0,.059.082.082,0,0,1-.047.042l-2.478.9Z" transform="translate(17.08 -0.16)"/><path class="ad" d="M165.518,170.665s-.9,1.917-.237,5.76l3.277-1.594-.973-2.871Z" transform="translate(16.959 -0.163)"/><path class="e" d="M181.85,170.77a.086.086,0,0,1-.033,0c-.119,0-12.257-.333-16.227-.037a8.793,8.793,0,0,0-.421,3.688.073.073,0,0,1-.022.056.089.089,0,0,1-.059.026.084.084,0,0,1-.09-.074,8.329,8.329,0,0,1,.453-3.8l.02-.043h.051c3.924-.3,16.176.029,16.3.032a.089.089,0,0,1,.06.025.073.073,0,0,1,.023.056A.077.077,0,0,1,181.85,170.77Z" transform="translate(16.953 -0.162)"/><path class="l" d="M175.251,150.3l-.1,3.382a1.158,1.158,0,0,0,.965,1.246l-.237,1.446a1.126,1.126,0,0,0,.819,1.239,3.607,3.607,0,0,0,.987.162,2,2,0,0,0,1.984-1.181,13.709,13.709,0,0,0-.133-2.363l.064-.957-.03-3.711Z" transform="translate(17.999 -0.143)"/><path class="o" d="M178.507,154.068s-.119,1.818-2.636,1.933l.175-1.066A2.548,2.548,0,0,0,178.507,154.068Z" transform="translate(18.072 -0.147)"/><path class="n" d="M177.945,152.146a.052.052,0,0,0,.034-.012.043.043,0,0,0,0-.064c-.007-.006-.676-.659-1.317-.215a.042.042,0,0,0-.009.063.053.053,0,0,0,.07.009c.568-.393,1.158.18,1.185.205A.051.051,0,0,0,177.945,152.146Z" transform="translate(18.152 -0.145)"/><path class="af" d="M179.518,151.71l-1.085.178-.2.178a8.332,8.332,0,0,1,.356-1.954C178.8,149.8,179.518,151.71,179.518,151.71Z" transform="translate(18.315 -0.143)"/><path class="n" d="M176.034,151.826a.054.054,0,0,0,.038-.015.043.043,0,0,0,0-.064c-.02-.016-.486-.4-.794-.17a.043.043,0,0,0-.008.064.054.054,0,0,0,.071.007c.237-.178.659.163.664.166A.049.049,0,0,0,176.034,151.826Z" transform="translate(18.01 -0.144)"/><path d="M176.9,152.306a.132.132,0,0,0,.067.129.164.164,0,0,0,.158,0,.134.134,0,0,0,.075-.126.144.144,0,0,0-.147-.14.157.157,0,0,0-.107.037A.129.129,0,0,0,176.9,152.306Z" transform="translate(18.178 -0.145)"/><path d="M175.459,152.133a.128.128,0,0,0,.041.1.157.157,0,0,0,.105.042.132.132,0,1,0-.146-.14Z" transform="translate(18.03 -0.145)"/><path class="l" d="M178.027,152.287a.855.855,0,0,0,.876.836.866.866,0,0,0,.923-.794.855.855,0,0,0-.877-.836.866.866,0,0,0-.922.794Z" transform="translate(18.294 -0.144)"/><path class="o" d="M179.006,152.765a.371.371,0,0,0,.356-.246.306.306,0,0,0-.13-.376.46.46,0,0,0-.474,0,.386.386,0,0,1,.187-.2.627.627,0,0,1,.4-.014.027.027,0,0,0,.026,0,.022.022,0,0,0,.009-.022.024.024,0,0,0-.018-.017.663.663,0,0,0-.44.016.446.446,0,0,0-.237.291l-.024.078.065-.056a.423.423,0,0,1,.474-.043.261.261,0,0,1,.111.322.319.319,0,0,1-.311.215H179a.025.025,0,0,0-.018.006.02.02,0,0,0-.007.016.021.021,0,0,0,.006.016.026.026,0,0,0,.017.007Z" transform="translate(18.359 -0.145)"/><path class="o" d="M176.448,153.21a.027.027,0,0,0,.025-.015.023.023,0,0,0-.015-.029l-.5-.162.188-1.064a.023.023,0,0,0-.02-.026.026.026,0,0,0-.03.018l-.194,1.1.536.175Z" transform="translate(18.076 -0.145)"/><path class="ai" d="M176.831,153.662l-.99-.046a.566.566,0,0,0,.474.384A.581.581,0,0,0,176.831,153.662Z" transform="translate(18.069 -0.146)"/><path class="af" d="M179.93,151.708s.349-1.58-.171-2.184-3.569-1.712-3.95-1.425-.019.655-.019.655-1.226-.388-1.541.6,2.339,1.472,3.938,1.045a3.484,3.484,0,0,1,1.743,1.311Z" transform="translate(17.903 -0.141)"/><path class="e" d="M179.944,177.576q-.278.1-.565.164a5.175,5.175,0,0,1-1.814.143.087.087,0,0,1-.056-.031.072.072,0,0,1-.015-.058.087.087,0,0,1,.1-.064,5.084,5.084,0,0,0,1.751-.142,6.86,6.86,0,0,0,3.586-2.275c1.589-1.845,2.168-7.525,2.182-11.829a.083.083,0,0,1,.085-.078.084.084,0,0,1,.087.078c-.014,4.328-.6,10.048-2.219,11.921A7.229,7.229,0,0,1,179.944,177.576Z" transform="translate(18.239 -0.156)"/><path class="n" d="M201.174,137.785s.467,3.806,1.094,3.844-.433,4.495-2.1,2.311c-.582-.765-.556-5.772.83-6.842S201.174,137.785,201.174,137.785Z" transform="translate(20.533 -0.13)"/><path class="l" d="M200.867,136.829s-.577,3.595-.058,4.235a1.131,1.131,0,0,0,.874.358l-.049,2.114,2.8-.291.094-6.014s-.8-1.485-.8-1.424S200.867,136.829,200.867,136.829Z" transform="translate(20.613 -0.129)"/><path class="o" d="M201.638,139.832c.008,0,.015-.008.018-.018s0-.025-.013-.027c-.119-.033-.186-.215-.206-.276a.679.679,0,0,0,.306-.43.909.909,0,0,0-.085-.557c-.006-.011-.017-.013-.025,0a.026.026,0,0,0,0,.031.864.864,0,0,1,.079.521.628.628,0,0,1-.3.409l-.014.01v.019c0,.012.081.278.237.322Z" transform="translate(20.695 -0.132)"/><path class="o" d="M201.571,142.146l.011-.72a5.922,5.922,0,0,0,2.172-.513A6.759,6.759,0,0,1,201.571,142.146Z" transform="translate(20.713 -0.134)"/><path class="n" d="M203.411,138.639a.052.052,0,0,0,.036-.012.044.044,0,0,0,0-.066s-.646-.616-1.248-.19a.044.044,0,0,0-.008.064.055.055,0,0,0,.071.008c.528-.374,1.088.158,1.112.181A.054.054,0,0,0,203.411,138.639Z" transform="translate(20.776 -0.132)"/><path class="n" d="M201.475,138.517a.051.051,0,0,0,.038-.016.042.042,0,0,0,0-.064c-.019-.015-.465-.37-.755-.151a.045.045,0,0,0-.023.045.048.048,0,0,0,.036.038.054.054,0,0,0,.053-.013c.223-.168.619.147.622.15A.053.053,0,0,0,201.475,138.517Z" transform="translate(20.627 -0.132)"/><path d="M202.374,138.882a.128.128,0,0,0,.085.119.152.152,0,0,0,.154-.026.119.119,0,0,0,.032-.139.142.142,0,0,0-.13-.08A.135.135,0,0,0,202.374,138.882Z" transform="translate(20.796 -0.132)"/><path d="M200.875,138.866a.142.142,0,1,0,.142-.127.148.148,0,0,0-.1.036.121.121,0,0,0-.042.09Z" transform="translate(20.642 -0.132)"/><path class="ai" d="M202.339,140.046c-.015,0-1,.1-1,.1a.586.586,0,0,0,.544.316A.553.553,0,0,0,202.339,140.046Z" transform="translate(20.69 -0.133)"/><path class="l" d="M201.974,136.9l.68-.859a6.818,6.818,0,0,0-1,.644A1.693,1.693,0,0,1,201.974,136.9Z" transform="translate(20.721 -0.13)"/><path class="n" d="M204.155,136.493s-.2,1.34-3.74,1.611c0,0-.823-1.984,1.751-2.646s2.807,1.124,2.756,1.108S204.155,136.493,204.155,136.493Z" transform="translate(20.582 -0.129)"/><path class="n" d="M203.351,137.245a11.982,11.982,0,0,1,.959,1.518s-1.185,5.616,1.2,5.3h.427c2.111-.027.65-4.165.614-6.361-.022-1.376-1.865-2.772-3.064-1.933S203.351,137.245,203.351,137.245Z" transform="translate(20.852 -0.129)"/><path class="l" d="M.737.019A.851.851,0,0,1,1.53.809a.671.671,0,0,1-.718.716A.851.851,0,0,1,.019.735.671.671,0,0,1,.737.019Z" transform="translate(224.253 139.32) rotate(-44.19)"/><path class="o" d="M204.424,139.906a.328.328,0,0,0,.317-.222.27.27,0,0,0-.119-.333.4.4,0,0,0-.41,0,.325.325,0,0,1,.156-.164.549.549,0,0,1,.356-.016.026.026,0,0,0,.032-.014.022.022,0,0,0-.015-.029.583.583,0,0,0-.39.018.4.4,0,0,0-.208.261l-.024.079.066-.057a.366.366,0,0,1,.415-.043.231.231,0,0,1,.1.281.278.278,0,0,1-.273.189.027.027,0,0,0-.027.01.022.022,0,0,0,0,.026.027.027,0,0,0,.027.01Z" transform="translate(20.975 -0.133)"/><path class="n" d="M200.795,136.222s-1.229,1.175-.948,4.555l.848-3.329Z" transform="translate(20.532 -0.13)"/><path class="l" d="M197.981,185.746l4.521-1.281-1.655-4.8-4.705.714Z" transform="translate(20.156 -0.171)"/><path class="aj" d="M195.08,189.282l8.118-4.43-.976-1.467a1.577,1.577,0,0,0-1.719.468,2.372,2.372,0,0,1-2.641,1.213l-2.236,2.8S194.748,188.784,195.08,189.282Z" transform="translate(20.039 -0.175)"/><path class="ac" d="M.226,0l9.41.4.028.616L.254.621A.251.251,0,0,1,.013.39L0,.214A.2.2,0,0,1,.226,0Z" transform="translate(214.777 189.281) rotate(-31.07)"/><path class="l" d="M.09.087,4.478-.09,4.291,4.847-.1,5.024Z" transform="translate(222.017 166.164) rotate(63.8)"/><path class="g" d="M205.493,165.27c-.1,0-3.939,1.539-3.939,1.539l-1.223.723s1.868,11.529,2.214,14.606a12.32,12.32,0,0,1-5.444,1.791s-5.652-17.848-5.652-20.116,12.022-7.639,12.022-7.639l5.471,2.86s8.219.612,10.11,1.774-14.674,7.958-14.674,7.958Z" transform="translate(19.673 -0.149)"/><path class="g" d="M200.353,166.382s9.279-5.012,12.469-5.793,5.479-.12,5.825.79.694,3.487,0,4.335-12.795,4.9-15.569,5.592C203.079,171.306,200.609,168.707,200.353,166.382Z" transform="translate(20.588 -0.153)"/><path class="e" d="M217.64,161.273c-.734-1.34-8.369-2.024-8.81-1.964a.092.092,0,0,1-.109-.038.075.075,0,0,1,.03-.1,19.375,19.375,0,0,1,2.3.156,37.673,37.673,0,0,1,4.149.68c1.483.358,2.359.758,2.6,1.2a.072.072,0,0,1,.006.061.081.081,0,0,1-.045.046.1.1,0,0,1-.039.009.089.089,0,0,1-.077-.046ZM208.825,159.315Zm.023-.01Z" transform="translate(21.447 -0.152)"/><path class="e" d="M201.288,168.874a.091.091,0,0,0,.046-.013.074.074,0,0,0,.027-.107,5.382,5.382,0,0,1-.919-2.442,87.617,87.617,0,0,1,12.873-6.191.077.077,0,0,0,.047-.1.092.092,0,0,0-.116-.042A87.954,87.954,0,0,0,200.3,166.2l-.04.026v.044a5.388,5.388,0,0,0,.948,2.564.089.089,0,0,0,.078.039Z" transform="translate(20.579 -0.152)"/><path class="e" d="M210.61,160.743a.091.091,0,0,0,.069-.03,3.969,3.969,0,0,1,.964-.722.076.076,0,0,0,.031-.107.086.086,0,0,0-.053-.036.094.094,0,0,0-.066.008,4.093,4.093,0,0,0-1.012.76.074.074,0,0,0,.014.107.092.092,0,0,0,.053.019Z" transform="translate(21.634 -0.152)"/><path class="e" d="M193.491,172.135h.021a.079.079,0,0,0,.064-.1c-.018-.069-1.816-6.808-2.039-7.969-.213-1.114,2.429-2.746,2.455-2.762a.075.075,0,0,0,.024-.111.094.094,0,0,0-.122-.021c-.119.069-2.763,1.707-2.53,2.921.224,1.166,2.024,7.911,2.041,7.979a.088.088,0,0,0,.085.059Z" transform="translate(19.663 -0.154)"/><path class="e" d="M198.507,168.222a.089.089,0,0,0,.046-.012l2.134-1.236a.075.075,0,0,0,.027-.11.094.094,0,0,0-.122-.024l-2.134,1.236a.076.076,0,0,0-.036.089.087.087,0,0,0,.084.057Z" transform="translate(20.389 -0.159)"/><path class="e" d="M196.575,184.024h.012c.158-.019,3.894-.49,5.491-1.811l.034-.028v-.041L200.5,171.306l-.474-3.855a.086.086,0,0,0-.1-.07.082.082,0,0,0-.077.088l.474,3.856,1.606,10.8c-1.578,1.266-5.325,1.738-5.363,1.742a.09.09,0,0,0-.058.031.074.074,0,0,0-.017.059.084.084,0,0,0,.081.068Z" transform="translate(20.192 -0.159)"/><path class="e" d="M215.749,165.871a.092.092,0,0,0,.052-.015c1-.667.992-1.242.991-1.266a.088.088,0,0,0-.175,0c0,.009,0,.524-.92,1.134a.075.075,0,0,0-.03.088.087.087,0,0,0,.082.055Z" transform="translate(22.161 -0.157)"/><path class="e" d="M214.935,165.724a.094.094,0,0,0,.042-.01c1.1-.527,1.185-1.1,1.185-1.121a.073.073,0,0,0-.018-.059.089.089,0,0,0-.059-.029.088.088,0,0,0-.1.069c0,.009-.09.518-1.093,1a.081.081,0,0,0-.043.047.072.072,0,0,0,.007.06A.089.089,0,0,0,214.935,165.724Z" transform="translate(22.078 -0.157)"/><path class="i" d="M201.443,149.479l1.708-6.5h4.654a3.759,3.759,0,0,1,1.2.308c1.868.9,7.006,6.031,6.75,9.264-.237,2.935-4.9,2.352-9.544,3.032l-1.033-3.892,1.681-.407Z" transform="translate(20.7 -0.136)"/><path class="i" d="M204.075,150.439V142.98h-4.654a3.758,3.758,0,0,0-1.2.308c-1.868.9-7.651,6.194-7.394,9.427.237,2.934,5.69,2.816,8.241,3.531l1.423-4.654-.127-.237Z" transform="translate(19.608 -0.136)"/><path class="i" d="M196,151.464l.058,8.134s8.128,1.346,15.365-.4c.178-.043-.34-6.723-.34-6.723s0-1.3-.754-1.7-6.909-2.875-7.056-2.875S196,151.464,196,151.464Z" transform="translate(20.141 -0.141)"/><path class="e" d="M203.076,145.241a.085.085,0,0,1-.088-.074.074.074,0,0,1,.022-.057.09.09,0,0,1,.06-.026,4.173,4.173,0,0,0,3.556-1.826.092.092,0,0,1,.117-.039.077.077,0,0,1,.043.106,4.315,4.315,0,0,1-3.7,1.918Z" transform="translate(20.859 -0.136)"/><path class="l" d="M200.4,142.98h5.887a3.883,3.883,0,0,1-3.1,1.663A3.112,3.112,0,0,1,200.4,142.98Z" transform="translate(20.593 -0.136)"/><path class="ak" d="M204.312,153.744a.576.576,0,0,0,.027-.778.958.958,0,0,0-.014-.745s-1.571.422-2.462.721a1.066,1.066,0,0,1-.682-.291l-.013.019c-.009-.4-.023-.89-.023-.946,0-.093-.166-.245-.426.054a13.223,13.223,0,0,0-.763,1.1l-1.3-.692-1.057,3.315s3.155.4,3.641.43a6.687,6.687,0,0,0,2.678-.707c.5-.378.395-.714.395-.714a.538.538,0,0,0,0-.766Z" transform="translate(20.305 -0.144)"/><path class="ad" d="M200.579,151.552v1.027a1.085,1.085,0,0,0,.977.363l.487-.163-.384-1.493Z" transform="translate(20.611 -0.144)"/><path class="o" d="M202.75,153.477a.057.057,0,0,1-.056-.036.052.052,0,0,1,.037-.067,7.547,7.547,0,0,0,1.057-.452.062.062,0,0,1,.076.022.051.051,0,0,1-.016.07,7.579,7.579,0,0,1-1.08.46Z" transform="translate(20.829 -0.146)"/><path class="o" d="M202.751,154.155a.057.057,0,0,1-.058-.043.054.054,0,0,1,.047-.062,3.9,3.9,0,0,0,1.022-.343.062.062,0,0,1,.079.018.051.051,0,0,1-.02.073,3.933,3.933,0,0,1-1.06.355Z" transform="translate(20.829 -0.146)"/><path class="o" d="M202.865,154.916a.058.058,0,0,1-.065-.048.056.056,0,0,1,.053-.059,3.3,3.3,0,0,0,.891-.336.062.062,0,0,1,.044-.008.057.057,0,0,1,.037.023.051.051,0,0,1-.018.074,3.415,3.415,0,0,1-.929.351Z" transform="translate(20.84 -0.147)"/><path class="i" d="M199.667,152.248l-1.791-.4s-1.01,2.269-1.01,2.344a18.546,18.546,0,0,0,.568,2.068,6.813,6.813,0,0,0,.637-.548Z" transform="translate(20.23 -0.145)"/><path class="e" d="M196.511,150.765l-.883-.128a.1.1,0,0,1-.079-.109.105.105,0,0,1,.114-.081l.746.107,1.66-2.319a.114.114,0,0,1,.148-.027.091.091,0,0,1,.03.134Z" transform="translate(20.094 -0.141)"/><path class="e" d="M196.733,145.1a.091.091,0,0,0,.072-.033c.661-.859,1.227-.859,1.226-.859h0a.085.085,0,0,0,.088-.079.084.084,0,0,0-.088-.079h0c-.033,0-.665.013-1.372.931a.073.073,0,0,0-.005.082.089.089,0,0,0,.078.042Z" transform="translate(20.207 -0.137)"/><path class="e" d="M196.9,145.911a.089.089,0,0,0,.078-.044c.507-.924,1.067-1.015,1.074-1.016a.08.08,0,0,0,.067-.089.086.086,0,0,0-.092-.068c-.027,0-.653.1-1.206,1.1a.073.073,0,0,0-.005.061.082.082,0,0,0,.044.046.1.1,0,0,0,.039.007Z" transform="translate(20.224 -0.138)"/><path class="o" d="M201.47,152.387a.06.06,0,0,0,.063-.026.047.047,0,0,0,.006-.04.053.053,0,0,0-.028-.032,7.242,7.242,0,0,1-.932-.644.064.064,0,0,0-.078.009.05.05,0,0,0,0,.071,7.265,7.265,0,0,0,.948.653Z" transform="translate(20.602 -0.144)"/><path class="o" d="M201.331,153.045a.059.059,0,0,0,.066-.032.047.047,0,0,0,0-.041.055.055,0,0,0-.032-.028,3.712,3.712,0,0,1-.921-.527.064.064,0,0,0-.077.008.05.05,0,0,0,0,.071,3.749,3.749,0,0,0,.957.547Z" transform="translate(20.588 -0.145)"/><path class="o" d="M201.047,153.771a.06.06,0,0,0,.065-.037.052.052,0,0,0-.029-.064,3.141,3.141,0,0,1-.8-.5.064.064,0,0,0-.083,0,.049.049,0,0,0,0,.075,3.2,3.2,0,0,0,.83.519Z" transform="translate(20.571 -0.146)"/><path class="e" d="M208.324,150.712l.893.04a.1.1,0,0,0,.1-.092.1.1,0,0,0-.091-.1l-.754-.034-1.1-2.578a.112.112,0,0,0-.134-.047.1.1,0,0,0-.064.117Z" transform="translate(21.289 -0.141)"/><path class="i" d="M204.834,151.7l.921,4a16.928,16.928,0,0,0,1.9-1.549,15.779,15.779,0,0,0-.663-2.041C206.926,152.076,204.834,151.7,204.834,151.7Z" transform="translate(21.049 -0.145)"/><path class="e" d="M205.694,155.8h.092a17.749,17.749,0,0,0,4.781-1.1.093.093,0,0,0,.057-.126.11.11,0,0,0-.139-.052,17.785,17.785,0,0,1-4.623,1.074l-.788-3.759,3.6-1.115a.094.094,0,0,0,.06-.12.109.109,0,0,0-.129-.062l-3.771,1.169Z" transform="translate(21.048 -0.143)"/><path class="e" d="M199.443,155.8h-.094a17.748,17.748,0,0,1-4.78-1.1.093.093,0,0,1-.057-.126.11.11,0,0,1,.139-.052,17.781,17.781,0,0,0,4.623,1.074l.79-3.759-3.6-1.119a.1.1,0,0,1-.076-.073.092.092,0,0,1,.036-.095.116.116,0,0,1,.109-.015l3.77,1.168Z" transform="translate(19.987 -0.143)"/><rect class="n" width="18.144" height="9.658" rx="0.676" transform="translate(214.259 150.303)"/><path class="c" d="M203.481,154.465a.729.729,0,1,0-.725.656A.694.694,0,0,0,203.481,154.465Z" transform="translate(20.761 -0.147)"/><path class="i" d="M204.165,108.781a10.611,10.611,0,0,0-1.9-3.072l1.485-2.553-1.712-1.221-1.715-1.223-2.392,1.906a12.916,12.916,0,0,0-3.741-.954l-.948-2.757-2.163.233-2.162.232-.2,2.881a12.337,12.337,0,0,0-3.389,1.718l-2.819-1.346-1.348,1.55-1.341,1.554,2.1,2.166a10.092,10.092,0,0,0-1.054,3.389l-3.043.859.257,1.959.257,1.96,3.179.184a10.611,10.611,0,0,0,1.9,3.072l-1.484,2.554,1.711,1.22,1.712,1.221,2.391-1.906a12.916,12.916,0,0,0,3.741.954l.948,2.757,2.163-.232,2.162-.233.2-2.88a12.369,12.369,0,0,0,3.39-1.718l2.818,1.345,1.348-1.55,1.348-1.551-2.1-2.174a10.117,10.117,0,0,0,1.053-3.389l3.043-.859-.257-1.959-.257-1.96Zm-10.359,11.082c-4.482.483-8.548-2.417-9.081-6.478s2.668-7.744,7.151-8.227,8.548,2.418,9.08,6.479S198.288,119.38,193.807,119.863Z" transform="translate(18.273 -0.094)"/><path d="M194.61,125.994a.12.12,0,0,1-.131-.106.117.117,0,0,1,.117-.119l2.059-.221.2-2.861.076-.025a12.221,12.221,0,0,0,3.355-1.7l.064-.046,2.8,1.336,2.567-2.953-2.089-2.148.034-.067a9.986,9.986,0,0,0,1.042-3.354.122.122,0,0,1,.137-.1.116.116,0,0,1,.11.124,10.2,10.2,0,0,1-1.029,3.358l2.118,2.181-2.823,3.249-2.845-1.355a12.453,12.453,0,0,1-3.285,1.668l-.2,2.9-2.267.245Zm-9.235-1.537-1.792-1.279a.107.107,0,0,1-.02-.159.121.121,0,0,1,.083-.044.127.127,0,0,1,.092.026l1.63,1.163,2.371-1.893.075.031a12.792,12.792,0,0,0,3.7.944.116.116,0,0,1,.109.125.122.122,0,0,1-.138.1,13.038,13.038,0,0,1-3.706-.932Zm-1.942-5.029a.132.132,0,0,1-.1-.042,10.73,10.73,0,0,1-1.9-3.034l-3.2-.186-.538-4.106,3.064-.859a10.176,10.176,0,0,1,1.021-3.284l-2.12-2.181,2.824-3.248,2.842,1.352a12.472,12.472,0,0,1,3.285-1.668l.205-2.9,2.271-.244a.128.128,0,0,1,.093.021.105.105,0,0,1,.045.076.1.1,0,0,1-.023.085.122.122,0,0,1-.085.041l-2.06.221-.2,2.861-.077.025a12.255,12.255,0,0,0-3.355,1.7l-.064.046-2.807-1.336-2.568,2.953,2.089,2.148-.034.067A9.956,9.956,0,0,0,181,111.295l-.009.073-3.022.848.49,3.733,3.157.183.028.07a10.49,10.49,0,0,0,1.88,3.039.1.1,0,0,1,.029.083.106.106,0,0,1-.048.075.138.138,0,0,1-.075.029Zm1.3-5.931a.114.114,0,0,1-.119-.1c-.542-4.123,2.709-7.862,7.26-8.352s8.679,2.456,9.219,6.579a.116.116,0,0,1-.11.125.123.123,0,0,1-.138-.1c-.524-4-4.526-6.855-8.94-6.381s-7.567,4.1-7.043,8.1a.1.1,0,0,1-.024.084.123.123,0,0,1-.085.04Zm22.877-2.462a.121.121,0,0,1-.119-.1l-.245-1.867-3.157-.183-.027-.07a10.521,10.521,0,0,0-1.881-3.039l-.051-.057,1.475-2.536-3.27-2.327-2.371,1.893-.074-.031a12.791,12.791,0,0,0-3.7-.944.116.116,0,0,1-.11-.124.122.122,0,0,1,.137-.1,13.038,13.038,0,0,1,3.706.932l2.414-1.919,3.585,2.557-1.495,2.571a10.716,10.716,0,0,1,1.841,2.976l3.2.186.269,2.052a.1.1,0,0,1-.024.085.123.123,0,0,1-.085.041Z" transform="translate(18.261 -0.094)"/><path class="x" d="M146.866,73.1s-3.963-5.937-13.474-4.4C133.392,68.692,139.8,77.3,146.866,73.1Z" transform="translate(13.707 -0.065)"/><path class="w" d="M152.826,74.651s-1.185-11.9-17.181-16.031C135.645,58.62,138.376,76.313,152.826,74.651Z" transform="translate(13.939 -0.056)"/><path class="al" d="M185.5,87.82a18.206,18.206,0,0,0-.177-6.506l4.86-3.007-1.632-3.329-1.632-3.329-5.727,1.225a21.378,21.378,0,0,0-5.205-4.486l1.088-5.244-3.757-1.312-3.757-1.308-3.082,4.548a24.419,24.419,0,0,0-7.183.16l-3.319-4.4L152.3,62.306l-3.681,1.479L150,68.973a21.1,21.1,0,0,0-4.953,4.716l-5.787-.986-1.449,3.4-1.449,3.4,5.02,2.792a18.21,18.21,0,0,0,.177,6.507l-4.86,3.007,1.632,3.329,1.632,3.335,5.727-1.244a21.377,21.377,0,0,0,5.2,4.487l-1.088,5.243,3.757,1.312,3.757,1.312,3.082-4.548a24.41,24.41,0,0,0,7.182-.16l3.319,4.4,3.675-1.479,3.681-1.479-1.373-5.188a21.043,21.043,0,0,0,4.952-4.715l5.789.986,1.449-3.4,1.447-3.4Zm-20.3,10.829c-8.285.885-15.793-4.483-16.769-11.989s4.948-14.308,13.233-15.192,15.793,4.483,16.77,11.989S173.491,97.765,165.206,98.649Z" transform="translate(14.012 -0.058)"/><path d="M157.377,109.734l-7.706-2.691,1.092-5.262a21.518,21.518,0,0,1-5.166-4.47.106.106,0,0,1,.024-.158.133.133,0,0,1,.174.021,21.256,21.256,0,0,0,5.176,4.461l.068.042-1.086,5.223,7.321,2.557,3.067-4.531.081.01a24.26,24.26,0,0,0,7.141-.159.124.124,0,0,1,.145.09.114.114,0,0,1-.1.132,24.519,24.519,0,0,1-7.141.171Zm17.213-1.81a.122.122,0,0,1-.144-.084.11.11,0,0,1,.093-.13l3.586-1.436-1.367-5.168.065-.044a20.95,20.95,0,0,0,4.924-4.689l.045-.061,5.766.983,2.818-6.638-5-2.778.012-.073a18.064,18.064,0,0,0-.177-6.47l-.015-.073,4.844-3-3.219-6.583a.1.1,0,0,1,0-.087.114.114,0,0,1,.068-.061.13.13,0,0,1,.1,0,.114.114,0,0,1,.068.061l3.306,6.754-4.879,3.022a18.27,18.27,0,0,1,.173,6.4l5.041,2.8-2.972,6.981-5.809-.989a21.154,21.154,0,0,1-4.869,4.635l1.378,5.208-3.776,1.516A.113.113,0,0,1,174.59,107.924ZM138.335,95.262a.12.12,0,0,1-.119-.067l-1.668-3.421,4.881-3.021a18.272,18.272,0,0,1-.174-6.4l-5.039-2.8,2.971-6.981,5.809.989a21.164,21.164,0,0,1,4.87-4.636l-1.378-5.208,3.775-1.516a.13.13,0,0,1,.164.057.109.109,0,0,1-.063.149l-3.585,1.441,1.368,5.169-.065.044a20.883,20.883,0,0,0-4.924,4.689l-.046.06-5.766-.982-2.823,6.632,5,2.779-.011.073a18.093,18.093,0,0,0,.175,6.47l.015.072-4.843,3,1.593,3.247a.1.1,0,0,1,0,.087.113.113,0,0,1-.068.062.137.137,0,0,1-.056.01Zm10.112-8.484a.121.121,0,0,1-.119-.1c-.983-7.555,5-14.427,13.342-15.318s15.923,4.519,16.908,12.087a.115.115,0,0,1-.108.125.122.122,0,0,1-.138-.1c-.969-7.444-8.415-12.767-16.632-11.889s-14.092,7.624-13.123,15.068a.117.117,0,0,1-.109.125ZM176,68.507h-.024a.115.115,0,0,1-.1-.132l1.067-5.155-7.314-2.558-3.068,4.531-.081-.011a24.225,24.225,0,0,0-7.141.16.124.124,0,0,1-.145-.09.114.114,0,0,1,.1-.132,24.52,24.52,0,0,1,7.141-.172l3.091-4.564,7.706,2.691-1.107,5.336A.116.116,0,0,1,176,68.5Z" transform="translate(13.998 -0.058)"/><path class="ad" d="M219.6,85.435a8.073,8.073,0,0,0-2.088-1.458l.177-1.95-1.423-.35-1.423-.349L213.9,83.1a8.865,8.865,0,0,0-2.608.306l-1.4-1.493-1.28.666-1.281.667.718,1.845a7.489,7.489,0,0,0-1.609,1.891l-2.154-.161-.385,1.289-.385,1.289,1.948.844a6.7,6.7,0,0,0,.339,2.368l-1.648,1.266.735,1.16.735,1.161,2.038-.651A8.083,8.083,0,0,0,209.751,97l-.177,1.951L211,99.3l1.423.349.932-1.765a8.909,8.909,0,0,0,2.608-.307l1.4,1.493,1.28-.666,1.281-.666-.72-1.846a7.509,7.509,0,0,0,1.61-1.89l2.153.16.385-1.289.386-1.289-1.949-.844a6.679,6.679,0,0,0-.338-2.363l1.648-1.266-.735-1.16-.727-1.17Zm-3.209,9.409a5.863,5.863,0,0,1-7.564-1.854,4.773,4.773,0,0,1,2.046-6.853,5.863,5.863,0,0,1,7.564,1.853A4.774,4.774,0,0,1,216.386,94.844Z" transform="translate(20.913 -0.077)"/><rect class="c" width="26.8" height="14.971" rx="0.878" transform="translate(165.104 129.33)"/><path class="am" d="M173.849,132.182H151.5a.29.29,0,0,1-.258-.122.234.234,0,0,1,0-.264.29.29,0,0,1,.258-.122h22.346a.254.254,0,1,1,0,.508Z" transform="translate(15.538 -0.125)"/><path class="am" d="M173.849,135.066H151.5a.29.29,0,0,1-.258-.122.234.234,0,0,1,0-.264.29.29,0,0,1,.258-.122h22.346a.254.254,0,1,1,0,.508Z" transform="translate(15.538 -0.128)"/><path class="am" d="M166.023,137.95H151.5a.29.29,0,0,1-.258-.122.234.234,0,0,1,0-.264.29.29,0,0,1,.258-.122h14.52a.254.254,0,1,1,0,.508Z" transform="translate(15.538 -0.131)"/><path class="am" d="M172.457,137.95h-5.795a.254.254,0,1,1,0-.508h5.795a.254.254,0,1,1,0,.508Z" transform="translate(17.099 -0.131)"/><path class="am" d="M160.629,140.834H151.5a.29.29,0,0,1-.259-.122.234.234,0,0,1,0-.264.29.29,0,0,1,.259-.122h9.128a.29.29,0,0,1,.259.122.234.234,0,0,1,0,.264A.29.29,0,0,1,160.629,140.834Z" transform="translate(15.537 -0.134)"/><path class="am" d="M172.974,140.834H161.635a.254.254,0,1,1,0-.508h11.339a.254.254,0,1,1,0,.508Z" transform="translate(16.583 -0.134)"/><path class="c" d="M166.59,143.775c.027.1,4.342,5.187,4.37,5.037s-.5-5.462-.5-5.462Z" transform="translate(17.119 -0.137)"/><rect class="c" width="26.8" height="11.32" rx="0.878" transform="translate(238.503 114.745)"/><path class="am" d="M240.407,117.582H218.06a.255.255,0,1,1,0-.507h22.347a.255.255,0,1,1,0,.507Z" transform="translate(22.379 -0.112)"/><path class="am" d="M240.407,120.466H218.06a.255.255,0,1,1,0-.507h22.347a.255.255,0,1,1,0,.507Z" transform="translate(22.379 -0.114)"/><path class="am" d="M239.015,123.35H233.22a.255.255,0,1,1,0-.507h5.795a.255.255,0,1,1,0,.507Z" transform="translate(23.937 -0.117)"/><path class="c" d="M233.149,125.856c.027.1,4.342,5.186,4.37,5.036s-.5-5.462-.5-5.462Z" transform="translate(23.958 -0.12)"/><path class="am" d="M232.433,123.35h-13.6c-.363,0-.657-.114-.657-.253s.294-.253.657-.253h13.6c.363,0,.657.107.657.253S232.8,123.35,232.433,123.35Z" transform="translate(22.42 -0.117)"/><path class="l" d="M231.048,182.1l2.091,1.064,2.5-2.227.068-.361-.612-4.053-4.866.821Z" transform="translate(23.658 -0.168)"/><path class="an" d="M234.9,183.285l-6.707.827a1.127,1.127,0,0,1-.151-.009c-.657-.1-.506-.487-.506-.487l2.941-2.2.021-.271c.034-.436.593-.656,1.067-.43l1.235.6s2.9.038,3.188-.745l.262,1.911S236.556,183.07,234.9,183.285Z" transform="translate(23.38 -0.172)"/><path class="l" d="M223.189,182.359l2.091,1.064,2.5-2.227.068-.361-.612-4.054-4.866.822Z" transform="translate(22.851 -0.168)"/><path class="an" d="M227.041,183.545l-6.707.827a1.329,1.329,0,0,1-.15-.009c-.658-.1-.506-.487-.506-.487l2.941-2.2.021-.271c.034-.436.593-.657,1.067-.43l1.235.6s2.9.038,3.188-.745l.262,1.915S228.7,183.33,227.041,183.545Z" transform="translate(22.572 -0.172)"/><path class="n" d="M238.11,166.148s8.366.355,10.688-.107,2.9-7.036.258-11.062-11.867,8.332-11.867,8.332Z" transform="translate(24.374 -0.147)"/><path class="an" d="M234.528,156.394s-11.648,1.642-11.986,2.865-1.3,14.232-.582,19.783a33.445,33.445,0,0,0,6.56-.189l.6-12.715,3.572.06,7.873-9.983Z" transform="translate(22.782 -0.149)"/><path class="n" d="M239.422,157.165s-9.02,2.306-9.358,3.529-1.3,12.834-.576,18.383a37.92,37.92,0,0,0,6.895-.215l.573-12.766,2.058.065L244,158.207Z" transform="translate(23.555 -0.15)"/><path class="ao" d="M244.669,141.577s3.987.06,4.914.556,5.171,6.832,6.087,9.519a10.182,10.182,0,0,1-5.483,1.974l-.742-1.267.424,2.595-8.086,2.173a14.575,14.575,0,0,1-8.361-.246l-.84-.28s.013-12.33,2.444-13.633C237.191,141.8,241.882,141.193,244.669,141.577Z" transform="translate(23.9 -0.135)"/><path class="l" d="M239,135.509V139a1.263,1.263,0,0,0,1.085,1.327l-.212,1.574a1.23,1.23,0,0,0,.927,1.323,3.9,3.9,0,0,0,1.076.15,2.155,2.155,0,0,0,2.116-1.327,14.924,14.924,0,0,0-.217-2.556l.039-1.039-.148-4.025Z" transform="translate(24.56 -0.128)"/><path class="e" d="M241.982,137.257a.055.055,0,0,0,.038-.014.046.046,0,0,0,0-.07c-.007-.006-.754-.7-1.436-.2a.046.046,0,0,0-.006.067.058.058,0,0,0,.074.01c.6-.441,1.263.166,1.29.192A.059.059,0,0,0,241.982,137.257Z" transform="translate(24.721 -0.13)"/><path class="e" d="M239.9,136.961a.055.055,0,0,0,.042-.017.046.046,0,0,0-.006-.069c-.021-.017-.539-.419-.867-.164a.046.046,0,0,0,0,.066.059.059,0,0,0,.073.009c.257-.2.721.16.726.163A.054.054,0,0,0,239.9,136.961Z" transform="translate(24.565 -0.13)"/><ellipse cx="0.162" cy="0.147" rx="0.162" ry="0.147" transform="translate(265.606 137.178)"/><ellipse cx="0.162" cy="0.147" rx="0.162" ry="0.147" transform="translate(263.875 137.031)"/><path class="e" d="M243.656,134.619l-.908,1.165s-2.753.967-4.163-.178-.977-1.7-.563-2.273a2.155,2.155,0,0,1,2.371-.379c.652.262,1.133-.52,1.9-.127s1.66,1.074,1.555,1.344S243.656,134.619,243.656,134.619Z" transform="translate(24.418 -0.126)"/><path class="e" d="M243.086,134.13a1.639,1.639,0,0,1,1.6,1.037,3.043,3.043,0,0,1-.133,1.99c-.014.325.237,2.522-1.47,2.363l-.46-3.628.593-1.443Z" transform="translate(24.932 -0.128)"/><ellipse class="l" cx="0.977" cy="0.885" rx="0.977" ry="0.885" transform="translate(266.951 136.388)"/><path class="o" d="M243.062,137.946a.4.4,0,0,0,.383-.276.333.333,0,0,0-.154-.4.5.5,0,0,0-.513.017.411.411,0,0,1,.2-.215.667.667,0,0,1,.434-.026.03.03,0,0,0,.029,0,.023.023,0,0,0,.01-.025.026.026,0,0,0-.021-.018.725.725,0,0,0-.474.028.49.49,0,0,0-.25.322l-.022.085.069-.062a.461.461,0,0,1,.517-.059.287.287,0,0,1,.13.349.35.35,0,0,1-.331.241h-.006a.025.025,0,1,0,0,.049Z" transform="translate(24.938 -0.131)"/><path class="o" d="M242.64,139.33s-.077,1.975-2.8,2.163l.156-1.161A2.754,2.754,0,0,0,242.64,139.33Z" transform="translate(24.646 -0.133)"/><path class="e" d="M247.976,152.524a10.688,10.688,0,0,0,5.382-2.32l-.119-.107a10.541,10.541,0,0,1-5.291,2.276Z" transform="translate(25.479 -0.143)"/><path class="e" d="M233.225,179.232a8.957,8.957,0,0,0,2.9-.3l.046-.019.554-12.84-.871.373.07.133.628-.268-.543,12.5a12.521,12.521,0,0,1-3.9.249l-.008.147C232.51,179.224,232.884,179.232,233.225,179.232Z" transform="translate(23.85 -0.158)"/><path class="e" d="M234.927,176.465c.225-.787.289-8.458.292-8.783h-.162c0,.079-.066,7.978-.287,8.746Z" transform="translate(24.125 -0.16)"/><path class="e" d="M225.142,179.279a16.4,16.4,0,0,0,3.119-.284l.522-12.848-.666.419.1.115.39-.284-.506,12.48a16.355,16.355,0,0,1-3.118.253v.147Z" transform="translate(23.119 -0.158)"/><path class="e" d="M227.2,176.749c.224-1.188.011-9.229,0-9.57h-.162c0,.083.223,8.367,0,9.541Z" transform="translate(23.33 -0.159)"/><path class="l" d="M234.487,157.789l.921-1.3h0c.509-.743,1.329-1.718,2.182-1.805,1.394-.141,9.89-.458,12.585-.758,0,0-.185-.294-.18-.293.032.006,2.2-.335,2.2-.335l1.4-.6,1.258-.493c.347,1.226,1.3,3.24.324,4.644-1.807,2.594-15.623,1.317-16.849.977l-1.129,1.107-.231.322a.385.385,0,0,1-.5.1.31.31,0,0,1-.106-.454l-.1.134a.386.386,0,0,1-.5.1h0a.31.31,0,0,0-.106-.454.385.385,0,0,0-.5.1.309.309,0,0,1-.105-.453l.1-.135a.357.357,0,0,1-.228.144.386.386,0,0,1-.273-.048h0l-.019-.013h0l-.008-.006h0a.352.352,0,0,1-.059-.057.333.333,0,0,1-.076-.414Z" transform="translate(24.092 -0.145)"/><path class="e" d="M248.581,153.73h.052a11.846,11.846,0,0,0,5.531-1.989l.051-.035-1.741-3.495-.148.061,1.688,3.387a11.608,11.608,0,0,1-5.335,1.922l-.747-1.378-.147.064Z" transform="translate(25.462 -0.141)"/><path class="o" d="M249.686,155.132a.056.056,0,0,0,.045-.009.046.046,0,0,0,.01-.069l-.989-1.153a.058.058,0,0,0-.076-.009.046.046,0,0,0-.01.069l.99,1.153A.053.053,0,0,0,249.686,155.132Z" transform="translate(25.552 -0.147)"/><path class="o" d="M234.944,158.374a.056.056,0,0,0,.056-.019l1.295-1.611a.045.045,0,0,0,.01-.037.048.048,0,0,0-.022-.032.058.058,0,0,0-.076.011l-1.295,1.611a.047.047,0,0,0,.012.069.081.081,0,0,0,.02.009Z" transform="translate(24.139 -0.149)"/><path class="o" d="M235.46,158.845a.057.057,0,0,0,.057-.02l1.235-1.659a.048.048,0,0,0-.015-.069.058.058,0,0,0-.041-.007.054.054,0,0,0-.034.021l-1.236,1.659a.045.045,0,0,0-.009.037.048.048,0,0,0,.023.031.041.041,0,0,0,.02.007Z" transform="translate(24.191 -0.15)"/><path class="o" d="M236.083,159.146a.056.056,0,0,0,.057-.021l1.028-1.407a.045.045,0,0,0,.008-.037.049.049,0,0,0-.023-.031.059.059,0,0,0-.076.014l-1.027,1.407a.045.045,0,0,0-.008.037.048.048,0,0,0,.023.031Z" transform="translate(24.255 -0.15)"/><path class="e" d="M241.894,166.3c-4.127,0-6.62-.251-6.656-.256l.018-.146a92.221,92.221,0,0,0,13.994,0l.013.147C246.469,166.233,243.971,166.3,241.894,166.3Z" transform="translate(24.173 -0.158)"/><path class="e" d="M0,0,6.266.021V.183L0,.162Z" transform="translate(260.06 152.621) rotate(-88.19)"/><path class="e" d="M0,0,.16.006.439,7.474l-.16-.006Z" transform="translate(270.791 146.881) rotate(-23.48)"/><path class="e" d="M0,0,.162,0,.2,2.054l-.162,0Z" transform="matrix(0.987, -0.16, 0.16, 0.987, 273.177, 151.822)"/><path class="o" d="M240.39,138.45a.028.028,0,0,0,.026-.016.023.023,0,0,0,0-.019.027.027,0,0,0-.016-.012l-.544-.163.172-1.16a.025.025,0,0,0-.023-.028.029.029,0,0,0-.02,0,.024.024,0,0,0-.01.017l-.178,1.2.587.176Z" transform="translate(24.641 -0.131)"/><path class="ai" d="M240.816,138.931l-1.074-.026a.564.564,0,0,0,1.074.026Z" transform="translate(24.636 -0.132)"/><path class="i" d="M220.2,148.21h12.93l4.51,10.4h-12.93Z" transform="translate(22.627 -0.141)"/><path class="j" d="M236.494,158.615h-.675l-4.51-10.4h.674Z" transform="translate(23.769 -0.141)"/><path class="ah" d="M227.986,153.085c.179.478.047.95-.294,1.056s-.763-.2-.948-.676-.047-.95.294-1.055S227.806,152.607,227.986,153.085Z" transform="translate(23.292 -0.145)"/><path class="j" d="M240.337,157.783h-4.831v.841h4.831a.444.444,0,0,0,.464-.421h0a.443.443,0,0,0-.464-.42Z" transform="translate(24.201 -0.15)"/><rect class="i" width="3.051" height="0.132" transform="translate(260.263 157.922)"/><rect class="n" width="5.69" height="1.842" transform="translate(258.442 158.474)"/><path class="c" d="M146.369,51.419a185.055,185.055,0,0,1,22.88,1.081,6.168,6.168,0,0,0,7.01-5.624,8.544,8.544,0,0,0-1.584-5.011c-4.76-7.416-14.38-.967-14.546,2.685,0,0-1.466-5.572-7.147-4.861s-4.257,8.784-4.257,8.784a4.7,4.7,0,0,0-3.1.322A1.4,1.4,0,0,0,146.369,51.419Z" transform="translate(14.89 -0.037)"/><path class="c" d="M47.7,72.023c6.892-.5,23.709-1.484,33.862-.215a1.47,1.47,0,0,0,1.449-2.394,5.7,5.7,0,0,0-4.108-1.406s1.911-8.541-7.2-9.263c-9.365-.741-9.39,8.225-9.39,8.225s-5.52-4.652-8.106,1.191c0,0-5.8-2.238-8.387.627A2,2,0,0,0,47.7,72.023Z" transform="translate(4.658 -0.056)"/><path class="aj" d="M302.987,100.506c0-12.866-11.513-23.3-25.714-23.3s-25.714,10.429-25.714,23.3a22.157,22.157,0,0,0,7.421,16.371h0s7.783,7.539,10.41,15.756a35.831,35.831,0,0,0,7.885,1.46,35.831,35.831,0,0,0,7.883-1.46c2.628-8.217,10.41-15.756,10.41-15.756h0a22.153,22.153,0,0,0,7.42-16.371Z" transform="translate(25.85 -0.074)"/><path class="i" d="M275.244,146.385h0a3.824,3.824,0,0,1-4-3.62h7.994A3.822,3.822,0,0,1,275.244,146.385Z" transform="translate(27.873 -0.136)"/><path class="i" d="M267.1,130.827h17.144v6.392c0,3.6-3.224,6.524-7.2,6.524H274.3c-3.977,0-7.2-2.921-7.2-6.524v-6.392Z" transform="translate(27.447 -0.125)"/><path class="ap" d="M302.023,100.516a21.659,21.659,0,0,0-4.293-12.888c-7.521,16.788-19.515,28.079-36.792,32.459a43.182,43.182,0,0,1,6.8,10.7h17.132c3.082-7.462,9.727-13.9,9.727-13.9h0A22.153,22.153,0,0,0,302.023,100.516Z" transform="translate(26.814 -0.083)"/><path class="z" d="M280.044,130.885l-.736-.183c.024-.079,2.422-8.068,4.085-16.249,2.887-14.2,1.227-17.207-.019-17.739-1.274-.537-2.276-.446-2.978.29a2.191,2.191,0,0,0-.148.169,4.339,4.339,0,0,1,2.337,3.033,3.186,3.186,0,0,1-1.814,3.668,1.248,1.248,0,0,1-1.423-.574,6.7,6.7,0,0,1-.158-5.82,9.381,9.381,0,0,0-3.194-.5h-.746a9.244,9.244,0,0,0-3.192.5,6.694,6.694,0,0,1-.159,5.82,1.252,1.252,0,0,1-1.422.574,3.184,3.184,0,0,1-1.814-3.668A4.339,4.339,0,0,1,271,97.173c-.047-.059-.1-.115-.147-.169-.7-.736-1.7-.833-2.978-.29-1.246.537-2.906,3.544-.02,17.739,1.66,8.182,4.061,16.17,4.085,16.249l-.735.183c-.025-.081-2.43-8.093-4.1-16.3-2.312-11.334-2.167-17.383.441-18.493,2.015-.859,3.224-.223,3.879.463a3.1,3.1,0,0,1,.26.307,9.887,9.887,0,0,1,3.568-.572h.742a9.893,9.893,0,0,1,3.569.572,3.109,3.109,0,0,1,.258-.307c.654-.686,1.86-1.324,3.88-.463,2.608,1.109,2.748,7.159.443,18.493C282.473,122.792,280.068,130.8,280.044,130.885Zm-8.673-33.1a3.521,3.521,0,0,0-1.962,2.528,2.524,2.524,0,0,0,1.294,2.9c.076.023.281.083.557-.3A6.1,6.1,0,0,0,271.371,97.784Zm8.5,0a6.11,6.11,0,0,0,.109,5.135c.276.379.481.322.558.3a2.518,2.518,0,0,0,1.293-2.9,3.521,3.521,0,0,0-1.956-2.531Z" transform="translate(27.28 -0.091)"/><path class="e" d="M268.588,130.938c-.205-.531-.3-.725-.5-1.151l-.11-.233A50.349,50.349,0,0,0,258.858,117l-.019-.018a22.251,22.251,0,0,1-7.453-16.47c0-12.941,11.618-23.469,25.9-23.469A26.622,26.622,0,0,1,298.977,87.67l-.319.189a26.236,26.236,0,0,0-21.367-10.477c-14.074,0-25.523,10.374-25.523,23.124a21.93,21.93,0,0,0,7.365,16.248l.249.229h-.018a50.363,50.363,0,0,1,8.965,12.432l.109.232a12.745,12.745,0,0,1,.51,1.174Z" transform="translate(25.832 -0.073)"/><path class="e" d="M258.625,89.755l-.366-.1a13.616,13.616,0,0,1,8.317-7.947l.133.322A13.249,13.249,0,0,0,258.625,89.755Z" transform="translate(26.539 -0.078)"/><path class="e" d="M259.7,91.831l-.366-.1a13.613,13.613,0,0,1,8.316-7.947l.133.322A13.247,13.247,0,0,0,259.7,91.831Z" transform="translate(26.649 -0.08)"/><path class="e" d="M276.621,143.916h-1.87c-4.318-.006-7.818-3.176-7.824-7.088v-6.17h17.335V131H267.311v5.824c0,3.724,3.335,6.742,7.446,6.747h1.87a7.819,7.819,0,0,0,5.216-1.933l.268.247a8.224,8.224,0,0,1-5.489,2.028Z" transform="translate(27.429 -0.124)"/><path class="e" d="M275.368,146.559a4.094,4.094,0,0,1-4.257-3.3l.378-.047a3.691,3.691,0,0,0,4,3l.008.346Z" transform="translate(27.859 -0.136)"/><path class="e" d="M290.887,113.575l-.228-.277a9.6,9.6,0,0,0,3.933-6.128l.379.041A9.962,9.962,0,0,1,290.887,113.575Z" transform="translate(29.868 -0.102)"/><path class="e" d="M290.206,111.916l-.226-.277a7.008,7.008,0,0,0,2.868-4.469l.378.041A7.22,7.22,0,0,1,290.206,111.916Z" transform="translate(29.798 -0.102)"/><path class="e" d="M266.385,133.933v-.346c.146,0,14.6-.171,19.179-1.718l.134.322C281.05,133.762,266.978,133.927,266.385,133.933Z" transform="translate(27.374 -0.126)"/><path class="e" d="M266.386,136.855l-.007-.346c.158,0,15.845-.285,18.778-1.708l.18.305C282.323,136.568,267.035,136.846,266.386,136.855Z" transform="translate(27.373 -0.128)"/><path class="e" d="M267.1,139.855v-.345c.142,0,14.219-.135,17.99-1.9l.175.307C281.409,139.717,267.681,139.848,267.1,139.855Z" transform="translate(27.447 -0.131)"/><path class="z" d="M246.517,96.856h-.05l-9.1-.7a.577.577,0,0,1-.486-.293.478.478,0,0,1,.05-.527.6.6,0,0,1,.533-.214l9.1.7a.541.541,0,0,1,.547.539.552.552,0,0,1-.595.5Z" transform="translate(24.336 -0.091)"/><path class="z" d="M250.637,83.706a.61.61,0,0,1-.323-.09l-7.537-4.672a.49.49,0,0,1-.151-.722.612.612,0,0,1,.8-.137l7.537,4.672a.494.494,0,0,1,.223.581.569.569,0,0,1-.546.365Z" transform="translate(24.922 -0.074)"/><path class="z" d="M262.608,74.274a.573.573,0,0,1-.53-.322l-3.438-7.665a.5.5,0,0,1,.315-.676.594.594,0,0,1,.746.286l3.438,7.665a.475.475,0,0,1-.054.485.589.589,0,0,1-.476.228Z" transform="translate(26.574 -0.062)"/><path class="z" d="M303.776,98.351a.548.548,0,0,1-.56-.5.54.54,0,0,1,.522-.534l9.114-.546a.553.553,0,0,1,.584.485.536.536,0,0,1-.509.549l-9.113.546Z" transform="translate(31.158 -0.092)"/><path class="z" d="M299.763,85.123a.568.568,0,0,1-.548-.37.5.5,0,0,1,.233-.582l7.634-4.542a.609.609,0,0,1,.792.149.489.489,0,0,1-.165.717l-7.638,4.542A.617.617,0,0,1,299.763,85.123Z" transform="translate(30.745 -0.076)"/><path class="z" d="M289.185,74.243a.632.632,0,0,1-.225-.042.5.5,0,0,1-.3-.681l3.6-7.6a.6.6,0,0,1,.751-.272.5.5,0,0,1,.3.68l-3.6,7.6A.578.578,0,0,1,289.185,74.243Z" transform="translate(29.658 -0.063)"/><path class="z" d="M275.883,70.212h-.009a.546.546,0,0,1-.563-.526l.141-8.27a.547.547,0,0,1,.571-.51h.01a.546.546,0,0,1,.563.526l-.14,8.27a.55.55,0,0,1-.573.51Z" transform="translate(28.291 -0.058)"/><g class="aq" transform="translate(308.293 80.583)"><path class="ar" d="M2.678.062c1.551.071,2.93,2.872,3.079,6.256s-.988,6.069-2.539,6S.288,9.444.139,6.06,1.127-.009,2.678.062Z" transform="translate(0 4.655) rotate(-57.2)"/></g><rect class="e" width="302.531" height="0.717" transform="translate(334.242 203.898) rotate(180)"/><path class="ai" d="M77.814,101.251c-.027-.006-1.832-.149-1.832-.149a1.019,1.019,0,0,0,.85.744A1.067,1.067,0,0,0,77.814,101.251Z" transform="translate(7.808 -0.096)"/></g></g></svg>