<svg version="1.2" xmlns="http://www.w3.org/2000/svg" viewBox="0 0 306 242" width="306" height="242">
	<title>MaskGroup53-svg</title>
	<defs>
		<clipPath clipPathUnits="userSpaceOnUse" id="cp1">
			<path d="m-31-53h369v349h-369z"/>
		</clipPath>
	</defs>
	<style>
		.s0 { fill: #ffffff } 
		.s1 { fill: #b5e0d9 } 
		.s2 { fill: #e1e1e1 } 
		.s3 { fill: #feca78 } 
		.s4 { fill: #e5b165 } 
		.s5 { fill: #e6f0f4 } 
		.s6 { fill: #bacbd1 } 
		.s7 { fill: #fc7f69 } 
		.s8 { fill: #e56655 } 
		.s9 { fill: #324449 } 
		.s10 { fill: #eabeb7 } 
		.s11 { fill: #facede } 
		.s12 { fill: #425960 } 
		.s13 { fill: #fad3ca } 
		.s14 { opacity: .2;fill: #f2f2f2 } 
		.s15 { fill: #465a61 } 
		.s16 { fill: #84a2ad } 
		.s17 { fill: none;stroke: #ffffff;stroke-linecap: round;stroke-linejoin: round;stroke-width: 1.7 } 
		.s18 { fill: #0cbc9f } 
	</style>
	<g id="Clip-Path" clip-path="url(#cp1)">
		<g id="Layer">
			<g id="Layer">
				<path id="Layer" class="s0" d="m-4-53h315v349h-315z"/>
				<g id="Layer">
					<path id="Layer" class="s1" d="m235.2 46h-2.3q0-0.1 0-0.3 0.1-0.1 0.1-0.3 0-0.1 0-0.3 0-0.1 0-0.3 0-0.8-0.2-1.5-0.1-0.8-0.5-1.4-0.4-0.7-1-1.2-0.5-0.6-1.2-0.9-0.7-0.4-1.4-0.5-0.7-0.1-1.4 0-0.7 0.2-1.4 0.5-0.6 0.3-1.1 0.9-0.6-1.2-1.5-2-0.9-0.9-2-1.4-1.2-0.4-2.4-0.4-1.3 0-2.4 0.5-1.2 0.5-2.1 1.5-0.9 0.9-1.5 2.1-0.5 1.1-0.7 2.4-0.1 1.3 0.2 2.6h-2.5q-0.5 0-0.9 0.2-0.5 0.2-0.8 0.6-0.3 0.4-0.5 0.8-0.1 0.5-0.1 0.9 0 0.5 0.1 1 0.2 0.4 0.5 0.8 0.3 0.3 0.8 0.5 0.4 0.2 0.9 0.3h25.4q0.4-0.1 0.9-0.3 0.4-0.2 0.7-0.5 0.3-0.4 0.5-0.8 0.2-0.5 0.1-1 0.1-0.4-0.1-0.9-0.2-0.4-0.5-0.8-0.3-0.3-0.7-0.6-0.5-0.2-1-0.2z"/>
					<path id="Layer" class="s1" d="m48.1 118.3h-2.9q0.1-0.2 0.1-0.4 0-0.2 0-0.3 0.1-0.2 0.1-0.4 0-0.2 0-0.4 0-0.9-0.2-1.8-0.3-0.9-0.7-1.7-0.5-0.8-1.2-1.5-0.7-0.6-1.5-1.1-0.8-0.4-1.7-0.5-0.8-0.1-1.7 0-0.9 0.2-1.7 0.6-0.7 0.4-1.4 1-0.5-1.3-1.5-2.2-1-1-2.2-1.6-1.3-0.6-2.7-0.8-1.4-0.1-2.7 0.2-1.4 0.5-2.5 1.4-1.2 0.8-2 2-0.8 1.2-1.2 2.5-0.4 1.4-0.4 2.9 0 0.2 0 0.5 0 0.3 0 0.5 0.1 0.3 0.1 0.5 0.1 0.3 0.1 0.6h-3.1q-0.5 0-1.1 0.2-0.5 0.3-0.9 0.7-0.4 0.5-0.6 1-0.2 0.6-0.1 1.1-0.1 0.6 0.1 1.2 0.2 0.5 0.6 0.9 0.4 0.5 0.9 0.7 0.6 0.3 1.1 0.3h30.9q0.6 0 1.1-0.3 0.6-0.2 1-0.7 0.3-0.4 0.5-0.9 0.2-0.6 0.2-1.2 0-0.5-0.2-1.1-0.2-0.5-0.6-1-0.3-0.4-0.9-0.6-0.5-0.3-1.1-0.3z"/>
					<path id="Layer" class="s1" d="m260.9 145.9h2.9q-0.1-0.2-0.1-0.4 0-0.2 0-0.4-0.1-0.1-0.1-0.3 0-0.2 0-0.4 0-0.9 0.2-1.8 0.3-0.9 0.7-1.7 0.5-0.9 1.2-1.5 0.7-0.7 1.5-1.1 0.8-0.4 1.6-0.5 0.9-0.1 1.8 0 0.9 0.1 1.7 0.6 0.7 0.4 1.4 1 0.6-1.4 1.7-2.4 1.1-1.1 2.5-1.7 1.4-0.5 2.9-0.5 1.5 0 2.9 0.6c3.8 1.6 5.9 6.1 5 10.5h3q0.6 0 1.2 0.3 0.5 0.2 0.9 0.6 0.4 0.5 0.6 1 0.1 0.6 0.1 1.2 0 0.5-0.1 1.1-0.2 0.5-0.6 1-0.4 0.4-0.9 0.7-0.6 0.2-1.2 0.2h-30.8q-0.6 0-1.1-0.2-0.5-0.3-0.9-0.7-0.4-0.5-0.6-1-0.2-0.6-0.2-1.1 0-0.6 0.2-1.2 0.2-0.5 0.6-1 0.4-0.4 0.9-0.6 0.5-0.3 1.1-0.3z"/>
					<path id="Layer" class="s1" d="m67.1 26.2h2.2q0-0.2 0-0.3 0-0.2 0-0.3-0.1-0.2-0.1-0.3 0-0.2 0-0.3 0-0.8 0.2-1.5 0.2-0.7 0.6-1.3 0.3-0.7 0.9-1.2 0.5-0.5 1.2-0.9 0.6-0.3 1.3-0.4 0.7-0.1 1.4 0 0.7 0.1 1.3 0.5 0.6 0.3 1.1 0.8 0.5-1 1.2-1.8 0.8-0.8 1.8-1.3 1-0.4 2.1-0.5 1.1-0.1 2.2 0.2 1.1 0.3 2 1 0.9 0.7 1.6 1.6 0.6 1 1 2.1 0.3 1.1 0.2 2.2 0 0.2 0 0.4 0 0.2 0 0.4 0 0.2-0.1 0.5 0 0.2 0 0.4h2.5q0.4 0 0.8 0.2 0.5 0.2 0.8 0.5 0.3 0.4 0.4 0.8 0.2 0.5 0.2 0.9 0 0.5-0.2 0.9-0.1 0.5-0.4 0.8-0.3 0.3-0.8 0.5-0.4 0.2-0.8 0.3h-24.6q-0.5-0.1-0.9-0.3-0.4-0.2-0.8-0.5-0.3-0.3-0.4-0.8-0.2-0.4-0.2-0.9 0-0.2 0.1-0.5 0-0.2 0.1-0.4 0.1-0.2 0.2-0.4 0.1-0.2 0.3-0.4 0.1-0.2 0.3-0.3 0.2-0.2 0.4-0.2 0.2-0.1 0.4-0.2 0.2 0 0.5 0z"/>
					<path id="Layer" class="s2" d="m155.3 224.5c-73.6 0-133.2-5.8-133.2-12.9 0-7.1 59.6-12.9 133.2-12.9 73.7 0 133.2 5.8 133.2 12.9 0 7.1-59.5 12.9-133.2 12.9z"/>
					<path id="Layer" class="s3" d="m94.5 45.6c0-7.8 6.3-14.1 14.1-14.1h93.4c7.8 0 14.1 6.3 14.1 14.1v147.9c0 7.7-6.3 14-14.1 14h-93.4c-7.8 0-14.1-6.3-14.1-14z"/>
					<path id="Layer" class="s4" d="m216.1 49.7v139.7c0 10-7.3 18.2-16.4 18.2h-17.5c9.1 0 16.4-8.2 16.4-18.2v-139.7c0-10-7.3-18.2-16.4-18.2h17.5c9.1 0 16.4 8.2 16.4 18.2z"/>
					<path id="Layer" class="s0" d="m103 50.3c0-5.5 4.5-10 10-10h84.6c5.5 0 10 4.5 10 10v138.5c0 5.5-4.5 10-10 10h-84.6c-5.5 0-10-4.5-10-10z"/>
					<path id="Layer" class="s5" d="m207.6 53.2v132.7c0 7.1-5.2 12.9-11.7 12.9h-12.6c6.4 0 11.7-5.8 11.7-12.9v-132.7c0-7.1-5.3-12.9-11.7-12.9h12.6c6.5 0 11.7 5.8 11.7 12.9z"/>
					<path id="Layer" fill-rule="evenodd" class="s6" d="m123.7 56.4q0.9 0.2 1.7 0.6 0.9 0.3 1.6 0.9 0.8 0.6 1.4 1.3 0.6 0.7 1.1 1.5 0.5 0.9 0.9 1.8 0.3 0.9 0.5 1.9 0.2 1 0.2 2c0 5.6-4.2 10.2-9.2 10.2-5.1 0-9.3-4.6-9.3-10.2 0-5.7 4.2-10.2 9.3-10.2q0.9 0 1.8 0.2zm-9.4 10c0 4.6 3.4 8.3 7.6 8.3 4.1 0 7.5-3.7 7.5-8.3 0-4.6-3.4-8.4-7.5-8.4-4.2 0.1-7.6 3.8-7.6 8.4z"/>
					<path id="Layer" class="s6" d="m197.2 58.4h-57.4q-0.3 0-0.4-0.1-0.2-0.1-0.4-0.3-0.1-0.1-0.2-0.3-0.1-0.2 0-0.4-0.1-0.2 0-0.4 0.1-0.2 0.2-0.4 0.2-0.1 0.4-0.2 0.1-0.1 0.4-0.1h57.4q0.2 0 0.4 0.1 0.2 0.1 0.3 0.2 0.2 0.2 0.2 0.4 0.1 0.2 0.1 0.4 0 0.2-0.1 0.4 0 0.2-0.2 0.3-0.1 0.2-0.3 0.3-0.2 0.1-0.4 0.1z"/>
					<path id="Layer" class="s6" d="m197.2 67.5h-57.4q-0.3 0-0.4-0.1-0.2-0.1-0.4-0.3-0.1-0.1-0.2-0.3-0.1-0.2 0-0.4-0.1-0.2 0-0.4 0.1-0.2 0.2-0.4 0.2-0.1 0.4-0.2 0.1-0.1 0.4-0.1h57.4q0.2 0 0.4 0.1 0.2 0.1 0.3 0.2 0.2 0.2 0.2 0.4 0.1 0.2 0.1 0.4 0 0.2-0.1 0.4 0 0.2-0.2 0.3-0.1 0.2-0.3 0.3-0.2 0.1-0.4 0.1z"/>
					<path id="Layer" class="s6" d="m165.5 76.6h-25.7q-0.3 0-0.4-0.1-0.2-0.1-0.4-0.2-0.1-0.2-0.2-0.4-0.1-0.2 0-0.4-0.1-0.2 0-0.4 0.1-0.2 0.2-0.4 0.2-0.1 0.4-0.2 0.1-0.1 0.4-0.1h25.7q0.2 0 0.4 0.1 0.1 0.1 0.3 0.2 0.1 0.2 0.2 0.4 0.1 0.2 0.1 0.4 0 0.2-0.1 0.4-0.1 0.2-0.2 0.4-0.2 0.1-0.3 0.2-0.2 0.1-0.4 0.1z"/>
					<path id="Layer" fill-rule="evenodd" class="s6" d="m123.7 91.8q0.9 0.2 1.7 0.6 0.9 0.4 1.6 0.9 0.8 0.6 1.4 1.3 0.6 0.7 1.1 1.6 0.5 0.8 0.9 1.8 0.3 0.9 0.5 1.9 0.2 0.9 0.2 1.9c0 5.7-4.2 10.2-9.2 10.2-5.1 0-9.3-4.5-9.3-10.2 0-5.6 4.2-10.2 9.3-10.2q0.9 0 1.8 0.2zm-9.4 10.1c0 4.6 3.4 8.3 7.6 8.3 4.1 0 7.5-3.8 7.5-8.4 0-4.6-3.4-8.3-7.5-8.3-4.2 0-7.6 3.7-7.6 8.4z"/>
					<path id="Layer" class="s6" d="m197.2 93.8h-57.4q-0.3 0-0.4-0.1-0.2-0.1-0.4-0.3-0.1-0.1-0.2-0.3-0.1-0.2 0-0.4-0.1-0.2 0-0.4 0.1-0.2 0.2-0.4 0.2-0.1 0.4-0.2 0.1-0.1 0.4-0.1h57.4q0.2 0 0.4 0.1 0.2 0.1 0.3 0.2 0.2 0.2 0.2 0.4 0.1 0.2 0.1 0.4 0 0.2-0.1 0.4 0 0.2-0.2 0.3-0.1 0.2-0.3 0.3-0.2 0.1-0.4 0.1z"/>
					<path id="Layer" class="s6" d="m197.2 102.9h-57.4q-0.3 0-0.4-0.1-0.2-0.1-0.4-0.2-0.1-0.2-0.2-0.4-0.1-0.2 0-0.4-0.1-0.2 0-0.4 0.1-0.2 0.2-0.3 0.2-0.2 0.4-0.3 0.1-0.1 0.4-0.1h57.4q0.2 0 0.4 0.1 0.2 0.1 0.3 0.3 0.2 0.1 0.2 0.3 0.1 0.2 0.1 0.4 0 0.2-0.1 0.4 0 0.2-0.2 0.4-0.1 0.1-0.3 0.2-0.2 0.1-0.4 0.1z"/>
					<path id="Layer" class="s6" d="m165.5 112h-25.7q-0.3 0-0.4-0.1-0.2-0.1-0.4-0.2-0.1-0.2-0.2-0.4-0.1-0.2 0-0.4-0.1-0.2 0-0.4 0.1-0.2 0.2-0.3 0.2-0.2 0.4-0.3 0.1-0.1 0.4-0.1h25.7q0.2 0 0.4 0.1 0.1 0.1 0.3 0.3 0.1 0.1 0.2 0.3 0.1 0.2 0.1 0.4 0 0.2-0.1 0.4-0.1 0.2-0.2 0.4-0.2 0.1-0.3 0.2-0.2 0.1-0.4 0.1z"/>
					<path id="Layer" class="s6" d="m197.2 129.3h-57.4q-0.3-0.1-0.4-0.1-0.2-0.1-0.4-0.3-0.1-0.1-0.2-0.3-0.1-0.2 0-0.5-0.1-0.2 0-0.4 0.1-0.2 0.2-0.3 0.2-0.2 0.4-0.3 0.1 0 0.4-0.1h57.4q0.2 0.1 0.4 0.1 0.2 0.1 0.3 0.3 0.2 0.1 0.2 0.3 0.1 0.2 0.1 0.4 0 0.3-0.1 0.5 0 0.2-0.2 0.3-0.1 0.2-0.3 0.3-0.2 0-0.4 0.1z"/>
					<path id="Layer" class="s6" d="m197.2 138.4h-57.4q-0.3 0-0.4-0.1-0.2-0.1-0.4-0.3-0.1-0.1-0.2-0.3-0.1-0.2 0-0.4-0.1-0.2 0-0.4 0.1-0.2 0.2-0.4 0.2-0.2 0.4-0.2 0.1-0.1 0.4-0.1h57.4q0.2 0 0.4 0.1 0.2 0 0.3 0.2 0.2 0.2 0.2 0.4 0.1 0.2 0.1 0.4 0 0.2-0.1 0.4 0 0.2-0.2 0.3-0.1 0.2-0.3 0.3-0.2 0.1-0.4 0.1z"/>
					<path id="Layer" class="s6" d="m165.5 147.5h-25.7q-0.3 0-0.4-0.1-0.2-0.1-0.4-0.3-0.1-0.1-0.2-0.3-0.1-0.2 0-0.4-0.1-0.2 0-0.4 0.1-0.2 0.2-0.4 0.2-0.1 0.4-0.2 0.1-0.1 0.4-0.1h25.7q0.2 0 0.4 0.1 0.1 0.1 0.3 0.2 0.1 0.2 0.2 0.4 0.1 0.2 0.1 0.4 0 0.2-0.1 0.4-0.1 0.2-0.2 0.3-0.2 0.2-0.3 0.3-0.2 0.1-0.4 0.1z"/>
					<path id="Layer" class="s6" d="m197.2 164.7h-57.4q-0.3 0-0.4-0.1-0.2-0.1-0.4-0.3-0.1-0.1-0.2-0.3-0.1-0.2 0-0.4-0.1-0.2 0-0.4 0.1-0.2 0.2-0.4 0.2-0.1 0.4-0.2 0.1-0.1 0.4-0.1h57.4q0.2 0 0.4 0.1 0.2 0.1 0.3 0.2 0.2 0.2 0.2 0.4 0.1 0.2 0.1 0.4 0 0.2-0.1 0.4 0 0.2-0.2 0.3-0.1 0.2-0.3 0.3-0.2 0.1-0.4 0.1z"/>
					<path id="Layer" class="s6" d="m197.2 173.8h-57.4q-0.3 0-0.4-0.1-0.2-0.1-0.4-0.2-0.1-0.2-0.2-0.4-0.1-0.2 0-0.4-0.1-0.2 0-0.4 0.1-0.2 0.2-0.4 0.2-0.1 0.4-0.2 0.1-0.1 0.4-0.1h57.4q0.2 0 0.4 0.1 0.2 0.1 0.3 0.2 0.2 0.2 0.2 0.4 0.1 0.2 0.1 0.4 0 0.2-0.1 0.4 0 0.2-0.2 0.4-0.1 0.1-0.3 0.2-0.2 0.1-0.4 0.1z"/>
					<path id="Layer" class="s6" d="m165.5 182.9h-25.7q-0.3 0-0.4-0.1-0.2-0.1-0.4-0.2-0.1-0.2-0.2-0.4-0.1-0.2 0-0.4-0.1-0.2 0-0.4 0.1-0.2 0.2-0.3 0.2-0.2 0.4-0.3 0.1-0.1 0.4-0.1h25.7q0.2 0 0.4 0.1 0.1 0.1 0.3 0.3 0.1 0.1 0.2 0.3 0.1 0.2 0.1 0.4 0 0.2-0.1 0.4-0.1 0.2-0.2 0.4-0.2 0.1-0.3 0.2-0.2 0.1-0.4 0.1z"/>
					<path id="Layer" class="s7" d="m121.9 147.5c-5.1 0-9.3-4.6-9.3-10.2 0-5.7 4.2-10.3 9.3-10.3q0.9 0.1 1.8 0.3 0.9 0.2 1.7 0.5 0.9 0.4 1.6 1 0.8 0.5 1.4 1.2 0.6 0.8 1.1 1.6 0.5 0.9 0.9 1.8 0.3 0.9 0.5 1.9 0.2 1 0.2 2c0 5.6-4.2 10.2-9.2 10.2z"/>
					<path id="Layer" class="s0" d="m119.1 142.8q-0.1 0-0.2 0-0.1-0.1-0.2-0.1-0.1-0.1-0.2-0.1-0.1-0.1-0.1-0.2l-3.6-4.4q-0.1-0.2-0.1-0.4-0.1-0.2-0.1-0.4 0-0.2 0.1-0.4 0.1-0.2 0.2-0.3 0.2-0.2 0.4-0.2 0.1-0.1 0.3-0.1 0.2 0 0.4 0.1 0.2 0.1 0.3 0.3l2.9 3.7 8.4-7.2q0-0.1 0.1-0.1 0.1-0.1 0.2-0.1 0.1 0 0.2 0 0.1 0 0.2 0 0.1 0 0.2 0 0.1 0.1 0.1 0.1 0.1 0.1 0.2 0.1 0.1 0.1 0.1 0.2 0.1 0.2 0.2 0.4 0 0.2 0 0.4 0 0.2-0.1 0.4-0.1 0.1-0.3 0.3l-9 7.8q-0.1 0-0.2 0.1 0 0-0.1 0-0.1 0.1-0.2 0.1 0 0-0.1 0z"/>
					<path id="Layer" class="s7" d="m121.9 182.9c-5.1 0-9.3-4.6-9.3-10.2 0-5.6 4.2-10.2 9.3-10.2 5 0 9.2 4.6 9.2 10.2q0 1-0.2 2-0.2 0.9-0.5 1.9-0.4 0.9-0.9 1.7-0.5 0.9-1.1 1.6-0.6 0.7-1.4 1.3-0.7 0.5-1.6 0.9-0.8 0.4-1.7 0.6-0.9 0.2-1.8 0.2z"/>
					<path id="Layer" class="s0" d="m119.1 178.2q-0.1 0-0.2 0-0.1 0-0.2-0.1-0.1 0-0.2-0.1-0.1-0.1-0.1-0.1l-3.6-4.5q-0.1-0.2-0.1-0.4-0.1-0.2-0.1-0.4 0-0.2 0.1-0.4 0.1-0.2 0.2-0.3 0.2-0.1 0.4-0.2 0.1-0.1 0.3-0.1 0.2 0.1 0.4 0.1 0.2 0.1 0.3 0.3l2.9 3.7 8.4-7.2q0 0 0.1-0.1 0.1 0 0.2-0.1 0.1 0 0.2 0 0.1 0 0.2 0 0.1 0 0.2 0.1 0.1 0 0.1 0 0.1 0.1 0.2 0.2 0.1 0 0.1 0.1 0.1 0.2 0.2 0.4 0 0.2 0 0.4 0 0.2-0.1 0.4-0.1 0.2-0.3 0.3l-9 7.8q-0.1 0.1-0.2 0.1 0 0-0.1 0.1-0.1 0-0.2 0 0 0-0.1 0z"/>
					<path id="Layer" fill-rule="evenodd" class="s7" d="m181 34.8q0 0 0 0.1 0 0 0 0.1 0 0 0 0.1v3.7q0 0.2 0 0.4 0 0.3 0 0.5-0.1 0.2-0.1 0.4-0.1 0.2-0.1 0.4-0.1 0.2-0.2 0.5 0 0.1-0.1 0.2 0 0.2-0.1 0.3 0 0.1-0.1 0.2-0.1 0.1-0.1 0.2-0.1 0.2-0.2 0.3-0.1 0.1-0.1 0.2-0.1 0.1-0.2 0.2-0.1 0.1-0.2 0.2-0.3 0.3-0.7 0.6-0.4 0.3-0.9 0.6-0.4 0.2-0.9 0.3-0.5 0.1-1 0.1h-41.3q-1.1-0.1-2-0.5-1-0.5-1.7-1.3-0.7-0.7-1-1.7-0.4-1-0.4-2.1v-3.7c0-3.3 2.5-6 5.5-6h40.5q0.4 0 0.8 0.1 0.4 0.1 0.8 0.2 0.3 0.1 0.7 0.3 0.4 0.2 0.7 0.4 0.2 0.2 0.4 0.4 0.2 0.1 0.3 0.3 0.1 0.1 0.3 0.3 0.1 0.1 0.2 0.3 0.1 0.2 0.3 0.4 0.1 0.1 0.2 0.3 0.1 0.2 0.1 0.4 0.1 0.2 0.2 0.4 0.1 0.2 0.1 0.4 0 0.1 0.1 0.1 0 0 0 0.1 0 0 0 0.1 0 0 0 0.1 0.1 0.3 0.1 0.6 0 0 0 0.1 0 0 0 0.1 0.1 0 0.1 0.1 0 0 0 0 0 0.1 0 0.2zm-44.3 4.1q0.4-0.2 0.7-0.6 0.3-0.3 0.4-0.7 0.1-0.4 0.1-0.9 0-0.3 0-0.6-0.1-0.4-0.3-0.7-0.2-0.2-0.4-0.5-0.3-0.2-0.6-0.4-0.3-0.1-0.6-0.1-0.3-0.1-0.6 0-0.3 0.1-0.6 0.3-0.3 0.1-0.5 0.4-0.2 0.2-0.4 0.5-0.1 0.3-0.2 0.7 0 0.3 0 0.7 0 0.3 0.1 0.6 0.1 0.3 0.3 0.6 0.2 0.3 0.5 0.5 0.3 0.2 0.6 0.3 0.3 0.1 0.6 0.1 0.5-0.1 0.9-0.2zm39.1-0.1q0.5-0.3 0.8-0.9 0.3-0.5 0.3-1.2 0-0.6-0.3-1.1-0.3-0.6-0.8-0.9-0.1-0.1-0.3-0.2-0.1 0-0.2 0-0.1-0.1-0.3-0.1-0.1 0-0.2 0-0.4 0-0.7 0.1-0.3 0.1-0.6 0.3-0.2 0.2-0.4 0.5-0.2 0.3-0.3 0.6-0.1 0.3-0.1 0.7-0.1 0.4 0 0.7 0.1 0.3 0.3 0.7 0.1 0.3 0.4 0.5 0.2 0.2 0.5 0.4 0.3 0.1 0.6 0.2 0.4 0 0.7-0.1 0.3 0 0.6-0.2z"/>
					<path id="Layer" fill-rule="evenodd" class="s7" d="m165.7 20.1q0.5 0.1 1 0.3 0.5 0.3 0.9 0.6 0.4 0.3 0.8 0.7 0.3 0.4 0.6 0.9 0.3 0.4 0.5 1 0.2 0.5 0.3 1 0.1 0.6 0.1 1.1v3.4h-29.2v-3.4q0-1 0.3-2.1 0.4-1 1.1-1.8 0.8-0.8 1.7-1.3 1-0.4 2.1-0.5h18.8q0.5 0 1 0.1zm-5.4 6.5q0.1-0.2 0.3-0.4 0.1-0.3 0.1-0.6 0.1-0.2 0.1-0.5-0.1-0.3-0.2-0.5-0.1-0.3-0.2-0.5-0.2-0.2-0.4-0.4-0.2-0.1-0.4-0.2-0.3-0.1-0.6-0.1h-7.4c-0.5 0-0.9 0.3-1.2 0.6-0.3 0.4-0.4 0.8-0.4 1.3 0 0.4 0.1 0.9 0.4 1.2 0.3 0.4 0.7 0.6 1.2 0.7h7.5q0.1 0 0.3 0 0.2-0.1 0.3-0.2 0.2 0 0.3-0.1 0.2-0.1 0.3-0.3z"/>
					<path id="Layer" class="s8" d="m181 35.1v3.7q0 0.2 0 0.4-0.1 0.2-0.1 0.4 0 0.2-0.1 0.4 0 0.2-0.1 0.4 0 0.3-0.1 0.5-0.1 0.1-0.1 0.3-0.1 0.1-0.1 0.2-0.1 0.1-0.2 0.2 0 0.2-0.1 0.3-0.1 0.1-0.1 0.2-0.1 0.1-0.2 0.2-0.1 0.1-0.1 0.2-0.1 0.1-0.2 0.2-0.4 0.4-0.8 0.7-0.4 0.3-0.8 0.5-0.5 0.2-1 0.3-0.5 0.1-1 0.1h-5.1q1 0 2-0.5 0.9-0.4 1.6-1.2 0.7-0.8 1.1-1.8 0.4-1 0.3-2 0.5-0.4 0.8-0.9 0.3-0.6 0.3-1.2 0-0.6-0.3-1.2-0.3-0.5-0.8-0.9 0-1-0.4-2-0.4-1-1.2-1.8-0.7-0.8-1.7-1.2-1-0.5-2.1-0.5h5.2q0.4 0 0.8 0.1 0.4 0 0.7 0.1 0.4 0.2 0.8 0.4 0.3 0.2 0.7 0.4 0.2 0.2 0.4 0.3 0.1 0.2 0.3 0.3 0.1 0.2 0.3 0.3 0.1 0.2 0.2 0.4 0.1 0.1 0.2 0.3 0.1 0.2 0.2 0.4 0.1 0.2 0.2 0.4 0.1 0.2 0.2 0.4 0.1 0.2 0.1 0.4 0.1 0.1 0.1 0.3 0 0.2 0.1 0.3 0 0.2 0 0.4 0 0.1 0 0.3 0 0.1 0.1 0.1 0 0.1 0 0.1 0 0.1 0 0.2 0 0 0 0.1z"/>
					<path id="Layer" class="s8" d="m169.9 25.7v3.4h-3.7v-3.4q0.1-1-0.3-2.1-0.3-1-1.1-1.8-0.7-0.8-1.7-1.3-0.9-0.4-2-0.5h3.6q1.1 0.1 2.1 0.5 0.9 0.5 1.7 1.3 0.7 0.8 1.1 1.8 0.3 1.1 0.3 2.1z"/>
					<path id="Layer" class="s9" d="m175.5 127.6q0.8-0.1 1.7 0 0.8 0.1 1.7 0.4 0.8 0.3 1.5 0.7 0.7 0.5 1.2 1.2c3.6 4.1 2.2 11.4 5.4 15.7 3 4 8.6 3.9 12.6 6.6q1.2 0.9 2.1 2 1 1.1 1.6 2.4 0.6 1.3 0.8 2.7 0.3 1.4 0.2 2.8c-0.5 3.9-3.6 7.4-7.1 7.4 1.9 0.5 2.9 3.1 2.3 5.2q-0.2 0.8-0.7 1.4-0.4 0.7-1 1.2-0.5 0.5-1.2 0.9-0.7 0.4-1.4 0.5-0.8 0.2-1.5 0.3-0.8 0-1.5 0-0.7 0-1.5-0.1-0.7-0.1-1.4-0.2-1.2-0.2-2.4-0.5-1.2-0.2-2.3-0.5-1.2-0.3-2.4-0.7-1.1-0.3-2.3-0.7c-3.9-1.3-7.9-3.1-10-7q-0.6-1.2-0.9-2.4-0.4-1.3-0.5-2.5-0.2-1.3-0.1-2.6 0.1-1.3 0.4-2.6 0.2-1.2 0.6-2.4 0.3-1.3 0.7-2.5 0.4-1.2 0.9-2.4 0.4-1.2 0.9-2.4 0.5-1.2 0.9-2.4 0.4-1.2 0.7-2.5 0.3-1.2 0.5-2.5 0.2-1.3 0.3-2.6c0-1.6-0.2-3.5-1.5-4.5-1.6-1.3-3.3-1.7-1.8-4.1q0.4-0.6 0.9-1.2 0.4-0.5 1-0.9 0.6-0.4 1.2-0.7 0.7-0.3 1.4-0.5z"/>
					<path id="Layer" class="s9" d="m157.6 196.8h21.3v0.3c0 5.8-4.2 10.4-9.4 10.4h-2.5c-5.2 0-9.4-4.6-9.4-10.4v-0.3z"/>
					<path id="Layer" class="s10" d="m173.5 202.9l5.2 1.6c0 0 0.9 5.2-2 6.3l-4.8-1.7q0.3-0.8 0.5-1.6 0.2-0.7 0.4-1.5 0.2-0.8 0.4-1.6 0.2-0.7 0.3-1.5z"/>
					<path id="Layer" class="s8" d="m178.7 204.5q0.8 0 1.5 0.1 0.7 0.2 1.4 0.3 0.7 0.2 1.3 0.4 0.7 0.2 1.4 0.4 0.3 0.2 0.5 0.4 0.3 0.2 0.5 0.4 0.2 0.3 0.4 0.6 0.1 0.3 0.2 0.6 1.1 4.6 1.8 9.3 0 0.4 0 0.7 0 0.4-0.2 0.7-0.1 0.3-0.3 0.6-0.1 0.3-0.4 0.6-0.2 0.2-0.5 0.4-0.3 0.1-0.6 0.2-0.3 0.1-0.7 0.1-0.3 0-0.6-0.1-0.2-0.1-0.5-0.2-0.2-0.2-0.4-0.3-0.2-0.2-0.3-0.4-0.2-0.2-0.3-0.4c-1-1.9-3.6-6.4-6.2-8.1 0 0 2.9-1.3 2-6.3z"/>
					<path id="Layer" class="s9" d="m172.1 212.3l-27.6-9.5q-1-0.5-1.8-1.3-0.9-0.7-1.3-1.8-0.5-1-0.6-2.1-0.1-1.2 0.2-2.3 0.3-1 0.9-1.9 0.7-0.9 1.6-1.5 1-0.5 2.1-0.6 1.1-0.2 2.1 0.2l27.6 9.5 0.2 1.2q0.2 1.3 0.1 2.7-0.2 1.4-0.6 2.7-0.4 1.3-1.2 2.5-0.7 1.2-1.7 2.2z"/>
					<path id="Layer" class="s11" d="m162.6 202.9l-5.2 1.6c0 0-0.8 5.2 2.1 6.3l4.7-1.7q-0.2-0.8-0.4-1.6-0.3-0.7-0.5-1.5-0.2-0.8-0.3-1.6-0.2-0.7-0.4-1.5z"/>
					<path id="Layer" class="s7" d="m157.4 204.5q-0.7 0-1.4 0.1-0.7 0.2-1.4 0.3-0.7 0.2-1.4 0.4-0.7 0.2-1.3 0.4-0.3 0.2-0.6 0.4-0.2 0.2-0.5 0.4-0.2 0.3-0.3 0.6-0.1 0.3-0.2 0.6-0.3 1.1-0.6 2.3-0.2 1.2-0.4 2.3-0.3 1.2-0.5 2.4-0.2 1.2-0.3 2.3-0.1 0.4 0 0.7 0 0.4 0.1 0.7 0.1 0.3 0.3 0.6 0.2 0.3 0.5 0.6 0.2 0.2 0.5 0.4 0.3 0.1 0.6 0.2 0.3 0.1 0.6 0.1 0.3 0 0.7-0.1 0.2-0.1 0.5-0.2 0.2-0.2 0.4-0.3 0.2-0.2 0.3-0.4 0.2-0.2 0.3-0.4c1-1.9 3.6-6.4 6.2-8.1 0 0-3-1.3-2.1-6.3z"/>
					<path id="Layer" class="s12" d="m164 212.3l27.6-9.5q0.5-0.2 1-0.5 0.5-0.3 0.9-0.7 0.4-0.3 0.7-0.8 0.3-0.4 0.6-0.9 0.2-0.6 0.3-1.1 0.2-0.6 0.2-1.2 0.1-0.5 0-1.1 0-0.6-0.2-1.2-0.2-1-0.9-1.9-0.6-0.9-1.6-1.5-0.9-0.5-2-0.6-1.1-0.2-2.2 0.2l-27.5 9.5-0.2 1.2q-0.2 1.3-0.1 2.7 0.1 1.4 0.6 2.7 0.4 1.3 1.1 2.5 0.8 1.2 1.7 2.2z"/>
					<path id="Layer" class="s13" d="m175 163.9q2.6 1.8 5.1 4 2.4 2.2 4.6 4.7 2.2 2.4 4.2 5.1 1.9 2.6 3.5 5.5 0.2 0.4 0.3 0.9 0.1 0.5 0.1 0.9 0 0.5-0.2 1-0.2 0.4-0.4 0.8-0.1 0.1-0.2 0.2-0.2 0.2-0.4 0.4-0.3 0.2-0.5 0.3-0.3 0.2-0.6 0.2-0.3 0.1-0.6 0-0.3 0-0.6-0.1-0.3-0.1-0.6-0.2-0.3-0.2-0.5-0.4-0.2-0.2-0.4-0.5c-1.8-2.6-5.2-7.1-8.8-9.8z"/>
					<path id="Layer" class="s13" d="m191.4 188.5q-1.5 1-3 1.9-1.6 0.8-3.2 1.6-1.5 0.8-3.2 1.4-1.6 0.7-3.3 1.2-0.4 0.4-0.8 0.7-0.4 0.3-0.8 0.6-0.4 0.2-0.9 0.5-0.4 0.2-0.9 0.3-0.5 0.2-0.9 0.1-0.5 0-1-0.2-0.4-0.2-0.8-0.6-0.3-0.3-0.5-0.7-0.3-0.5-0.4-1-0.1-0.5 0-1 0.1-0.6 0.3-1 0.2-0.5 0.5-0.9 0.5-0.5 1-0.8 0.5-0.4 1.1-0.7 0.6-0.3 1.2-0.4 0.6-0.2 1.3-0.2c0.4 0 6.8-3.2 11.5-6.1q0.5-0.3 1-0.4 0.5-0.1 1.1 0.1 0.5 0.1 0.9 0.4 0.4 0.3 0.7 0.8h0.1q0.1 0.3 0.2 0.6 0.1 0.3 0.2 0.6 0 0.3 0 0.6 0 0.3-0.1 0.6 0 0.3-0.1 0.6-0.2 0.3-0.3 0.6-0.2 0.2-0.4 0.4-0.2 0.3-0.5 0.4z"/>
					<path id="Layer" class="s13" d="m161.6 163.9q-2.6 1.8-5.1 4-2.5 2.2-4.7 4.7-2.2 2.4-4.1 5.1-1.9 2.6-3.5 5.5-0.2 0.4-0.3 0.9-0.1 0.5-0.1 0.9 0 0.5 0.2 1 0.1 0.4 0.4 0.8 0.1 0.1 0.2 0.2 0.1 0.2 0.4 0.4 0.2 0.2 0.5 0.3 0.3 0.2 0.6 0.2 0.3 0.1 0.6 0 0.3 0 0.6-0.1 0.3-0.1 0.6-0.2 0.3-0.2 0.5-0.4 0.2-0.2 0.4-0.5c1.8-2.6 5.2-7.1 8.8-9.8z"/>
					<path id="Layer" class="s13" d="m145.2 188.5q1.5 1 3 1.9 1.5 0.8 3.1 1.6 1.6 0.8 3.3 1.4 1.6 0.7 3.3 1.2 0.3 0.4 0.7 0.7 0.4 0.3 0.9 0.6 0.4 0.2 0.9 0.5 0.4 0.2 0.9 0.3 0.5 0.2 0.9 0.1 0.5 0 1-0.2 0.4-0.2 0.8-0.6 0.3-0.3 0.5-0.7 0.3-0.5 0.4-1 0.1-0.5 0-1-0.1-0.6-0.3-1-0.2-0.5-0.5-0.9-0.5-0.5-1-0.8-0.5-0.4-1.1-0.7-0.6-0.3-1.2-0.4-0.6-0.2-1.3-0.2c-0.4 0-6.8-3.2-11.5-6.1q-0.5-0.3-1-0.4-0.5-0.1-1.1 0.1-0.5 0.1-0.9 0.4-0.5 0.3-0.7 0.8-0.2 0.3-0.3 0.6-0.1 0.3-0.2 0.6 0 0.3 0 0.6 0 0.3 0.1 0.6 0 0.3 0.1 0.6 0.2 0.3 0.3 0.6 0.2 0.2 0.4 0.4 0.2 0.3 0.5 0.4z"/>
					<path id="Layer" class="s7" d="m165.3 162.8h6c4.2 0 7.6 3.8 7.6 8.5v25.6h-21.3v-25.6c0-4.7 3.5-8.5 7.7-8.5z"/>
					<path id="Layer" class="s3" d="m152.4 178.8c0-1.1 0.8-1.9 1.9-1.9h28c1.1 0 1.9 0.8 1.9 1.9v16.1c0 1.1-0.8 2-1.9 2h-28c-1.1 0-1.9-0.9-1.9-2z"/>
					<path id="Layer" class="s4" d="m184.2 179.4v14.9q0 0.3 0 0.5-0.1 0.3-0.1 0.5-0.1 0.2-0.2 0.4-0.2 0.2-0.3 0.4-0.2 0.2-0.4 0.3-0.2 0.2-0.4 0.3-0.2 0.1-0.4 0.1-0.2 0.1-0.5 0.1h-3.9q0.2 0 0.5-0.1 0.2 0 0.4-0.1 0.2-0.1 0.4-0.3 0.2-0.1 0.3-0.3 0.2-0.2 0.3-0.4 0.1-0.2 0.2-0.4 0.1-0.2 0.1-0.5 0.1-0.2 0.1-0.5v-14.9q0-0.5-0.1-0.9-0.2-0.5-0.5-0.8-0.4-0.4-0.8-0.6-0.4-0.2-0.9-0.2h3.9q0.3 0 0.5 0 0.2 0.1 0.4 0.2 0.2 0.1 0.4 0.2 0.2 0.1 0.4 0.3 0.1 0.2 0.2 0.4 0.2 0.2 0.3 0.4 0 0.3 0.1 0.5 0 0.3 0 0.5z"/>
					<path id="Layer" class="s14" d="m184.2 181.8v2.2l-17.6 12.9h-2.9z"/>
					<path id="Layer" class="s14" d="m170 176.9l-17.6 12.9v-3.1l13.4-9.8z"/>
					<path id="Layer" class="s14" d="m183.6 177.6l-26.2 19.3h-2.8q-0.4 0-0.8-0.2-0.4-0.2-0.7-0.5-0.3-0.3-0.5-0.7-0.2-0.4-0.2-0.9l24.2-17.7h5.3q0.3 0 0.5 0 0.2 0.1 0.4 0.2 0.3 0.1 0.4 0.2 0.2 0.1 0.4 0.3z"/>
					<path id="Layer" class="s13" d="m171 156.2v7.6c0 0.7-0.2 1.5-0.7 2.1-0.5 0.5-1.2 0.8-2 0.8-0.8 0-1.5-0.3-2-0.8-0.5-0.6-0.8-1.4-0.7-2.1v-7.6z"/>
					<path id="Layer" class="s10" d="m171 156.2v5.2q-0.4 0.2-0.7 0.3-0.4 0.1-0.7 0.2-0.4 0-0.8 0.1-0.4 0-0.7 0-0.3 0-0.6 0-0.4 0-0.7-0.1-0.3 0-0.6-0.1-0.3-0.1-0.6-0.2v-5.4z"/>
					<path id="Layer" class="s13" d="m168.1 160.5c-4.4 0-8-3.9-8-8.8v-13.5h16v13.5c0 4.9-3.6 8.8-8 8.8z"/>
					<path id="Layer" class="s13" d="m178.8 152.4h-2.7v-6.1h2.7q0.6 0 1.1 0.3 0.5 0.2 0.9 0.7 0.4 0.4 0.6 0.9 0.2 0.6 0.2 1.2 0 0.5-0.2 1.1-0.2 0.5-0.6 0.9-0.4 0.5-0.9 0.7-0.5 0.3-1.1 0.3z"/>
					<path id="Layer" class="s13" d="m157.3 152.4h2.8v-6.1h-2.8q-0.5 0-1.1 0.3-0.5 0.2-0.9 0.7-0.3 0.4-0.5 0.9-0.2 0.6-0.2 1.2 0 0.5 0.2 1.1 0.2 0.5 0.5 0.9 0.4 0.5 0.9 0.7 0.6 0.3 1.1 0.3z"/>
					<path id="Layer" class="s9" d="m172.5 138.8c0 0 0.9 7.1 3.6 7.5q0.3 0 0.6-0.1 0.3 0 0.6-0.1 0.3-0.2 0.6-0.4 0.2-0.2 0.4-0.4 0.3-0.2 0.5-0.5 0.1-0.3 0.3-0.7 0.1-0.3 0.1-0.6 0.1-0.4 0.1-0.7v-0.1c0-6-4.4-10.8-9.8-10.8h-2.4c-5.4 0-9.8 4.8-9.8 10.8q0 0.2 0.1 0.4 0 0.3 0.1 0.5 0.1 0.2 0.2 0.4 0.1 0.2 0.3 0.3 0.1 0.2 0.3 0.3 0.2 0.1 0.4 0.1 0.2 0.1 0.4 0.1 0.2 0 0.4 0c3.8-0.6 11.3-2.3 13-6z"/>
					<path id="Layer" fill-rule="evenodd" class="s7" d="m97.7 142.4q0.1 0 0.2 0.1 0.1 0.1 0.2 0.2 0 0.1 0.1 0.2 0 0.1 0 0.2 0.1 0.1 0.1 0.2 0 0.1 0 0.2-0.1 0.2-0.1 0.3l-21.8 63q-0.1 0.2-0.1 0.3-0.1 0.2-0.3 0.3-0.1 0.1-0.3 0.1-0.1 0.1-0.3 0.1 0 0-0.1 0 0 0-0.1-0.1 0 0-0.1 0 0 0-0.1 0-0.1-0.1-0.2-0.1 0-0.1-0.1-0.1-0.1-0.1-0.2-0.2 0-0.1-0.1-0.2 0-0.1 0-0.2-0.1-0.1-0.1-0.3 0-0.1 0.1-0.2 0-0.1 0-0.2l2.7-7.9h-15.6l-3 8.7q0 0.2-0.1 0.3-0.1 0.1-0.3 0.2-0.1 0.1-0.3 0.2-0.1 0.1-0.3 0.1 0 0-0.1 0 0 0-0.1-0.1 0 0-0.1 0 0 0-0.1 0-0.1-0.1-0.1-0.1-0.1-0.1-0.2-0.2-0.1 0-0.2-0.1 0-0.1-0.1-0.2 0-0.1 0-0.2-0.1-0.1-0.1-0.3 0-0.1 0.1-0.2 0-0.1 0-0.2l22.6-65.4q0.1-0.1 0.1-0.2 0.1-0.2 0.2-0.3 0.1-0.1 0.3-0.1 0.1-0.1 0.2-0.2 0.2 0 0.3 0 0.2 0.1 0.3 0.1 0.2 0.1 0.3 0.2 0.1 0.1 0.2 0.2 0 0.1 0.1 0.3 0.1 0.1 0.1 0.3 0 0.1 0 0.3-0.1 0.1-0.1 0.3l-4.8 13.7h15.6l4.3-12.3q0-0.2 0.2-0.3 0.1-0.2 0.3-0.3 0.2-0.1 0.4-0.1 0.2 0 0.4 0.1 0.1 0 0.2 0.1zm-22.2 15.2l-3.8 11h15.6l3.8-11.1zm11.1 13.3h-15.6l-3.8 10.9 15.5 0.2zm-8.6 24.9l4-11.5-15.6-0.2-4 11.7z"/>
					<path id="Layer" class="s10" d="m32.9 191.7l1.9-4.9 5.1 2.1-1.9 4.9c0 0-2.8 1.6-5.1-2.1z"/>
					<path id="Layer" class="s9" d="m32.9 191.6l-2.5 5.4q-0.2 0.3-0.2 0.7-0.1 0.3 0 0.7 0 0.3 0.1 0.7 0.2 0.3 0.4 0.6c1.5 1.7 4.2 4.7 6.7 6.1q0.8 0.2 1.7 0.3 0.8 0.1 1.6 0.2 0.8 0 1.7 0.1 0.8 0 1.6 0 0.3 0 0.6-0.1 0.3-0.1 0.5-0.2 0.3-0.2 0.5-0.4 0.2-0.2 0.3-0.5 0.2-0.3 0.3-0.6 0.1-0.3 0.1-0.6 0-0.3 0-0.6 0-0.3-0.2-0.6c-0.7-2.1-2.6-4.2-7.1-3.8q-0.3-0.6-0.5-1.2-0.2-0.7-0.3-1.3-0.2-0.7-0.2-1.4 0-0.6 0.1-1.3c0-0.5-3.1 1.5-5.2-2.2z"/>
					<path id="Layer" class="s9" d="m41.7 191.6l13.4-28.4q0.5-1 0.6-2.2 0.1-1.1-0.2-2.2-0.4-1.1-1-2-0.7-0.9-1.7-1.6-1-0.5-2-0.6-1.1-0.1-2.2 0.3-1 0.3-1.8 1.1-0.8 0.7-1.2 1.7l-13.4 28.4 0.7 1q0.6 1.1 1.6 2 1 0.9 2.1 1.5 1.2 0.6 2.5 0.8 1.3 0.3 2.6 0.2z"/>
					<path id="Layer" class="s9" d="m64.2 131.9q-0.8 3.8-1.8 7.7-0.9 3.8-2 7.6-1.1 3.8-2.3 7.6-1.2 3.7-2.6 7.4-0.3 1-1 1.8-0.6 0.8-1.5 1.3-0.9 0.5-1.9 0.6-1 0.1-2-0.1l-0.2-0.1q-0.6-0.2-1.1-0.5-0.5-0.3-1-0.7-0.4-0.4-0.7-0.8-0.4-0.5-0.6-1.1-0.3-0.5-0.4-1.1-0.2-0.7-0.2-1.3-0.1-0.6 0-1.2 0.1-0.6 0.3-1.2c2-6.4 5.6-18.4 5.8-25.9z"/>
					<path id="Layer" class="s13" d="m53.1 182.9l2.2-4.8 5 2.4-2.1 4.8c0 0-2.9 1.5-5.1-2.4z"/>
					<path id="Layer" class="s12" d="m62.1 182.9l12.9-28.6q0.5-1.1 0.6-2.2 0.1-1.2-0.3-2.3-0.3-1.1-1-2-0.7-0.9-1.7-1.5-0.9-0.5-2-0.6-1.1 0-2.2 0.3-1 0.4-1.8 1.2-0.7 0.8-1.1 1.8l-13 28.7 0.7 0.9q0.7 1.1 1.7 2 1 0.8 2.1 1.4 1.2 0.6 2.5 0.8 1.3 0.3 2.6 0.2z"/>
					<path id="Layer" class="s12" d="m42.9 131.9v1.6q0 1.6 0.3 3.2 0.4 1.5 1.2 2.9 0.8 1.4 1.9 2.6 1.1 1.2 2.5 2l18.9 10.8q0.7 0.3 1.4 0.5 0.8 0.1 1.6-0.1 0.8-0.2 1.4-0.6 0.7-0.4 1.1-1.1l0.1-0.1q0.3-0.4 0.5-0.8 0.3-0.5 0.4-1 0.1-0.5 0.2-1 0-0.5-0.1-1 0-0.5-0.2-1-0.1-0.5-0.3-0.9-0.3-0.5-0.6-0.9-0.3-0.4-0.7-0.7c-4.5-3.6-13-10.4-19.4-14.4z"/>
					<path id="Layer" class="s15" d="m53.1 182.9l-2.5 5.1q-0.2 0.4-0.3 0.8 0 0.5 0.1 1 0.1 0.4 0.3 0.8 0.3 0.4 0.6 0.7 1.4 1.1 3 2.1 1.5 0.9 3.1 1.7 1.7 0.7 3.3 1.3 1.7 0.6 3.5 0.9 0.6 0.1 1.2 0 0.5-0.1 1-0.5 0.5-0.4 0.8-0.9 0.3-0.5 0.4-1.1v-0.1q0.1-0.5 0-1.1-0.1-0.5-0.3-1-0.3-0.5-0.6-0.8-0.4-0.4-0.9-0.7-1.1-0.5-2.1-1.1-1.1-0.6-2.1-1.4-0.9-0.7-1.8-1.5-0.9-0.9-1.7-1.8c-0.5-0.6-2.7 1.1-5-2.4z"/>
					<path id="Layer" class="s10" d="m52.9 97.9q2 1.8 4.2 3.5 2.1 1.6 4.4 3.1 2.3 1.4 4.7 2.6 2.4 1.3 4.9 2.3 0.5 0.2 0.9 0.5 0.4 0.3 0.7 0.8 0.3 0.4 0.4 0.9 0.2 0.5 0.2 1.1v0.1q0 0.4-0.1 0.8-0.1 0.3-0.3 0.7-0.2 0.4-0.4 0.7-0.3 0.3-0.6 0.6-0.3 0.2-0.6 0.4-0.4 0.1-0.7 0.2-0.4 0.1-0.8 0-0.4 0-0.7-0.1c-3.5-1.2-10.6-4-16.1-8.3q-0.5-0.4-0.9-0.9-0.4-0.6-0.7-1.2-0.4-0.6-0.5-1.2-0.2-0.7-0.2-1.4 0-0.7 0.1-1.3 0.1-0.7 0.3-1.4 0.3-0.6 0.6-1.2 0.4-0.5 0.9-1z"/>
					<path id="Layer" class="s10" d="m69.8 109.7c3.1-0.8 9.8-2.7 14.5-6.2 0 0 2.4-4.2 6.4-3.8q0.5 0.1 1 0.3 0.4 0.2 0.8 0.6 0.4 0.3 0.7 0.8 0.3 0.4 0.4 0.9 0.2 0.5 0.2 1.1 0.1 0.5-0.1 1.1-0.1 0.5-0.3 1-0.3 0.5-0.7 0.9-0.5 0.5-1.1 0.9-0.7 0.3-1.4 0.6-0.7 0.2-1.4 0.3-0.7 0.1-1.5 0c-0.4-0.1-8.2 6.8-16.5 8q-0.3 0.1-0.7 0-0.3 0-0.7-0.1-0.3-0.1-0.6-0.3-0.3-0.2-0.5-0.5-0.3-0.3-0.5-0.6-0.2-0.4-0.3-0.7-0.1-0.4-0.1-0.8-0.1-0.4 0-0.7v-0.1q0.1-0.5 0.2-1 0.2-0.4 0.6-0.8 0.3-0.3 0.7-0.6 0.4-0.2 0.9-0.3z"/>
					<path id="Layer" class="s16" d="m61.8 103.7c0 0-0.6 5.8-4.9 8.6l-6.2-4.9q-0.6-0.5-1.1-1.2-0.4-0.7-0.6-1.4-0.2-0.8-0.2-1.6 0-0.8 0.2-1.6c0.6-1.8 1.6-3.5 3.5-4q0.5-0.1 1 0 0.5 0 1 0.1 0.5 0.2 0.9 0.4 0.4 0.3 0.8 0.6z"/>
					<path id="Layer" class="s3" d="m62.4 136.1l-18-1.2q-0.4 0-0.7-0.2-0.4-0.2-0.7-0.5-0.2-0.3-0.3-0.7-0.1-0.4-0.1-0.8l1.3-24.1c0.3-6.7 5.5-11.8 11.5-11.5 6.1 0.4 10.7 6.2 10.4 12.9l-1.3 24.1q0 0.2-0.1 0.4 0 0.2-0.1 0.4-0.1 0.2-0.2 0.3-0.1 0.2-0.3 0.4-0.1 0.1-0.3 0.2-0.1 0.1-0.3 0.2-0.2 0.1-0.4 0.1-0.2 0-0.4 0z"/>
					<path id="Layer" class="s7" d="m92.4 117c-5.1-0.3-9.1-5.2-8.8-11q0-1 0.3-2 0.2-0.9 0.6-1.9 0.4-0.9 1-1.7 0.5-0.8 1.2-1.6 0.7-0.6 1.5-1.1 0.8-0.6 1.6-0.9 0.9-0.3 1.9-0.5 0.9-0.1 1.8-0.1 1 0.1 1.9 0.4 0.9 0.2 1.7 0.7 0.9 0.4 1.6 1 0.7 0.6 1.3 1.4 0.6 0.8 1.1 1.7 0.5 0.9 0.8 1.8 0.3 1 0.4 2 0.1 1 0.1 2-0.1 1-0.3 2-0.2 1-0.6 1.9-0.4 0.9-1 1.7-0.6 0.9-1.3 1.6-0.6 0.7-1.4 1.2-0.8 0.5-1.7 0.8-0.9 0.4-1.8 0.5-0.9 0.2-1.9 0.1z"/>
					<path id="Layer" class="s17" d="m86.6 106.2l3.3 4.8 9.7-7.4"/>
					<path id="Layer" class="s13" d="m53.8 102q2 2.2 4.1 4.2 2.2 2 4.5 3.9 2.4 1.8 4.8 3.4 2.5 1.6 5.1 3 0.6 0.2 1 0.6 0.4 0.4 0.7 1 0.2 0.5 0.4 1 0.1 0.6 0 1.2 0 0 0 0 0 0 0 0 0 0 0 0.1 0 0 0 0 0 0.4-0.2 0.8-0.1 0.4-0.3 0.8-0.2 0.4-0.5 0.7-0.3 0.3-0.7 0.6-0.4 0.2-0.7 0.3-0.4 0.2-0.8 0.2-0.5 0-0.9-0.1-0.4 0-0.7-0.2c-3.7-1.7-11.1-5.5-16.6-10.8q-0.5-0.5-1-1.1-0.4-0.7-0.6-1.3-0.3-0.7-0.4-1.5-0.2-0.7-0.1-1.5 0-0.7 0.2-1.4 0.2-0.7 0.5-1.4 0.3-0.7 0.8-1.2 0.5-0.6 1-1.1 0.1 0 0.1 0 0.1-0.1 0.1-0.1 0.1 0 0.1-0.1 0.1 0 0.1 0z"/>
					<path id="Layer" class="s13" d="m70.9 116.6c3.4-0.4 10.9-1.8 16.3-5 0 0 3-4.2 7.2-3.3q0.6 0.1 1.1 0.4 0.5 0.3 0.9 0.7 0.4 0.4 0.6 0.9 0.3 0.5 0.4 1.1 0.1 0.6 0.1 1.2 0 0.6-0.2 1.1-0.2 0.6-0.5 1.1-0.3 0.5-0.7 0.9-0.7 0.5-1.4 0.8-0.7 0.4-1.5 0.5-0.8 0.2-1.6 0.2-0.8 0-1.5-0.2c-0.6-0.1-9.5 6.4-18.6 6.9q-0.4 0-0.8-0.1-0.4-0.1-0.7-0.3-0.4-0.1-0.7-0.4-0.3-0.2-0.5-0.6-0.3-0.3-0.5-0.7-0.1-0.4-0.2-0.8-0.1-0.4-0.1-0.8 0-0.4 0.1-0.8c0-0.3 0-0.1 0-0.1q0.1-0.5 0.3-1 0.3-0.4 0.7-0.8 0.3-0.4 0.8-0.6 0.5-0.2 1-0.3z"/>
					<path id="Layer" class="s3" d="m62.6 110.4q-0.3 1.1-0.8 2-0.5 1-1.1 1.9-0.6 0.9-1.3 1.7-0.8 0.7-1.6 1.4-0.3 0.1-0.5 0.2-0.3 0.1-0.5 0-0.3 0-0.6-0.1-0.2-0.1-0.4-0.3l-5.3-5.2q-0.6-0.6-1-1.4-0.5-0.7-0.6-1.6-0.2-0.9-0.1-1.7 0.1-0.9 0.4-1.7c0.8-1.9 2-3.7 4.2-3.9q0.5-0.1 1.1 0 0.5 0.1 1 0.3 0.5 0.2 0.9 0.5 0.5 0.3 0.8 0.7l5 5.3q0.1 0.2 0.2 0.4 0.2 0.3 0.2 0.5 0.1 0.3 0.1 0.5-0.1 0.3-0.1 0.5z"/>
					<path id="Layer" class="s4" d="m60.7 114.3q-0.3 0.5-0.6 0.9-0.3 0.4-0.7 0.8-0.4 0.4-0.8 0.7-0.4 0.4-0.8 0.7-0.3 0.1-0.5 0.2-0.3 0.1-0.5 0-0.3 0-0.6-0.1-0.2-0.1-0.4-0.3l-5.3-5.2q-0.6-0.6-1-1.4-0.5-0.7-0.6-1.6-0.2-0.9-0.1-1.7 0.1-0.9 0.4-1.7 0.1-0.4 0.3-0.8 0.2-0.4 0.5-0.7 0.2-0.4 0.5-0.7 0.3-0.4 0.6-0.6-0.1 0.1-0.2 0.2-0.1 0.2-0.1 0.3-0.1 0.2-0.2 0.3 0 0.2-0.1 0.4-0.3 0.8-0.4 1.6-0.1 0.9 0.1 1.8 0.1 0.8 0.6 1.6 0.4 0.8 1 1.4l5.3 5.2q0.2 0.1 0.4 0.3 0.3 0.1 0.6 0.1 0.2 0 0.5 0 0.2-0.1 0.5-0.2 0.2-0.2 0.4-0.4 0.2-0.1 0.4-0.3 0.3-0.2 0.5-0.4 0.2-0.2 0.3-0.4z"/>
					<path id="Layer" class="s13" d="m57.6 90l0.6 5.4 0.3 2.4q0 0.4 0 0.8-0.1 0.4-0.2 0.8-0.1 0.4-0.4 0.7-0.2 0.4-0.5 0.6-0.3 0.3-0.6 0.4-0.3 0.2-0.7 0.2-0.4 0.1-0.8 0-0.3 0-0.7-0.2-0.3-0.2-0.6-0.4-0.3-0.3-0.5-0.6-0.2-0.4-0.4-0.7-0.1-0.4-0.1-0.8l-0.6-5.2-0.3-2.6z"/>
					<path id="Layer" class="s10" d="m57.7 90.6l0.6 5.3q-0.8 0.1-1.6 0-0.8-0.1-1.5-0.4-0.8-0.3-1.5-0.7-0.6-0.4-1.2-0.9l-0.3-2.6z"/>
					<path id="Layer" class="s13" d="m59.2 94.4q-0.8 0.1-1.7 0.1-0.8-0.1-1.6-0.3-0.7-0.3-1.5-0.7-0.7-0.4-1.3-0.9-0.6-0.6-1.2-1.3-0.5-0.7-0.9-1.5-0.4-0.8-0.7-1.6-0.2-0.8-0.3-1.7l-1.5-13.8 16.3-2.2 1.6 13.8c0.5 5-2.7 9.5-7.2 10.1z"/>
					<path id="Layer" class="s9" d="m72.5 62.5q-0.4-0.6-0.8-1.1-0.5-0.5-1.1-0.9-0.5-0.5-1.2-0.7-0.6-0.3-1.3-0.4-0.7-0.2-1.3-0.1-0.7 0-1.4 0.2-0.6 0.2-1.2 0.5-0.6 0.3-1.1 0.8-0.4 0.2-0.6 0.5-0.3 0.4-0.6 0.7-0.2 0.3-0.4 0.7-0.3 0.4-0.4 0.8-0.5-0.2-1-0.3-0.5 0-0.9 0.1-0.5 0.1-1 0.3-0.4 0.2-0.8 0.5-0.4 0.4-0.7 0.8-0.3 0.5-0.4 1-0.2 0.5-0.3 1 0 0.5 0 1 0 0.1 0.1 0.2 0 0.1 0 0.2 0 0 0 0.1 0 0.1 0 0.2l-8.1 1.1q-0.2 0-0.4 0.1-0.1 0-0.3 0.1-0.2 0.1-0.3 0.2-0.1 0.2-0.2 0.3-0.2 0.2-0.2 0.4-0.1 0.2-0.2 0.3 0 0.2 0 0.4 0 0.2 0 0.4l1 9.7 2.9-0.4-0.9-7.3 13-1.7q0.9 0.9 2 1.4 1.2 0.5 2.4 0.5 1.3 0 2.5-0.4 1.2-0.5 2.1-1.4 0.9-0.9 1.5-2.2 0.6-1.2 0.7-2.5 0.2-1.3-0.1-2.7-0.3-1.3-1-2.4z"/>
					<path id="Layer" class="s13" d="m48.1 87.8l2.8-0.4-0.7-6.2-2.8 0.4q-0.3 0-0.5 0.1-0.3 0.1-0.5 0.3-0.3 0.1-0.5 0.3-0.2 0.2-0.4 0.5-0.1 0.2-0.3 0.5-0.1 0.3-0.2 0.6 0 0.3 0 0.6-0.1 0.3 0 0.6 0 0.6 0.3 1.1 0.2 0.5 0.7 0.9 0.4 0.4 1 0.6 0.5 0.1 1.1 0.1z"/>
					<path id="Layer" class="s10" d="m277.2 191.7l-1.9-4.9-5.1 2.1 1.8 4.9c0 0 2.8 1.6 5.2-2.1z"/>
					<path id="Layer" class="s4" d="m277.2 191.6l2.5 5.4q0.1 0.3 0.2 0.7 0 0.3 0 0.7 0 0.3-0.2 0.7-0.1 0.3-0.4 0.6c-1.4 1.7-4.2 4.7-6.7 6.1q-0.8 0.2-1.6 0.3-0.8 0.1-1.7 0.2-0.8 0-1.6 0.1-0.8 0-1.6 0-0.3 0-0.6-0.1-0.3-0.1-0.6-0.2-0.2-0.2-0.4-0.4-0.2-0.2-0.4-0.5-0.1-0.3-0.2-0.6-0.1-0.3-0.2-0.6 0-0.3 0.1-0.6 0-0.3 0.1-0.6c0.8-2 2.7-4.2 7.1-3.8q0.3-0.6 0.6-1.2 0.2-0.7 0.3-1.3 0.1-0.7 0.1-1.4 0.1-0.6 0-1.3c-0.1-0.5 3.1 1.5 5.2-2.2z"/>
					<path id="Layer" class="s8" d="m267.9 190.6l-12.9-27.4q-0.5-1-0.6-2.2-0.1-1.1 0.3-2.2 0.3-1.1 1-2 0.6-0.9 1.6-1.6 1-0.5 2-0.6 1.1-0.1 2.2 0.3 1 0.3 1.8 1.1 0.8 0.7 1.2 1.7l12.9 27.4q0.1 0.2 0.1 0.5 0.1 0.2 0 0.5 0 0.3-0.1 0.5 0 0.3-0.2 0.5c-1.8 3.3-5.8 4.2-7.7 4.4q-0.3 0-0.5 0-0.3-0.1-0.5-0.2-0.2-0.1-0.4-0.3-0.1-0.2-0.2-0.4z"/>
					<path id="Layer" class="s8" d="m245.9 131.9q0.8 3.8 1.7 7.7 0.9 3.8 2 7.6 1.1 3.8 2.3 7.6 1.3 3.7 2.6 7.4 0.4 1 1 1.8 0.7 0.8 1.6 1.3 0.9 0.5 1.9 0.6 1 0.1 2-0.1l0.2-0.1q0.5-0.2 1.1-0.5 0.5-0.3 0.9-0.7 0.5-0.4 0.8-0.8 0.3-0.5 0.6-1.1 0.2-0.5 0.4-1.1 0.1-0.6 0.2-1.3 0-0.6-0.1-1.2-0.1-0.6-0.2-1.2c-2.1-6.4-5.6-18.4-5.8-25.9z"/>
					<path id="Layer" class="s13" d="m241.8 198.9l1.8-4.9-4.9-2.6-1.9 5c0 0 1 3.3 5 2.5z"/>
					<path id="Layer" class="s7" d="m236.2 190.6l10.4-28.8q0.3-1.1 1-1.9 0.7-0.8 1.7-1.3 1-0.5 2.1-0.5 1.1 0 2.1 0.4 0.5 0.2 1 0.6 0.4 0.3 0.8 0.7 0.4 0.4 0.7 0.9 0.2 0.4 0.4 1 0.2 0.5 0.3 1.1 0.2 0.5 0.2 1.1 0 0.6-0.1 1.2-0.1 0.5-0.3 1.1l-10.4 28.6q0 0.3-0.2 0.5-0.1 0.2-0.3 0.3-0.2 0.2-0.4 0.3-0.3 0.1-0.5 0.1-1.2 0.2-2.3 0-1.2-0.2-2.3-0.7-1.1-0.4-2-1.2-0.9-0.7-1.6-1.7-0.2-0.2-0.3-0.4-0.1-0.2-0.1-0.5-0.1-0.2 0-0.5 0-0.2 0.1-0.4z"/>
					<path id="Layer" class="s7" d="m267.2 131.9v3.9q0 1.6-0.1 3.1-0.1 1.5-0.4 3-0.3 1.5-0.8 3-0.5 1.4-1.1 2.8c-2.1 4.9-4.5 10.8-7.3 16.7q-0.5 1.1-1.3 2-0.9 0.9-2 1.4-1.1 0.4-2.3 0.5-1.2 0-2.4-0.4-0.5-0.2-0.9-0.4-0.4-0.3-0.7-0.6-0.4-0.4-0.6-0.8-0.3-0.4-0.5-0.9-0.2-0.5-0.3-1-0.1-0.5-0.1-1 0-0.5 0.1-1 0.1-0.5 0.3-1c2.1-5.6 8.3-21.2 11.8-28.3z"/>
					<path id="Layer" class="s3" d="m241.8 198.9l-1.7 5.5q-0.1 0.4-0.4 0.8-0.3 0.3-0.7 0.5-0.4 0.3-0.8 0.3-0.4 0.1-0.9 0-1.7-0.5-3.4-1.1-1.7-0.7-3.3-1.5-1.5-0.9-3-1.9-1.5-1-2.9-2.1-0.5-0.5-0.7-1-0.3-0.6-0.4-1.2-0.1-0.6 0.1-1.2 0.1-0.6 0.5-1.1v-0.1q0.3-0.5 0.7-0.8 0.5-0.2 1-0.4 0.5-0.1 1 0 0.5 0 0.9 0.3 1.1 0.5 2.1 1 1.1 0.4 2.3 0.7 1.1 0.4 2.3 0.5 1.1 0.2 2.3 0.2 0.3 0.8 0.9 1.3 0.5 0.6 1.2 0.9 0.7 0.4 1.4 0.5 0.8 0.1 1.5-0.1z"/>
					<path id="Layer" class="s10" d="m258.6 100q-2.3 1.3-4.6 2.4-2.3 1.1-4.7 2-2.5 0.9-5 1.5-2.5 0.7-5 1.1-0.5 0.1-1 0.3-0.4 0.2-0.8 0.6-0.3 0.3-0.6 0.8-0.2 0.4-0.3 0.9v0.1q0 0.4 0 0.8 0 0.4 0.1 0.8 0.1 0.4 0.3 0.7 0.2 0.4 0.4 0.7 0.3 0.3 0.5 0.5 0.3 0.2 0.7 0.4 0.3 0.1 0.7 0.2 0.4 0 0.7 0c3.6-0.4 10.8-1.5 16.7-4.4q0.6-0.3 1.1-0.7 0.5-0.4 0.9-1 0.4-0.5 0.7-1.1 0.3-0.5 0.4-1.2 0.2-0.6 0.2-1.3 0-0.7-0.1-1.3-0.2-0.7-0.4-1.3-0.3-0.7-0.7-1.2-0.1-0.2-0.2-0.3z"/>
					<path id="Layer" class="s10" d="m240.5 107.5c-2.8-1.4-8.9-4.6-12.7-9 0 0-1.6-4.4-5.4-4.9q-0.5-0.1-1 0-0.5 0.1-0.9 0.4-0.5 0.2-0.8 0.6-0.4 0.3-0.6 0.8-0.3 0.5-0.4 1-0.1 0.5-0.1 1 0 0.6 0.2 1.1 0.1 0.5 0.4 1 0.4 0.5 1 1 0.5 0.5 1.1 0.9 0.6 0.4 1.3 0.6 0.7 0.3 1.4 0.3c0.5 0.1 6.6 8.3 14.3 11.3q0.4 0.1 0.7 0.1 0.3 0.1 0.7 0 0.3 0 0.6-0.1 0.4-0.2 0.6-0.4 0.3-0.2 0.6-0.5 0.2-0.3 0.4-0.6 0.2-0.3 0.3-0.7 0.1-0.3 0.1-0.7v-0.1q0-0.4-0.1-0.9-0.1-0.5-0.3-0.9-0.3-0.4-0.6-0.7-0.4-0.3-0.8-0.6z"/>
					<path id="Layer" class="s18" d="m249.1 103.6c0 0-0.5 5.6 3.2 9.2l6.7-3.3q0.7-0.4 1.2-0.9 0.6-0.6 0.9-1.3 0.4-0.7 0.5-1.4 0.1-0.8 0-1.6c-0.2-1.8-0.9-3.6-2.6-4.5q-0.5-0.2-0.9-0.3-0.5 0-1 0-0.4 0-0.9 0.2-0.4 0.1-0.9 0.3z"/>
					<path id="Layer" class="s12" d="m247.5 139.6h18q0.2 0 0.3-0.1 0.2 0 0.4-0.1 0.1 0 0.2-0.1 0.2-0.1 0.3-0.3 0.1-0.1 0.2-0.3 0.1-0.1 0.2-0.3 0-0.1 0-0.3 0.1-0.2 0.1-0.4v-28.1c0-6.5-4.8-11.8-10.7-11.8-5.9 0-10.6 5.3-10.6 11.8v28.1q0 0.2 0 0.4 0 0.2 0.1 0.3 0.1 0.2 0.1 0.3 0.1 0.2 0.3 0.3 0.1 0.2 0.2 0.3 0.1 0.1 0.3 0.1 0.1 0.1 0.3 0.1 0.2 0.1 0.3 0.1z"/>
					<path id="Layer" class="s7" d="m224.6 99.8v23.1q0 0.5 0.1 1 0.1 0.5 0.4 1 0.2 0.5 0.6 0.8 0.4 0.4 0.8 0.7l8.6 4.6q0.2 0.1 0.4 0.1 0.3 0.1 0.5 0.1 0.2 0 0.4-0.1 0.2-0.1 0.4-0.2 0.2-0.2 0.3-0.3 0.2-0.2 0.3-0.4 0.1-0.2 0.1-0.5 0.1-0.2 0.1-0.4v-24.7q0-0.6-0.2-1.2-0.1-0.5-0.4-1-0.4-0.5-0.8-0.9-0.5-0.4-1-0.6l-8.4-2.9q-0.2-0.1-0.4-0.1-0.2 0-0.4 0-0.2 0.1-0.4 0.1-0.2 0.1-0.3 0.3-0.2 0.1-0.3 0.3-0.2 0.2-0.2 0.4-0.1 0.2-0.2 0.4 0 0.2 0 0.4z"/>
					<path id="Layer" class="s8" d="m237.6 104.6v24.7q0 0.2-0.1 0.4 0 0.3-0.1 0.5-0.1 0.2-0.3 0.4-0.1 0.2-0.3 0.3-0.2 0.1-0.4 0.2-0.2 0.1-0.4 0.1-0.2 0-0.5-0.1-0.2 0-0.4-0.1l-0.7-0.4q0.2-0.1 0.3-0.3 0.1-0.1 0.2-0.3 0-0.2 0.1-0.4 0-0.2 0-0.4v-25.8q0-0.4-0.1-0.8 0-0.4-0.2-0.7-0.1-0.4-0.3-0.7-0.2-0.3-0.4-0.6l1.2 0.4q0.5 0.2 1 0.6 0.4 0.3 0.7 0.8 0.4 0.5 0.5 1.1 0.2 0.5 0.2 1.1z"/>
					<path id="Layer" class="s13" d="m258 101.9q-0.9 2.9-1.9 5.7-1.1 2.8-2.4 5.5-1.3 2.7-2.8 5.3-1.6 2.6-3.3 5.1-0.3 0.4-0.5 1-0.2 0.5-0.2 1.1-0.1 0.6 0 1.1 0.2 0.6 0.4 1.1 0 0 0 0 0 0 0 0 0.1 0 0.1 0.1 0 0 0 0 0.2 0.3 0.5 0.6 0.2 0.3 0.6 0.5 0.3 0.3 0.7 0.4 0.4 0.1 0.8 0.1 0.4 0.1 0.8 0 0.4-0.1 0.8-0.3 0.3-0.1 0.7-0.4 0.3-0.3 0.5-0.6c2.5-3.3 7.4-10.1 10.1-17.4q0.3-0.7 0.4-1.4 0.1-0.7 0-1.4 0-0.8-0.2-1.5-0.2-0.7-0.5-1.3-0.3-0.7-0.7-1.2-0.5-0.5-1-0.9-0.6-0.5-1.2-0.7-0.6-0.3-1.3-0.4-0.1 0-0.1-0.1-0.1 0-0.1 0-0.1 0-0.1 0-0.1 0-0.1 0z"/>
					<path id="Layer" class="s13" d="m251.5 122.8c-3-1.5-9.6-5.3-13.7-10.1 0 0-1.5-4.8-5.7-5.5q-0.6 0-1.1 0.1-0.5 0.1-1 0.3-0.5 0.3-0.9 0.6-0.4 0.4-0.6 0.9-0.3 0.5-0.4 1.1-0.2 0.5-0.2 1.1 0 0.6 0.2 1.2 0.2 0.5 0.5 1 0.4 0.7 1 1.2 0.5 0.6 1.2 1 0.7 0.4 1.4 0.7 0.8 0.3 1.5 0.4c0.6 0.1 7 9.1 15.3 12.6q0.4 0.1 0.7 0.2 0.4 0 0.8 0 0.4-0.1 0.7-0.2 0.4-0.1 0.7-0.3 0.3-0.3 0.6-0.6 0.2-0.3 0.4-0.6 0.2-0.4 0.3-0.7 0.1-0.4 0.2-0.8 0 0 0-0.1 0 0 0 0 0 0 0 0 0 0 0 0 0-0.6-0.1-1.1-0.1-0.5-0.3-0.9-0.3-0.5-0.6-0.9-0.4-0.3-0.9-0.6z"/>
					<path id="Layer" class="s12" d="m253.5 113.3c1 1.1 3.8 3.7 7.5 3.9q0.2 0 0.3 0 0.2-0.1 0.4-0.2 0.1-0.1 0.2-0.2 0.1-0.2 0.2-0.3l2.7-7.5q0.3-0.7 0.4-1.6 0-0.8-0.2-1.7-0.2-0.8-0.6-1.6-0.4-0.7-1-1.3c-1.4-1.2-3.2-2.1-5.2-1.3q-0.5 0.2-0.9 0.5-0.4 0.4-0.8 0.8-0.3 0.4-0.6 0.9-0.2 0.4-0.4 1l-2.3 7.3q0 0.1-0.1 0.3 0 0.2 0.1 0.3 0 0.2 0.1 0.4 0.1 0.1 0.2 0.3z"/>
					<path id="Layer" class="s9" d="m264.8 109l-2.7 7.5q-0.1 0.1-0.2 0.3-0.1 0.1-0.2 0.2-0.2 0.1-0.4 0.2-0.1 0-0.3 0-0.5 0-1-0.1-0.4-0.1-0.9-0.2-0.4-0.1-0.9-0.3-0.4-0.1-0.9-0.4 0.3 0.1 0.5 0.2 0.2 0 0.5 0.1 0.2 0 0.5 0 0.2 0 0.4 0.1 0.2 0 0.4-0.1 0.2 0 0.3-0.2 0.2-0.1 0.3-0.2 0.1-0.1 0.1-0.3l2.8-7.4q0.3-0.8 0.3-1.7 0.1-0.8-0.1-1.7-0.2-0.8-0.6-1.5-0.4-0.8-1.1-1.4-0.1-0.1-0.3-0.2-0.1-0.1-0.3-0.2-0.1-0.2-0.3-0.3-0.2-0.1-0.3-0.2 0.4 0.1 0.8 0.3 0.4 0.1 0.8 0.3 0.4 0.2 0.7 0.5 0.4 0.2 0.7 0.5 0.6 0.6 1 1.3 0.5 0.8 0.6 1.6 0.2 0.9 0.2 1.7-0.1 0.9-0.4 1.6z"/>
					<path id="Layer" class="s13" d="m260.9 89.9v7.6q0 0.4-0.1 0.8 0 0.4-0.2 0.7-0.2 0.4-0.4 0.7-0.3 0.3-0.6 0.5-0.3 0.2-0.7 0.3-0.3 0.1-0.7 0.1-0.3 0-0.7-0.1-0.4-0.1-0.7-0.3-0.3-0.2-0.5-0.5-0.3-0.3-0.5-0.7-0.1-0.3-0.2-0.7-0.1-0.4-0.1-0.8v-7.6z"/>
					<path id="Layer" class="s10" d="m260.9 89.9v2.9q-0.5 0.7-1 1.3-0.6 0.6-1.3 1-0.7 0.5-1.5 0.8-0.7 0.3-1.6 0.4v-6.4z"/>
					<path id="Layer" class="s13" d="m254.5 94.3c4.4 0 8-4 8-8.9v-13.4h-16v13.4c0 4.9 3.6 8.9 8 8.9z"/>
					<path id="Layer" class="s13" d="m265.2 86.5h-2.7v-6.1h2.7q0.6 0 1.1 0.2 0.5 0.3 0.9 0.7 0.4 0.5 0.6 1 0.2 0.5 0.2 1.1 0 0.6-0.2 1.1-0.2 0.6-0.6 1-0.4 0.4-0.9 0.7-0.5 0.2-1.1 0.3z"/>
					<path id="Layer" class="s9" d="m246.5 71.9v-2.7q-0.1-1 0.2-1.9 0.4-0.8 1-1.6 0.6-0.7 1.5-1.1 0.8-0.4 1.8-0.5c4 0 9.7-0.5 13.7-2.6q0.4-0.2 0.8-0.3 0.3-0.1 0.7-0.1 0.4 0 0.8 0.2 0.4 0.1 0.7 0.3 0.4 0.2 0.6 0.5 0.3 0.4 0.5 0.7 0.2 0.4 0.3 0.8 0.1 0.4 0.1 0.8c0.1 2.8-0.5 5.9-2.7 7.5z"/>
					<path id="Layer" class="s16" d="m262.5 71.9h4v7.1q0.1 0.3 0 0.5-0.1 0.3-0.3 0.5-0.1 0.1-0.4 0.2-0.2 0.2-0.4 0.2h-2.9c0 0 0-8.5 0-8.5z"/>
				</g>
			</g>
		</g>
	</g>
</svg>