<svg xmlns="http://www.w3.org/2000/svg" xmlns:xlink="http://www.w3.org/1999/xlink" width="406" height="403" viewBox="0 0 406 403"><defs><style>.a,.p,.y{fill:#fff;}.b{clip-path:url(#a);}.c{fill:url(#b);}.d{fill:#7d97f4;}.e,.r{fill:#91b3fa;}.f{fill:url(#c);}.g{fill:url(#d);}.h{fill:url(#e);}.i{fill:url(#f);}.j{fill:#bdd0fb;}.k{fill:url(#g);}.l{fill:url(#h);}.m{fill:url(#j);}.n{fill:url(#k);}.o{fill:url(#l);}.p{opacity:0.16;}.q{fill:url(#m);}.r{opacity:0.52;}.s{fill:url(#n);}.t{fill:url(#p);}.u{fill:url(#q);}.v{fill:url(#r);}.w{fill:url(#s);}.x{fill:url(#t);}.y{opacity:0.7;}.z{fill:url(#v);}.aa{fill:url(#w);}.ab{fill:url(#x);}.ac{fill:url(#y);}.ad{fill:url(#z);}.ae{fill:url(#aa);}.af{fill:url(#ab);}.ag{fill:url(#ad);}.ah{fill:url(#ae);}.ai{fill:url(#af);}.aj{fill:url(#ah);}.ak{fill:url(#ai);}.al{fill:url(#ak);}.am{fill:url(#al);}.an{fill:url(#am);}.ao{fill:url(#an);}.ap{fill:url(#ao);}.aq{fill:url(#ap);}.ar{fill:url(#aq);}.as{fill:url(#ar);}.at{fill:url(#as);}.au{fill:url(#at);}.av{fill:url(#au);}.aw{fill:url(#av);}.ax{fill:url(#aw);}.ay{fill:url(#ax);}.az{fill:url(#ay);}.ba{fill:url(#az);}.bb{fill:url(#ba);}.bc{fill:url(#bb);}.bd{fill:url(#bc);}.be{fill:url(#bd);}.bf{opacity:0.2;fill:url(#be);}.bg{fill:url(#bf);}.bh{fill:url(#bg);}.bi{fill:url(#bh);}.bj{fill:url(#bi);}.bk{fill:url(#bj);}.bl{fill:url(#bk);}.bm{fill:url(#bl);}.bn{fill:url(#bm);}.bo{fill:url(#bn);}.bp{fill:url(#bo);}.bq{fill:url(#bp);}.br{fill:url(#bq);}.bs{fill:url(#br);}.bt{fill:url(#bs);}.bu{fill:url(#bt);}.bv{fill:url(#bu);}.bw{fill:url(#bv);}.bx{fill:url(#bw);}.by{fill:url(#cb);}.bz{fill:url(#cc);}.ca{fill:url(#cd);}.cb{fill:url(#ce);}.cc{fill:url(#cf);}.cd{fill:url(#cg);}.ce{fill:url(#ch);}.cf{fill:url(#ci);}.cg{fill:url(#cj);}.ch{fill:url(#ck);}.ci{fill:url(#cl);}.cj{fill:url(#cm);}.ck{fill:url(#cn);}.cl{fill:url(#co);}.cm{fill:url(#cp);}.cn{fill:url(#cq);}.co{fill:url(#cr);}.cp{fill:url(#cs);}.cq{fill:url(#ct);}.cr{fill:url(#cu);}</style><clipPath id="a"><rect class="a" width="406" height="403" transform="translate(-1211 6068)"/></clipPath><linearGradient id="b" y1="0.5" x2="1" y2="0.5" gradientUnits="objectBoundingBox"><stop offset="0" stop-color="#dae3fe"/><stop offset="1" stop-color="#e9effd"/></linearGradient><linearGradient id="c" x1="0" y1="0.5" x2="1" y2="0.5" xlink:href="#b"/><linearGradient id="d" x1="0" y1="0.5" x2="1" y2="0.5" xlink:href="#b"/><linearGradient id="e" x1="0" y1="0.5" x2="1" y2="0.5" xlink:href="#b"/><linearGradient id="f" x1="0.002" y1="0.5" x2="0.998" y2="0.5" xlink:href="#b"/><linearGradient id="g" x1="0" y1="0.5" x2="1" y2="0.5" xlink:href="#b"/><linearGradient id="h" x1="0" y1="0.5" x2="1" y2="0.5" xlink:href="#b"/><linearGradient id="j" x1="0.691" y1="0.011" x2="-0.252" y2="3.129" gradientUnits="objectBoundingBox"><stop offset="0" stop-color="#09005d"/><stop offset="1" stop-color="#1a0f91"/></linearGradient><linearGradient id="k" x1="0.487" y1="-0.064" x2="0.505" y2="0.922" xlink:href="#j"/><linearGradient id="l" x1="0.84" y1="0.056" x2="-0.485" y2="1.769" gradientUnits="objectBoundingBox"><stop offset="0" stop-color="#4042e2"/><stop offset="1" stop-color="#4f52ff"/></linearGradient><linearGradient id="m" x1="0.51" y1="-6.767" x2="0.499" y2="1.455" xlink:href="#j"/><linearGradient id="n" x1="0" y1="0.5" x2="1" y2="0.5" xlink:href="#b"/><linearGradient id="p" x1="0" y1="0.5" x2="1" y2="0.5" xlink:href="#b"/><linearGradient id="q" x1="0" y1="0.501" x2="1" y2="0.501" xlink:href="#b"/><linearGradient id="r" x1="0" y1="0.5" x2="1" y2="0.5" xlink:href="#b"/><linearGradient id="s" x1="0" y1="0.501" x2="1" y2="0.501" xlink:href="#b"/><linearGradient id="t" y1="0.5" x2="1" y2="0.5" gradientUnits="objectBoundingBox"><stop offset="0" stop-color="#fe7062"/><stop offset="1" stop-color="#ff928e"/></linearGradient><linearGradient id="v" x1="0" y1="0.497" x2="1" y2="0.497" xlink:href="#b"/><linearGradient id="w" x1="0" y1="0.5" x2="1" y2="0.5" xlink:href="#b"/><linearGradient id="x" x1="0" y1="0.5" x2="1" y2="0.5" xlink:href="#b"/><linearGradient id="y" x1="-19.667" y1="67.57" x2="-24.106" y2="73.137" xlink:href="#t"/><linearGradient id="z" x1="0" y1="0.5" x2="1" y2="0.5" xlink:href="#b"/><linearGradient id="aa" x1="0" y1="0.5" x2="1" y2="0.5" xlink:href="#b"/><linearGradient id="ab" x1="-19.621" y1="67.571" x2="-24.06" y2="73.138" xlink:href="#t"/><linearGradient id="ad" x1="0" y1="0.5" x2="1" y2="0.5" xlink:href="#b"/><linearGradient id="ae" x1="-18.901" y1="66.559" x2="-23.34" y2="72.126" xlink:href="#t"/><linearGradient id="af" x1="0" y1="0.5" x2="1" y2="0.5" xlink:href="#b"/><linearGradient id="ah" x1="-18.26" y1="66.561" x2="-24.101" y2="72.545" xlink:href="#t"/><linearGradient id="ai" x1="0" y1="0.5" x2="1" y2="0.5" xlink:href="#b"/><linearGradient id="ak" x1="-17.362" y1="64.518" x2="-21.801" y2="70.085" xlink:href="#t"/><linearGradient id="al" x1="12.059" y1="21.094" x2="9.145" y2="24.652" xlink:href="#j"/><linearGradient id="am" x1="-4.734" y1="123.768" x2="-5.812" y2="130.131" xlink:href="#j"/><linearGradient id="an" x1="-2.704" y1="125.089" x2="-3.149" y2="131.302" xlink:href="#j"/><linearGradient id="ao" x1="1.088" y1="-0.386" x2="0.026" y2="0.998" xlink:href="#t"/><linearGradient id="ap" x1="130.81" y1="0.5" x2="131.81" y2="0.5" xlink:href="#l"/><linearGradient id="aq" x1="134.573" y1="0.5" x2="135.574" y2="0.5" xlink:href="#j"/><linearGradient id="ar" x1="462.024" y1="0.5" x2="463.023" y2="0.5" gradientUnits="objectBoundingBox"><stop offset="0" stop-color="#ff928e"/><stop offset="1" stop-color="#feb3b1"/></linearGradient><linearGradient id="as" x1="328.809" y1="0.499" x2="329.809" y2="0.499" xlink:href="#l"/><linearGradient id="at" x1="224.485" y1="0.5" x2="225.485" y2="0.5" xlink:href="#j"/><linearGradient id="au" x1="376.512" y1="0.5" x2="377.512" y2="0.5" xlink:href="#ar"/><linearGradient id="av" x1="1.233" y1="-1.326" x2="0.569" y2="0.334" xlink:href="#l"/><linearGradient id="aw" x1="0.617" y1="0.419" x2="-0.666" y2="1.848" xlink:href="#t"/><linearGradient id="ax" x1="-0.825" y1="-17.607" x2="0.293" y2="-2.327" xlink:href="#j"/><linearGradient id="ay" x1="257.641" y1="0.1" x2="255.252" y2="1.142" xlink:href="#ar"/><linearGradient id="az" x1="0.113" y1="0.897" x2="-2.719" y2="3.382" xlink:href="#t"/><linearGradient id="ba" x1="1.048" y1="0.083" x2="-2.744" y2="3.001" xlink:href="#t"/><linearGradient id="bb" x1="142.879" y1="0.5" x2="143.878" y2="0.5" xlink:href="#ar"/><linearGradient id="bc" x1="0.23" y1="-0.241" x2="0.899" y2="1.483" gradientUnits="objectBoundingBox"><stop offset="0" stop-color="#ff928e"/><stop offset="0.11" stop-color="#ff9592"/><stop offset="1" stop-color="#feb3b1"/></linearGradient><linearGradient id="bd" x1="26.669" y1="0.5" x2="27.669" y2="0.5" xlink:href="#j"/><linearGradient id="be" x1="31.654" y1="0.953" x2="32.654" y2="0.953" gradientUnits="objectBoundingBox"><stop offset="0" stop-color="#b37cff"/><stop offset="1" stop-color="#f895e7"/></linearGradient><linearGradient id="bf" x1="27.877" y1="0.5" x2="28.877" y2="0.5" xlink:href="#j"/><linearGradient id="bg" x1="184.107" y1="-1.222" x2="182.414" y2="3.818" xlink:href="#ar"/><linearGradient id="bh" x1="401.823" y1="0.5" x2="402.822" y2="0.5" xlink:href="#ar"/><linearGradient id="bi" x1="83.239" y1="74.353" x2="84.024" y2="73.06" xlink:href="#ar"/><linearGradient id="bj" x1="92.391" y1="0.154" x2="93.12" y2="1.105" xlink:href="#j"/><linearGradient id="bk" x1="336.713" y1="240.937" x2="339.927" y2="236.716" xlink:href="#ar"/><linearGradient id="bl" x1="1.039" y1="-1.408" x2="0.141" y2="1.466" xlink:href="#t"/><linearGradient id="bm" x1="0.819" y1="-1.661" x2="0.593" y2="-0.128" xlink:href="#j"/><linearGradient id="bn" x1="-18.337" y1="44.281" x2="-14.284" y2="41.735" xlink:href="#t"/><linearGradient id="bo" x1="-19.689" y1="43.8" x2="-15.64" y2="41.255" xlink:href="#t"/><linearGradient id="bp" x1="-21.116" y1="43.359" x2="-17.062" y2="40.812" xlink:href="#t"/><linearGradient id="bq" x1="-22.44" y1="42.891" x2="-18.392" y2="40.346" xlink:href="#t"/><linearGradient id="br" x1="0" y1="0.5" x2="1" y2="0.5" xlink:href="#l"/><linearGradient id="bs" x1="0" y1="0.5" x2="1" y2="0.5" xlink:href="#l"/><linearGradient id="bt" x1="0" y1="0.5" x2="1" y2="0.5" xlink:href="#l"/><linearGradient id="bu" x1="0" y1="0.5" x2="1" y2="0.5" xlink:href="#l"/><linearGradient id="bv" x1="0" y1="0.496" x2="1" y2="0.496" xlink:href="#l"/><linearGradient id="bw" x1="0" y1="0.496" x2="1" y2="0.496" xlink:href="#l"/><linearGradient id="cb" x1="3.321" y1="-4.201" x2="0.92" y2="0.049" xlink:href="#j"/><linearGradient id="cc" x1="3.782" y1="-4.048" x2="0.486" y2="0.219" xlink:href="#j"/><linearGradient id="cd" x1="3.597" y1="-3.808" x2="0.301" y2="0.459" xlink:href="#j"/><linearGradient id="ce" x1="3.271" y1="-3.511" x2="0.323" y2="0.756" xlink:href="#j"/><linearGradient id="cf" x1="2.697" y1="-3.144" x2="0.198" y2="1.001" xlink:href="#j"/><linearGradient id="cg" x1="2.432" y1="-3.019" x2="-0.113" y2="1.248" xlink:href="#j"/><linearGradient id="ch" x1="3.525" y1="-2.739" x2="-0.461" y2="1.529" xlink:href="#j"/><linearGradient id="ci" x1="2.385" y1="-2.518" x2="-0.438" y2="1.75" xlink:href="#j"/><linearGradient id="cj" x1="-0.929" y1="1.447" x2="1.095" y2="0.202" xlink:href="#t"/><linearGradient id="ck" x1="-0.183" y1="-0.178" x2="1.099" y2="0.971" xlink:href="#ar"/><linearGradient id="cl" x1="47.578" y1="5.607" x2="48.341" y2="4.248" xlink:href="#ar"/><linearGradient id="cm" x1="123.008" y1="-5.594" x2="121.805" y2="0.571" xlink:href="#j"/><linearGradient id="cn" x1="88.114" y1="-14.746" x2="87.254" y2="-0.838" xlink:href="#j"/><linearGradient id="co" x1="81.819" y1="5.836" x2="83.137" y2="4.382" xlink:href="#ar"/><linearGradient id="cp" x1="-61.582" y1="1.976" x2="-60.957" y2="1.093" xlink:href="#l"/><linearGradient id="cq" x1="44.781" y1="-9.674" x2="45.104" y2="-8.285" xlink:href="#l"/><linearGradient id="cr" x1="141.111" y1="0.5" x2="142.112" y2="0.5" gradientUnits="objectBoundingBox"><stop offset="0" stop-color="#f9b776"/><stop offset="1" stop-color="#f47960"/></linearGradient><linearGradient id="cs" x1="77.26" y1="0.48" x2="81.241" y2="0.755" xlink:href="#ar"/><linearGradient id="ct" x1="40.326" y1="0.426" x2="39.603" y2="1.36" xlink:href="#j"/><linearGradient id="cu" x1="39.503" y1="-6.769" x2="40.231" y2="-5.72" xlink:href="#ar"/></defs><g class="b" transform="translate(1211 -6068)"><g transform="translate(-1211 6127.956)"><path class="c" d="M147.688,298.442s-36.04-5.061-53.153-1.108-59.5-17.484-45.455-51.125,29.956-54.488,11.579-72.893S36.5,119.893,55.449,100.2s24.654.569,39.75-6.682-4.073-45.074,38.578-55.764,74.5,16.1,93.886,12.452,50.5-20.5,71.427-19.559,18.332,33.86,46.1,31.941,49.574-5.234,67.571,22.788,13.663,63.566-3.488,77.612-13.8,32.936,17.817,34.02,28.062,40.261,2.256,69.182-47.94,29.243-73.715,31.14S147.688,298.442,147.688,298.442Z" transform="translate(-43.756 -30.612)"/><path class="d" d="M153.479,315.254H63.528a5.345,5.345,0,0,1-5.194-5.48V167.645a5.344,5.344,0,0,1,5.181-5.484l90.668-.258a5.06,5.06,0,0,1,3.691,1.611,5.638,5.638,0,0,1,1.516,3.9L158.671,309.8A5.341,5.341,0,0,1,153.479,315.254Z" transform="translate(-46.256 -47.13)"/><path class="e" d="M150.111,169.933l-80.422.523a5.425,5.425,0,0,0-5.238,5.592l.568,127.566a5.425,5.425,0,0,0,5.173,5.532l78.139,1.5a5.125,5.125,0,0,0,3.761-1.569,5.71,5.71,0,0,0,1.6-3.919l1.721-129.591a5.724,5.724,0,0,0-1.528-3.994,5.134,5.134,0,0,0-3.774-1.644Z" transform="translate(-47.304 -48.141)"/><rect class="f" width="65.118" height="3.912" rx="1.903" transform="translate(34.418 127.277)"/><path class="g" d="M143.68,186.273h0a1.618,1.618,0,0,1-1.545,1.574l-54.192,1.04a1.532,1.532,0,0,1-1.133-.475,1.708,1.708,0,0,1-.472-1.186v-.136a1.624,1.624,0,0,1,1.552-1.664l54.19-.907a1.539,1.539,0,0,1,1.16.51A1.719,1.719,0,0,1,143.68,186.273Z" transform="translate(-51.056 -49.976)"/><path class="h" d="M146.07,309.313l-73.3-.923a4.383,4.383,0,0,1-3.171-1.44,4.883,4.883,0,0,1-1.266-3.389l1.893-104.906a4.609,4.609,0,0,1,4.579-4.649l73.168,1.5a4.639,4.639,0,0,1,4.4,4.823h0l-1.76,104.332a4.625,4.625,0,0,1-4.49,4.655ZM72.636,196.461a3.223,3.223,0,0,0-.918,2.219L69.826,303.586a3.26,3.26,0,0,0,.845,2.262,2.926,2.926,0,0,0,2.116.962l73.3.927a3.071,3.071,0,0,0,3.029-3.105L150.87,200.3h0a3.1,3.1,0,0,0-2.938-3.217l-73.17-1.5H74.7a2.9,2.9,0,0,0-2.067.883Z" transform="translate(-47.97 -51.169)"/><path class="i" d="M71.19,207.584h79.825a.742.742,0,0,0,.754-.354.836.836,0,0,0,0-.871.742.742,0,0,0-.754-.354H71.19a.742.742,0,0,0-.754.354.836.836,0,0,0,0,.871A.742.742,0,0,0,71.19,207.584Z" transform="translate(-48.309 -52.678)"/><path class="j" d="M94,56.4c-5.508,17.392-33.64,119.985,52.866,165.131,0,0,35-62.508-50.365-165.664a1.427,1.427,0,0,0-1.4-.5A1.5,1.5,0,0,0,94,56.4Z" transform="translate(-50.87 -33.723)"/><path class="k" d="M102.281,76.538c.432,5.845.977,11.673,1.571,17.5s1.257,11.643,1.98,17.452c1.45,11.617,3.144,23.2,5.177,34.729s4.4,22.99,7.352,34.315q2.186,8.5,4.969,16.815a152.539,152.539,0,0,0,6.424,16.294.729.729,0,0,0,1,.356.808.808,0,0,0,.338-1.055h0a151.08,151.08,0,0,1-6.455-16.08c-1.883-5.482-3.564-11.072-5.046-16.7-3.006-11.247-5.431-22.671-7.537-34.15s-3.852-23.052-5.379-34.645q-1.136-8.7-2.082-17.418c-.628-5.813-1.21-11.637-1.677-17.464h0a.322.322,0,0,0-.341-.306.329.329,0,0,0-.29.359Z" transform="translate(-53.789 -36.345)"/><path class="j" d="M501.542,61.681a1.4,1.4,0,0,0-2.741.134c-2.748,14.71-11.128,53.054-26.82,74.343-25.554,34.653-40.242,88.7-20.3,114.4C451.677,250.561,547.476,223.623,501.542,61.681Z" transform="translate(-112.094 -34.387)"/><path class="l" d="M503.255,85.576c0,.453-.04.851-.062,1.27l-.095,1.24-.214,2.476c-.153,1.652-.322,3.3-.494,4.947q-.53,4.943-1.17,9.869c-.854,6.57-1.87,13.117-2.981,19.643s-2.374,13.027-3.767,19.5l-.519,2.428-.549,2.42c-.379,1.612-.717,3.229-1.115,4.835l-1.164,4.821-1.23,4.793a335.924,335.924,0,0,1-12.15,37.673c-.291.771-.606,1.532-.926,2.289l-.946,2.279-.946,2.279c-.326.757-.67,1.5-1.005,2.255-.68,1.5-1.325,3.008-2.035,4.489l-2.148,4.433a177.785,177.785,0,0,1-9.756,17.031.155.155,0,0,1-.216.036.175.175,0,0,1-.051-.224h0a191.955,191.955,0,0,0,9.434-17.163l2.1-4.441c.691-1.484,1.325-3,1.986-4.5.326-.751.661-1.5.977-2.255l.924-2.283.924-2.281c.312-.759.617-1.52.9-2.291l1.743-4.607c.568-1.54,1.105-3.1,1.66-4.643.273-.775.555-1.548.82-2.327l.776-2.341.776-2.343c.261-.779.517-1.562.757-2.351,2-6.269,3.772-12.621,5.489-18.988,3.371-12.751,6.121-25.68,8.486-38.683q1.757-9.758,3.155-19.583.706-4.909,1.325-9.836c.189-1.642.392-3.285.568-4.931l.252-2.468.112-1.234c.032-.4.072-.833.083-1.21v-.036a.158.158,0,0,1,.316,0Z" transform="translate(-115.06 -37.507)"/><path class="j" d="M180.9,311.172s-.992-22.121-22.676-43.935c-20.117-20.242-69.494-67-81.264-93.317a1.118,1.118,0,0,0-1.27-.634,1.185,1.185,0,0,0-.882,1.153,151.636,151.636,0,0,0,26.82,82.227C131.928,300.274,180.9,311.172,180.9,311.172Z" transform="translate(-49.079 -48.559)"/><path class="c" d="M87.372,202.077a53.093,53.093,0,0,0,2.2,8.867c.117.363.227.727.35,1.088l.388,1.07.78,2.147.863,2.109c.293.7.568,1.414.9,2.095a109.815,109.815,0,0,0,8.777,15.859c.791,1.29,1.7,2.484,2.574,3.713s1.726,2.47,2.684,3.623l2.8,3.527c.456.6.967,1.144,1.459,1.71l1.484,1.684,1.486,1.684.746.839.78.8,3.123,3.209c.524.529,1.034,1.08,1.571,1.6l1.607,1.542,3.218,3.085,3.248,3.046c1.085,1.012,2.162,2.035,3.261,3.03q3.277,3.012,6.6,5.965c2.207,1.981,4.441,3.922,6.667,5.877l6.731,5.792c4.492,3.852,8.985,7.695,13.35,11.685,1.105.983,2.162,2.019,3.235,3.038.541.5,1.051,1.042,1.571,1.568s1.043,1.05,1.546,1.6c.984,1.108,2.008,2.183,2.917,3.361l.7.867c.115.146.238.286.346.437l.322.455,1.291,1.829h0a.163.163,0,0,0,.109.068.158.158,0,0,0,.122-.034.18.18,0,0,0,.04-.234,53.719,53.719,0,0,0-5.434-7.189c-.494-.561-1.015-1.1-1.514-1.646s-1.013-1.1-1.546-1.618c-1.054-1.05-2.093-2.121-3.18-3.133-4.3-4.106-8.773-7.988-13.206-11.918s-8.877-7.831-13.273-11.795-8.741-7.988-13.051-12.052l-3.2-3.079-1.6-1.542c-.536-.511-1.043-1.05-1.565-1.574l-3.114-3.163-.778-.8-.742-.827-1.486-1.642a132.921,132.921,0,0,1-11.052-14,108.571,108.571,0,0,1-9.027-15.537c-.346-.669-.623-1.372-.946-2.055l-.924-2.065-.842-2.1-.415-1.054c-.134-.353-.256-.711-.379-1.068-.248-.713-.517-1.422-.757-2.143l-.676-2.171q-.654-2.181-1.092-4.423a.021.021,0,0,0-.023-.018A.024.024,0,0,0,87.372,202.077Z" transform="translate(-51.233 -52.182)"/><path class="m" d="M240.916,241.152l-5.436,51.44h63.07l-8.215-51.44Z" transform="translate(-40.369 -30.34)"/><path class="n" d="M126.122,95.356V236.864c0,11.639,8.792,21.159,19.821,21.46,48.99,1.332,220.329,4.563,266.962,3.838,8.014-.128,14.512-6.892,14.74-15.345.9-32.874,2.359-111.925-3.046-148.625-1.134-7.727-7.323-13.507-14.73-13.758-41.047-1.386-222.675-5.791-269.289-4.681-8.038.191-14.459,7.121-14.458,15.6Z" transform="translate(-57.876 -36.772)"/><path class="o" d="M136.278,95.459V229.9c0,6.8,5.171,12.334,11.612,12.436l260.045,3.4a11.163,11.163,0,0,0,8.208-3.464,12.442,12.442,0,0,0,3.436-8.594l.435-133.24a8.647,8.647,0,0,0-8.187-8.883L145.591,85.869a8.835,8.835,0,0,0-6.573,2.723,9.854,9.854,0,0,0-2.74,6.867Z" transform="translate(-59.617 -37.564)"/><path class="p" d="M145.183,100.423V226.61a11.456,11.456,0,0,0,11.056,11.671l247.6,3.183a11.14,11.14,0,0,0,11.088-11.319l.413-125.056a8.163,8.163,0,0,0-7.795-8.338L154.049,91.425A8.822,8.822,0,0,0,145.183,100.423Z" transform="translate(-61.144 -38.263)"/><path class="d" d="M421.463,274.222h0L136.21,269.094a.424.424,0,0,1,.013-.841l285.253,5.129a.424.424,0,0,1,0,.841Z" transform="translate(-59.543 -60.51)"/><path class="d" d="M311.118,281.223a3.558,3.558,0,1,1,3.366-3.551A3.464,3.464,0,0,1,311.118,281.223Zm0-6.263a2.716,2.716,0,1,0,2.569,2.712,2.644,2.644,0,0,0-2.569-2.712Z" transform="translate(-89.012 -61.248)"/><path class="q" d="M351.829,340.572H259.52c-2.508,0-4.391-1.883-3.907-3.906l1.185-4.943a3.832,3.832,0,0,1,3.748-2.638l88.989-2.93a3.924,3.924,0,0,1,4.045,2.558l2.135,7.872C356.269,338.631,354.376,340.572,351.829,340.572Z" transform="translate(-80.062 -67.795)"/><path class="d" d="M320.239,331.026a.424.424,0,0,1,0-.841l3.814-.06a.426.426,0,0,1,.405.415.414.414,0,0,1-.394.427l-3.814.058Z" transform="translate(-91.09 -68.295)"/><path class="d" d="M259.663,338.472H259.6a.421.421,0,0,1-.331-.483l.543-3.595a3.97,3.97,0,0,1,3.807-3.463l40.447-.625a.387.387,0,0,1,.285.119.431.431,0,0,1,.12.3.413.413,0,0,1-.394.427l-40.439.613a3.16,3.16,0,0,0-3.029,2.762l-.543,3.595A.406.406,0,0,1,259.663,338.472Z" transform="translate(-80.701 -68.318)"/><path class="r" d="M249.972,212.182l-95.046,1.2c-3.661.046-6.547,2.546-6.368,5.518l1.582,26.259c.168,2.8,3.013,5,6.466,5h93.465c3.576,0,6.475-2.357,6.475-5.262v-27.46C256.547,214.505,253.587,212.137,249.972,212.182Z" transform="translate(-61.721 -53.456)"/><path class="r" d="M391.607,203.826l-95.048,1.458a6.453,6.453,0,0,0-6.366,6.752l1.582,32.133a6.456,6.456,0,0,0,6.466,6.121h93.465a6.455,6.455,0,0,0,6.474-6.437V210.26A6.455,6.455,0,0,0,391.607,203.826Z" transform="translate(-86.001 -52.405)"/><path class="r" d="M301.672,124.8H154.9a4.117,4.117,0,0,0-4.128,4.092v39.787a4.109,4.109,0,0,0,4.128,4.092H301.672a4.115,4.115,0,0,0,4.128-4.092V128.889A4.111,4.111,0,0,0,301.672,124.8Z" transform="translate(-62.103 -42.462)"/><path class="r" d="M451,127.341H392.291a1.923,1.923,0,0,0-.513.05c-4.908,1.358-6.561-2.984-8.469,3.611-.076.264.1.543.1.821v39.394c0,2.261,3.861,4.092,8.626,4.092H451c4.762,0,8.626-1.831,8.626-4.092V131.437C459.629,129.172,455.766,127.341,451,127.341Z" transform="translate(-101.962 -42.767)"/><path class="d" d="M102.283,325.592h89.943c2.868,0,5.192-1.813,5.192-4.048v-67.69c0-2.231-2.317-4.042-5.179-4.048l-90.668-.19c-2.885,0-5.222,1.821-5.207,4.07l.719,67.88C97.106,323.793,99.427,325.592,102.283,325.592Z" transform="translate(-52.775 -58.166)"/><path class="e" d="M107.731,255.544l80.422.385c2.907.014,5.251,1.859,5.238,4.126l-.568,56.93c-.013,2.233-2.309,4.048-5.173,4.088l-78.135,1.11c-2.917.042-5.323-1.773-5.364-4.048l-1.721-58.428C102.387,257.408,104.778,255.53,107.731,255.544Z" transform="translate(-53.815 -58.912)"/><path class="s" d="M112.773,261.407v.431a1.435,1.435,0,0,0,1.577,1.228h61.965a1.435,1.435,0,0,0,1.577-1.228v-.431a1.437,1.437,0,0,0-1.577-1.23H114.354A1.438,1.438,0,0,0,112.773,261.407Z" transform="translate(-55.588 -59.494)"/><path class="c" d="M121.118,267.614h0a1.452,1.452,0,0,0,1.545,1.162l54.192.771a1.444,1.444,0,0,0,1.605-1.228v-.1a1.429,1.429,0,0,0-1.552-1.228l-54.191-.669C121.8,266.308,121.069,266.9,121.118,267.614Z" transform="translate(-57.018 -60.267)"/><path class="t" d="M108.663,317.76,106.914,278v-.018a3.32,3.32,0,0,1,.9-2.307,4.824,4.824,0,0,1,3.509-1.47l73.168-1.11h.083c2.436,0,4.441,1.614,4.49,3.611l1.893,40.211a3.312,3.312,0,0,1-.9,2.317,4.836,4.836,0,0,1-3.536,1.466l-73.3.685h-.055C110.675,321.379,108.708,319.791,108.663,317.76ZM184.5,274.666l-73.168,1.11a3.468,3.468,0,0,0-2.461.987,1.718,1.718,0,0,0-.483,1.168l1.76,39.776c.025,1.142,1.393,2.1,3,2.1h.038l73.3-.687a3.386,3.386,0,0,0,2.474-.983,1.709,1.709,0,0,0,.485-1.162l-1.893-40.211c-.028-1.144-1.393-2.095-3-2.095Zm-76.85,3.291Z" transform="translate(-54.583 -61.12)"/><path class="u" d="M108.787,283.535h79.825a.792.792,0,0,0,0-1.576H108.787a.738.738,0,0,0-.679.382.826.826,0,0,0,0,.812.738.738,0,0,0,.679.382Z" transform="translate(-54.77 -62.235)"/><path class="d" d="M258.266,307.357l-.7,26.361c-.055,2.049-2.7,3.691-5.932,3.691H169.82c-3.277,0-5.934-1.68-5.934-3.752V308.992c0-2.025,2.542-3.685,5.743-3.751l82.51-1.689C255.529,303.472,258.321,305.212,258.266,307.357Z" transform="translate(-64.35 -64.951)"/><path class="j" d="M252.71,310.582l-1.775,24.242c-.068.931-1.295,1.66-2.767,1.644l-74.5-.831c-1.484-.016-2.675-.783-2.675-1.721V312.891c0-.919,1.136-1.676,2.589-1.719l76.271-2.4C251.461,308.733,252.784,309.568,252.71,310.582Z" transform="translate(-65.569 -65.609)"/><path class="v" d="M248.432,313.284v1.747c0,.615-.8,1.112-1.772,1.1l-64.257-.663c-.946,0-1.715-.5-1.715-1.1h0c0-.6.757-1.086,1.7-1.1l64.255-1.082C247.622,312.167,248.432,312.675,248.432,313.284Z" transform="translate(-67.231 -66.037)"/><path class="w" d="M247.907,320.793v1.6c0,.623-.818,1.122-1.8,1.1l-61.2-1.348c-.937-.02-1.681-.507-1.681-1.1v-.5c0-.611.787-1.1,1.753-1.1l61.2.246C247.133,319.7,247.907,320.188,247.907,320.793Z" transform="translate(-67.665 -66.951)"/><path class="x" d="M379.347,170.621l87.336.761a9.288,9.288,0,0,1,8.966,9.139l5.4,133.649a7.265,7.265,0,0,1-1.826,5.145,6.515,6.515,0,0,1-4.774,2.194l-100.113,1.046A6.165,6.165,0,0,1,369.8,320.6a6.874,6.874,0,0,1-1.858-4.784l1.052-134.454A10.551,10.551,0,0,1,379.347,170.621Z" transform="translate(-99.331 -48.227)"/><path class="y" d="M389.615,338.313h0l-11.2-.25a7.167,7.167,0,0,1-6.78-7.367l.14-17.842a.308.308,0,0,1,.132-.29.273.273,0,0,1,.3,0,.307.307,0,0,1,.132.29L372.2,330.7a6.578,6.578,0,0,0,6.222,6.762l11.2.25a.281.281,0,0,1,.275.139.315.315,0,0,1,0,.321.281.281,0,0,1-.275.139Z" transform="translate(-99.964 -66.08)"/><path class="y" d="M372.134,306.424a.293.293,0,0,1-.28-.3l.023-2.888a.294.294,0,0,1,.288-.3h0a.293.293,0,0,1,.28.3l-.023,2.89a.306.306,0,0,1-.085.213.274.274,0,0,1-.2.085Z" transform="translate(-100.002 -64.874)"/><path class="d" d="M381.272,169.378c11.912,1.811,52.884,7.447,86.814,4.993a2.671,2.671,0,0,1,2.028.731,2.978,2.978,0,0,1,.921,2.041l5.709,134.246a3.284,3.284,0,0,1-3.01,3.5c-14.268.765-73.028,3.7-93.959,1.2a2.608,2.608,0,0,1-2.23-2.646l.318-140.955a3.224,3.224,0,0,1,1.034-2.372A2.879,2.879,0,0,1,381.272,169.378Z" transform="translate(-100.977 -48.067)"/><path class="j" d="M382.808,173.374c11.465,1.741,50.893,7.165,83.545,4.807a2.565,2.565,0,0,1,1.954.7,2.86,2.86,0,0,1,.886,1.966l5.489,129.192a3.162,3.162,0,0,1-2.9,3.365c-13.731.737-70.278,3.557-90.42,1.152a2.508,2.508,0,0,1-2.146-2.544l.3-135.644a3.1,3.1,0,0,1,.995-2.287,2.771,2.771,0,0,1,2.289-.706Z" transform="translate(-101.264 -48.57)"/><path class="c" d="M467.779,191.4a.683.683,0,0,0,.525-.232.764.764,0,0,0,.188-.567l-.013-.264a.85.85,0,0,0-.8-.8l-74.321-1.266c-.416,0-.547.27-.292.615l.926,1.248a1.749,1.749,0,0,0,1.223.635Z" transform="translate(-103.616 -50.447)"/><path class="z" d="M393.3,194.181c-.416,0-.547.272-.29.617l.926,1.246a1.749,1.749,0,0,0,1.223.635l72.565.633a.685.685,0,0,0,.525-.233.766.766,0,0,0,.189-.566l-.015-.264a.851.851,0,0,0-.8-.811Z" transform="translate(-103.606 -51.191)"/><path class="a" d="M405.659,245.907h-.025l-9.83.152a2.7,2.7,0,0,1-2.773-2.325l-1.064-8.677a1.992,1.992,0,0,1,.4-1.45,2.148,2.148,0,0,1,1.5-.831h0c.827-.08,1.967-.212,3.218-.357,2.729-.316,5.822-.673,7.643-.743h.042a2.775,2.775,0,0,1,2.781,1.981c.568,2,.6,5.77.594,9.8A2.516,2.516,0,0,1,405.659,245.907Zm-11.721-12.288a1.358,1.358,0,0,0-.946.515,1.123,1.123,0,0,0-.225.815l1.062,8.677a1.892,1.892,0,0,0,1.967,1.586l9.83-.15h.019a1.683,1.683,0,0,0,1.7-1.6c0-3.966-.032-7.681-.568-9.56a1.99,1.99,0,0,0-2.023-1.374c-1.793.07-5,.441-7.587.739-1.259.146-2.4.278-3.233.359Z" transform="translate(-103.448 -55.909)"/><path class="aa" d="M395.391,234.741c2.061-.2,6.536-.8,8.664-.879a1.908,1.908,0,0,1,1.936,1.338,37.275,37.275,0,0,1,.462,7.737,1.682,1.682,0,0,1-1.692,1.622l-7.853.12a1.834,1.834,0,0,1-1.893-1.562l-.85-6.934A1.32,1.32,0,0,1,395.391,234.741Z" transform="translate(-103.825 -56.183)"/><path class="ab" d="M418.477,237.375a.528.528,0,0,0-.473.225.6.6,0,0,0-.074.542l.992,3.615a1.046,1.046,0,0,0,.967.747l49.578-1.262a.724.724,0,0,0,.525-.248.806.806,0,0,0,.2-.569l-.1-2.269a.827.827,0,0,0-.793-.8Z" transform="translate(-107.895 -56.623)"/><path class="ac" d="M396.035,235.312h0a1.447,1.447,0,0,1,1.155-.189,1.524,1.524,0,0,1,.939.735l2.022,3.617a.478.478,0,0,0,.45.249.487.487,0,0,0,.413-.311L405.556,228a.532.532,0,0,1,.6-.332.56.56,0,0,1,.431.552,23.035,23.035,0,0,1-5.794,15.671s-2.909-1.108-5.353-6.429a1.719,1.719,0,0,1,.594-2.147Z" transform="translate(-104.018 -55.402)"/><path class="a" d="M406.118,219.268h-.026l-9.83.15a2.7,2.7,0,0,1-2.773-2.323l-1.062-8.677a1.992,1.992,0,0,1,.4-1.452,2.149,2.149,0,0,1,1.5-.829h0c.827-.082,1.967-.214,3.218-.357,2.729-.316,5.822-.673,7.643-.743h.04a2.773,2.773,0,0,1,2.781,1.979c.558,2,.6,5.772.594,9.8A2.509,2.509,0,0,1,406.118,219.268ZM394.4,206.98a1.354,1.354,0,0,0-.946.515,1.116,1.116,0,0,0-.227.815l1.062,8.677a1.9,1.9,0,0,0,1.967,1.586l9.83-.152h.019a1.683,1.683,0,0,0,1.7-1.6c0-3.966-.034-7.683-.568-9.56a1.986,1.986,0,0,0-2.023-1.374c-1.791.07-5,.441-7.585.739-1.259.146-2.4.278-3.235.359Z" transform="translate(-103.526 -52.557)"/><path class="ad" d="M395.853,208.1c2.059-.2,6.536-.8,8.664-.877a1.9,1.9,0,0,1,1.934,1.338c.449,1.6.466,4.793.462,7.737a1.675,1.675,0,0,1-1.692,1.622l-7.853.12a1.836,1.836,0,0,1-1.893-1.562l-.848-6.934A1.327,1.327,0,0,1,395.853,208.1Z" transform="translate(-103.904 -52.832)"/><path class="ae" d="M418.936,210.736a.528.528,0,0,0-.473.225.6.6,0,0,0-.074.542l.994,3.613a1.045,1.045,0,0,0,.967.749l49.578-1.262a.722.722,0,0,0,.524-.248.8.8,0,0,0,.2-.569l-.1-2.271a.823.823,0,0,0-.791-.8Z" transform="translate(-107.973 -53.272)"/><path class="af" d="M396.494,208.672h0a1.447,1.447,0,0,1,1.155-.189,1.524,1.524,0,0,1,.939.735l2.023,3.615a.477.477,0,0,0,.449.253.485.485,0,0,0,.414-.313l4.543-11.415a.532.532,0,0,1,.6-.332.56.56,0,0,1,.431.552,23.037,23.037,0,0,1-5.794,15.671s-2.909-1.108-5.353-6.429A1.721,1.721,0,0,1,396.494,208.672Z" transform="translate(-104.097 -52.051)"/><path class="a" d="M406.271,271.324h-.026l-9.83.15a2.7,2.7,0,0,1-2.773-2.323l-1.062-8.677a1.986,1.986,0,0,1,.4-1.452,2.151,2.151,0,0,1,1.5-.831h0c.827-.08,1.967-.212,3.218-.357,2.729-.314,5.822-.673,7.643-.743h.04a2.771,2.771,0,0,1,2.781,1.979c.568,2,.6,5.77.594,9.8A2.507,2.507,0,0,1,406.271,271.324Zm-11.721-12.288a1.349,1.349,0,0,0-.946.517,1.108,1.108,0,0,0-.227.813l1.062,8.677a1.893,1.893,0,0,0,1.967,1.586l9.83-.15h.019a1.684,1.684,0,0,0,1.7-1.608c0-3.966-.034-7.681-.568-9.558a2,2,0,0,0-2.023-1.374c-1.791.068-5,.439-7.585.739-1.259.144-2.4.278-3.235.357Z" transform="translate(-103.552 -59.106)"/><path class="k" d="M396,260.158c2.061-.2,6.538-.8,8.665-.879a1.908,1.908,0,0,1,1.935,1.34c.449,1.6.466,4.793.462,7.735a1.684,1.684,0,0,1-1.692,1.624l-7.853.12a1.838,1.838,0,0,1-1.893-1.562l-.848-6.934A1.319,1.319,0,0,1,396,260.158Z" transform="translate(-103.93 -59.381)"/><path class="ag" d="M419.082,262.793a.528.528,0,0,0-.474.226.6.6,0,0,0-.073.543l.994,3.613a1.048,1.048,0,0,0,.967.749l49.578-1.262a.724.724,0,0,0,.523-.248.806.806,0,0,0,.2-.568l-.1-2.271a.821.821,0,0,0-.791-.8Z" transform="translate(-107.998 -59.821)"/><path class="ah" d="M396.659,260.731h0a1.447,1.447,0,0,1,1.154-.19,1.524,1.524,0,0,1,.939.733l2.022,3.617a.48.48,0,0,0,.451.249.489.489,0,0,0,.415-.311l4.543-11.413a.532.532,0,0,1,.6-.333.56.56,0,0,1,.432.55,23.034,23.034,0,0,1-5.794,15.671s-2.909-1.108-5.353-6.427A1.721,1.721,0,0,1,396.659,260.731Z" transform="translate(-104.125 -58.601)"/><path class="a" d="M405.751,295.759h-.027l-9.83.152a2.7,2.7,0,0,1-2.773-2.325l-1.062-8.675a1.986,1.986,0,0,1,.4-1.452,2.151,2.151,0,0,1,1.5-.831h0c.827-.08,1.965-.212,3.218-.357,2.6-.3,5.826-.673,7.647-.743a2.809,2.809,0,0,1,2.82,1.979c.568,2,.6,5.77.594,9.8A2.509,2.509,0,0,1,405.751,295.759ZM394.03,283.471a1.358,1.358,0,0,0-.946.517,1.116,1.116,0,0,0-.225.813l1.062,8.677a1.893,1.893,0,0,0,1.967,1.586l9.83-.15a1.727,1.727,0,0,0,1.722-1.608c0-3.966-.034-7.681-.568-9.56a2.01,2.01,0,0,0-2.023-1.372c-1.793.068-5.007.439-7.588.737-1.257.146-2.4.278-3.231.359Z" transform="translate(-103.463 -62.18)"/><path class="ai" d="M395.483,284.593c2.061-.2,6.538-.8,8.666-.879a1.905,1.905,0,0,1,1.934,1.34,37.264,37.264,0,0,1,.462,7.735,1.675,1.675,0,0,1-1.692,1.622l-7.853.12a1.836,1.836,0,0,1-1.893-1.562l-.848-6.934A1.323,1.323,0,0,1,395.483,284.593Z" transform="translate(-103.841 -62.456)"/><path class="ab" d="M418.568,287.227a.528.528,0,0,0-.473.225.6.6,0,0,0-.074.542l.992,3.615a1.05,1.05,0,0,0,.969.747l49.578-1.26a.723.723,0,0,0,.524-.249.807.807,0,0,0,.2-.57l-.1-2.269a.825.825,0,0,0-.793-.8Z" transform="translate(-107.91 -62.896)"/><path class="aj" d="M396.127,285.164h0a1.447,1.447,0,0,1,1.155-.189,1.524,1.524,0,0,1,.939.735l2.022,3.617a.48.48,0,0,0,.45.249.489.489,0,0,0,.415-.311l4.543-11.413a.532.532,0,0,1,.6-.333.56.56,0,0,1,.432.55,23.034,23.034,0,0,1-5.794,15.671s-2.909-1.108-5.353-6.429a1.721,1.721,0,0,1,.592-2.147Z" transform="translate(-104.034 -61.675)"/><path class="a" d="M405.01,320.961h-.027l-9.83.152a2.7,2.7,0,0,1-2.773-2.325l-1.062-8.675a1.986,1.986,0,0,1,.4-1.452,2.152,2.152,0,0,1,1.5-.831h0c.827-.08,1.967-.212,3.218-.358,2.728-.316,5.822-.673,7.643-.743a2.808,2.808,0,0,1,2.82,1.979c.568,2,.6,5.77.594,9.8A2.507,2.507,0,0,1,405.01,320.961ZM393.29,308.673a1.349,1.349,0,0,0-.946.517,1.107,1.107,0,0,0-.227.813l1.062,8.677a1.9,1.9,0,0,0,1.967,1.586l9.83-.15h.019a1.681,1.681,0,0,0,1.7-1.6c0-3.966-.034-7.681-.568-9.56a2.024,2.024,0,0,0-2.023-1.372c-1.791.068-5,.439-7.585.737-1.259.146-2.4.28-3.235.359Z" transform="translate(-103.336 -65.351)"/><path class="ak" d="M394.743,309.8c2.061-.2,6.538-.8,8.666-.879a1.905,1.905,0,0,1,1.934,1.34c.449,1.6.466,4.793.462,7.735a1.681,1.681,0,0,1-1.692,1.622l-7.853.122a1.839,1.839,0,0,1-1.893-1.564l-.848-6.934A1.314,1.314,0,0,1,394.743,309.8Z" transform="translate(-103.714 -65.626)"/><path class="ab" d="M417.828,312.43a.528.528,0,0,0-.473.225.6.6,0,0,0-.074.542l.994,3.615a1.043,1.043,0,0,0,.967.747l49.578-1.26a.724.724,0,0,0,.524-.249.806.806,0,0,0,.2-.57l-.1-2.269a.819.819,0,0,0-.791-.8Z" transform="translate(-107.783 -66.066)"/><path class="al" d="M395.387,310.368h0a1.447,1.447,0,0,1,1.154-.19,1.524,1.524,0,0,1,.939.733l2.022,3.617a.48.48,0,0,0,.451.249.489.489,0,0,0,.415-.311l4.543-11.413a.532.532,0,0,1,.6-.333.56.56,0,0,1,.432.55,23.034,23.034,0,0,1-5.794,15.671s-2.909-1.108-5.353-6.427A1.721,1.721,0,0,1,395.387,310.368Z" transform="translate(-103.907 -64.846)"/><path class="am" d="M438.926,149.976c-3.136-2.343-5.879-2.321-7.816-1.737a4.062,4.062,0,0,0-2.773,4.25l.757,9.586,9.9,1.014S445.078,154.571,438.926,149.976Zm-4.418,7.7a2.612,2.612,0,1,1,2.491-2.6,2.681,2.681,0,0,1-.735,1.844A2.407,2.407,0,0,1,434.508,157.674Z" transform="translate(-109.682 -45.37)"/><path class="j" d="M430.15,158.456a.514.514,0,0,1-.316-.441l-.121-1.53a.51.51,0,0,1,.45-.558.5.5,0,0,1,.529.474l.121,1.528a.536.536,0,0,1-.114.378.472.472,0,0,1-.548.149Zm-.237-3a.518.518,0,0,1-.316-.441l-.091-1.16a4.138,4.138,0,0,1,2.82-4.324,7.257,7.257,0,0,1,3.744-.132.524.524,0,0,1,.379.615.491.491,0,0,1-.581.4,6.351,6.351,0,0,0-3.271.112,3.107,3.107,0,0,0-2.114,3.245l.093,1.16a.536.536,0,0,1-.114.378.466.466,0,0,1-.548.147Z" transform="translate(-109.883 -45.534)"/><path class="an" d="M412.879,169.966l.038-4.823a3.02,3.02,0,0,1,.868-2.108,2.707,2.707,0,0,1,2.04-.806l31.5,1.412a2.792,2.792,0,0,1,2.6,2.712l.227,4.635Z" transform="translate(-107.035 -47.171)"/><path class="j" d="M425.423,164.351a.3.3,0,0,1,0-.6l1.355.012a.281.281,0,0,1,.275.139.316.316,0,0,1,0,.321.281.281,0,0,1-.275.139Z" transform="translate(-109.142 -47.363)"/><path class="j" d="M414.679,168.851a.517.517,0,0,1-.318-.489l.015-1.949a2.918,2.918,0,0,1,2.86-2.974l4.982.042a.522.522,0,0,1,0,1.036l-4.98-.044a1.914,1.914,0,0,0-1.876,1.947l-.017,1.951a.5.5,0,0,1-.494.513.439.439,0,0,1-.172-.034Z" transform="translate(-107.289 -47.323)"/><path class="ao" d="M400.332,168.962l55.1.479a4.145,4.145,0,0,1,3.986,3.595l.044.286a3.835,3.835,0,0,1-.794,3,3.424,3.424,0,0,1-2.685,1.291l-56.526-.493a2.218,2.218,0,0,1-1.642-.757,2.476,2.476,0,0,1-.611-1.777l.144-2.668a3.042,3.042,0,0,1,2.989-2.954Z" transform="translate(-104.346 -48.018)"/><path class="ap" d="M299.141,174.565a170.491,170.491,0,0,1,18.406,22.665,460.393,460.393,0,0,1,25.427-52.5l22.345-7.856c-15.395,21.169-31.8,52.722-45.832,84.38-10.125-15.082-20.269-30.134-27.579-35.482Z" transform="translate(-86.297 -43.981)"/><path class="aq" d="M234.626,351.125c2.154.2,5.892.515,8.84.653a8.1,8.1,0,0,0,3.379-.349v.2a.626.626,0,0,1-.579.6,98.081,98.081,0,0,1-11.575.012.434.434,0,0,1-.36-.24.482.482,0,0,1,.006-.449,3.782,3.782,0,0,1,.29-.425Z" transform="translate(-76.417 -70.937)"/><path class="ar" d="M243.538,351.114c-2.947-.138-6.686-.457-8.84-.653,2.118-2.742,8.84-4.593,8.84-4.593h1.893a8.738,8.738,0,0,1,1.48,4.893A7.966,7.966,0,0,1,243.538,351.114Z" transform="translate(-76.489 -70.276)"/><path class="as" d="M247.311,342.133l-.178,3.709a.833.833,0,0,1-.685.8,2.981,2.981,0,0,1-1.427-.124.983.983,0,0,1-.638-.771l-.615-3.611Z" transform="translate(-78.044 -69.806)"/><path class="at" d="M277.13,351.665a1.727,1.727,0,0,0,1.533-1.2v.016a1.3,1.3,0,0,1-.818,1.46,5.081,5.081,0,0,1-2.271.373,2.227,2.227,0,0,1-1.7-.825h0A5.557,5.557,0,0,0,277.13,351.665Z" transform="translate(-83.205 -70.854)"/><path class="au" d="M272.253,342.105h1.565c2.385-.052,3.882,5.254,4.372,7.309a1.727,1.727,0,0,1-1.533,1.2,5.435,5.435,0,0,1-3.25-.182,16.342,16.342,0,0,1-2.234-5.937,2.119,2.119,0,0,1,1.079-2.388Z" transform="translate(-82.732 -69.802)"/><path class="av" d="M273.448,338.167l.869,3.649a1.018,1.018,0,0,1-.488,1.122,3.211,3.211,0,0,1-1.8.459.8.8,0,0,1-.64-.551l-1.276-3.838Z" transform="translate(-82.56 -69.307)"/><path class="aw" d="M268.472,331.908c-1.083,1.013-4.6,1.146-4.6,1.146-12.682-32.091-17.855-36.65-17.855-36.65,1.829,12.112.293,38.929.293,38.929a7.243,7.243,0,0,1-4.787,0,217.319,217.319,0,0,0-6.472-50.757c8.565-.2,13.121-3.3,14.609-4.537C256.8,292.183,268.472,331.908,268.472,331.908Z" transform="translate(-76.55 -61.993)"/><path class="ax" d="M245.1,237.783c1.622,8.531,1.041,23.8.659,30.767-.106,1.959,1.189,4.673,2.235,6.524a.609.609,0,0,1,.057.459.575.575,0,0,1-.279.358,36.7,36.7,0,0,1-14.575,4.262.985.985,0,0,1-.986-.773,210.048,210.048,0,0,0-11.035-32.964C227.727,235.386,245.1,237.783,245.1,237.783Z" transform="translate(-74.172 -56.649)"/><path class="ay" d="M246.152,297.135a.406.406,0,0,0,.351-.22.452.452,0,0,0,0-.431,12.965,12.965,0,0,0-5.026-4.593.4.4,0,0,0-.541.2.439.439,0,0,0,.189.571,12.368,12.368,0,0,1,4.685,4.278.4.4,0,0,0,.346.2Z" transform="translate(-77.551 -63.479)"/><path class="az" d="M261.024,265.749a30.253,30.253,0,0,1-5.137,12.915l-1.17-1a40.2,40.2,0,0,0,.583-12.342A13.189,13.189,0,0,1,261.024,265.749Z" transform="translate(-79.921 -60.121)"/><path class="ba" d="M247.866,248.35l1.81-10.527s12.1,9.758,10.17,24.486a13.31,13.31,0,0,0-5.724-.433C253.571,257.149,251.919,252.017,247.866,248.35Z" transform="translate(-78.747 -56.682)"/><path class="bb" d="M220.264,247.7l4.67,10.612c-.757,6.407-4.017,9.176-7.534,10.239a23.567,23.567,0,0,0-1.569-6.912C220.324,256.744,220.264,247.7,220.264,247.7Z" transform="translate(-73.255 -57.925)"/><path class="bc" d="M213.7,263.645a23.567,23.567,0,0,1,1.569,6.912c-9.385,3.84-11.868-3.609-11.868-3.609l1.736-.324A9.53,9.53,0,0,0,213.7,263.645Z" transform="translate(-71.124 -59.931)"/><path class="bd" d="M226.374,232.374l2.254,8.745a1.684,1.684,0,0,0,.837,1.076,1.537,1.537,0,0,0,1.319.056,31.945,31.945,0,0,0,3.25-1.568,2.278,2.278,0,0,0,1.069-1.47,2.4,2.4,0,0,0-.311-1.823l-4.689-7.375Z" transform="translate(-75.062 -55.7)"/><path class="be" d="M197.911,260.73l57.772,22.183a4.538,4.538,0,0,1,2.567,2.579,4.905,4.905,0,0,1-.051,3.739l-.176.4a4.21,4.21,0,0,1-2.313,2.272,3.916,3.916,0,0,1-3.158-.129L196.465,264.4Z" transform="translate(-69.935 -59.564)"/><ellipse class="bf" cx="28.52" cy="29.547" rx="28.52" ry="29.547" transform="translate(72.902 158.275)"/><path class="bg" d="M127.862,240.733c0,18.157,14.208,32.876,31.736,32.876s31.732-14.718,31.732-32.876-14.2-32.878-31.732-32.878S127.862,222.576,127.862,240.733Zm4.662,0c0-15.491,12.114-28.049,27.068-28.049s27.068,12.558,27.068,28.049-12.114,28.047-27.068,28.047S132.524,256.223,132.524,240.733Z" transform="translate(-58.175 -52.912)"/><path class="e" d="M192.181,244.99h-.011a.09.09,0,0,1-.061-.036.1.1,0,0,1-.018-.071c.093-.769.159-1.554.189-2.333a.094.094,0,0,1,.029-.069.084.084,0,0,1,.068-.023.1.1,0,0,1,.087.1c-.036.783-.1,1.574-.189,2.349A.094.094,0,0,1,192.181,244.99Zm-.218-9.186a.094.094,0,0,1-.091-.08,31.216,31.216,0,0,0-1.7-6.117,30.317,30.317,0,0,0-10.661-13.732,28.628,28.628,0,0,0-32.479-.573.09.09,0,0,1-.119-.037.1.1,0,0,1,.022-.129,28.8,28.8,0,0,1,32.678.579,30.516,30.516,0,0,1,10.729,13.818,31.328,31.328,0,0,1,1.7,6.157.1.1,0,0,1-.015.072.09.09,0,0,1-.059.04Z" transform="translate(-61.438 -53.224)"/><path class="bh" d="M253.679,279.187l-5.461-.469-2.364,2.3s.568.817,2.307.348a23.727,23.727,0,0,1,4.147-.585s2.415,1.15,2.444-1Z" transform="translate(-78.402 -61.827)"/><path class="bi" d="M203.47,268.354c-.473.4-2.082-.423-3.082-.985a1.226,1.226,0,0,1-.551-1.42c.239-.8.636-1.817,1.126-1.945C201.782,263.789,205.423,266.75,203.47,268.354Z" transform="translate(-70.504 -59.975)"/><path class="e" d="M265.225,293.777a.09.09,0,0,1-.085-.066.1.1,0,0,1,0-.075.093.093,0,0,1,.053-.049c1.681-.613,2.563-1.614,2.618-2.976a3.307,3.307,0,0,0-2.046-3.179l-6.937-2.854a.1.1,0,0,1-.053-.126.094.094,0,0,1,.049-.053.086.086,0,0,1,.07,0l6.937,2.854A3.5,3.5,0,0,1,268,290.621c-.059,1.448-.982,2.506-2.743,3.149A.074.074,0,0,1,265.225,293.777Z" transform="translate(-80.616 -62.541)"/><path class="e" d="M256.1,283.527h-.032l-.9-.369a.1.1,0,0,1-.053-.126.093.093,0,0,1,.119-.056l.9.369a.1.1,0,0,1,.054.108.094.094,0,0,1-.089.079Z" transform="translate(-79.988 -62.362)"/><path class="bj" d="M225.348,222.892s-1.864,4.523-1.991,6.9-.609,3.914,1.991,4.394a5.464,5.464,0,0,0,5.981-3.253s1.861-3.645,1.442-5.136S225.348,222.892,225.348,222.892Z" transform="translate(-74.525 -54.804)"/><path class="bk" d="M230.376,228.518h-.327s1.355-2.934.163-3.449-5.906-1.53-6.924-3.3a3.379,3.379,0,0,1,1.2-4.517.172.172,0,0,1,.221.088l.11.216a.174.174,0,0,0,.174.1.179.179,0,0,0,.152-.133h0a.178.178,0,0,1,.142-.136.171.171,0,0,1,.174.084c.312.527,1.155,1.386,3.417,1.827,3.218.625,5.332,2,5.385,4.336a.189.189,0,0,0,.094.162.17.17,0,0,0,.18-.008c.237-.154.615-.224,1.122.226.88.781.521,2.81-1.412,4.479a.19.19,0,0,0,0,.3c.35.242.871.813-.481,1.576a3.454,3.454,0,0,1-2.514.613.183.183,0,0,1-.132-.2l.121-2.073a.192.192,0,0,0-.047-.14.172.172,0,0,0-.129-.059Z" transform="translate(-74.461 -54.093)"/><path class="bl" d="M231.834,230.317s.712-2.89,1.938-2.079-.636,3.237-1.624,3.345Z" transform="translate(-75.998 -55.458)"/><path class="bm" d="M104.713,207.735l10.8,8.867,20.731-17.928,5.349,6.443-26.08,28.79L98.8,214.595Z" transform="translate(-16.939 -24.996)"/><path class="bn" d="M444.8,101.278c-14.42-.4-85.746-2.806-100.389-3.3-1.444-.048-2.629,2.187-2.629,4.963v12.833c0,2.742,1.157,4.963,2.584,4.963h100.4c1.427,0,2.584-2.221,2.584-4.963v-9.534C447.341,103.529,446.21,101.318,444.8,101.278Z" transform="translate(-94.846 -39.088)"/><path class="bo" d="M350,118.007l3.727-2.059a.953.953,0,0,1,.926,0l3.719,2.073a.952.952,0,0,0,1.047-.08,1.078,1.078,0,0,0,.4-1.025l-.7-4.376a1.087,1.087,0,0,1,.286-.927l3.017-3.093a1.088,1.088,0,0,0,.261-1.08,1.01,1.01,0,0,0-.808-.718l-4.164-.645a1,1,0,0,1-.757-.575l-1.836-3.974a.972.972,0,0,0-1.783,0l-1.868,3.976a1,1,0,0,1-.757.573l-4.164.631a1.01,1.01,0,0,0-.8.713,1.089,1.089,0,0,0,.25,1.075L349,111.6a1.091,1.091,0,0,1,.284.929l-.717,4.374a1.076,1.076,0,0,0,.395,1.025A.951.951,0,0,0,350,118.007Z" transform="translate(-95.516 -39.461)"/><path class="bp" d="M373.205,118.669l3.725-2.059a.948.948,0,0,1,.926,0l3.721,2.071a.951.951,0,0,0,1.045-.079,1.076,1.076,0,0,0,.4-1.023l-.7-4.376a1.082,1.082,0,0,1,.288-.927l3.015-3.093a1.088,1.088,0,0,0,.261-1.08,1.01,1.01,0,0,0-.808-.718l-4.164-.645a1,1,0,0,1-.757-.575l-1.855-3.982a.972.972,0,0,0-1.783,0l-1.868,3.976a.989.989,0,0,1-.757.571l-4.164.633a1.01,1.01,0,0,0-.8.712,1.089,1.089,0,0,0,.25,1.075l3.008,3.1a1.091,1.091,0,0,1,.284.929l-.717,4.374a1.077,1.077,0,0,0,.393,1.049A.951.951,0,0,0,373.205,118.669Z" transform="translate(-99.49 -39.543)"/><path class="bq" d="M396.607,118.8l3.725-2.059a.948.948,0,0,1,.926,0l3.719,2.071a.951.951,0,0,0,1.047-.077,1.076,1.076,0,0,0,.4-1.025l-.7-4.376a1.081,1.081,0,0,1,.286-.927l3.017-3.093a1.088,1.088,0,0,0,.26-1.08,1.01,1.01,0,0,0-.809-.717l-4.164-.645a1,1,0,0,1-.757-.575l-1.832-3.974a.97.97,0,0,0-1.781,0l-1.868,3.976a.989.989,0,0,1-.757.571l-4.164.633a1.01,1.01,0,0,0-.8.713,1.089,1.089,0,0,0,.25,1.075l3.006,3.1a1.087,1.087,0,0,1,.286.929l-.717,4.374a1.076,1.076,0,0,0,.394,1.024.951.951,0,0,0,1.044.083Z" transform="translate(-103.506 -39.56)"/><path class="br" d="M419.331,119.064,423.058,117a.944.944,0,0,1,.924,0l3.721,2.071A.949.949,0,0,0,428.75,119a1.074,1.074,0,0,0,.4-1.026l-.7-4.376a1.089,1.089,0,0,1,.288-.929l3.017-3.091a1.088,1.088,0,0,0,.26-1.08,1.01,1.01,0,0,0-.809-.717l-4.164-.645a1,1,0,0,1-.757-.575l-1.855-3.982a.972.972,0,0,0-1.783,0l-1.866,3.976a1,1,0,0,1-.757.573l-4.164.631a1.01,1.01,0,0,0-.8.712,1.089,1.089,0,0,0,.25,1.075l3.008,3.1a1.085,1.085,0,0,1,.284.929l-.717,4.374a1.077,1.077,0,0,0,.394,1.046.951.951,0,0,0,1.065.066Z" transform="translate(-107.398 -39.593)"/><path class="bs" d="M444.772,339.252a1.166,1.166,0,0,0,1.17-.933l18.5-103.29a1.125,1.125,0,0,0-.975-1.292,1.191,1.191,0,0,0-1.37.919l-18.486,103.3a1.127,1.127,0,0,0,.973,1.29,1.147,1.147,0,0,0,.193.01Z" transform="translate(-112.299 -56.166)"/><path class="bt" d="M515.57,339.447a1.207,1.207,0,0,0,.237-.024,1.123,1.123,0,0,0,.929-1.32l-21.8-101.946a1.2,1.2,0,0,0-1.4-.877,1.126,1.126,0,0,0-.931,1.32l21.8,101.944A1.175,1.175,0,0,0,515.57,339.447Z" transform="translate(-120.698 -56.359)"/><path class="bu" d="M461.811,264.092h31.611a1.122,1.122,0,1,0,0-2.241H461.811a1.122,1.122,0,1,0,0,2.241Z" transform="translate(-115.219 -59.705)"/><path class="bv" d="M462.51,264.092h30.458a1.05,1.05,0,0,0,1-.531,1.177,1.177,0,0,0,0-1.179,1.05,1.05,0,0,0-1-.531H462.51a1.05,1.05,0,0,0-1,.531,1.177,1.177,0,0,0,0,1.179A1.05,1.05,0,0,0,462.51,264.092Z" transform="translate(-115.345 -59.705)"/><path class="bw" d="M461.811,285.466h31.611a1.122,1.122,0,1,0,0-2.241H461.811a1.122,1.122,0,1,0,0,2.241Z" transform="translate(-115.219 -62.394)"/><path class="bx" d="M458.348,285.466h38.315a1.122,1.122,0,1,0,0-2.241H458.348a1.122,1.122,0,1,0,0,2.241Z" transform="translate(-114.625 -62.394)"/><path class="bu" d="M461.811,306.821h31.611a1.122,1.122,0,1,0,0-2.241H461.811a1.122,1.122,0,1,0,0,2.241Z" transform="translate(-115.219 -65.081)"/><path class="bt" d="M453.929,306.821H499.8a1.122,1.122,0,1,0,0-2.241H453.929a1.122,1.122,0,1,0,0,2.241Z" transform="translate(-113.868 -65.081)"/><path class="bt" d="M461.811,328.186h43.023a1.122,1.122,0,1,0,0-2.241H461.811a1.122,1.122,0,1,0,0,2.241Z" transform="translate(-115.219 -67.769)"/><path class="bt" d="M450.356,328.186H502.87a1.122,1.122,0,1,0,0-2.241H450.356a1.122,1.122,0,1,0,0,2.241Z" transform="translate(-113.256 -67.769)"/><path class="by" d="M177,162.987l-1.363-6.309h-6.176l-1.363,6.309h-4.407l5.868-25.1h5.981l5.883,25.1Zm-2.188-10.439-1.264-5.813q-.114-.529-.511-2.66t-.479-2.848q-.21,1.47-.534,3.241t-1.687,8.08Z" transform="translate(-64.316 -44.108)"/><path class="bz" d="M200.532,145.7a8.868,8.868,0,0,1-1.906,6.113,7,7,0,0,1-5.5,2.129h-1.1V163h-4.408V138h6.01Q200.532,138,200.532,145.7Zm-8.518,4.206h.852a2.983,2.983,0,0,0,2.415-.941,6.27,6.27,0,0,0,.064-5.993,2.664,2.664,0,0,0-2.253-.949h-1.069Z" transform="translate(-68.418 -44.123)"/><path class="ca" d="M219.721,145.7a8.874,8.874,0,0,1-1.9,6.113,7,7,0,0,1-5.5,2.129h-1.1V163H206.8V138h6.01Q219.721,138,219.721,145.7ZM211.2,149.9h.852a2.971,2.971,0,0,0,2.413-.941,6.277,6.277,0,0,0,.066-5.993,2.663,2.663,0,0,0-2.254-.949h-1.069Z" transform="translate(-71.707 -44.123)"/><path class="cb" d="M230.4,153.272V163h-4.408V138h5.769q3.663,0,5.406,1.829t1.741,5.592q0,4.735-3.029,6.616L240.437,163H235.72l-3.744-9.73Zm0-3.994h1.136a2.587,2.587,0,0,0,2.237-.931,4.681,4.681,0,0,0,.68-2.78,4.1,4.1,0,0,0-.721-2.728,2.814,2.814,0,0,0-2.228-.811h-1.1Z" transform="translate(-74.997 -44.123)"/><path class="cc" d="M262.179,150.412q0,6.207-2.2,9.542a7.648,7.648,0,0,1-12.627.01q-2.205-3.327-2.2-9.586,0-6.211,2.2-9.518a7.177,7.177,0,0,1,6.354-3.309,7.077,7.077,0,0,1,6.288,3.327Q262.179,144.205,262.179,150.412Zm-12.529,0a16.259,16.259,0,0,0,1.022,6.514,3.242,3.242,0,0,0,3,2.241q3.986,0,3.986-8.755t-3.954-8.757a3.253,3.253,0,0,0-3.029,2.233,16.363,16.363,0,0,0-1.024,6.524Z" transform="translate(-78.28 -44.066)"/><path class="cd" d="M279.633,138h4.443L278.5,163H272.89l-5.542-25h4.441l3.095,15.272q.547,2.772.827,5.592.341-3.093.859-5.592Z" transform="translate(-82.086 -44.123)"/><path class="ce" d="M300.74,163H290.058V138H300.74v4.02H294.47v5.949h5.819V152H294.47v6.926h6.271Z" transform="translate(-85.98 -44.123)"/><path class="cf" d="M322.19,150.263q0,6.191-2.391,9.466A8,8,0,0,1,312.915,163h-5.8V138h6.339a7.461,7.461,0,0,1,6.436,3.223Q322.19,144.447,322.19,150.263Zm-4.522.136q0-8.388-4.376-8.378h-1.766v16.911h1.425a3.793,3.793,0,0,0,3.566-2.129A13.894,13.894,0,0,0,317.668,150.4Z" transform="translate(-88.903 -44.123)"/><path class="j" d="M258.045,219.276a1.062,1.062,0,0,1-1.033-.517l-1.278-2.1a12.406,12.406,0,0,1-3.28-.543l-1.827,1.6a1.032,1.032,0,0,1-1.247.092l-2.9-1.869a1.163,1.163,0,0,1-.492-1.216l.507-2.44a13.872,13.872,0,0,1-1.963-2.838l-2.358-.236a1.1,1.1,0,0,1-.946-.863l-.8-3.479a1.165,1.165,0,0,1,.468-1.224l1.993-1.348a14.529,14.529,0,0,1,.517-3.471l-1.514-1.927a1.191,1.191,0,0,1-.089-1.316l1.766-3.056a1.055,1.055,0,0,1,1.151-.517l2.315.535a13.151,13.151,0,0,1,2.69-2.073l.223-2.488a1.119,1.119,0,0,1,.818-1l3.3-.843a1.049,1.049,0,0,1,1.158.489l1.28,2.107a12.57,12.57,0,0,1,3.29.543l1.827-1.6a1.036,1.036,0,0,1,1.246-.1l2.9,1.865a1.165,1.165,0,0,1,.49,1.212l-.507,2.444a13.813,13.813,0,0,1,1.967,2.86l2.358.236a1.1,1.1,0,0,1,.946.863l.8,3.477a1.169,1.169,0,0,1-.466,1.226l-2,1.348a14.64,14.64,0,0,1-.515,3.471l1.514,1.927a1.191,1.191,0,0,1,.089,1.316l-1.766,3.054a1.053,1.053,0,0,1-1.149.519l-2.317-.535a13.211,13.211,0,0,1-2.7,2.071l-.214,2.478a1.121,1.121,0,0,1-.818,1l-3.3.843Q258.107,219.267,258.045,219.276Zm-5.97-5.158.443.154a10.945,10.945,0,0,0,3.672.6h.466l1.541,2.536,2.447-.625.269-3,.415-.222a11.516,11.516,0,0,0,3-2.313l.327-.349,2.79.645,1.312-2.269-1.821-2.323.146-.467a12.673,12.673,0,0,0,.568-3.874v-.491l2.4-1.626-.592-2.58-2.839-.286-.21-.437a12.043,12.043,0,0,0-2.192-3.167l-.331-.345.611-2.944-2.15-1.384-2.2,1.921-.443-.154a10.886,10.886,0,0,0-3.672-.6h-.466l-1.539-2.536-2.447.625-.269,3-.416.222a11.541,11.541,0,0,0-3,2.311l-.327.351-2.79-.645-1.312,2.269,1.821,2.323-.146.467a12.72,12.72,0,0,0-.568,3.874v.491l-2.4,1.624.592,2.582,2.839.284.21.439A12.042,12.042,0,0,0,248,211.365l.331.345-.613,2.944,2.15,1.384ZM249.54,216.33Zm-1.906-1.23Zm-.28-.687Zm-2.343-20.969Zm12.076,18.675a9.126,9.126,0,0,1-9.957-7.983,9.5,9.5,0,0,1,7.154-10.822,9.034,9.034,0,0,1,10.54,7.1,10.129,10.129,0,0,1,.254,2.009.846.846,0,1,1-1.688.046,8.224,8.224,0,0,0-.206-1.636,7.249,7.249,0,0,0-14.189-.3,7.935,7.935,0,0,0,3.309,8.782,7.052,7.052,0,0,0,8.893-1.135.814.814,0,0,1,1.194.01.926.926,0,0,1-.009,1.26,8.865,8.865,0,0,1-5.3,2.67Z" transform="translate(-77.466 -50.175)"/><path class="j" d="M259.018,208.548a3.876,3.876,0,0,1-4.2-3.076,4.121,4.121,0,0,1,2.38-4.772,3.772,3.772,0,0,1,4.78,1.909h0a4.271,4.271,0,0,1,0,3.792A3.867,3.867,0,0,1,259.018,208.548Zm-.7-6.315a2.1,2.1,0,0,0-.757.25,2.348,2.348,0,0,0-.905,3.086,2.111,2.111,0,0,0,2.925.956,2.348,2.348,0,0,0,.907-3.086h0a2.154,2.154,0,0,0-2.169-1.2Z" transform="translate(-79.92 -51.978)"/><path class="j" d="M228.167,198.82a.676.676,0,0,1-.274-.02l-1.579-.431a.788.788,0,0,1-.556-.7l-.081-1.076a6.666,6.666,0,0,1-1.136-.9l-1,.214a.732.732,0,0,1-.789-.369l-.829-1.486a.817.817,0,0,1,.076-.909l.663-.819a7.111,7.111,0,0,1-.189-1.484l-.852-.6a.821.821,0,0,1-.31-.855l.409-1.666a.77.77,0,0,1,.662-.587l1.018-.084a6.735,6.735,0,0,1,.854-1.2l-.2-1.054a.816.816,0,0,1,.354-.835l1.4-.873a.712.712,0,0,1,.863.08l.774.7a6.3,6.3,0,0,1,1.406-.2l.568-.9a.728.728,0,0,1,.808-.326l1.579.429a.788.788,0,0,1,.557.7l.08,1.076a6.63,6.63,0,0,1,1.136.9l1-.214a.732.732,0,0,1,.784.375l.825,1.478a.817.817,0,0,1-.072.907l-.664.823a7.355,7.355,0,0,1,.189,1.482l.852.6a.821.821,0,0,1,.31.855l-.409,1.664a.77.77,0,0,1-.653.581l-1.02.086a7.007,7.007,0,0,1-.854,1.2l.2,1.054a.8.8,0,0,1-.35.833l-1.406.875a.712.712,0,0,1-.865-.082l-.774-.7a6.206,6.206,0,0,1-1.4.2l-.568.9a.736.736,0,0,1-.532.357Zm-.522-1.086Zm4.62-.689Zm-.6-.052Zm-4.675.182.857.234.74-1.176h.348a5,5,0,0,0,1.7-.252l.333-.11,1.016.917.757-.475-.265-1.382.252-.256a5.576,5.576,0,0,0,1.032-1.444l.163-.328,1.325-.112.221-.9-1.115-.779v-.369a5.889,5.889,0,0,0-.238-1.8l-.1-.351.867-1.072-.451-.8-1.31.28-.24-.266a5.3,5.3,0,0,0-1.37-1.088l-.309-.172-.106-1.4-.859-.234-.738,1.176h-.35a5.044,5.044,0,0,0-1.7.25l-.335.11-1.016-.915-.757.475.267,1.382-.254.254a5.577,5.577,0,0,0-1.03,1.446l-.163.326-1.325.112-.223.907,1.115.779v.369a5.879,5.879,0,0,0,.239,1.8l.1.353-.867,1.072.449.8,1.31-.282.242.268a5.32,5.32,0,0,0,1.369,1.086l.31.172Zm5.832-.471ZM222.963,194.013Zm.051-.637Zm12.565-1.863Zm-.486-3.645Zm-.273-1.222Zm-.555-.26Zm.426-.4Zm-9.654-.867Zm6.436-.955ZM229.895,183.736Zm-4.058.457Zm3.714,11.21a4.346,4.346,0,0,1-1.677-.124,4.739,4.739,0,0,1-3.382-4,4.913,4.913,0,0,1,2.2-4.826,4.446,4.446,0,0,1,6.258,1.707,4.875,4.875,0,0,1,.4.935.677.677,0,0,1-.4.844.626.626,0,0,1-.8-.424,3.643,3.643,0,0,0-.292-.675,3.248,3.248,0,0,0-3.305-1.683,3.369,3.369,0,0,0-2.737,2.58,3.532,3.532,0,0,0,1.982,4.116,3.224,3.224,0,0,0,4.113-1.575.633.633,0,0,1,.544-.373.627.627,0,0,1,.57.327.7.7,0,0,1,0,.685,4.588,4.588,0,0,1-3.477,2.482Z" transform="translate(-74.19 -49.712)"/><path class="cg" d="M447.387,129.6l7.164-4.721a1.908,1.908,0,0,1,1.853-.144l7.747,3.551a1.915,1.915,0,0,0,2.085-.324,2.177,2.177,0,0,0,.648-2.116l-2.042-8.649a2.19,2.19,0,0,1,.443-1.9l5.6-6.676a2.2,2.2,0,0,0,.352-2.193,2.008,2.008,0,0,0-1.709-1.3l-8.421-.623a1.989,1.989,0,0,1-1.581-1.032l-4.287-7.677a1.971,1.971,0,0,0-1.867-1.03,2.01,2.01,0,0,0-1.7,1.309l-3.167,8.262a2.032,2.032,0,0,1-1.418,1.268l-8.247,1.931a2.05,2.05,0,0,0-1.507,1.555,2.174,2.174,0,0,0,.657,2.113l6.462,5.732a2.161,2.161,0,0,1,.7,1.813l-.806,8.871a2.144,2.144,0,0,0,.936,1.992,1.907,1.907,0,0,0,2.108-.005Z" transform="translate(-111.216 -38.682)"/><path class="ch" d="M469.663,127.08s-11.749,15.873,1.656,32.015l5.041-.5c-.292.028-1.49-2.858-1.611-3.109a56.849,56.849,0,0,1-3.108-8.046,38.88,38.88,0,0,1-1.768-10.616,25.5,25.5,0,0,1,.507-5.536,2.767,2.767,0,0,1,1.558-2.263,5.06,5.06,0,0,0,2.557-2.309,4.271,4.271,0,0,0,.23-3.21,4,4,0,0,0-2.053-2.382c-.316-.16-2.743-.751-2.743-.314a7.555,7.555,0,0,0,.99,2.826C471.651,125.37,471.009,126.217,469.663,127.08Z" transform="translate(-115.952 -41.941)"/><path class="ci" d="M478.416,216.293s9.519,21.89,14.514,30.954c0,0,.992,5.7,0,7.5l-.846.4,3.947-.124s.35-7.673.076-8.1a.983.983,0,0,0-.822-.4s-1.69-14.141-6.591-17.159l-4.747-17.255Z" transform="translate(-118.27 -53.447)"/><path class="cj" d="M492.879,261.167c0,.1,3.082.056,4.759.024a1.345,1.345,0,0,0,1.278-1.11l1.266-7.02a1.261,1.261,0,0,0-.909-1.466l-.706-.17a4.144,4.144,0,0,0-.691,2.832c.318,1.372.6,4.935-.2,5.348a11.2,11.2,0,0,1-3.11.487S492.932,260.264,492.879,261.167Z" transform="translate(-120.749 -58.393)"/><path class="ck" d="M467.489,262.189a.376.376,0,0,0-.164.415.352.352,0,0,0,.34.272c2.805-.03,9.086-.124,9.654-.367.721-.318-.263-3.052-1.3-3.978L470.3,260.5Z" transform="translate(-116.366 -59.287)"/><path class="cl" d="M465.383,215.3s6.152,31.4,7.893,37.523l-4.117,2.73s2.063-.369,3.6-.487,2.936-1.969,2.936-1.969l-.492-.829s-1.543-31.228-1.168-34.775Z" transform="translate(-116.035 -53.848)"/><path class="cm" d="M461.641,158.346c2.359.689,10.346,2.908,15.332,2.816l-3.063,18.231.244,2.974-9.983-.048A83.6,83.6,0,0,0,459.144,172c-.642-1-.165-2.175.189-3.311l-.5-.352a1.471,1.471,0,0,1-.538-1.636l2.43-7.848a.737.737,0,0,1,.914-.507Z" transform="translate(-114.809 -46.679)"/><path class="cn" d="M464.283,183.941l.189,1.8s-2.822,8.915,1.41,29.736c0,0,9.165,2.738,16.7-3.816,0,0-2.126-19.651-2.7-20.57-2.89-4.559-4.817-5.55-4.817-5.55l-.087-1.967S466.933,185.113,464.283,183.941Z" transform="translate(-115.721 -49.856)"/><path class="co" d="M469.154,159.061c-.036-.05,2.082-6.752,2.082-6.752l3.029.292,1.185,7.6S470.7,161.215,469.154,159.061Z" transform="translate(-116.682 -45.923)"/><path class="cp" d="M473.355,140.172c-.2.134-6.487,2.874-5.137,9.758a1.283,1.283,0,0,0,.7.921,10.171,10.171,0,0,0,5.283.923c3.292-.353,5.45-6.415,5.357-8.188S475.361,138.854,473.355,140.172Z" transform="translate(-116.489 -44.355)"/><path class="cq" d="M475.471,137.135c-.165.024-3.63,1.3-1.912,3.946s2.364,4.212,1.55,5.374c-.74,1.06-2.381.457-2.239,2.662a1.256,1.256,0,0,1-.5,1.118c-1.546,1.1-5.319,4.5-1.581,9.352a1.287,1.287,0,0,1,.132,1.382c-1.1,2.071-3.394,8.14,4.921,11.507,8.226,3.325,11.2-2.349,12.027-4.615a1.135,1.135,0,0,1,1.136-.767c.9.046,2.186-.114,2.126-1.388a3.226,3.226,0,0,0-1.034-2.023,1.25,1.25,0,0,1-.335-1.01,1.216,1.216,0,0,1,.555-.9,2.344,2.344,0,0,0,1.109-1.47c.5-1.949-.5-7.779-5.792-8.765a1.285,1.285,0,0,1-.967-.989v-.02a1.243,1.243,0,0,1,.426-1.2,3.228,3.228,0,0,0,1.049-4.084,4.357,4.357,0,0,0-3.392-2.708,1.148,1.148,0,0,1-.769-.513,1.271,1.271,0,0,1-.177-.941C482.179,139.238,481.852,136.259,475.471,137.135Z" transform="translate(-116.688 -43.994)"/><path class="cr" d="M445.519,130.187s-.848,16.332,13.25,24.68l-3.392,8.166s-12.762-8.144-12.29-30.355a2.667,2.667,0,0,0-.6-1.737l-2.712-3.321a5.343,5.343,0,0,1-1.035-4.593l.358-1.506a.768.768,0,0,1,.429-.53.7.7,0,0,1,.659.045l.284.174a5.165,5.165,0,0,1,2.044,2.4l1.363,2.269c.5,1.172.613,1.666,1.827,1.554l2.256.028Z" transform="translate(-111.443 -41.975)"/></g></g></svg>