<svg xmlns="http://www.w3.org/2000/svg" xmlns:xlink="http://www.w3.org/1999/xlink" width="72" height="75" viewBox="0 0 72 75"><defs><style>.a{fill:#fff;}.b{clip-path:url(#a);}.c{fill:#f1bc19;}.d{fill:#e6edb7;}.e{fill:#88ae45;}.f{fill:#fbcd59;}.g{fill:#ce9065;}.h{fill:#78a0cf;}.i{fill:#fdfcef;}.j{fill:#568bc1;}.k{fill:#db9e71;}.l{fill:#512c2b;}.m{fill:#472b29;}.n{fill:#895d3d;}.o{fill:#5e2e2e;}.p{fill:#ecad6f;}.q{fill:#b0c1d4;}.r{fill:#97aec7;}</style><clipPath id="a"><rect class="a" width="72" height="75" transform="translate(-0.46)"/></clipPath></defs><g class="b" transform="translate(0.46)"><g transform="translate(0.472 0.098)"><path class="c" d="M148.043,23.231a.962.962,0,1,0,.914.96A.938.938,0,0,0,148.043,23.231Z" transform="translate(-87.697 -22.27)"/><path class="d" d="M59,25.167c-18.684,0-33.83,15.911-33.83,35.538S40.313,96.243,59,96.243,92.827,80.332,92.827,60.7,77.68,25.167,59,25.167Z" transform="translate(-23.338 -23.246)"/><path class="c" d="M156.593,21.295a3.847,3.847,0,1,0,3.657,3.842A3.753,3.753,0,0,0,156.593,21.295Z" transform="translate(-90.762 -21.295)"/><path class="e" d="M166.38,42.59a1.923,1.923,0,1,0,1.829,1.921A1.877,1.877,0,0,0,166.38,42.59Z" transform="translate(-96.891 -32.024)"/><path class="f" d="M85.3,128.625a1.923,1.923,0,1,0,1.829,1.921A1.877,1.877,0,0,0,85.3,128.625ZM24.952,114.218a3.847,3.847,0,1,0,3.657,3.842A3.753,3.753,0,0,0,24.952,114.218Z" transform="translate(-21.295 -68.114)"/><path class="e" d="M46.354,164.551a1.923,1.923,0,1,0,1.829,1.921A1.877,1.877,0,0,0,46.354,164.551Z" transform="translate(-33.554 -93.475)"/><path class="a" d="M33.26,78.277a2.4,2.4,0,1,0,2.286,2.4A2.346,2.346,0,0,0,33.26,78.277ZM89.034,61.949a1.442,1.442,0,1,0,1.371,1.441A1.407,1.407,0,0,0,89.034,61.949Z" transform="translate(-26.403 -41.778)"/><path class="g" d="M90.977,124.341c-.37-2.061-1.17-3.269-3.056-3.867-.082-.026-.192-.068-.315-.118-.143-.065-.324-.142-.536-.229-1.142-.507-7.93-3.138-7.93-3.138a1.752,1.752,0,0,1-1.134-1.039,8.779,8.779,0,0,1-.213-2.8,41.673,41.673,0,0,1-4.609,1.368c-1.737.178-5.47-2.182-5.47-2.182s-.088,2.917-.206,3.565a1.576,1.576,0,0,1-1.174,1.088l-6.514,2.481a6.778,6.778,0,0,0-4.912,4.871s-.429,3.185-.411,3.3c-.04.446-.082.937-.125,1.452,7.1,5.049,12.8,6.464,22.583,6.015,4.445-.2,11.062-2.51,14.53-4.348C91.3,126.7,90.977,124.341,90.977,124.341Z" transform="translate(-38.749 -67.166)"/><path class="h" d="M91.164,129.014c-.37-2.061-1.17-3.269-3.056-3.867-.082-.026-.192-.068-.315-.118-.143-.065-.324-.142-.536-.229-.618-.275-6.7-2.5-8.653-3.269-2.667,1.974-3.867,2.735-5.646,2.735-1.9,0-2.987-1.206-5.63-2.881l-2.96,1.148-.022-.012-.287.08-4.051,1.544a6.779,6.779,0,0,0-4.912,4.871s-.429,3.185-.411,3.3c-.04.446-.082,5.229-.125,5.745,7.1,5.049,12.8,6.464,22.583,6.015,4.445-.2,11.062-2.51,14.53-4.348C91.488,135.666,91.164,129.014,91.164,129.014Z" transform="translate(-38.849 -71.725)"/><path class="i" d="M92.9,131.693c-.671-.886-1.139-1.912-1.82-2.788a.515.515,0,0,1,0-.679,3.692,3.692,0,0,1,1.44-.912c.576-.25,1.134-.522,1.716-.748a13.052,13.052,0,0,0-2-4.392.4.4,0,0,1,0-.479c-2.661,1.969-3.859,2.728-5.638,2.728-1.813,0-2.9-1.108-5.3-2.668-.224,1.461-1.486,3.434-.55,4.868.369.567,1.128.763,1.375,1.461.348.989-.173,2.415-.2,3.422a12.989,12.989,0,0,0,1.212,5.425.437.437,0,0,1,.029.22,37.231,37.231,0,0,1,1.678,3.73,32.235,32.235,0,0,1,.876,3.392c.468.017.95.025,1.438.029.436-2.2,1.632-4.331,2.463-6.387A22.965,22.965,0,0,1,92.9,131.693Z" transform="translate(-52.482 -71.881)"/><path class="j" d="M68.341,140.969a.352.352,0,0,1-.343-.36v-2.881a.343.343,0,1,1,.686,0v2.881A.352.352,0,0,1,68.341,140.969Zm23.772.96a.352.352,0,0,1-.343-.36v-3.842a.343.343,0,1,1,.686,0v3.842A.352.352,0,0,1,92.114,141.93ZM85.1,119.892s2.161.965,3.734,6.272L85.1,127.612l2.407,2.9L80.4,143.53A224.838,224.838,0,0,0,85.1,119.892Zm-10.319,0s-2.161.965-3.734,6.272l3.734,1.447-2.407,2.9,6.992,13.022S76.059,130.241,74.784,119.892Z" transform="translate(-45.94 -70.973)"/><path class="k" d="M89.875,71.377c-.107-.008-.216-.009-.329-.009-.882-.045-1.134.325-1.094-.249.071-1.018-.064-5.149-.064-5.358,0-4.28-4.254-7.771-9.867-7.964v-.012c.261,0,.227.006.19.007a5.929,5.929,0,0,1,.724-.007V57.8c-6.146.194-10.4,3.684-10.4,7.964,0,.208-.135,4.339-.064,5.358.04.573-.211.2-1.094.249-.113,0-.222,0-.329.009a2.056,2.056,0,0,0-1.917,1.516c.119.076.559,3.584,1.272,4.966.4.771,1.02.879,1.659,1.377a1.509,1.509,0,0,1,.519,1,8.641,8.641,0,0,0,2.445,3.934c.539.547,4.114,4.551,7.185,4.348,3.086-.122,6.646-3.8,7.185-4.348a8.641,8.641,0,0,0,2.445-3.934,1.5,1.5,0,0,1,.519-1c.639-.5,1.261-.605,1.66-1.377.713-1.382,1.154-4.89,1.272-4.966A2.052,2.052,0,0,0,89.875,71.377Z" transform="translate(-44.691 -39.68)"/><path class="l" d="M85.857,88.761A2.1,2.1,0,0,0,87.476,88a.12.12,0,0,0-.012-.162h0a.106.106,0,0,0-.155.012,2.058,2.058,0,0,1-2.906,0,.108.108,0,0,0-.083-.039.106.106,0,0,0-.071.028.12.12,0,0,0-.012.162A2.1,2.1,0,0,0,85.857,88.761ZM83.865,79.9l.4-.8a9.828,9.828,0,0,0-5.2.172l.5.779A7.727,7.727,0,0,1,83.865,79.9Zm8.385,0,.4-.8a9.828,9.828,0,0,0-5.2.172l.5.779A7.728,7.728,0,0,1,92.25,79.9Zm-10.8,1.128a1.111,1.111,0,0,0-.959.7.519.519,0,0,1,.159-.028.709.709,0,0,1,0,1.4.53.53,0,0,1-.3-.1,1.247,1.247,0,0,0,1.1,1.1c.632,0,1.145-.689,1.145-1.539S82.086,81.028,81.454,81.028Zm8.756,0a1.047,1.047,0,0,0-.86.526.523.523,0,0,1,.21-.047.709.709,0,0,1,0,1.4.578.578,0,0,1-.493-.305c.015.833.52,1.5,1.143,1.5s1.145-.689,1.145-1.539S90.842,81.028,90.211,81.028Zm.486,9.517a.12.12,0,0,0,.016-.161h0a.106.106,0,0,0-.155-.017,8.807,8.807,0,0,1-9.4,0,.1.1,0,0,0-.069-.025.108.108,0,0,0-.086.043.121.121,0,0,0,.016.162,8.128,8.128,0,0,0,9.679,0Z" transform="translate(-51.781 -50.285)"/><path class="m" d="M73.277,112.323c-8.144,0-13.4-1.711-19.676-6.174a.491.491,0,0,1-.2-.439c.008-.1.013-.456.019-.967a51.279,51.279,0,0,1,.532-8.161A6.185,6.185,0,0,1,57.045,92.3a7.691,7.691,0,0,1,2.144-.93l6.473-2.468a1.183,1.183,0,0,0,.88-.727,19.3,19.3,0,0,0,.14-1.958,22.44,22.44,0,0,1-1.932-1.558,9.024,9.024,0,0,1-2.569-4.208c-.1-.429-.143-.579-.349-.741a4.952,4.952,0,0,0-.557-.365,2.779,2.779,0,0,1-1.231-1.183,16.3,16.3,0,0,1-1.327-5.249.531.531,0,0,1,.01-.1,2.51,2.51,0,0,1,2.333-1.91c.117-.009.236-.01.359-.01a3.328,3.328,0,0,1,.626.029c-.033-1.158.033-3.611.062-4.719.007-.277.013-.46.013-.5,0-4.348,3.885-7.834,9.213-8.449a.435.435,0,0,1,.273-.1c.254,0,.455,0,.613.012a.789.789,0,0,1,.573.082c5.546.6,9.6,4.089,9.6,8.454,0,.039,0,.222.013.5.03,1.131.1,3.662.061,4.719a2.882,2.882,0,0,1,.649-.028c.1,0,.22,0,.336.009a2.51,2.51,0,0,1,2.333,1.91.53.53,0,0,1,.01.1,15.937,15.937,0,0,1-1.326,5.249,2.774,2.774,0,0,1-1.231,1.183,4.768,4.768,0,0,0-.558.366c-.207.163-.25.312-.344.722a9.033,9.033,0,0,1-2.574,4.226,24.766,24.766,0,0,1-2.05,1.7,5.317,5.317,0,0,0,.195,1.754,1.317,1.317,0,0,0,.833.778c.324.122,6.857,2.655,8,3.162.206.083.391.162.539.229.094.037.194.076.269.1,1.939.616,2.948,1.883,3.371,4.237a.514.514,0,0,1,.007.064s.324,6.654.507,10.711a.485.485,0,0,1-.251.451c-3.7,1.96-10.374,4.2-14.715,4.4C75.35,112.3,74.291,112.323,73.277,112.323ZM54.324,105.5c6.775,4.768,12.387,6.236,22.1,5.783,4.119-.189,10.421-2.277,14.079-4.159-.177-3.9-.466-9.867-.491-10.362-.362-1.983-1.131-2.956-2.733-3.464-.091-.029-.211-.075-.347-.13-.156-.07-.332-.144-.538-.229-1.133-.5-7.856-3.109-7.924-3.136a2.19,2.19,0,0,1-1.39-1.286A6.29,6.29,0,0,1,76.8,86.1a.486.486,0,0,1,.192-.381,25.421,25.421,0,0,0,2.13-1.744,8.117,8.117,0,0,0,2.321-3.748,1.991,1.991,0,0,1,.688-1.282,5.758,5.758,0,0,1,.657-.434,1.916,1.916,0,0,0,.874-.8,15.038,15.038,0,0,0,1.218-4.742,1.616,1.616,0,0,0-1.49-1.106c-.1-.007-.2-.008-.3-.008a2.787,2.787,0,0,0-.663.045.735.735,0,0,1-.7-.129.831.831,0,0,1-.19-.683c.056-.808-.023-3.75-.052-4.858-.008-.291-.013-.484-.013-.525,0-4.018-4.007-7.2-9.4-7.551-5.186.349-9.042,3.537-9.042,7.551,0,.041,0,.234-.013.525-.029,1.107-.108,4.05-.052,4.858a.829.829,0,0,1-.191.683.739.739,0,0,1-.7.129,2.961,2.961,0,0,0-.639-.046c-.125,0-.224,0-.321.009a1.617,1.617,0,0,0-1.489,1.106,15.673,15.673,0,0,0,1.218,4.742,1.907,1.907,0,0,0,.874.8,5.916,5.916,0,0,1,.656.433,1.971,1.971,0,0,1,.684,1.261,8.124,8.124,0,0,0,2.326,3.771,24.289,24.289,0,0,0,2.022,1.61.489.489,0,0,1,.195.416c-.053,1.25-.11,2.043-.166,2.358a2.024,2.024,0,0,1-1.51,1.463l-6.47,2.467a6.972,6.972,0,0,0-1.936.832,5.256,5.256,0,0,0-2.691,3.712,52.369,52.369,0,0,0-.5,7.924C54.333,105.065,54.329,105.319,54.324,105.5Z" transform="translate(-38.237 -39.362)"/><path class="n" d="M92.077,91.731l-.546-.063.184-1.709-.924.421-.218-.529,1.359-.619a.261.261,0,0,1,.272.033.293.293,0,0,1,.11.263ZM69.934,91.4,69.7,89.2a.293.293,0,0,1,.11-.263.26.26,0,0,1,.272-.033l1.359.619-.218.529L70.3,89.63l.184,1.709Z" transform="translate(-46.836 -55.347)"/><g transform="translate(24.14 31.632)"><path class="m" d="M72.589,93.739h0a.189.189,0,0,1-.179-.2l.151-8.305a.187.187,0,0,1,.183-.188h0a.189.189,0,0,1,.179.2l-.151,8.305A.188.188,0,0,1,72.589,93.739Z" transform="translate(-72.406 -85.05)"/></g><g transform="translate(43.537 31.632)"><path class="m" d="M113.809,93.739a.187.187,0,0,1-.183-.188l-.15-8.305a.189.189,0,0,1,.179-.2h0a.187.187,0,0,1,.183.188l.15,8.305a.189.189,0,0,1-.179.2Z" transform="translate(-113.476 -85.05)"/></g><g transform="translate(22.106 15.184)"><path class="o" d="M93.612,61.039c-2.065.158-3.363-2.442-4.71-4.36-3.285-4.676-9.035-6.127-13.82-3.433a6.162,6.162,0,0,0-2.588,2.179c-2.419,1.081-3.777,4.382-4.31,7.556-.622,3.7,2.365,9.436,2.543,6.246A26.656,26.656,0,0,1,72.5,61.706a19.981,19.981,0,0,0,.954-2.838c.285,2.394,3.261,4.671,5.127,4.692.2,0,.291-.824.237-1.951a6.749,6.749,0,0,0,1.953,2.256,10.483,10.483,0,0,0,4,1.654,1.88,1.88,0,0,1-.876-1.487,6.3,6.3,0,0,1-.047-.992A7.291,7.291,0,0,0,87.8,64.633a4.713,4.713,0,0,0,.494-.01,14.1,14.1,0,0,1,1.067,4.9c.177,3.19,2.438-2.138,1.817-5.842,0-.027-.01-.055-.015-.083A8.41,8.41,0,0,0,93.612,61.039ZM73.763,57.165l.014-.134.047.016C73.8,57.086,73.783,57.125,73.763,57.165Z" transform="translate(-68.099 -51.899)"/></g><g transform="translate(28.952 46.299)"><path class="m" d="M87.814,117.664c-1.864,0-4.993-2.508-5.131-2.62a.249.249,0,0,1-.042-.337.221.221,0,0,1,.321-.044c.034.027,3.391,2.717,5.026,2.51,1.671-.209,4.353-2.283,4.38-2.3a.222.222,0,0,1,.32.051.248.248,0,0,1-.048.336c-.114.088-2.806,2.171-4.6,2.395A1.791,1.791,0,0,1,87.814,117.664Z" transform="translate(-82.594 -114.612)"/></g><g transform="translate(16.458 13.447)"><path class="m" d="M56.141,48.4h.914V59.923h-.914Z" transform="translate(-56.141 -48.397)"/></g><g transform="translate(14.392 22.685)"><path class="p" d="M56.541,69.477a1.931,1.931,0,0,0-3.809.546,2.1,2.1,0,0,0,.2.891h-.016l1.734,3.691,1.606-3.42A2.115,2.115,0,0,0,56.541,69.477Z" transform="translate(-52.277 -67.505)"/><path class="m" d="M54.145,74.6h0a.456.456,0,0,1-.41-.267L52,70.639a.461.461,0,0,1-.039-.127,2.583,2.583,0,0,1,.731-2.965,2.313,2.313,0,0,1,2.09-.448,2.444,2.444,0,0,1,1.693,1.767h0a2.611,2.611,0,0,1-.347,2.1l-1.572,3.358A.464.464,0,0,1,54.145,74.6Zm-1.272-4.271,1.272,2.706,1.2-2.547a1.7,1.7,0,0,0,.249-1.373,1.516,1.516,0,0,0-1.034-1.081,1.425,1.425,0,0,0-1.3.275,1.577,1.577,0,0,0-.572,1.229,1.6,1.6,0,0,0,.156.679A.485.485,0,0,1,52.873,70.326Z" transform="translate(-51.768 -67.017)"/></g><g transform="translate(23.772 13.133)"><path class="q" d="M82.2,58.651c-5.678,0-9.207-1.235-9.572-2.127l-.028-.069V48.732H91.8v7.746l-.028.045C91.4,57.416,87.875,58.651,82.2,58.651Z" transform="translate(-72.139 -48.252)"/><path class="m" d="M90.829,48.725v7.139c-.369.663-3.688,1.819-9.143,1.819s-8.778-1.158-9.143-1.819V48.725H90.829m.914-.96H71.628v8.462h.066c.556,1.359,4.816,2.418,9.992,2.418s9.436-1.058,9.992-2.418h.066V47.764Z" transform="translate(-71.628 -47.764)"/></g><g transform="translate(14.927 7.398)"><path class="r" d="M56.106,43.058l17.539-5.837,17.537,5.835L73.645,48.894Z" transform="translate(-54.592 -36.717)"/><path class="m" d="M71.952,37.213l16.024,5.333L71.951,47.879,55.928,42.547l16.024-5.335m0-1.008L52.9,42.546l19.052,6.339L91,42.544,71.952,36.205Z" transform="translate(-52.9 -36.205)"/></g></g></g></svg>