<svg xmlns="http://www.w3.org/2000/svg" xmlns:xlink="http://www.w3.org/1999/xlink" width="47" height="44" viewBox="0 0 47 44"><defs><style>.a{fill:#fff;stroke:#707070;}.b{clip-path:url(#a);}.c{fill:url(#b);}.d{fill:url(#d);}</style><clipPath id="a"><rect class="a" width="47" height="44"/></clipPath><linearGradient id="b" x1="0.5" x2="0.5" y2="1" gradientUnits="objectBoundingBox"><stop offset="0" stop-color="#6dc7ff"/><stop offset="1" stop-color="#e6abff"/></linearGradient><linearGradient id="d" x1="0.5" y1="-0.01" x2="0.5" y2="1.008" gradientUnits="objectBoundingBox"><stop offset="0" stop-color="#1a6dff"/><stop offset="1" stop-color="#c822ff"/></linearGradient></defs><g class="b"><g transform="translate(1.5 0)"><path class="c" d="M24.75,43.083H15.583A1.833,1.833,0,0,1,13.75,41.25V15.583a1.833,1.833,0,0,1,1.833-1.833H24.75a1.833,1.833,0,0,1,1.833,1.833V41.25A1.833,1.833,0,0,1,24.75,43.083Z" transform="translate(-7.333 -7.333)"/><path class="c" d="M43.083,30.25H33.917a1.833,1.833,0,0,1-1.833-1.833V15.583a1.833,1.833,0,0,1,1.833-1.833h9.167a1.833,1.833,0,0,1,1.833,1.833V28.417A1.833,1.833,0,0,1,43.083,30.25Z" transform="translate(-7.333 -7.333)"/><path class="d" d="M46.75,51.333H11.917A4.589,4.589,0,0,1,7.333,46.75V11.917a4.589,4.589,0,0,1,4.583-4.583H46.75a4.589,4.589,0,0,1,4.583,4.583V46.75A4.589,4.589,0,0,1,46.75,51.333ZM11.917,9.167a2.753,2.753,0,0,0-2.75,2.75V46.75a2.753,2.753,0,0,0,2.75,2.75H46.75a2.753,2.753,0,0,0,2.75-2.75V11.917a2.753,2.753,0,0,0-2.75-2.75ZM24.75,44H15.583a2.753,2.753,0,0,1-2.75-2.75V15.583a2.753,2.753,0,0,1,2.75-2.75H24.75a2.753,2.753,0,0,1,2.75,2.75V41.25A2.753,2.753,0,0,1,24.75,44ZM15.583,14.667a.918.918,0,0,0-.917.917V41.25a.918.918,0,0,0,.917.917H24.75a.918.918,0,0,0,.917-.917V15.583a.918.918,0,0,0-.917-.917Zm27.5,16.5H33.917a2.753,2.753,0,0,1-2.75-2.75V15.583a2.753,2.753,0,0,1,2.75-2.75h9.167a2.753,2.753,0,0,1,2.75,2.75V28.417A2.753,2.753,0,0,1,43.083,31.167Zm-9.167-16.5a.918.918,0,0,0-.917.917V28.417a.918.918,0,0,0,.917.917h9.167A.918.918,0,0,0,44,28.417V15.583a.918.918,0,0,0-.917-.917Z" transform="translate(-7.333 -7.333)"/></g></g></svg>