<svg xmlns="http://www.w3.org/2000/svg" xmlns:xlink="http://www.w3.org/1999/xlink" width="65" height="61" viewBox="0 0 65 61"><defs><style>.a{fill:#fff;}.b{clip-path:url(#a);}.c{fill:#c7ede6;}.d{fill:#fdfcef;}.e{fill:#472b29;}.f{fill:#be7841;}.g{fill:#f1bc19;}</style><clipPath id="a"><rect class="a" width="65" height="61" transform="translate(776 327)"/></clipPath></defs><g class="b" transform="translate(-776 -327)"><g transform="translate(776 332.239)"><path class="c" d="M73.1,54.479a10.543,10.543,0,0,0,1.311-5.088,10.958,10.958,0,0,0-7.346-10.216s0-.01,0-.016c0-8.184-6.906-14.818-15.424-14.818A15.316,15.316,0,0,0,36.718,35.46a11.414,11.414,0,0,0-3.443-.534,10.867,10.867,0,0,0-10.936,9.351,8.2,8.2,0,0,0-6.691,7.937,8.286,8.286,0,0,0,8.447,8.115c.13,0,.259-.008.386-.016,0,.123-.019.244-.019.368,0,7.989,6.741,14.466,15.057,14.466a15.26,15.26,0,0,0,11.7-5.373,8.954,8.954,0,0,0,6.292,2.55,8.853,8.853,0,0,0,7.834-4.6,8.356,8.356,0,0,0,2.449.366,7.926,7.926,0,0,0,8.079-7.762A7.614,7.614,0,0,0,73.1,54.479Z" transform="translate(-12.71 -24.341)"/><path class="d" d="M111.412,51.021h-4.223a2.592,2.592,0,0,1-3.305-2.646,3.216,3.216,0,0,1,2.978-3.144,3.021,3.021,0,0,1-.04-.385,3.242,3.242,0,0,1,3.305-3.175,3.333,3.333,0,0,1,2.591,1.225,3.671,3.671,0,0,1,7.325.186,3.359,3.359,0,0,1-.137.9,2.593,2.593,0,0,1,1.974-.9,2.529,2.529,0,0,1,2.538,2.156,3.4,3.4,0,0,1,.4-.039,3.243,3.243,0,0,1,3.305,3.175,2.593,2.593,0,0,1-3.305,2.646h-11.2v.706h-2.2Z" transform="translate(-63.67 -33.38)"/><path class="e" d="M115.433,38.25a3.967,3.967,0,0,1,4.04,3.881v.033a2.979,2.979,0,0,1,1.469-.386,2.917,2.917,0,0,1,2.834,2.12c.035,0,.069,0,.1,0a3.575,3.575,0,0,1,3.594,4.267,3.743,3.743,0,0,1-3.738,2.789H112.954a.353.353,0,1,1,0-.706h10.81a2.994,2.994,0,0,0,2.99-2.232,2.86,2.86,0,0,0-2.875-3.413,1.976,1.976,0,0,0-.252.023l-.1.013a.329.329,0,0,1-.046,0,.364.364,0,0,1-.364-.308,2.172,2.172,0,0,0-2.173-1.847,2.228,2.228,0,0,0-1.69.776.375.375,0,0,1-.284.128.369.369,0,0,1-.167-.04.348.348,0,0,1-.187-.4,2.718,2.718,0,0,0,.108-1.093,3.326,3.326,0,0,0-3.006-2.885,3.254,3.254,0,0,0-3.569,3,.355.355,0,0,1-.256.318.379.379,0,0,1-.112.017.372.372,0,0,1-.288-.135,2.963,2.963,0,0,0-2.3-1.09,2.885,2.885,0,0,0-2.938,2.823,1.756,1.756,0,0,0,.023.242l.014.1a.344.344,0,0,1-.078.263.371.371,0,0,1-.25.131,2.826,2.826,0,0,0-2.574,3.433,3,3,0,0,0,2.991,2.183h4.372a.353.353,0,1,1,0,.706h-4.361a3.73,3.73,0,0,1-3.757-2.92,3.522,3.522,0,0,1,2.887-4.05c0-.028,0-.057,0-.086a3.607,3.607,0,0,1,3.672-3.528,3.712,3.712,0,0,1,2.338.821,4,4,0,0,1,3.905-2.938Z" transform="translate(-62.917 -32.605)"/><path class="e" d="M121.481,50.855a2.192,2.192,0,0,1,2.14,1.652,1.774,1.774,0,0,1,.89-.241,1.724,1.724,0,0,1,1.728,1.459,2.053,2.053,0,0,1,.43-.048,2.125,2.125,0,0,1,2.143,1.928.179.179,0,0,1-.17.188h-.013a.181.181,0,0,1-.183-.164,1.763,1.763,0,0,0-1.777-1.6,1.851,1.851,0,0,0-.542.09.169.169,0,0,1-.049.007.2.2,0,0,1-.115-.038.184.184,0,0,1-.075-.147,1.352,1.352,0,0,0-1.377-1.323,1.4,1.4,0,0,0-.9.334.19.19,0,0,1-.121.044.184.184,0,0,1-.182-.163,1.813,1.813,0,0,0-1.821-1.627,1.878,1.878,0,0,0-.5.076.185.185,0,0,1-.227-.121.175.175,0,0,1,.126-.218,2.275,2.275,0,0,1,.6-.087Zm-10.2,1.058a2.2,2.2,0,0,1,2.111,1.54.175.175,0,0,1-.126.218.178.178,0,0,1-.05.007.182.182,0,0,1-.176-.128,1.829,1.829,0,0,0-1.758-1.283,1.954,1.954,0,0,0-.251.02l-.026,0a.182.182,0,0,1-.181-.153.177.177,0,0,1,.157-.2,2.2,2.2,0,0,1,.3-.025Z" transform="translate(-67.68 -40.094)"/><path class="a" d="M16.336,83.505H9.06a.353.353,0,1,1,0-.706h7.275a.353.353,0,1,1,0,.706Zm2.273,0h-.734a.353.353,0,1,1,0-.706h.734a.353.353,0,1,1,0,.706Zm3.666,1.411h-6.6a.353.353,0,1,1,0-.706h6.6a.353.353,0,1,1,0,.706Zm-8.073,0h-.734a.353.353,0,1,1,0-.706H14.2a.353.353,0,1,1,0,.706Zm-2.2,0H10.529a.353.353,0,1,1,0-.706H12a.353.353,0,1,1,0,.706Zm4.407,1.411H14.936a.353.353,0,1,1,0-.706h1.469a.353.353,0,1,1,0,.706Zm2.2-6.351h-.734a.353.353,0,1,0,0,.706h.734a.353.353,0,1,0,0-.706Zm0,1.411H14.936a.353.353,0,1,0,0,.706h3.672a.353.353,0,1,0,0-.706ZM22.281,82.8h-2.2a.353.353,0,1,0,0,.706h2.2a.353.353,0,1,0,0-.706Zm43.7,11.29H58.638a.353.353,0,1,1,0-.706h7.345a.353.353,0,1,1,0,.706Zm2.938,0H67.452a.353.353,0,1,1,0-.706h1.469a.353.353,0,1,1,0,.706ZM72.593,95.5H65.249a.353.353,0,1,1,0-.706h7.345a.353.353,0,1,1,0,.706Zm-8.814,0h-.734a.353.353,0,1,1,0-.706h.734a.353.353,0,1,1,0,.706Zm-2.3,0H60.107a.353.353,0,1,1,0-.706h1.377a.353.353,0,1,1,0,.706Zm6.7-2.823H64.514a.353.353,0,1,1,0-.706h3.672a.353.353,0,1,1,0,.706Zm-2.2,4.234H64.514a.353.353,0,1,1,0-.706h1.469a.353.353,0,1,1,0,.706Z" transform="translate(-8.693 -57.397)"/><g transform="translate(27.176 10.585)"><path class="e" d="M79.085,51.408a4.578,4.578,0,0,1,4.661,4.478v.358a4.578,4.578,0,0,1-4.661,4.478h-.373a4.578,4.578,0,0,1-4.661-4.478v-.358a4.578,4.578,0,0,1,4.661-4.478h.373m0-.988h-.373a5.6,5.6,0,0,0-5.689,5.466v.358a5.6,5.6,0,0,0,5.689,5.466h.373a5.6,5.6,0,0,0,5.689-5.466v-.358a5.6,5.6,0,0,0-5.689-5.466Z" transform="translate(-73.023 -50.42)"/></g><g transform="translate(15.424 14.818)"><path class="f" d="M48.845,87.9a2.38,2.38,0,0,1-2.424-2.329V64.4a2.38,2.38,0,0,1,2.424-2.329H78.225A2.38,2.38,0,0,1,80.649,64.4V85.567A2.38,2.38,0,0,1,78.225,87.9Z" transform="translate(-45.907 -61.575)"/><path class="e" d="M77.522,61.84a1.875,1.875,0,0,1,1.91,1.835V84.844a1.875,1.875,0,0,1-1.91,1.835H48.142a1.875,1.875,0,0,1-1.91-1.835V63.675a1.875,1.875,0,0,1,1.91-1.835H77.522m0-.988H48.142A2.882,2.882,0,0,0,45.2,63.675V84.844a2.882,2.882,0,0,0,2.938,2.823H77.522a2.882,2.882,0,0,0,2.938-2.823V63.675a2.882,2.882,0,0,0-2.938-2.823Z" transform="translate(-45.205 -60.852)"/></g><g transform="translate(15.424 14.818)"><path class="f" d="M52.255,74.489a5.729,5.729,0,0,1-5.833-5.6V64.4a2.38,2.38,0,0,1,2.424-2.329H78.225A2.38,2.38,0,0,1,80.649,64.4v4.486a5.728,5.728,0,0,1-5.833,5.6H52.255Z" transform="translate(-45.907 -61.575)"/><path class="e" d="M77.522,61.84a1.875,1.875,0,0,1,1.91,1.835v4.486a5.224,5.224,0,0,1-5.319,5.11H51.552a5.224,5.224,0,0,1-5.319-5.11V63.675a1.875,1.875,0,0,1,1.91-1.835H77.522m0-.988H48.142A2.882,2.882,0,0,0,45.2,63.675v4.486a6.226,6.226,0,0,0,6.347,6.1h22.56a6.226,6.226,0,0,0,6.347-6.1V63.675a2.882,2.882,0,0,0-2.938-2.823Z" transform="translate(-45.205 -60.852)"/></g><g transform="translate(22.035 24.697)"><path class="g" d="M63.1,91.068a1.008,1.008,0,0,1-1.027-.986V87.4a1.008,1.008,0,0,1,1.027-.986h1.325a1.008,1.008,0,0,1,1.027.986v2.684a1.008,1.008,0,0,1-1.027.986Z" transform="translate(-61.555 -85.917)"/><path class="e" d="M63.718,86.181a.5.5,0,0,1,.513.493v2.684a.5.5,0,0,1-.513.493H62.393a.5.5,0,0,1-.513-.493V86.674a.5.5,0,0,1,.513-.493h1.325m0-.988H62.393a1.511,1.511,0,0,0-1.541,1.48v2.684a1.511,1.511,0,0,0,1.541,1.48h1.325a1.511,1.511,0,0,0,1.541-1.48V86.674a1.511,1.511,0,0,0-1.541-1.48Z" transform="translate(-60.852 -85.193)"/></g><g transform="translate(39.662 24.697)"><path class="g" d="M104.823,91.068a1.008,1.008,0,0,1-1.027-.986V87.4a1.008,1.008,0,0,1,1.027-.986h1.325a1.008,1.008,0,0,1,1.027.986v2.684a1.008,1.008,0,0,1-1.027.986Z" transform="translate(-103.282 -85.917)"/><path class="e" d="M105.446,86.181a.5.5,0,0,1,.513.493v2.684a.5.5,0,0,1-.513.493H104.12a.5.5,0,0,1-.513-.493V86.674a.5.5,0,0,1,.513-.493h1.325m0-.988H104.12a1.511,1.511,0,0,0-1.541,1.48v2.684a1.511,1.511,0,0,0,1.541,1.48h1.325a1.511,1.511,0,0,0,1.541-1.48V86.674a1.511,1.511,0,0,0-1.541-1.48Z" transform="translate(-102.58 -85.193)"/></g><g transform="translate(41.498 17.597)"><path class="e" d="M109.5,68.4h-2.2a.353.353,0,1,1,0-.706h2.2a.353.353,0,1,1,0,.706Z" transform="translate(-106.926 -67.699)"/></g><g transform="translate(18.339 17.597)"><path class="e" d="M73.385,68.4H52.472a.353.353,0,1,1,0-.706H73.385a.353.353,0,1,1,0,.706Z" transform="translate(-52.105 -67.699)"/></g><g transform="translate(18.362 17.575)"><path class="e" d="M52.526,72.649a.36.36,0,0,1-.367-.353V68a.368.368,0,0,1,.734,0v4.3A.36.36,0,0,1,52.526,72.649Z" transform="translate(-52.159 -67.643)"/></g><g transform="translate(18.362 33.165)"><path class="e" d="M52.526,112.76a.36.36,0,0,1-.367-.353v-6a.368.368,0,0,1,.734,0v6A.36.36,0,0,1,52.526,112.76Z" transform="translate(-52.159 -106.057)"/></g><g transform="translate(18.362 29.858)"><path class="e" d="M52.526,100.466a.36.36,0,0,1-.367-.353V98.261a.368.368,0,0,1,.734,0v1.852A.36.36,0,0,1,52.526,100.466Z" transform="translate(-52.159 -97.908)"/></g><g transform="translate(45.86 17.597)"><path class="e" d="M119.086,68.4h-1.469a.353.353,0,1,1,0-.706h1.469a.353.353,0,1,1,0,.706Z" transform="translate(-117.25 -67.699)"/></g><g transform="translate(5.692 35.282)"><path class="d" d="M28.178,121.315H25.608a2.46,2.46,0,0,1-.327-4.908,2.372,2.372,0,0,1-.04-.385,2.522,2.522,0,0,1,2.571-2.47,2.6,2.6,0,0,1,1.9.822,2.912,2.912,0,0,1,2.872-2.233,2.882,2.882,0,0,1,2.938,2.823,2.682,2.682,0,0,1-.041.394,1.864,1.864,0,0,1,1.143-.394,1.814,1.814,0,0,1,1.8,1.45,2.668,2.668,0,0,1,.4-.039,2.472,2.472,0,1,1,0,4.939H33.32v.353H28.178Z" transform="translate(-22.67 -111.789)"/><path class="e" d="M28.754,124.371a.18.18,0,0,0,.184-.176,1.6,1.6,0,0,0-1.629-1.565,4.827,4.827,0,0,0-.914.1.176.176,0,0,0-.129.216.183.183,0,0,0,.225.124,3.847,3.847,0,0,1,.817-.083,1.24,1.24,0,0,1,1.263,1.212A.18.18,0,0,0,28.754,124.371Zm4.958,2.823a.353.353,0,1,0,.367.353A.36.36,0,0,0,33.712,127.194Z" transform="translate(-24.531 -118.02)"/><path class="e" d="M25.106,121.152h2.571a.353.353,0,1,0,0-.706H25.106a2.108,2.108,0,0,1-.281-4.2.372.372,0,0,0,.247-.138.342.342,0,0,0,.069-.266,2.135,2.135,0,0,1-.035-.33,2.164,2.164,0,0,1,2.2-2.117,2.212,2.212,0,0,1,1.63.706.375.375,0,0,0,.367.1.359.359,0,0,0,.264-.267,2.559,2.559,0,0,1,2.513-1.954,2.525,2.525,0,0,1,2.571,2.47,1.96,1.96,0,0,1-.03.295.381.381,0,0,0,.178.381.372.372,0,0,0,.408-.007,1.484,1.484,0,0,1,.913-.316,1.449,1.449,0,0,1,1.442,1.16.364.364,0,0,0,.418.286,2.3,2.3,0,0,1,.344-.035,2.119,2.119,0,1,1,0,4.234H32.818a.353.353,0,1,0,0,.706h5.509a2.825,2.825,0,1,0,0-5.645c-.043,0-.085,0-.128,0a2.231,2.231,0,0,0-2.818-1.288,3.258,3.258,0,0,0-3.3-2.95,3.326,3.326,0,0,0-3.05,1.957,3,3,0,0,0-1.724-.546,2.885,2.885,0,0,0-2.938,2.823c0,.034,0,.067,0,.1a2.845,2.845,0,0,0-2.206,2.722A2.885,2.885,0,0,0,25.106,121.152Z" transform="translate(-22.168 -111.273)"/><path class="e" d="M38.183,133.875h.734a.353.353,0,1,1,0,.706h-.734a.353.353,0,1,1,0-.706Z" transform="translate(-31.205 -124.702)"/></g></g></g></svg>