<svg xmlns="http://www.w3.org/2000/svg" xmlns:xlink="http://www.w3.org/1999/xlink" width="369" height="349" viewBox="0 0 369 349"><defs><style>.a,.c{fill:#fff;}.a{stroke:#707070;}.b{clip-path:url(#a);}.d{fill:#b5e0d9;}.e{fill:#e1e1e1;}.f{fill:#feca78;}.g{fill:#e5b165;}.h{fill:#e6f0f4;}.i{fill:#bacbd1;}.j{fill:#fc7f69;}.k{fill:#e56655;}.l{fill:#324449;}.m{fill:#eabeb7;}.n{fill:#facede;}.o{fill:#425960;}.p{fill:#fad3ca;}.q{fill:#f2f2f2;opacity:0.2;}.r{fill:#465a61;}.s{fill:#84a2ad;}.t{fill:none;stroke:#fff;stroke-linecap:round;stroke-linejoin:round;stroke-width:1.686px;}.u{fill:#0cbc9f;}</style><clipPath id="a"><rect class="a" width="369" height="349" transform="translate(846 189)"/></clipPath></defs><g class="b" transform="translate(-846 -189)"><g transform="translate(872.769 189)"><rect class="c" width="315" height="349" transform="translate(0.231)"/><g transform="translate(18.704 70.319)"><path class="d" d="M209.653,78.839h-2.366a6.382,6.382,0,0,0,.126-1.209,5.559,5.559,0,0,0-2.911-5.042,4.587,4.587,0,0,0-5.34.9h0a6.4,6.4,0,0,0-8.278-3.306,7.616,7.616,0,0,0-4.08,8.639h-2.523A2.416,2.416,0,0,0,182,81.348h0a2.416,2.416,0,0,0,2.284,2.53h25.372a2.417,2.417,0,0,0,2.284-2.53h0a2.414,2.414,0,0,0-2.284-2.509Z" transform="translate(11.122 -50.138)"/><path class="d" d="M49.725,135.317H46.817a7.521,7.521,0,0,0,.151-1.475,6.754,6.754,0,0,0-3.556-6.1,5.579,5.579,0,0,0-6.481,1.1h0a7.848,7.848,0,0,0-9.142-4.365,8.9,8.9,0,0,0-6.1,8.713,9.568,9.568,0,0,0,.227,2.1H18.846a2.937,2.937,0,0,0-2.776,3.076h0a2.937,2.937,0,0,0,2.776,3.076H49.725a2.937,2.937,0,0,0,2.776-3.076h0A2.933,2.933,0,0,0,49.725,135.317Z" transform="translate(-16.07 -34.347)"/><path class="d" d="M228.188,156.711h2.877a7.06,7.06,0,0,1-.158-1.475,6.76,6.76,0,0,1,3.561-6.1,5.585,5.585,0,0,1,6.482,1.1h0a7.784,7.784,0,0,1,10.068-4.039c3.8,1.637,5.912,6.133,4.952,10.519h3.066a2.937,2.937,0,0,1,2.776,3.076h0a2.937,2.937,0,0,1-2.776,3.076H228.188a2.937,2.937,0,0,1-2.776-3.076h0a2.937,2.937,0,0,1,2.776-3.076Z" transform="translate(18.237 -28.151)"/><path class="d" d="M61.557,63.367h2.29a5.956,5.956,0,0,1-.12-1.174,5.377,5.377,0,0,1,2.83-4.855,4.441,4.441,0,0,1,5.156.871h0A6.249,6.249,0,0,1,79,54.757,7.091,7.091,0,0,1,83.85,61.7a7.71,7.71,0,0,1-.183,1.678h2.492a2.336,2.336,0,0,1,2.208,2.447h0a2.336,2.336,0,0,1-2.208,2.447h-24.6a2.336,2.336,0,0,1-2.208-2.446h0a2.589,2.589,0,0,1,.642-1.739,2.105,2.105,0,0,1,1.566-.721Z" transform="translate(-8.978 -54.525)"/><ellipse class="e" cx="133.192" cy="12.862" rx="133.192" ry="12.862" transform="translate(7.646 181.418)"/><rect class="f" width="121.604" height="175.98" rx="14.07" transform="translate(80.033 14.231)"/><path class="g" d="M194.088,83.713V223.393c0,10.037-7.343,18.174-16.4,18.174H160.194c9.058,0,16.4-8.137,16.4-18.174V83.713c0-10.037-7.343-18.174-16.4-18.174h17.512c9.051.012,16.383,8.145,16.383,18.174Z" transform="translate(7.549 -51.335)"/><rect class="c" width="104.565" height="158.519" rx="10.022" transform="translate(88.549 22.962)"/><path class="h" d="M185.418,85.254V217.917c0,7.141-5.226,12.928-11.67,12.924H161.131c6.441,0,11.661-5.788,11.658-12.924V85.254c0-7.137-5.217-12.924-11.658-12.924h12.616C180.192,72.326,185.418,78.114,185.418,85.254Z" transform="translate(7.702 -49.368)"/><path class="i" d="M109.627,86.51c4.164,0,7.542,3.734,7.545,8.348s-3.372,8.356-7.536,8.358-7.54-3.739-7.54-8.353c.017-4.6,3.378-8.33,7.532-8.353m0-1.866h0c-5.092,0-9.22,4.576-9.216,10.219h0c0,5.641,4.125,10.215,9.216,10.219h0c5.094,0,9.223-4.575,9.223-10.219h0a10.8,10.8,0,0,0-2.7-7.228A8.785,8.785,0,0,0,109.627,84.644Z" transform="translate(-2.248 -45.801)"/><path class="i" d="M181.308,86.86H123.853a1.061,1.061,0,0,1-1-1.111h0a1.061,1.061,0,0,1,1-1.1h57.455a1.061,1.061,0,0,1,1,1.1h0A1.061,1.061,0,0,1,181.308,86.86Z" transform="translate(1.429 -45.801)"/><path class="i" d="M181.308,93.922H123.853a1.061,1.061,0,0,1-1-1.1h0a1.061,1.061,0,0,1,1-1.111h57.455a1.061,1.061,0,0,1,1,1.111h0a1.061,1.061,0,0,1-1,1.1Z" transform="translate(1.429 -43.755)"/><path class="i" d="M149.559,100.991H123.853a1.061,1.061,0,0,1-1-1.111h0a1.061,1.061,0,0,1,1-1.111h25.706a1.061,1.061,0,0,1,1,1.111h0A1.061,1.061,0,0,1,149.559,100.991Z" transform="translate(1.429 -41.71)"/><path class="i" d="M109.627,113.99c4.16,0,7.536,3.727,7.545,8.337s-3.355,8.355-7.515,8.369-7.544-3.708-7.561-8.318c0-4.616,3.366-8.365,7.532-8.388m0-1.866h0c-5.092,0-9.22,4.577-9.216,10.219h0c0,5.64,4.126,10.212,9.216,10.212h0c5.092,0,9.223-4.57,9.223-10.212h0a10.8,10.8,0,0,0-2.7-7.228A8.785,8.785,0,0,0,109.627,112.124Z" transform="translate(-2.248 -37.841)"/><path class="i" d="M181.308,114.318H123.853a1.061,1.061,0,0,1-1-1.111h0a1.061,1.061,0,0,1,1-1.1h57.455a1.061,1.061,0,0,1,1,1.1h0A1.061,1.061,0,0,1,181.308,114.318Z" transform="translate(1.429 -37.847)"/><path class="i" d="M181.308,121.4H123.853a1.061,1.061,0,0,1-1-1.1h0a1.061,1.061,0,0,1,1-1.111h57.455a1.061,1.061,0,0,1,1,1.111h0a1.061,1.061,0,0,1-1,1.1Z" transform="translate(1.429 -35.796)"/><path class="i" d="M149.559,128.464H123.853a1.061,1.061,0,0,1-1-1.1h0a1.061,1.061,0,0,1,1-1.111h25.706a1.061,1.061,0,0,1,1,1.111h0A1.061,1.061,0,0,1,149.559,128.464Z" transform="translate(1.429 -33.75)"/><path class="i" d="M181.308,141.819H123.853a1.061,1.061,0,0,1-1-1.111h0a1.061,1.061,0,0,1,1-1.1h57.455a1.061,1.061,0,0,1,1,1.1h0A1.061,1.061,0,0,1,181.308,141.819Z" transform="translate(1.429 -29.881)"/><path class="i" d="M181.308,148.881H123.853a1.061,1.061,0,0,1-1-1.1h0a1.061,1.061,0,0,1,1-1.111h57.455a1.061,1.061,0,0,1,1,1.111h0a1.061,1.061,0,0,1-1,1.1Z" transform="translate(1.429 -27.836)"/><path class="i" d="M149.559,155.943H123.853a1.061,1.061,0,0,1-1-1.1h0a1.061,1.061,0,0,1,1-1.111h25.706a1.061,1.061,0,0,1,1,1.111h0A1.061,1.061,0,0,1,149.559,155.943Z" transform="translate(1.429 -25.79)"/><path class="i" d="M181.308,169.3H123.853a1.061,1.061,0,0,1-1-1.111h0a1.061,1.061,0,0,1,1-1.1h57.455a1.061,1.061,0,0,1,1,1.1h0a1.061,1.061,0,0,1-1,1.111Z" transform="translate(1.429 -21.922)"/><path class="i" d="M181.308,176.36H123.853a1.061,1.061,0,0,1-1-1.111h0a1.061,1.061,0,0,1,1-1.1h57.455a1.061,1.061,0,0,1,1,1.1h0A1.061,1.061,0,0,1,181.308,176.36Z" transform="translate(1.429 -19.876)"/><path class="i" d="M149.559,183.423H123.853a1.061,1.061,0,0,1-1-1.1h0a1.061,1.061,0,0,1,1-1.111h25.706a1.061,1.061,0,0,1,1,1.111h0a1.061,1.061,0,0,1-1,1.1Z" transform="translate(1.429 -17.83)"/><path class="j" d="M109.627,160.035h0c-5.09,0-9.216-4.572-9.216-10.212h0c0-5.643,4.124-10.219,9.216-10.219h0a8.785,8.785,0,0,1,6.523,2.991,10.8,10.8,0,0,1,2.7,7.228h0C118.85,155.465,114.72,160.039,109.627,160.035Z" transform="translate(-2.248 -29.881)"/><path class="c" d="M106.588,154.042a.927.927,0,0,1-.725-.363l-3.526-4.467a1.144,1.144,0,0,1,.091-1.5.9.9,0,0,1,1.353.1l2.933,3.712,8.346-7.179a.893.893,0,0,1,.71-.217.943.943,0,0,1,.64.406,1.157,1.157,0,0,1-.17,1.5l-9.065,7.794a.9.9,0,0,1-.587.217Z" transform="translate(-1.972 -28.572)"/><path class="j" d="M109.627,187.514h0c-5.092,0-9.22-4.577-9.216-10.219h0c0-5.64,4.126-10.212,9.216-10.212h0c5.092,0,9.223,4.57,9.223,10.212h0a10.8,10.8,0,0,1-2.7,7.228,8.785,8.785,0,0,1-6.523,2.991Z" transform="translate(-2.248 -21.922)"/><path class="c" d="M106.588,181.522a.928.928,0,0,1-.725-.363l-3.526-4.467a1.144,1.144,0,0,1,.091-1.5.9.9,0,0,1,1.353.1l2.933,3.712,8.346-7.179a.893.893,0,0,1,.71-.217.943.943,0,0,1,.64.406,1.157,1.157,0,0,1-.17,1.5l-9.065,7.794A.9.9,0,0,1,106.588,181.522Z" transform="translate(-1.972 -20.613)"/><path class="j" d="M166.334,69.2a1.212,1.212,0,0,0-.032-.336c-.032-.224-.069-.447-.114-.657a2.525,2.525,0,0,0-.082-.322h0a6.528,6.528,0,0,0-.675-1.566,5.809,5.809,0,0,0-1.053-1.279c-.132-.119-.271-.231-.41-.343a5.012,5.012,0,0,0-3.022-1.021H120.435c-2.987,0-5.406,2.688-5.406,6v3.684a5.34,5.34,0,0,0,5.047,5.592H161.35a4.81,4.81,0,0,0,3.552-1.629,5.037,5.037,0,0,0,.631-.825A5.577,5.577,0,0,0,166,75.55c.063-.168.12-.336.17-.51a6.154,6.154,0,0,0,.221-1.657V69.63A1.552,1.552,0,0,1,166.334,69.2Zm-45.142,4.439a2.135,2.135,0,0,1-1.969-1.451,2.545,2.545,0,0,1,.46-2.57A1.977,1.977,0,0,1,122,69.1a2.372,2.372,0,0,1,1.309,2.182,2.243,2.243,0,0,1-2.12,2.349Zm39.982-.28a1.964,1.964,0,0,1-2.41-.29,2.527,2.527,0,0,1-.6-2.6,2.146,2.146,0,0,1,1.992-1.531,1.917,1.917,0,0,1,1,.28,2.483,2.483,0,0,1,0,4.145Z" transform="translate(0.147 -51.875)"/><path class="j" d="M148.51,56.606H129.724a5.474,5.474,0,0,0-5.173,5.732v3.369H153.7V62.338a6.06,6.06,0,0,0-1.52-4.058A4.929,4.929,0,0,0,148.51,56.606Zm-4.416,6.633a1.636,1.636,0,0,1-1.217.559H135.4a1.937,1.937,0,0,1,0-3.824h7.463a1.738,1.738,0,0,1,1.588,1.184,2.069,2.069,0,0,1-.371,2.081Z" transform="translate(1.708 -53.923)"/><path class="k" d="M160.613,69.637v3.684a5.945,5.945,0,0,1-.227,1.657c-.05.175-.107.343-.17.51a4.93,4.93,0,0,1-.467.944,5.036,5.036,0,0,1-.631.825,4.81,4.81,0,0,1-3.552,1.629h-5.16a5.335,5.335,0,0,0,5.047-5.55,2.483,2.483,0,0,0,0-4.145,5.673,5.673,0,0,0-5.4-5.543h5.141a5.079,5.079,0,0,1,3.021,1.013h0c.139.112.278.224.41.343a5.808,5.808,0,0,1,1.053,1.279,5.961,5.961,0,0,1,.675,1.566h0a5.991,5.991,0,0,1,.227,1.314A4.2,4.2,0,0,1,160.613,69.637Z" transform="translate(5.887 -51.883)"/><path class="k" d="M150.831,62.338v3.369H147.2V62.338a5.474,5.474,0,0,0-5.173-5.732h3.627a5.474,5.474,0,0,1,5.173,5.732Z" transform="translate(4.572 -53.923)"/><path class="l" d="M155.4,140.092a6.581,6.581,0,0,1,6.151,2.265c3.526,4.117,2.12,11.345,5.4,15.7,3.015,4.005,8.592,3.907,12.616,6.64a10.955,10.955,0,0,1,4.624,9.9c-.423,3.893-3.558,7.36-7.1,7.326,1.892.5,2.94,3.159,2.334,5.242a6.164,6.164,0,0,1-4.353,4.033,13.6,13.6,0,0,1-5.886-.077,66.583,66.583,0,0,1-9.33-2.342c-3.9-1.279-7.98-3.166-10.062-7.032a15.551,15.551,0,0,1-1.117-10.052,56.853,56.853,0,0,1,3.154-9.744,31.052,31.052,0,0,0,2.385-9.961c.05-1.678-.233-3.572-1.464-4.564-1.646-1.321-3.369-1.692-1.817-4.11a7.048,7.048,0,0,1,4.46-3.222Z" transform="translate(5.607 -29.769)"/><path class="l" d="M139.081,193.722H160.39v.287c0,5.756-4.211,10.422-9.406,10.422h-2.523c-5.195,0-9.406-4.666-9.406-10.422v-.287Z" transform="translate(4.085 -14.205)"/><path class="m" d="M152.945,198.4l5.23,1.6s.852,5.2-2.082,6.326l-4.75-1.713A51.932,51.932,0,0,0,152.945,198.4Z" transform="translate(6.098 -12.85)"/><path class="k" d="M157.5,199.64a22.129,22.129,0,0,1,5.545,1.265,2.759,2.759,0,0,1,1.583,1.936q1.131,4.626,1.81,9.367a3.052,3.052,0,0,1-.878,2.555,2.412,2.412,0,0,1-2.409.591h0a2.587,2.587,0,0,1-1.5-1.314c-1-1.908-3.57-6.41-6.207-8.059C155.419,205.966,158.378,204.638,157.5,199.64Z" transform="translate(6.771 -12.491)"/><path class="l" d="M155.926,210.444l-27.567-9.534a6.061,6.061,0,0,1-3.507-7.409h0a5.265,5.265,0,0,1,6.687-3.886l27.573,9.534.164,1.167a11.806,11.806,0,0,1-3.35,10.128Z" transform="translate(1.717 -15.473)"/><path class="n" d="M144.133,198.4,138.9,200s-.858,5.2,2.082,6.326l4.744-1.713A51.005,51.005,0,0,1,144.133,198.4Z" transform="translate(4.041 -12.85)"/><path class="j" d="M140.149,199.64a22.072,22.072,0,0,0-5.545,1.265,2.759,2.759,0,0,0-1.583,1.936,94,94,0,0,0-1.81,9.367,3.045,3.045,0,0,0,.873,2.555,2.406,2.406,0,0,0,2.407.59h.038a2.588,2.588,0,0,0,1.489-1.314c1.009-1.908,3.57-6.41,6.214-8.059C142.231,205.966,139.273,204.638,140.149,199.64Z" transform="translate(2.795 -12.491)"/><path class="o" d="M145.067,210.445l27.573-9.534a5.5,5.5,0,0,0,3.138-2.9,6.485,6.485,0,0,0,.363-4.51h0a5.259,5.259,0,0,0-6.687-3.886l-27.567,9.534-.164,1.167a11.784,11.784,0,0,0,3.343,10.128Z" transform="translate(4.502 -15.473)"/><path class="p" d="M153.955,168.145a59.473,59.473,0,0,1,17.436,19.348,3.374,3.374,0,0,1-.233,3.628c-.038.056-.082.1-.126.161a2.63,2.63,0,0,1-2.168.963,2.7,2.7,0,0,1-2.059-1.221c-1.817-2.628-5.2-7.095-8.832-9.786Z" transform="translate(6.526 -21.614)"/><path class="p" d="M170.863,188.579a55.263,55.263,0,0,1-12.692,6.1,9.582,9.582,0,0,1-3.394,2.1,2.779,2.779,0,0,1-3.25-1.484,3.465,3.465,0,0,1,.449-3.863,7.012,7.012,0,0,1,4.567-2.1s6.8-3.173,11.563-6.081a2.658,2.658,0,0,1,3.684.839l.032.049a3.441,3.441,0,0,1,.378,2.447,3.143,3.143,0,0,1-1.337,1.992Z" transform="translate(6.064 -17.359)"/><path class="p" d="M145.022,168.145a59.473,59.473,0,0,0-17.436,19.348,3.374,3.374,0,0,0,.233,3.628c.038.056.082.1.126.161a2.631,2.631,0,0,0,2.168.963,2.7,2.7,0,0,0,2.059-1.221c1.817-2.628,5.2-7.095,8.832-9.786Z" transform="translate(2.136 -21.614)"/><path class="p" d="M128.573,188.579a55.258,55.258,0,0,0,12.7,6.1,9.582,9.582,0,0,0,3.394,2.1,2.779,2.779,0,0,0,3.25-1.484,3.465,3.465,0,0,0-.449-3.863,7.012,7.012,0,0,0-4.567-2.1s-6.8-3.173-11.563-6.081a2.658,2.658,0,0,0-3.684.839v.049a3.438,3.438,0,0,0-.4,2.436A3.153,3.153,0,0,0,128.573,188.579Z" transform="translate(2.14 -17.359)"/><path class="j" d="M146.761,167.337H152.7c4.243,0,7.683,3.812,7.683,8.514V201.4h-21.3V175.851c0-4.7,3.44-8.514,7.683-8.514Z" transform="translate(4.088 -21.848)"/><rect class="f" width="31.882" height="20.012" rx="1.973" transform="translate(137.879 159.539)"/><path class="g" d="M162.806,180.776v14.917a2.691,2.691,0,0,1-.673,1.806,2.188,2.188,0,0,1-1.63.745h-3.936a2.189,2.189,0,0,0,1.626-.748,2.691,2.691,0,0,0,.67-1.8V180.776a2.43,2.43,0,0,0-2.3-2.544H160.5a2.188,2.188,0,0,1,1.628.743A2.69,2.69,0,0,1,162.806,180.776Z" transform="translate(6.954 -18.692)"/><path class="q" d="M164.823,182.052v2.181l-17.587,12.9h-2.971Z" transform="translate(4.938 -17.585)"/><path class="q" d="M152.192,178.231l-17.657,12.959V188.1l13.443-9.87Z" transform="translate(3.344 -18.692)"/><path class="q" d="M165.757,179,139.54,198.244h-2.713a2.383,2.383,0,0,1-2.271-2.251l24.217-17.762h5.337A2.174,2.174,0,0,1,165.757,179Z" transform="translate(3.347 -18.692)"/><path class="p" d="M151.276,162.188v7.619a2.682,2.682,0,1,1-5.337,0v-7.619Z" transform="translate(5.213 -23.339)"/><path class="m" d="M151.276,162.188v5.249a7.287,7.287,0,0,1-2.883.6,7.037,7.037,0,0,1-2.454-.433v-5.417Z" transform="translate(5.213 -23.339)"/><path class="p" d="M149.173,170.6h0c-4.414,0-7.993-3.965-7.993-8.856v-13.5h15.985v13.5c0,4.891-3.578,8.856-7.992,8.856Z" transform="translate(4.433 -27.379)"/><path class="p" d="M157.665,160.641h-2.75v-6.1h2.75a2.911,2.911,0,0,1,2.744,3.048h0a2.911,2.911,0,0,1-2.744,3.048Z" transform="translate(6.684 -25.553)"/><path class="p" d="M139.21,160.641h2.744v-6.1H139.21a2.91,2.91,0,0,0-2.75,3.048h0a2.91,2.91,0,0,0,2.75,3.048Z" transform="translate(3.659 -25.553)"/><path class="l" d="M153.994,150.307s.864,7.1,3.558,7.472h0a3,3,0,0,0,2.275-1,3.691,3.691,0,0,0,.948-2.5v-.1c0-5.976-4.372-10.821-9.765-10.821h-2.422c-5.393,0-9.765,4.845-9.765,10.821h0a2.2,2.2,0,0,0,.653,1.609,1.768,1.768,0,0,0,1.53.488C144.784,155.647,152.278,154,153.994,150.307Z" transform="translate(4.046 -28.793)"/><path class="j" d="M93.226,151.969a1.019,1.019,0,0,0-1.35.664l-4.245,12.274H72.012l4.75-13.735a1.265,1.265,0,0,0-.117-1.2,1,1,0,0,0-1.018-.434,1.092,1.092,0,0,0-.814.8L52.2,215.676a1.268,1.268,0,0,0,.031.9,1.087,1.087,0,0,0,.6.6.916.916,0,0,0,.378.077,1.062,1.062,0,0,0,.978-.741l3.028-8.751H72.832l-2.738,7.92a1.268,1.268,0,0,0,.031.9,1.087,1.087,0,0,0,.6.6.917.917,0,0,0,.378.077,1.055,1.055,0,0,0,.978-.741L93.9,153.465a1.275,1.275,0,0,0-.048-.905A1.086,1.086,0,0,0,93.226,151.969Zm-6.4,15.259-3.816,11.044H67.4l3.785-11.016Zm-8.453,24.423-15.537-.231,3.785-10.855H82.244ZM57.989,205.436l4.05-11.708,15.537.238-3.968,11.471Z" transform="translate(-10.16 -27.01)"/><path class="m" d="M31.9,190.8l1.892-4.893,5.135,2.1-1.892,4.928S34.217,194.553,31.9,190.8Z" transform="translate(-13.476 -16.469)"/><path class="l" d="M32.291,189.7l-2.523,5.34a2.538,2.538,0,0,0,.334,2.691c1.464,1.7,4.239,4.7,6.725,6.116a34.615,34.615,0,0,0,6.573.608,2.316,2.316,0,0,0,1.931-1.185,2.859,2.859,0,0,0,.2-2.436c-.782-2.034-2.662-4.194-7.135-3.754a9.638,9.638,0,0,1-.946-5.243S34.392,193.384,32.291,189.7Z" transform="translate(-13.865 -15.37)"/><path class="l" d="M40.791,197.979,54.164,169.6a6.247,6.247,0,0,0-2.265-7.983h0a5.1,5.1,0,0,0-7.2,2.509l-13.38,28.379.631.958a9.672,9.672,0,0,0,8.832,4.516Z" transform="translate(-13.571 -23.698)"/><path class="l" d="M61.5,143.337a208.96,208.96,0,0,1-8.674,30.357,5.438,5.438,0,0,1-6.441,3.572l-.2-.056a5.682,5.682,0,0,1-3.4-3.1,6.71,6.71,0,0,1-.272-4.866c2.05-6.382,5.576-18.363,5.759-25.863Z" transform="translate(-11.789 -28.8)"/><path class="p" d="M49.284,183.958l2.157-4.746,4.977,2.37L54.331,186.4S51.41,187.845,49.284,183.958Z" transform="translate(-10.627 -18.408)"/><path class="o" d="M58.356,191.291,71.25,162.632a6.232,6.232,0,0,0-2.391-7.941h0a5.113,5.113,0,0,0-7.166,2.656L48.78,186.041l.631.944a9.633,9.633,0,0,0,8.914,4.341Z" transform="translate(-10.71 -25.691)"/><path class="o" d="M40.482,143.337v1.636a12.254,12.254,0,0,0,5.873,10.7L65.28,166.432a4.258,4.258,0,0,0,5.558-1.237l.069-.091a5.422,5.422,0,0,0,1.032-3.849,5.168,5.168,0,0,0-1.833-3.463c-4.491-3.593-13.027-10.38-19.41-14.455Z" transform="translate(-12.07 -28.8)"/><path class="r" d="M49.68,182.892l-2.523,5.089a2.761,2.761,0,0,0,.725,3.376,32.134,32.134,0,0,0,12.863,6.011,2.955,2.955,0,0,0,3.394-2.537v-.126a3.338,3.338,0,0,0-1.792-3.551,21.8,21.8,0,0,1-7.652-5.816S51.945,186.464,49.68,182.892Z" transform="translate(-11.023 -17.342)"/><path class="m" d="M49.44,117a58.31,58.31,0,0,0,18.13,11.478,3.52,3.52,0,0,1,2.208,3.292v.091a3.7,3.7,0,0,1-1.351,2.825,2.966,2.966,0,0,1-2.85.5c-3.507-1.216-10.541-3.977-16.029-8.262a6.27,6.27,0,0,1-2.359-4.7,6.407,6.407,0,0,1,1.924-4.938Z" transform="translate(-10.972 -36.428)"/><path class="m" d="M63.9,128.35c3.1-.755,9.872-2.684,14.559-6.144,0,0,2.385-4.194,6.346-3.761a3.545,3.545,0,0,1,2.98,2.561,4.128,4.128,0,0,1-.9,4.058,6.634,6.634,0,0,1-5.394,1.81s-8.2,6.8-16.5,8.059a2.868,2.868,0,0,1-2.572-.942,3.6,3.6,0,0,1-.878-2.84v-.091A3.217,3.217,0,0,1,63.9,128.35Z" transform="translate(-8.623 -36.019)"/><path class="s" d="M58.609,122.9s-.631,5.8-4.984,8.591L47.482,126.6a5.413,5.413,0,0,1-1.684-5.837c.555-1.747,1.59-3.495,3.507-3.935a4.109,4.109,0,0,1,3.634,1.048Z" transform="translate(-11.241 -36.502)"/><path class="f" d="M60.08,155.381l-18.023-1.153a2.093,2.093,0,0,1-1.829-2.279l1.262-24.094c.352-6.7,5.54-11.818,11.588-11.429h0c6.048.39,10.666,6.139,10.314,12.841L62.13,153.354a2.243,2.243,0,0,1-.644,1.486,1.824,1.824,0,0,1-1.406.541Z" transform="translate(-12.112 -36.601)"/><path class="j" d="M84.3,136.5h0c-5.179-.334-9.133-5.257-8.832-11h0a10.868,10.868,0,0,1,3.131-7.172,8.84,8.84,0,0,1,6.792-2.614h0a9.068,9.068,0,0,1,6.473,3.469,11.116,11.116,0,0,1,2.359,7.526h0a10.868,10.868,0,0,1-3.131,7.172A8.84,8.84,0,0,1,84.3,136.5Z" transform="translate(-6.338 -36.806)"/><path class="t" d="M78.026,124.021l3.35,4.774L91,121.462" transform="translate(-5.917 -35.136)"/><path class="p" d="M50.277,120.156a65.54,65.54,0,0,0,18.54,14.5,3.91,3.91,0,0,1,2.075,3.817.51.51,0,0,1,0,.1,3.921,3.921,0,0,1-1.727,2.9,3.2,3.2,0,0,1-3.13.2c-3.678-1.713-11.027-5.508-16.565-10.772a6.952,6.952,0,0,1-2.117-5.361,6.815,6.815,0,0,1,2.552-5.123A3.8,3.8,0,0,1,50.277,120.156Z" transform="translate(-10.945 -35.514)"/><path class="p" d="M64.942,133.406c3.419-.454,10.926-1.761,16.326-4.977,0,0,2.965-4.229,7.217-3.334a3.98,3.98,0,0,1,2.966,3.116,4.457,4.457,0,0,1-1.319,4.286,7.086,7.086,0,0,1-6.005,1.335s-9.507,6.417-18.6,6.822a3.171,3.171,0,0,1-2.7-1.309,3.962,3.962,0,0,1-.685-3.172s0-.07,0-.1A3.41,3.41,0,0,1,64.942,133.406Z" transform="translate(-8.534 -34.12)"/><path class="f" d="M59.337,128.71a13.281,13.281,0,0,1-4.807,6.934,1.511,1.511,0,0,1-1.937-.2L47.269,130.3a5.934,5.934,0,0,1-1.306-6.452c.763-1.838,2.05-3.649,4.189-3.907a4.578,4.578,0,0,1,3.829,1.552l4.946,5.284A1.972,1.972,0,0,1,59.337,128.71Z" transform="translate(-11.243 -35.583)"/><path class="g" d="M57.514,132.316a11.432,11.432,0,0,1-2.984,3.09,1.523,1.523,0,0,1-1.937-.21l-5.33-5.145a5.943,5.943,0,0,1-1.3-6.445,7.752,7.752,0,0,1,1.892-2.838,9.526,9.526,0,0,0-.587,1.209,5.943,5.943,0,0,0,1.3,6.445l5.324,5.152a1.534,1.534,0,0,0,1.937.2A10.653,10.653,0,0,0,57.514,132.316Z" transform="translate(-11.243 -35.337)"/><path class="p" d="M53.884,110.92l.593,5.361.271,2.433a3.216,3.216,0,0,1-1.037,2.889,2.533,2.533,0,0,1-2.785.378,3.046,3.046,0,0,1-1.635-2.526l-.574-5.187-.29-2.6Z" transform="translate(-10.768 -38.19)"/><path class="m" d="M53.944,111.311l.593,5.361a7.678,7.678,0,0,1-5.759-2.013l-.29-2.607Z" transform="translate(-10.758 -38.077)"/><path class="p" d="M55.987,119.7h0a7.636,7.636,0,0,1-6.072-1.863,9.362,9.362,0,0,1-3.088-6.085l-1.533-13.8,16.338-2.216,1.527,13.8c.549,5-2.661,9.548-7.172,10.163Z" transform="translate(-11.281 -42.589)"/><path class="l" d="M69.577,90.274a6.521,6.521,0,0,0-4.367-3.128,6.064,6.064,0,0,0-5.045,1.394,7.879,7.879,0,0,0-1.981,2.719,3.493,3.493,0,0,0-3.654.665,4.424,4.424,0,0,0-1.393,3.8,4.135,4.135,0,0,0,.114.622l-8.15,1.1a1.8,1.8,0,0,0-1.234.767,2.2,2.2,0,0,0-.375,1.512l1.06,9.618,2.807-.384-.807-7.3,12.963-1.713a6.239,6.239,0,0,0,8.944.148,8.022,8.022,0,0,0,1.15-9.829Z" transform="translate(-11.579 -45.105)"/><path class="p" d="M45.434,110.642l2.807-.377-.694-6.2-2.807.384a2.774,2.774,0,0,0-1.888,1.18,3.38,3.38,0,0,0-.578,2.315h0a2.9,2.9,0,0,0,3.16,2.7Z" transform="translate(-11.78 -40.176)"/><path class="m" d="M242.747,190.8l-1.892-4.893L235.77,188l1.855,4.942S240.432,194.553,242.747,190.8Z" transform="translate(19.934 -16.469)"/><path class="g" d="M243.654,189.7l2.523,5.34a2.53,2.53,0,0,1-.334,2.691c-1.464,1.7-4.239,4.7-6.725,6.116a34.594,34.594,0,0,1-6.567.608,2.322,2.322,0,0,1-1.931-1.185,2.867,2.867,0,0,1-.207-2.435c.782-2.034,2.662-4.194,7.135-3.754a9.639,9.639,0,0,0,.946-5.243S241.553,193.384,243.654,189.7Z" transform="translate(19.027 -15.37)"/><path class="k" d="M235.691,196.966,222.847,169.6a6.247,6.247,0,0,1,2.265-7.983h0a5.1,5.1,0,0,1,7.2,2.509l12.856,27.338a2.074,2.074,0,0,1-.139,2h0c-1.8,3.348-5.8,4.194-7.74,4.439a1.564,1.564,0,0,1-1.6-.937Z" transform="translate(17.717 -23.698)"/><path class="k" d="M214.881,143.337a208.96,208.96,0,0,0,8.674,30.357A5.438,5.438,0,0,0,230,177.267l.2-.056a5.674,5.674,0,0,0,3.4-3.094,6.7,6.7,0,0,0,.27-4.867c-2.05-6.382-5.576-18.363-5.759-25.863Z" transform="translate(16.511 -28.8)"/><path class="p" d="M212.132,197l1.766-4.935-4.908-2.544-1.892,4.935S208.095,197.832,212.132,197Z" transform="translate(15.236 -15.422)"/><path class="j" d="M206.567,196.166l10.4-28.785a5.178,5.178,0,0,1,6.939-3.292h0a5.63,5.63,0,0,1,2.925,3.161,6.5,6.5,0,0,1,.046,4.528l-10.346,28.659A1.712,1.712,0,0,1,215.1,201.6h0a8.819,8.819,0,0,1-8.239-3.6A1.893,1.893,0,0,1,206.567,196.166Z" transform="translate(15.129 -22.912)"/><path class="j" d="M236.107,143.337l.044,3.991a28.984,28.984,0,0,1-2.372,11.883c-2.113,4.893-4.573,10.744-7.336,16.671a6.327,6.327,0,0,1-7.955,3.53h-.063a4.766,4.766,0,0,1-2.675-2.709,5.549,5.549,0,0,1-.044-4.015c2.139-5.641,8.327-21.194,11.872-28.323Z" transform="translate(16.588 -28.8)"/><path class="f" d="M213.995,196.521l-1.76,5.466a2.307,2.307,0,0,1-2.757,1.643,32.461,32.461,0,0,1-12.616-6.654,3.484,3.484,0,0,1-.549-4.495l.076-.1a2.754,2.754,0,0,1,3.583-.874,20.241,20.241,0,0,0,9.008,2.467A4.433,4.433,0,0,0,213.995,196.521Z" transform="translate(13.373 -14.943)"/><path class="m" d="M228.882,118.622a53.772,53.772,0,0,1-19.265,6.99,3.239,3.239,0,0,0-2.675,2.656v.084a3.753,3.753,0,0,0,.8,2.969,2.994,2.994,0,0,0,2.614,1.1c3.552-.4,10.724-1.51,16.7-4.4a5.771,5.771,0,0,0,3.079-3.967,6.41,6.41,0,0,0-.972-5.12Q229.027,118.79,228.882,118.622Z" transform="translate(15.202 -35.959)"/><path class="m" d="M213.382,127.618c-2.82-1.4-8.92-4.683-12.774-8.989,0,0-1.533-4.481-5.375-4.949a3.276,3.276,0,0,0-3.288,1.792,4.073,4.073,0,0,0,.134,4.058,6.779,6.779,0,0,0,4.819,2.887s6.6,8.241,14.288,11.233a2.708,2.708,0,0,0,2.614-.342,3.351,3.351,0,0,0,1.329-2.517V130.7a3.293,3.293,0,0,0-1.747-3.083Z" transform="translate(12.674 -37.398)"/><path class="u" d="M217.637,122.327s-.442,5.655,3.23,9.255l6.7-3.313a5.084,5.084,0,0,0,2.637-5.194c-.227-1.775-.9-3.663-2.656-4.495a3.922,3.922,0,0,0-3.634.217Z" transform="translate(16.96 -36.071)"/><path class="o" d="M216.534,158.7h18a1.576,1.576,0,0,0,1.171-.539,1.938,1.938,0,0,0,.482-1.3V128.732c0-6.518-4.766-11.8-10.648-11.806h0c-5.884,0-10.655,5.286-10.655,11.806v28.128a1.937,1.937,0,0,0,.482,1.3A1.576,1.576,0,0,0,216.534,158.7Z" transform="translate(16.511 -36.45)"/><path class="j" d="M196.594,118.917v23.067a3.917,3.917,0,0,0,1.962,3.495l8.592,4.613a1.566,1.566,0,0,0,1.657-.1,1.949,1.949,0,0,0,.8-1.61V123.712a3.832,3.832,0,0,0-2.429-3.677l-8.352-2.943a1.575,1.575,0,0,0-1.538.279A1.97,1.97,0,0,0,196.594,118.917Z" transform="translate(13.514 -36.428)"/><path class="k" d="M208.286,123.112v24.675a1.951,1.951,0,0,1-.8,1.615,1.566,1.566,0,0,1-1.66.1l-.688-.371a2.062,2.062,0,0,0,.549-1.4V121.868a4.31,4.31,0,0,0-1.022-2.8l1.192.419a3.818,3.818,0,0,1,2.429,3.621Z" transform="translate(14.837 -35.828)"/><path class="p" d="M226.849,120.123A72.711,72.711,0,0,1,216.5,141.681a4.083,4.083,0,0,0-.3,4.32.292.292,0,0,1,.044.077,3.347,3.347,0,0,0,2.643,1.677,3.259,3.259,0,0,0,2.795-1.341c2.523-3.271,7.387-10.121,10.093-17.377a7.044,7.044,0,0,0-.287-5.668,5.829,5.829,0,0,0-4.23-3.2A3.434,3.434,0,0,0,226.849,120.123Z" transform="translate(16.649 -35.524)"/><path class="p" d="M223.078,139.844c-3.034-1.573-9.595-5.305-13.7-10.08,0,0-1.577-4.893-5.747-5.508a3.543,3.543,0,0,0-3.611,1.874,4.425,4.425,0,0,0,.078,4.417,7.388,7.388,0,0,0,5.179,3.257s7.008,9.087,15.291,12.582a2.941,2.941,0,0,0,2.848-.3,3.626,3.626,0,0,0,1.5-2.7.552.552,0,0,1,0-.1,3.6,3.6,0,0,0-1.842-3.439Z" transform="translate(13.986 -34.338)"/><path class="o" d="M221.458,131.631c1.053,1.181,3.785,3.782,7.513,3.977a1.128,1.128,0,0,0,1.1-.776l2.725-7.409a5.759,5.759,0,0,0-1.419-6.228c-1.388-1.223-3.217-2.167-5.179-1.356a5.024,5.024,0,0,0-2.7,3.2l-2.3,7.3A1.319,1.319,0,0,0,221.458,131.631Z" transform="translate(17.535 -35.694)"/><path class="l" d="M232.209,127.41l-2.725,7.409a1.121,1.121,0,0,1-1.1.769,9.3,9.3,0,0,1-3.64-.979,8.971,8.971,0,0,0,1.892.308,1.134,1.134,0,0,0,1.1-.776l2.719-7.416a5.737,5.737,0,0,0-1.413-6.214,8.46,8.46,0,0,0-1.262-.93,6.3,6.3,0,0,1,3.022,1.6A5.753,5.753,0,0,1,232.209,127.41Z" transform="translate(18.127 -35.681)"/><path class="p" d="M228.545,110.79v7.619a3.057,3.057,0,0,1-1.3,2.686,2.453,2.453,0,0,1-2.749,0,3.057,3.057,0,0,1-1.3-2.686V110.79Z" transform="translate(17.874 -38.227)"/><path class="m" d="M228.544,110.79v2.922a7.874,7.874,0,0,1-5.343,3.495V110.79Z" transform="translate(17.874 -38.227)"/><path class="p" d="M223.4,119.243h0c4.414,0,7.993-3.965,7.993-8.856v-13.5H215.407v13.5C215.407,115.278,218.985,119.243,223.4,119.243Z" transform="translate(16.597 -42.256)"/><path class="p" d="M231.885,109.5h-2.744v-6.088h2.744a2.91,2.91,0,0,1,2.75,3.048h0a2.91,2.91,0,0,1-2.75,3.041Z" transform="translate(18.848 -40.364)"/><path class="l" d="M215.407,99.315V96.554a4.814,4.814,0,0,1,4.491-5.04c4.081-.049,9.74-.531,13.758-2.663a2.841,2.841,0,0,1,2.979.114,3.516,3.516,0,0,1,1.518,2.843c.044,2.8-.5,5.83-2.687,7.507Z" transform="translate(16.597 -44.689)"/><path class="s" d="M229.141,96.882h4.081v7.1a1.262,1.262,0,0,1-1.192,1.321h-2.883V96.882Z" transform="translate(18.848 -42.256)"/></g></g></g></svg>