<svg version="1.2" xmlns="http://www.w3.org/2000/svg" viewBox="0 0 346 215" width="346" height="215">
	<title>MaskGroup55-svg-svg</title>
	<defs>
		<clipPath clipPathUnits="userSpaceOnUse" id="cp1">
			<path d="m-98 0h538v215h-538z"/>
		</clipPath>
	</defs>
	<style>
		.s0 { fill: #feefdc } 
		.s1 { fill: #21111d } 
		.s2 { fill: #ea2d3f } 
		.s3 { fill: #ff424d } 
		.s4 { fill: #258d8c } 
		.s5 { fill: #000000 } 
		.s6 { fill: #4cb7d8 } 
		.s7 { fill: #3aa1c9 } 
		.s8 { fill: #dcf4ff } 
		.s9 { fill: #fe9f73 } 
		.s10 { fill: #351b2e } 
		.s11 { fill: #49263e } 
		.s12 { fill: #f07162 } 
		.s13 { fill: #aac9f8 } 
		.s14 { fill: #d6e8f4 } 
		.s15 { fill: #ffffff } 
		.s16 { fill: #edfcfb } 
		.s17 { fill: #fec786 } 
		.s18 { fill: #ef3a4c } 
		.s19 { fill: #d82540 } 
		.s20 { fill: #f75553 } 
		.s21 { fill: #7fc6a6 } 
		.s22 { fill: #3f9896 } 
		.s23 { fill: #4c222e } 
		.s24 { fill: #f99247 } 
		.s25 { fill: #472a31 } 
		.s26 { fill: #d7e4f7 } 
		.s27 { fill: #683d46 } 
		.s28 { fill: #fd7583 } 
		.s29 { fill: #f9b59d } 
		.s30 { fill: #e23e3d } 
		.s31 { fill: #cc2323 } 
		.s32 { fill: #e2f2f1 } 
		.s33 { fill: #fbfdfc } 
		.s34 { fill: #fecc86 } 
		.s35 { fill: #f78c63 } 
		.s36 { fill: #f7ab48 } 
		.s37 { fill: #61a3c5 } 
		.s38 { fill: #3a1f33 } 
		.s39 { fill: #febac7 } 
		.s40 { opacity: .3;fill: #fecc86 } 
		.s41 { fill: #f3fffe } 
	</style>
	<g id="Clip-Path: Clip-Path" clip-path="url(#cp1)">
		<g id="Clip-Path">
			<g id="Layer">
				<g id="Layer">
					<path id="Layer" class="s0" d="m296.7 203.3l24.2 0.2c20.2-16 19.8-62 4.5-81.3-25.6-32.5-35.2-26.3-48.6-37.7-13.4-11.5 0.7-53.5-37.4-69.7-38.2-16.1-89.8 11.5-110.7 20.8-20.8 9.4-30.6 3.3-42.8-0.4-12.1-3.8-37.1 0.2-56.7 31.3-19.6 31-12.6 68.9-8.7 83.2 3.8 14.3 5.4 13.5-2.9 29.3-6 11.6 3.1 20.6 8.3 24.5h270.8z"/>
					<path id="Layer" class="s1" d="m245.6 77.1q0 0 0.1 0 0 0 0.1 0 0 0 0-0.1 0.1 0 0.1-0.1c0 0 0.2-0.5 0.4-1.3q0-0.1 0-0.1 0-0.1-0.1-0.1 0-0.1 0-0.1-0.1-0.1-0.1-0.1-0.1 0-0.2 0 0 0-0.1 0.1 0 0-0.1 0 0 0.1 0 0.1c-0.2 0.9-0.4 1.4-0.4 1.4q0 0 0 0.1 0 0.1 0 0.1 0.1 0.1 0.1 0.1 0.1 0 0.1 0 0 0 0.1 0z"/>
					<path id="Layer" class="s1" d="m246.5 73q-0.1 0-0.1 0 0-0.1 0-0.1-0.1 0-0.1 0 0 0 0-0.1 0 0 0-0.1 0.2-1.4 0.4-2.8 0-0.1 0-0.1 0-0.1 0.1-0.1 0-0.1 0.1-0.1 0 0 0.1 0 0.1 0 0.1 0 0.1 0.1 0.1 0.1 0 0 0.1 0.1 0 0.1 0 0.1-0.2 1.4-0.4 2.9 0 0-0.1 0.1-0.1 0.1-0.1 0.1-0.1 0-0.1 0-0.1 0-0.1 0zm0.6-5.7q0 0-0.1 0 0 0-0.1-0.1-0.1-0.1-0.1-0.2 0.1-0.4 0.1-0.8 0-1-0.1-2 0 0 0-0.1 0-0.1 0.1-0.1 0 0 0.1-0.1 0 0 0.1 0 0 0 0.1 0 0.1 0.1 0.1 0.1 0 0 0.1 0.1 0 0 0 0.1 0.1 1 0.1 2 0 0.4 0 0.9 0 0-0.1 0.1 0 0 0 0.1-0.1 0-0.1 0-0.1 0-0.2 0zm-0.6-5.9q-0.1-0.3-0.1-0.7-0.1-0.3-0.2-0.7 0-0.3-0.1-0.7-0.1-0.3-0.2-0.7 0 0 0-0.1 0 0 0-0.1 0.1 0 0.1-0.1 0.1 0 0.1 0 0.1 0 0.1 0 0.1 0 0.1 0 0.1 0.1 0.1 0.1 0.1 0.1 0.1 0.1 0.1 0.4 0.2 0.7 0.1 0.4 0.1 0.7 0.1 0.4 0.2 0.7 0 0.4 0.1 0.7 0 0.1 0 0.1 0 0.1 0 0.1 0 0-0.1 0 0 0.1 0 0.1 0 0-0.1 0-0.1 0.1-0.1 0-0.1 0-0.1 0-0.1 0-0.1 0 0 0-0.1-0.1 0 0 0-0.1zm-27.8-2.8q-0.4 0-0.8-0.1-0.4-0.2-0.7-0.3-0.4-0.2-0.8-0.4-0.3-0.2-0.6-0.5 0 0-0.1-0.1 0 0 0-0.1 0-0.1 0-0.1 0-0.1 0.1-0.1 0 0 0.1-0.1 0 0 0.1 0 0.1 0 0.1 0 0.1 0.1 0.1 0.1 0.3 0.2 0.6 0.4 0.3 0.2 0.6 0.4 0.4 0.1 0.7 0.2 0.4 0.1 0.7 0.2 0.1 0 0.1 0 0.1 0 0.1 0.1 0 0 0.1 0.1 0 0 0 0.1 0 0-0.1 0.1 0 0 0 0.1-0.1 0-0.1 0-0.1 0-0.1 0 0 0-0.1 0zm2.9-0.2q0-0.1 0-0.2 0 0 0-0.1 0 0 0.1-0.1 0 0 0.1 0 0.3-0.1 0.6-0.3 0.3-0.2 0.6-0.4 0.2-0.2 0.4-0.5 0.3-0.3 0.4-0.6 0.1 0 0.1-0.1 0 0 0.1 0 0.1 0 0.1 0 0.1 0 0.1 0 0.1 0 0.1 0 0.1 0.1 0.1 0.1 0 0.1 0 0.2 0 0 0 0.1-0.2 0.3-0.5 0.6-0.2 0.4-0.5 0.6-0.3 0.3-0.7 0.5-0.3 0.2-0.7 0.3-0.1 0-0.1 0-0.1 0-0.1 0-0.1 0-0.1 0 0 0-0.1-0.1zm23.4-2.4q-0.2-0.4-0.3-0.7-0.2-0.3-0.3-0.7-0.2-0.3-0.3-0.6-0.2-0.3-0.4-0.6 0 0 0-0.1 0 0 0-0.1 0-0.1 0-0.1 0 0 0.1-0.1 0.1 0 0.1 0 0 0 0.1 0 0 0 0.1 0 0.1 0 0.1 0.1 0.2 0.3 0.4 0.7 0.2 0.3 0.3 0.6 0.2 0.3 0.4 0.7 0.1 0.3 0.2 0.7 0.1 0 0.1 0.1 0 0-0.1 0.1 0 0 0 0.1-0.1 0-0.1 0 0 0-0.1 0-0.1 0-0.1 0-0.1 0-0.1 0 0 0-0.1-0.1zm-30.9-1.2q-0.1-0.4-0.2-0.7-0.1-0.4-0.2-0.7 0-0.4-0.1-0.7 0-0.4 0-0.7v-0.1q0-0.1 0-0.1 0.1-0.1 0.1-0.1 0.1 0 0.1-0.1 0.1 0 0.1 0 0.1 0 0.1 0 0.1 0.1 0.1 0.1 0.1 0 0.1 0.1 0 0 0 0.1v0.1q0 0.3 0 0.6 0.1 0.4 0.1 0.7 0.1 0.3 0.2 0.7 0.1 0.3 0.2 0.6 0 0.1 0 0.1 0 0.1 0 0.1-0.1 0.1-0.1 0.1-0.1 0-0.1 0.1-0.1 0-0.1 0-0.1 0-0.1 0-0.1 0-0.1-0.1 0 0-0.1 0 0-0.1 0-0.1zm10.8-0.9q-0.1 0-0.1 0-0.1-0.1-0.1-0.1 0-0.1-0.1-0.1 0-0.1 0-0.1 0.1-0.2 0.1-0.3 0-0.2 0-0.4 0-0.1 0-0.3 0-0.1 0-0.3 0-0.2 0-0.4 0-0.2 0-0.4 0-0.1 0-0.3-0.1-0.2-0.1-0.4 0-0.1 0-0.1 0.1-0.1 0.1-0.1 0-0.1 0.1-0.1 0 0 0.1 0 0.1 0 0.1 0 0.1 0 0.1 0.1 0.1 0 0.1 0 0 0.1 0 0.1 0.1 0.2 0.1 0.4 0 0.2 0 0.4 0 0.2 0 0.4 0 0.2 0 0.4 0 0.2 0 0.3 0 0.2 0 0.4 0 0.1 0 0.3 0 0.2-0.1 0.3 0 0.1 0 0.1 0 0.1-0.1 0.1 0 0.1-0.1 0.1 0 0-0.1 0zm17.2-2.9q-0.2-0.3-0.5-0.5-0.2-0.3-0.5-0.6-0.2-0.2-0.5-0.5-0.2-0.3-0.5-0.5 0 0-0.1-0.1 0-0.1 0-0.1 0 0 0-0.1 0 0 0-0.1 0.1 0 0.1 0 0 0 0.1-0.1 0.1 0 0.1 0 0 0 0.1 0 0 0 0.1 0.1 0.3 0.3 0.6 0.5 0.2 0.3 0.5 0.6 0.3 0.2 0.5 0.5 0.3 0.3 0.5 0.6 0 0.1 0 0.1 0 0 0 0.1 0 0 0 0.1 0 0 0 0.1-0.1 0-0.1 0 0 0-0.1 0 0 0-0.1 0-0.1 0-0.1 0 0 0-0.1 0 0 0 0-0.1zm-27.8-1.6q0-0.1-0.1-0.1 0 0-0.1-0.1 0 0 0-0.1 0 0 0-0.1 0.1-0.3 0.2-0.7 0.2-0.3 0.3-0.7 0.2-0.3 0.4-0.6 0.1-0.4 0.3-0.7 0.1 0 0.1-0.1 0.1 0 0.1 0 0.1 0 0.2 0 0 0 0.1 0 0 0.1 0.1 0.1 0 0 0 0.1 0 0.1 0 0.1 0 0.1 0 0.1-0.2 0.3-0.4 0.6-0.2 0.3-0.3 0.6-0.2 0.4-0.3 0.7-0.1 0.3-0.2 0.7 0 0-0.1 0 0 0.1 0 0.1-0.1 0-0.1 0-0.1 0.1-0.1 0.1 0 0-0.1 0zm9.8-1.3q-0.2-0.4-0.3-0.7-0.1-0.3-0.2-0.7-0.2-0.3-0.3-0.6-0.2-0.4-0.3-0.7 0 0 0-0.1 0 0 0-0.1 0 0 0-0.1 0.1 0 0.1 0 0.1-0.1 0.1-0.1 0.1 0 0.2 0.1 0 0 0.1 0 0 0 0 0.1 0.2 0.3 0.4 0.7 0.1 0.3 0.2 0.6 0.2 0.4 0.3 0.7 0.1 0.4 0.2 0.7 0.1 0 0.1 0.1-0.1 0-0.1 0.1 0 0 0 0.1 0 0-0.1 0 0 0-0.1 0 0 0.1 0 0.1 0 0-0.1 0 0 0 0-0.1-0.1 0-0.1 0-0.1 0-0.1-0.1zm13.7-1.1q-0.3-0.2-0.7-0.4-0.3-0.2-0.6-0.4-0.3-0.2-0.6-0.4-0.4-0.2-0.7-0.4 0 0-0.1 0 0-0.1 0-0.1 0-0.1 0-0.2 0 0 0-0.1 0 0 0.1 0 0-0.1 0.1-0.1 0.1 0 0.1 0 0.1 0 0.1 0 0.4 0.2 0.7 0.4 0.3 0.2 0.7 0.4 0.3 0.2 0.6 0.4 0.3 0.3 0.6 0.5 0.1 0 0.1 0.1 0.1 0 0.1 0.1 0 0 0 0.1-0.1 0-0.1 0.1 0 0-0.1 0.1-0.1 0-0.1 0-0.1 0-0.1 0-0.1 0-0.1-0.1zm-20.4-2.5q0-0.1-0.1-0.1 0-0.1 0-0.1 0 0 0-0.1 0 0 0.1 0 0 0 0-0.1 0.4-0.2 0.7-0.4 0.3-0.2 0.7-0.4 0.3-0.2 0.7-0.4 0.4-0.1 0.7-0.2 0.1-0.1 0.2-0.1 0 0 0.1 0.1 0 0 0.1 0 0 0.1 0 0.1 0.1 0.1 0.1 0.1 0 0.1-0.1 0.1 0 0.1 0 0.1-0.1 0.1-0.1 0.1-0.4 0.1-0.7 0.2-0.4 0.2-0.7 0.4-0.3 0.1-0.7 0.3-0.3 0.2-0.6 0.4 0 0.1-0.1 0.1 0 0-0.1 0-0.1 0-0.1 0-0.1 0-0.1-0.1zm15.1-0.4q-0.4-0.1-0.8-0.2-0.3-0.2-0.7-0.3-0.4-0.1-0.7-0.2-0.4-0.1-0.8-0.2-0.1-0.1-0.1-0.1 0 0-0.1 0 0-0.1 0-0.1 0-0.1 0-0.1 0 0 0-0.1 0.1-0.1 0.1-0.1 0 0 0.1 0 0-0.1 0-0.1 0.1 0 0.1 0 0.1 0 0.1 0 0.4 0.1 0.8 0.3 0.3 0.1 0.7 0.2 0.4 0.1 0.8 0.2 0.3 0.2 0.7 0.3 0.1 0 0.1 0.1 0 0 0.1 0.1 0 0 0 0.1 0 0 0 0.1-0.1 0-0.1 0.1-0.1 0-0.1 0-0.1 0.1-0.1 0.1-0.1 0-0.1-0.1zm-11-1.1q-0.2-0.3-0.4-0.6-0.2-0.3-0.5-0.6-0.2-0.3-0.4-0.6-0.3-0.2-0.5-0.5 0 0-0.1-0.1 0-0.1 0-0.1 0-0.1 0.1-0.1 0-0.1 0-0.1 0.1 0 0.1 0 0.1-0.1 0.2 0 0 0 0.1 0 0 0 0.1 0 0.2 0.3 0.5 0.6 0.2 0.3 0.4 0.6 0.3 0.3 0.5 0.6 0.2 0.3 0.4 0.6 0.1 0 0.1 0 0 0.1 0 0.1 0 0.1 0 0.1 0 0 0 0.1-0.1 0-0.2 0.1 0 0-0.1 0-0.1 0-0.2 0 0-0.1-0.1-0.1zm5-0.4q-0.4 0-0.7 0-0.4-0.1-0.8-0.1-0.4 0-0.8 0.1-0.4 0-0.8 0 0 0-0.1 0 0 0-0.1-0.1 0 0 0-0.1-0.1 0-0.1-0.1 0 0 0-0.1 0.1 0 0.1-0.1 0 0 0.1 0 0-0.1 0.1-0.1 0.4 0 0.8 0 0.4 0 0.8 0 0.4 0 0.8 0 0.4 0 0.8 0.1 0 0 0.1 0 0.1 0 0.1 0.1 0 0 0.1 0.1 0 0 0 0.1 0 0-0.1 0.1 0 0 0 0.1-0.1 0-0.1 0-0.1 0-0.1 0zm-9-4q-0.3-0.2-0.6-0.4-0.3-0.3-0.6-0.5-0.3-0.2-0.6-0.4-0.3-0.2-0.6-0.4-0.1 0-0.1-0.1 0 0 0-0.1 0 0 0-0.1 0 0 0-0.1 0 0 0.1-0.1 0.1 0 0.1 0 0.1 0 0.1 0 0.1 0 0.1 0 0.4 0.2 0.7 0.5 0.3 0.2 0.6 0.4 0.3 0.2 0.6 0.5 0.3 0.2 0.6 0.4 0.1 0.1 0.1 0.1 0 0.1 0 0.1 0 0.1 0 0.1 0 0.1 0 0.1-0.1 0.1-0.1 0.1-0.1 0-0.2 0 0 0-0.1 0 0 0-0.1-0.1zm-5.1-3.1q-0.3-0.2-0.7-0.3-0.3-0.2-0.7-0.3-0.4-0.1-0.7-0.3-0.4-0.1-0.7-0.2-0.1 0-0.1-0.1-0.1 0-0.1-0.1 0 0 0-0.1 0 0 0-0.1 0 0 0-0.1 0.1 0 0.1-0.1 0.1 0 0.2 0 0 0 0.1 0 0.4 0.2 0.7 0.3 0.4 0.1 0.8 0.3 0.3 0.1 0.7 0.3 0.3 0.1 0.7 0.3 0 0 0.1 0 0 0.1 0 0.1 0.1 0.1 0.1 0.1 0 0.1 0 0.1-0.1 0.1-0.1 0.1 0 0-0.1 0.1-0.1 0-0.1 0-0.1 0-0.1 0 0 0-0.1 0zm-5.8-2q-1.5-0.3-3-0.6-0.1 0-0.2 0 0-0.1 0-0.1-0.1-0.1-0.1-0.1 0-0.1 0-0.1 0-0.1 0.1-0.1 0-0.1 0-0.1 0.1-0.1 0.2-0.1 0 0 0.1 0 1.6 0.3 3.1 0.7 0 0 0.1 0 0 0 0 0.1 0.1 0 0.1 0.1 0 0 0 0.1 0 0-0.1 0.1 0 0 0 0.1-0.1 0-0.1 0-0.1 0-0.1 0-0.1 0-0.1 0zm-6.1-1q-1.6-0.2-3.2-0.3 0 0-0.1 0 0 0-0.1-0.1 0 0 0-0.1 0 0 0-0.1 0 0 0-0.1 0 0 0.1-0.1 0 0 0.1 0 0 0 0.1 0 1.6 0 3.1 0.2 0.1 0 0.1 0 0.1 0.1 0.1 0.1 0.1 0 0.1 0.1 0 0 0 0.1 0 0.1 0 0.1 0 0.1-0.1 0.1 0 0-0.1 0 0 0.1-0.1 0.1z"/>
					<path id="Layer" class="s1" d="m192.7 32.2c0 0 0.6 0 1.5-0.1q0.2 0.1 0.3 0 0-0.1 0-0.2 0-0.2 0-0.2-0.1-0.1-0.3-0.1c-0.9 0-1.5 0-1.5 0q-0.1 0-0.1 0.1-0.1 0-0.1 0-0.1 0.1-0.1 0.1 0 0.1 0 0.1 0 0.1 0 0.1 0 0.1 0.1 0.1 0 0.1 0.1 0.1 0 0 0.1 0z"/>
					<path id="Layer" class="s2" d="m188.4 34.8l-1.7-1.8c0 0-8.6-0.9-8.8-0.9l-4.5-2.1 5.6-0.3 9.1 1.2z"/>
					<path id="Layer" class="s3" d="m190.1 26.8l-16.7 3.2 14.7 0.9z"/>
					<path id="Layer" class="s3" d="m186.7 33l-2.2 4.3-11.1-7.3z"/>
					<path id="Layer" class="s4" d="m257.1 203.5c1.2-1.1 10.3-15.7 16.6-8.2 0 0 10.2-21.1 23.3-17 0 0 8.3 4.3 2.2 15 0 0 20.1-1.1 19.9 10.2z"/>
					<path id="Layer" class="s5" d="m288.2 180.8q-0.1 0-0.1 0 0 0 0-0.1 0 0 0-0.1 0.6-0.3 1.1-0.6 0.6-0.3 1.2-0.6 0.6-0.3 1.2-0.4 0.6-0.2 1.3-0.3 0 0 0.1 0 0 0.1 0 0.1 0 0-0.1 0-0.6 0.2-1.2 0.3-0.6 0.2-1.2 0.5-0.6 0.2-1.2 0.5-0.5 0.3-1 0.7-0.1 0-0.1 0z"/>
					<path id="Layer" class="s5" d="m288.2 181.9q0-0.1-0.1-0.1 0 0 0-0.1 0.5-0.3 0.9-0.6 0.5-0.2 1-0.4 0.4-0.2 0.9-0.4 0.5-0.2 1-0.3 0.1 0 0.1 0 0.1 0 0 0.1-0.5 0.2-1 0.3-0.5 0.2-0.9 0.4-0.5 0.2-1 0.5-0.4 0.3-0.8 0.5 0 0 0 0.1 0 0-0.1 0z"/>
					<path id="Layer" class="s4" d="m306.7 173.9c2.3-2.5 5.4-3.6 6.9-2.4 1.5 1.1 0.8 4.1-1.6 6.6-2.3 2.4-5.4 3.5-6.9 2.4-1.4-1.1-0.7-4.1 1.6-6.6z"/>
					<path id="Layer" class="s4" d="m310.2 183.8c-1.4 1.5-1.8 3.2-0.9 3.9 0.9 0.7 2.7 0 4.1-1.5 1.4-1.5 1.8-3.2 0.9-3.9-0.9-0.6-2.7 0-4.1 1.5z"/>
					<path id="Layer" class="s6" d="m84.8 149.8h17.6v33.6h-17.6z"/>
					<path id="Layer" class="s6" d="m40.4 162v-45.9q0-0.8 0.4-1.6 0.3-0.7 1-1.3 0.6-0.5 1.3-0.8 0.8-0.3 1.6-0.3h98.3q0.9 0 1.6 0.3 0.8 0.3 1.4 0.8 0.6 0.6 1 1.3 0.4 0.8 0.4 1.6v45.9z"/>
					<path id="Layer" class="s7" d="m147.4 162v7.4q0 0.5-0.1 1-0.2 0.5-0.6 0.9-0.3 0.4-0.8 0.6-0.5 0.2-1 0.2h-102q-0.5 0-1-0.2-0.5-0.2-0.8-0.6-0.4-0.4-0.6-0.9-0.1-0.5-0.1-1v-7.4z"/>
					<path id="Layer" class="s8" d="m42.9 160v-43.8q0-0.4 0.2-0.8 0.2-0.4 0.6-0.7 0.3-0.3 0.7-0.5 0.4-0.1 0.9-0.1h97.2q0.5 0 0.9 0.1 0.4 0.2 0.7 0.5 0.4 0.3 0.6 0.7 0.2 0.4 0.2 0.8v43.8z"/>
					<path id="Layer" class="s7" d="m69.7 184.3q-0.1-0.6 0-1.1 0.2-0.6 0.6-1 0.4-0.4 0.9-0.6 0.5-0.2 1.1-0.2h42.5q0.7 0 1.3 0.2 0.6 0.3 1.1 0.6 0.5 0.4 0.8 1 0.4 0.5 0.5 1.1z"/>
					<path id="Layer" class="s1" d="m42.9 172.3h102q0.6-0.1 1-0.3 0.5-0.2 0.9-0.6 0.4-0.5 0.6-1 0.2-0.5 0.1-1v-53.3q0-0.9-0.4-1.6-0.3-0.8-1-1.4-0.6-0.5-1.4-0.8-0.8-0.3-1.7-0.3v0.3q0.8-0.1 1.6 0.2 0.7 0.3 1.3 0.8 0.6 0.5 1 1.3 0.3 0.7 0.4 1.5v53.3q0 0.5-0.2 0.9-0.1 0.5-0.5 0.9-0.3 0.4-0.8 0.6-0.4 0.2-0.9 0.2h-102z"/>
					<path id="Layer" class="s1" d="m66.9 164.1l0.2-0.2 2.4 3.1-0.2 0.1z"/>
					<path id="Layer" class="s1" d="m66.9 165.6l0.2-0.1 2.4 3-0.2 0.1z"/>
					<path id="Layer" class="s1" d="m96.9 172.9l0.2-0.1 1.2 1.9-0.2 0.1z"/>
					<path id="Layer" class="s1" d="m97.3 173.4l0.2-0.1 1.1 1.7-0.2 0.1z"/>
					<path id="Layer" class="s1" d="m42.8 160.1h102.1v-0.2h-101.9v-43.7q0.1-0.4 0.2-0.8 0.2-0.4 0.5-0.6 0.4-0.3 0.8-0.5 0.4-0.1 0.8-0.1v-0.2q-0.5 0-0.9 0.1-0.5 0.2-0.8 0.5-0.4 0.3-0.6 0.7-0.2 0.4-0.2 0.9z"/>
					<path id="Layer" class="s9" d="m111.9 107.5c0 0 1.2-4.1 2.3-4.5q0.3-0.1 0.6-0.1 0.3 0 0.6 0 0.3 0.1 0.6 0.2 0.3 0.1 0.5 0.2c0.2 0.1 1.2-1.4 2-1.3q0.1 0 0.3 0.1 0.1 0.1 0.3 0.2 0.1 0.1 0.2 0.2 0.1 0.1 0.2 0.3c0 0.1 1.4 0.1 1.5 1.2 0 0 1.1 0.2 1.1 1 0 0 0.6 0.3 0.5 1.2 0 0-1.9 3.4-4.6 4.6-2.8 1.2-6.1-3.3-6.1-3.3z"/>
					<path id="Layer" class="s10" d="m87.8 159.9l0.3-28.3-0.7-3.6-18.4 5.5c0 0 0.6 12 1.8 26.4z"/>
					<path id="Layer" class="s11" d="m73.7 159.9l2.1-20 3.4-14.5-23.6 8.5c0 0-0.2 11.7 0.1 26z"/>
					<path id="Layer" class="s11" d="m107.2 87.2l18 27.3-1.5 1-14.3-24z"/>
					<path id="Layer" class="s9" d="m116.4 103.2q0.1-0.1 0.3-0.3 0.1-0.1 0.3-0.2 0.2-0.1 0.3-0.2 0.2-0.2 0.4-0.3c0.4-0.2 3.3 4.6 3.3 4.6l0.4 1.2c0 0-0.3 0.6-0.6 0.6q-0.1-0.1-0.2-0.1-0.2-0.1-0.3-0.2-0.1 0-0.2-0.1-0.1-0.1-0.2-0.2l-0.2-0.6-0.3-0.1-0.4-0.3-0.2-0.5-0.4 0.1-0.5-0.2-0.3-0.4-0.1-0.1-1.7-2.4z"/>
					<path id="Layer" class="s12" d="m117.4 106q-0.1 0-0.2 0-0.1-0.1-0.2-0.1-0.1-0.1-0.2-0.1-0.1-0.1-0.2-0.1-0.1-0.1-0.2-0.1-0.1-0.1-0.1-0.1-0.1 0-0.2-0.1-0.1 0-0.2 0-0.1-0.1-0.2-0.1-0.1-0.1-0.2-0.1-0.2 0-0.3 0-0.1 0-0.2 0-0.1 0-0.1 0 0 0-0.1 0 0-0.1 0-0.1 0.1 0 0.1 0 0.1 0 0.3-0.1 0.1 0 0.3 0.1 0.1 0 0.2 0 0.2 0.1 0.3 0.1 0.1 0 0.2 0.1 0.1 0 0.2 0.1 0 0 0.1 0 0.1 0.1 0.2 0.1c0.5 0.3 0.8 0.4 1 0.2q0 0 0.1-0.1 0-0.1 0.1-0.2 0 0 0-0.1 0-0.1 0-0.2-0.1-0.3-0.2-0.5-0.2-0.3-0.3-0.5-0.2-0.2-0.5-0.4-0.2-0.2-0.4-0.3-0.2-0.2-0.5-0.3-0.2-0.1-0.5-0.2-0.2 0-0.5 0-0.3 0-0.5 0.1-0.1 0-0.1 0 0 0 0-0.1 0.3-0.1 0.6-0.1 0.3-0.1 0.5 0 0.3 0 0.6 0.1 0.3 0.2 0.5 0.3 0.3 0.2 0.5 0.4 0.2 0.2 0.4 0.4 0.2 0.2 0.4 0.5 0.1 0.3 0.2 0.6 0 0.1 0 0.2 0 0.1-0.1 0.2 0 0.1-0.1 0.2 0 0.1-0.1 0.1 0 0.1-0.1 0.1 0 0-0.1 0.1 0 0-0.1 0 0 0-0.1 0z"/>
					<path id="Layer" class="s12" d="m117.8 104.6q-0.1 0-0.1 0 0-0.1 0-0.1 0-0.1 0-0.1l1.7-1.7q0.1 0 0.1 0 0.1 0 0.1 0 0 0.1 0 0.1 0 0-0.1 0l-1.7 1.7q0 0 0 0.1z"/>
					<path id="Layer" class="s12" d="m119.6 107.5q0 0-0.1-0.1 0 0-0.1 0 0 0-0.1 0 0 0 0-0.1-0.2 0-0.3-0.1 0-0.1-0.1-0.2-0.1-0.1-0.1-0.3 0-0.1 0-0.2 0 0 0-0.1 0.1 0 0.1 0 0.1 0 0.1 0 0 0.1 0 0.1 0 0.1 0 0.2 0 0.1 0.1 0.2 0 0.1 0.1 0.2 0.1 0.1 0.2 0.1 0.1 0.1 0.1 0.1 0.1 0 0.1 0 0.1 0 0.1 0c1-0.2 2.3-2.3 2.3-2.3q0-0.1 0.1-0.1 0.1 0.1 0.1 0.1 0 0 0 0.1c-0.1 0.1-1.4 2.2-2.4 2.3q-0.1 0-0.1 0 0 0 0 0.1-0.1 0-0.1 0z"/>
					<path id="Layer" class="s12" d="m118.4 106.7q-0.1 0-0.2 0 0 0-0.1 0-0.1 0-0.1-0.1-0.1 0-0.1 0-0.1-0.1-0.2-0.2 0-0.1-0.1-0.1 0-0.1-0.1-0.2 0-0.1 0-0.2 0 0 0-0.1 0 0 0.1 0 0 0 0.1 0 0 0 0 0.1 0 0.1 0 0.1 0 0.1 0.1 0.2 0 0 0.1 0.1 0 0.1 0.1 0.1 0 0.1 0.1 0.1 0.1 0 0.1 0 0.1 0 0.2 0 0 0 0.1 0c0.7-0.1 2-1.9 2.4-2.6q0 0 0.1 0 0 0 0.1 0 0 0 0 0.1c-0.1 0.1-1.6 2.6-2.6 2.7q-0.1 0-0.1 0z"/>
					<path id="Layer" class="s13" d="m88.9 153l0.2-0.1-0.6-29c0 0 10.5 6.4 13.7 6.5 3.1 0.1 16.2-17.4 16.2-17.4q-0.7-1.3-1.5-2.3-0.9-1.1-2-2-1.1-0.8-2.4-1.4-1.3-0.6-2.7-0.8l-10.7 10.7-12.7-10.4c-1.6-0.9-14.6-1.1-14.6-1.1 0 0-14.7-0.3-16.4 0.6-1.7 0.9-7.9 16.2-8.8 23.1-1 6.9 0 11.4 5.8 12.2h2.1l0.2 11.4c0 0 11.7 2.4 34.2 0z"/>
					<path id="Layer" class="s3" d="m109.8 106.5l-10.7 10.7-12.7-10.4q-0.6-0.2-1.3-0.3-0.7-0.1-1.3-0.2-0.7-0.1-1.4-0.2-0.7 0-1.3-0.1l-7.6 16.4-11.5-16.7c-4 0-5.7 0.1-6.6 0.6-1.7 0.9-7.9 16.2-8.8 23.1-1 6.9 0 11.4 5.8 12.2h2.1l0.2 11.4c0 0 11.7 2.4 34.2 0l0.2-0.1-0.6-29c0 0 10.5 6.4 13.7 6.5 3.1 0.1 16.2-17.4 16.2-17.4q-0.7-1.3-1.5-2.3-0.9-1.1-2-2-1.1-0.8-2.4-1.4-1.3-0.6-2.7-0.8z"/>
					<path id="Layer" class="s11" d="m69.7 126.9c0-0.7 0.6-1.2 1.3-1.2h13.1c0.7 0 1.3 0.5 1.3 1.2v15.5c0 0.7-0.6 1.3-1.3 1.3h-13.1c-0.7 0-1.3-0.6-1.3-1.3z"/>
					<path id="Layer" class="s14" d="m81.5 125h-7.3q-0.1 0-0.3 0-0.1 0.1-0.2 0.2-0.1 0.1-0.2 0.2 0 0.1 0 0.3h8.8q0-0.2-0.1-0.3 0-0.1-0.2-0.2-0.1-0.1-0.2-0.2-0.1 0-0.3 0z"/>
					<path id="Layer" class="s9" d="m85.8 134.9c1.7-1.3-0.1-1.6-0.1-1.6 0.8-0.8 0.6-1.1 0.3-1.3q-0.1-0.1-0.2-0.1 0 0-0.1 0-0.1 0-0.2 0-0.1 0-0.2 0c-0.8 0.3-3.2 1.1-4.6 1.8-1.1-0.1-0.7-1.7-0.3-2.5 0.3-0.4 0.3-1.1-0.8-0.4q-0.4 0.3-0.7 0.5-0.3 0.3-0.6 0.6-0.3 0.3-0.5 0.7-0.3 0.3-0.5 0.6l-5.8-0.5 0.9 7.2c0 0 6.5-0.1 7.5-0.1q0.7-0.1 1.4-0.2 0.7-0.2 1.4-0.4 0.6-0.2 1.3-0.5 0.6-0.3 1.2-0.7c1.9-1.4 0.7-1.5 0.7-1.5 1.7-1.7-0.1-1.6-0.1-1.6z"/>
					<path id="Layer" class="s12" d="m83.6 134.5q0 0-0.1 0 0 0 0-0.1 0 0 0-0.1 0 0 0.1 0 0.2-0.1 0.5-0.2 0.3-0.1 0.5-0.3 0.3-0.1 0.5-0.2 0.3-0.2 0.5-0.3 0-0.1 0.1-0.1 0 0 0.1 0.1 0 0 0 0.1-0.3 0.2-0.6 0.3-0.2 0.2-0.5 0.3-0.2 0.2-0.5 0.3-0.3 0.1-0.6 0.2z"/>
					<path id="Layer" class="s12" d="m83.7 135.9q0 0-0.1 0 0 0 0-0.1 0-0.1 0-0.1 0.1 0 0.1 0 0.3-0.1 0.5-0.2 0.3-0.1 0.5-0.2 0.3-0.1 0.5-0.2 0.3-0.1 0.5-0.3 0.1 0 0.1 0 0.1 0 0.1 0.1 0 0.1 0 0.1 0 0-0.1 0-0.2 0.2-0.5 0.3-0.2 0.1-0.5 0.2-0.2 0.1-0.5 0.2-0.3 0.1-0.5 0.2z"/>
					<path id="Layer" class="s12" d="m84.1 137.4q-0.1 0-0.1 0 0-0.1 0-0.1 0-0.1 0-0.1 0.1 0 0.1 0 0.2 0 0.4-0.1 0.3-0.1 0.5-0.2 0.2-0.1 0.4-0.2 0.2-0.2 0.4-0.3 0.1 0 0.1 0 0.1 0 0.1 0 0 0 0 0.1 0 0 0 0.1-0.2 0.1-0.4 0.2-0.3 0.2-0.5 0.3-0.2 0.1-0.5 0.2-0.2 0.1-0.4 0.1z"/>
					<path id="Layer" class="s1" d="m57.8 131.4l-0.3-0.3 2.4-1.8 0.9-9.8h0.3l-0.9 10z"/>
					<path id="Layer" class="s1" d="m54.5 141.8h-2.1c-2.9-0.4-4.7-1.7-5.6-4-0.8-1.9-0.9-4.6-0.4-8.4h0.4c-1.1 7.8 0.5 11.3 5.6 12l2.1 0.1z"/>
					<path id="Layer" class="s3" d="m69.1 129.9l5.8 0.4c0 0 1.2 3.3-0.3 10.1-0.1 0.7-0.4 1.8-0.4 1.8 0 0-5.9 0.4-6.8-1.3-0.6-1.1 0.7-5.8 0.7-5.8z"/>
					<path id="Layer" class="s1" d="m74.4 142.4l-19.9-0.6v-0.3l19.6 0.5c0.3-1 2-8.1 0.6-11.6l-14.7-0.8 0.1-0.4 14.9 0.9 0.1 0.1c1.6 3.8-0.6 11.7-0.7 12z"/>
					<path id="Layer" class="s1" d="m99.2 120l-0.3-2.7-12.2-10.1q-0.3-0.2-0.7-0.3-0.3-0.1-0.6-0.2-0.4-0.1-0.7-0.2-0.3 0-0.7 0v-0.4q0.4 0 0.8 0.1 0.3 0 0.7 0.1 0.4 0.2 0.7 0.3 0.4 0.2 0.7 0.4l12.3 10.1 0.4 2.9z"/>
					<path id="Layer" class="s1" d="m99.2 117.3l-0.3-0.2 10.9-10.8h0.1q1.3 0.3 2.6 0.9 1.3 0.6 2.4 1.4 1.2 0.9 2.1 2 0.9 1.1 1.5 2.3l-0.3 0.2q-0.6-1.3-1.5-2.3-0.9-1-1.9-1.9-1.1-0.8-2.4-1.4-1.2-0.6-2.5-0.8z"/>
					<path id="Layer" class="s1" d="m74.9 154.2h-0.4v-0.4c4.7 0.1 13-0.8 14.2-0.9l-0.4-31.8h0.4l0.4 32.1h-0.1c-0.1 0-9 1-14.1 1z"/>
					<path id="Layer" class="s1" d="m68.3 112q-0.7-0.4-1.3-0.9-0.6-0.5-1.1-1.1-0.5-0.6-0.8-1.2-0.4-0.7-0.6-1.4l0.3-0.1q0.2 0.7 0.6 1.3 0.4 0.7 0.8 1.2 0.5 0.6 1.1 1.1 0.5 0.4 1.2 0.8z"/>
					<path id="Layer" class="s9" d="m69.7 93.6q0.6-0.2 1.2-0.3 0.6-0.2 1.3-0.2 0.6 0 1.2 0 0.7 0.1 1.3 0.2 0.4 0.1 0.9 0.4 0.4 0.3 0.7 0.7 0.3 0.4 0.4 0.8 0.2 0.5 0.2 1v1.3l-7.2-2.8c0 0-1.1 0.5-1 0.3 0.1-0.1 1-1.4 1-1.4z"/>
					<path id="Layer" class="s9" d="m76.9 96v5.4q0 0.4-0.1 0.7-0.1 0.4-0.3 0.7-0.3 0.3-0.6 0.5-0.4 0.2-0.7 0.2l0.3 2.6q0 0.3 0 0.7-0.1 0.3-0.3 0.6-0.3 0.3-0.5 0.5-0.3 0.2-0.7 0.3-0.2 0.1-0.4 0.1-0.2 0-0.5 0.1-0.2 0-0.4 0-0.2 0-0.4 0-0.6 0.1-1.1-0.1-0.5-0.1-1-0.4-0.4-0.3-0.8-0.7-0.3-0.4-0.5-0.9-0.1-0.5 0-1 0-0.6 0-1.1 0.1-0.5 0.1-1 0.1-0.5 0.2-1l-0.1-1.7 0.3-6.5z"/>
					<path id="Layer" class="s1" d="m71.8 98.6q0 0 0-0.1 0-0.1 0-0.1c0 0 1.2-1.1 2.3-0.3q0 0 0 0.1-0.1 0-0.1 0c-1-0.7-2 0.3-2.1 0.3q0 0 0 0.1-0.1 0-0.1 0z"/>
					<path id="Layer" class="s1" d="m75.5 98.1q-0.1 0-0.1 0 0-0.1 0-0.1 0 0 0-0.1c0 0 0.9-0.6 1.4-0.2q0 0 0 0.1 0 0-0.1 0c-0.4-0.3-1.2 0.3-1.2 0.3z"/>
					<path id="Layer" class="s5" d="m73.6 98.9q0 0 0 0.1-0.1 0-0.1 0.1 0 0-0.1 0-0.1 0-0.1 0 0 0-0.1 0 0 0 0-0.1-0.1 0-0.1 0 0 0 0-0.1 0-0.1 0-0.1 0 0 0-0.1 0.1 0 0.1 0 0 0 0.1-0.1 0.1 0 0.1 0 0 0 0 0.1 0.1 0 0.1 0 0.1 0 0.1 0 0 0.1 0 0.1 0 0.1 0 0.1z"/>
					<path id="Layer" class="s5" d="m76.4 98.6q0 0.1 0 0.1 0 0 0 0.1-0.1 0-0.1 0 0 0-0.1 0.1-0.1 0-0.1 0 0 0-0.1 0 0-0.1 0-0.1-0.1 0-0.1 0 0-0.1 0-0.1 0 0 0-0.1 0-0.1 0-0.1 0.1 0 0.1-0.1 0 0 0.1 0 0.1 0 0.1 0 0.1 0 0.1 0 0 0.1 0 0.1 0 0 0.1 0 0 0.1 0 0.1z"/>
					<path id="Layer" class="s1" d="m69.7 93.5c0 0-2.2-0.1-2.8 1.7-0.5 1.7 0.4 2.7 0.4 3.2 0.1 0.5-0.3 4.1 2.4 3.8l0.8-5.8-1-2.4z"/>
					<path id="Layer" class="s9" d="m69.6 97.4q0.3-0.1 0.6 0 0.3 0 0.6 0.2 0.2 0.2 0.4 0.4 0.2 0.3 0.2 0.6 0.1 0.3 0 0.5-0.1 0.3-0.3 0.6-0.2 0.2-0.4 0.3-0.3 0.2-0.6 0.2-0.3 0.1-0.6 0-0.3-0.1-0.5-0.2-0.3-0.2-0.4-0.4-0.2-0.3-0.3-0.6 0-0.3 0-0.6 0.1-0.2 0.3-0.5 0.2-0.2 0.5-0.4 0.2-0.1 0.5-0.1z"/>
					<path id="Layer" class="s12" d="m69.7 99.7q-0.1 0-0.2-0.1-0.1 0-0.1-0.1-0.1 0-0.2-0.1 0-0.1-0.1-0.2 0-0.1 0-0.2 0-0.1 0-0.1 0.1-0.1 0.1-0.2 0.1-0.1 0.2-0.1 0.1-0.1 0.2-0.1 0.1 0 0.2 0 0.1 0 0.2 0 0.1 0 0.2 0.1 0-0.1 0-0.1-0.1-0.1-0.1-0.1-0.1-0.1-0.1-0.1-0.1 0-0.1-0.1-0.1 0-0.2 0-0.1 0-0.2 0 0 0-0.1 0-0.1 0-0.2 0 0 0-0.1 0 0-0.1 0-0.1 0 0 0.1 0 0.1 0 0.2 0 0.1 0 0.1 0 0.1 0 0.2 0 0.1 0 0.2 0.1 0.1 0 0.2 0.1 0 0 0.1 0.1 0 0.1 0.1 0.1 0 0.1 0 0.2l0.1 0.1-0.1-0.1q-0.1 0-0.2-0.1-0.1 0-0.2 0-0.2-0.1-0.3 0-0.1 0-0.2 0 0 0.1-0.1 0.1-0.1 0.1-0.1 0.2 0 0.1 0 0.1 0 0.1 0 0.2 0 0.1 0.1 0.2 0 0 0.1 0.1 0.1 0 0.2 0.1 0.1 0 0.1 0h0.1q0 0 0 0.1z"/>
					<path id="Layer" class="s12" d="m70.9 101.9c0 0 0.1 3.2 4.5 3.5l-0.2-1.9c0 0-2.9 0.5-4.3-1.6z"/>
					<path id="Layer" class="s12" d="m74.5 100.5q0 0 0-0.1l0.9-0.3-0.3-1.8q0-0.1 0-0.1 0.1 0 0.1 0 0 0 0 0.1l0.3 1.9-0.9 0.3z"/>
					<path id="Layer" class="s9" d="m69.1 102.6l0.3-2.7 0.8 0.1v2.7z"/>
					<path id="Layer" class="s1" d="m70.1 93.5q-0.1 0.3-0.1 0.7-0.1 0.4 0 0.8 0 0.4 0.1 0.7 0.2 0.4 0.4 0.7c0.8 1.9-2.2-0.7-2.2-0.7 0 0 0.2-2.7 1.8-2.2z"/>
					<path id="Layer" class="s12" d="m120.9 108.6q-0.1 0-0.3 0-0.1-0.1-0.3-0.1-0.1-0.1-0.2-0.2-0.2-0.1-0.3-0.2 0-0.1-0.1-0.2 0-0.1 0-0.2 0-0.1-0.1-0.1 0-0.1 0.1-0.2 0 0 0-0.1 0.1 0 0.1 0 0 0.1 0 0.1 0 0.1 0 0.2 0 0 0.1 0.1 0 0.1 0 0.2 0 0 0.1 0.1 0.1 0.1 0.2 0.2 0.1 0.1 0.2 0.1 0.1 0.1 0.3 0.1 0.1 0 0.2 0.1 0.1 0 0.1 0 0 0.1 0 0.1-0.1 0-0.1 0z"/>
					<path id="Layer" class="s1" d="m70.5 96.4c0 0 6.7-0.3 7.1-1.7 0.4-1.5-1.2-1.5-1.2-1.5 0 0 0.3-2-1.7-1.4-2 0.6-5.8 0.5-6.8 2.2-1.1 1.7 2.6 2.4 2.6 2.4z"/>
					<path id="Layer" class="s15" d="m135.3 185.8c0 0-3.9 9-0.7 15.8l-75.4 0.5-7-0.5-6.1-3.5v-5.3l1.7-4.3 5.6-2.7z"/>
					<path id="Layer" class="s11" d="m55.7 203h81.5q0.1 0 0.2 0 0.2 0 0.3-0.1 0.1-0.1 0.2-0.1 0.1-0.1 0.1-0.2 0.1-0.1 0.1-0.2 0.1-0.1 0.1-0.3 0-0.1-0.1-0.2 0-0.1-0.1-0.2 0-0.1-0.1-0.2-0.1-0.1-0.2-0.1-0.1-0.1-0.3-0.1-0.1 0-0.2 0h-81.5c-4.9 0-8.9-3.4-8.9-7.5 0-4.2 4-7.5 8.9-7.5h81.5c0.2 0 0.5-0.1 0.7-0.3 0.1-0.1 0.2-0.4 0.2-0.6 0-0.3-0.1-0.5-0.2-0.7-0.2-0.1-0.5-0.2-0.7-0.2h-81.5c-6 0-10.9 4.2-10.9 9.3 0 5.1 4.9 9.2 10.9 9.2z"/>
					<path id="Layer" class="s13" d="m94.2 194h40q0.1 0 0.1-0.1 0.1 0 0.1-0.1 0-0.1-0.1-0.2 0 0-0.1 0h-40q-0.1 0-0.2 0 0 0.1 0 0.2 0 0.1 0 0.1 0.1 0.1 0.2 0.1z"/>
					<path id="Layer" class="s13" d="m49.7 194h38.8q0.1 0 0.2-0.1 0 0 0-0.1 0-0.1 0-0.2-0.1 0-0.2 0h-38.8q-0.1 0-0.2 0 0 0.1 0 0.2 0 0.1 0 0.1 0.1 0.1 0.2 0.1z"/>
					<path id="Layer" class="s13" d="m50.7 197.4h20q0 0 0.1 0 0.1-0.1 0.1-0.2 0-0.1-0.1-0.1-0.1-0.1-0.1-0.1h-20q-0.1 0-0.1 0.1-0.1 0-0.1 0.1 0 0.1 0.1 0.2 0 0 0.1 0z"/>
					<path id="Layer" class="s13" d="m73.6 197.4h60.6q0.1 0 0.1 0 0.1-0.1 0.1-0.2 0-0.1-0.1-0.1 0-0.1-0.1-0.1h-60.6q-0.1 0-0.2 0.1 0 0 0 0.1 0 0.1 0 0.2 0.1 0 0.2 0z"/>
					<path id="Layer" class="s1" d="m55.7 203.2h81.5c0.3 0 0.6-0.1 0.8-0.3 0.2-0.2 0.4-0.5 0.4-0.8 0-0.3-0.2-0.6-0.4-0.8-0.2-0.2-0.5-0.3-0.8-0.2q-0.1 0-0.2 0 0 0.1 0 0.2 0 0 0 0.1 0.1 0.1 0.2 0.1 0.1-0.1 0.2 0 0.1 0 0.2 0 0 0.1 0.1 0.1 0.1 0.1 0.2 0.2 0 0.1 0 0.1 0.1 0.1 0.1 0.2 0 0.1-0.1 0.2 0 0.1 0 0.2-0.1 0.1-0.2 0.1-0.1 0.1-0.1 0.1-0.1 0.1-0.2 0.1-0.1 0-0.2 0h-81.5c-5.9 0-10.7-4.1-10.7-9 0-5 4.8-9.1 10.7-9.1h81.5q0.1 0 0.2 0 0.1 0 0.2 0.1 0 0 0.1 0.1 0.1 0.1 0.2 0.1 0 0.1 0 0.2 0.1 0.1 0.1 0.2 0 0.1-0.1 0.2 0 0.1 0 0.1-0.1 0.1-0.2 0.2-0.1 0-0.1 0.1-0.1 0-0.2 0.1-0.1 0-0.2 0-0.1 0-0.2 0 0 0.1 0 0.2 0 0 0 0.1 0.1 0.1 0.2 0.1c0.3 0 0.6-0.1 0.8-0.3 0.2-0.2 0.4-0.5 0.4-0.8 0-0.3-0.2-0.6-0.4-0.8-0.2-0.2-0.5-0.3-0.8-0.3h-81.5c-6.1 0-11.1 4.3-11.1 9.5 0 5.2 5 9.4 11.1 9.4z"/>
					<path id="Layer" class="s6" d="m112.6 190.3c0 0 2.6 5.8 1.1 10.1l-2.1-3q-0.3 0.4-0.6 0.7-0.3 0.4-0.6 0.8-0.3 0.3-0.5 0.7-0.3 0.4-0.6 0.8c-0.1 0.2-1.6-9.6-4.7-10.1z"/>
					<path id="Layer" class="s13" d="m50.7 190.5h83.5q0.1 0 0.1-0.1 0.1 0 0.1-0.1 0-0.1-0.1-0.1 0-0.1-0.1-0.1h-83.5q-0.1 0-0.1 0.1-0.1 0-0.1 0.1 0 0.1 0.1 0.1 0 0.1 0.1 0.1z"/>
					<path id="Layer" class="s15" d="m140.8 118.7v29.1h-23.9v-24.3l5.1-4.8z"/>
					<path id="Layer" class="s7" d="m116.9 123.5l5.1-4.8v4.8z"/>
					<path id="Layer" class="s7" d="m124.3 122.3h10.4q0.1 0 0.1 0 0.1 0 0.1 0 0.1-0.1 0.1-0.1 0 0 0-0.1 0-0.1 0-0.1 0-0.1-0.1-0.1 0 0-0.1 0 0-0.1-0.1-0.1h-10.4q0 0-0.1 0.1 0 0-0.1 0 0 0 0 0.1 0 0-0.1 0.1 0.1 0 0.1 0.1 0 0 0 0.1 0.1 0 0.1 0 0.1 0 0.1 0z"/>
					<path id="Layer" class="s7" d="m122.9 124.2h13.3q0 0 0.1 0 0 0 0.1 0 0-0.1 0-0.1 0-0.1 0-0.1 0 0 0-0.1 0 0 0-0.1-0.1 0-0.1 0-0.1-0.1-0.1-0.1h-13.3q-0.1 0-0.1 0 0 0.1-0.1 0.1 0 0 0 0.1-0.1 0-0.1 0.1 0 0 0.1 0.1 0 0 0 0.1 0.1 0 0.1 0 0 0 0.1 0z"/>
					<path id="Layer" class="s7" d="m119.4 128.8h19.2q0.1 0 0.1-0.1 0 0 0.1 0 0 0 0-0.1 0.1 0 0.1-0.1 0 0-0.1-0.1 0 0 0-0.1-0.1 0-0.1 0 0 0-0.1 0h-19.2q-0.1 0-0.1 0-0.1 0-0.1 0 0 0.1-0.1 0.1 0 0.1 0 0.1 0 0.1 0 0.1 0.1 0.1 0.1 0.1 0 0 0.1 0 0 0.1 0.1 0.1z"/>
					<path id="Layer" class="s7" d="m119.4 130.9h19.2q0.1 0 0.1 0 0 0 0.1-0.1 0.1-0.1 0.1-0.1 0-0.1-0.1-0.1 0-0.1 0-0.1-0.1 0-0.1-0.1 0 0-0.1 0h-19.2q-0.1 0-0.1 0-0.1 0.1-0.1 0.1 0 0-0.1 0.1 0 0 0 0.1 0 0 0 0.1 0.1 0 0.1 0 0 0.1 0.1 0.1 0 0 0.1 0z"/>
					<path id="Layer" class="s7" d="m119.4 133.1h19.2q0.1 0 0.1-0.1 0 0 0.1 0 0 0 0-0.1 0.1 0 0.1-0.1 0 0-0.1-0.1 0 0 0-0.1-0.1 0-0.1 0 0 0-0.1 0h-19.2q-0.1 0-0.1 0-0.1 0-0.1 0 0 0.1-0.1 0.1 0 0.1 0 0.1 0 0.1 0 0.1 0.1 0.1 0.1 0.1 0 0 0.1 0 0 0.1 0.1 0.1z"/>
					<path id="Layer" class="s7" d="m119.4 137.3h19.2q0.1 0.1 0.1 0 0 0 0.1 0 0-0.1 0-0.1 0.1 0 0.1-0.1 0 0-0.1-0.1 0 0 0-0.1-0.1 0-0.1 0 0 0-0.1 0h-19.2q-0.1 0-0.1 0-0.1 0-0.1 0 0 0.1-0.1 0.1 0 0.1 0 0.1 0 0 0 0.1 0 0 0.1 0 0 0.1 0 0.1 0.1 0 0.1 0 0.1 0 0.1 0z"/>
					<path id="Layer" class="s7" d="m119.4 139.5h19.2q0.1 0 0.1 0 0 0 0.1-0.1 0 0 0-0.1 0.1 0 0.1-0.1 0 0-0.1 0 0-0.1 0-0.1-0.1-0.1-0.1-0.1 0 0-0.1 0h-19.2q-0.1 0-0.1 0-0.1 0-0.1 0.1 0 0-0.1 0.1 0 0.1 0 0.1 0.1 0.1 0.1 0.1 0 0.1 0.1 0.1 0 0 0.1 0z"/>
					<path id="Layer" class="s7" d="m119.4 145h19.2q0.1 0 0.1 0 0 0 0.1-0.1 0.1-0.1 0.1-0.1 0-0.1-0.1-0.1 0-0.1 0-0.1-0.1 0-0.1-0.1 0 0-0.1 0h-19.2q-0.1 0-0.1 0-0.1 0.1-0.1 0.1 0 0-0.1 0.1 0 0 0 0.1 0 0 0 0.1 0.1 0 0.1 0 0 0.1 0.1 0.1 0 0 0.1 0z"/>
					<path id="Layer" class="s1" d="m70.3 97.5l0.3 1.1 0.3-0.4c0 0 0.6-1.6 0.2-2.3-0.4-0.8-2 0.3-2 0.3z"/>
					<path id="Layer" class="s16" d="m68.9 105l3.9 2.5 2.6-2.3 1.5 0.6-1.3 4.1-2.7-1.5-2.5 1.5-3.4-4.2z"/>
					<path id="Layer" class="s17" d="m43 151.9h101.9v8h-101.9z"/>
					<path id="Layer" class="s15" d="m133.1 157h-85.3q-0.1 0-0.1 0-0.1 0-0.1-0.1 0 0-0.1 0 0 0 0-0.1 0 0-0.1 0 0-0.1 0-0.1 0 0 0-0.1 0-0.1 0-0.1 0.1-0.1 0.1-0.2 0.1 0 0.2 0 0.1-0.1 0.1-0.1h85.3q0.1 0 0.1 0 0 0 0.1 0.1 0 0 0.1 0 0.1 0.1 0.1 0.1 0 0 0 0.1 0.1 0.1 0.1 0.1-0.1 0.1-0.1 0.2 0 0.1-0.1 0.1 0 0.1-0.1 0.1-0.1 0-0.2 0z"/>
					<path id="Layer" class="s18" d="m94.5 157h-46.7q-0.1 0-0.1 0-0.1 0-0.1-0.1 0 0-0.1 0 0 0 0-0.1 0 0-0.1 0 0-0.1 0-0.1 0 0 0-0.1 0-0.1 0-0.1 0.1-0.1 0.1-0.2 0.1 0 0.2 0 0.1-0.1 0.1-0.1h46.7q0 0 0.1 0.1 0.1 0 0.2 0 0 0.1 0.1 0.2 0 0 0 0.1 0 0.1 0 0.1 0 0 0 0.1-0.1 0-0.1 0 0 0.1 0 0.1-0.1 0-0.1 0 0 0.1-0.1 0.1 0 0-0.1 0z"/>
					<path id="Layer" class="s19" d="m94.7 157.4c-0.5 0-0.9-0.4-0.9-0.8 0-0.4 0.4-0.7 0.9-0.7 0.5 0 0.8 0.3 0.8 0.7 0 0.4-0.3 0.8-0.8 0.8z"/>
					<path id="Layer" class="s18" d="m136.5 154.8h0.7v3.7h-0.7z"/>
					<path id="Layer" class="s18" d="m138.4 154.8h0.7v3.7h-0.7z"/>
					<path id="Layer" class="s15" d="m178.9 185.8c0 0 3.9 9 0.6 15.8l75.4 0.5 7-0.5 6.1-3.5v-5.3l-1.7-4.3-5.5-2.7z"/>
					<path id="Layer" class="s20" d="m258.5 203h-81.5q-0.2 0-0.3 0-0.1 0-0.2-0.1-0.1-0.1-0.2-0.1-0.1-0.1-0.2-0.2-0.1-0.1-0.1-0.2 0-0.1 0-0.3 0-0.1 0-0.2 0-0.1 0.1-0.2 0.1-0.1 0.2-0.2 0.1-0.1 0.2-0.1 0.1-0.1 0.2-0.1 0.1 0 0.3 0h81.5c4.9 0 8.9-3.4 8.9-7.5 0-4.2-4-7.5-8.9-7.5h-81.5c-0.3 0-0.5-0.1-0.7-0.3-0.2-0.1-0.3-0.4-0.3-0.6 0-0.3 0.1-0.5 0.3-0.7 0.2-0.1 0.4-0.2 0.7-0.2h81.5c5.9 0 10.8 4.2 10.8 9.3 0 5.1-4.9 9.2-10.8 9.2z"/>
					<path id="Layer" class="s13" d="m180 194h40q0.1 0 0.1-0.1 0.1 0 0.1-0.1 0-0.1-0.1-0.2 0 0-0.1 0h-40q-0.1 0-0.2 0 0 0.1 0 0.2 0 0.1 0 0.1 0.1 0.1 0.2 0.1z"/>
					<path id="Layer" class="s13" d="m225.6 194h38.9q0 0 0.1-0.1 0.1 0 0.1-0.1 0-0.1-0.1-0.2-0.1 0-0.1 0h-38.9q-0.1 0-0.1 0-0.1 0.1-0.1 0.2 0 0.1 0.1 0.1 0 0.1 0.1 0.1z"/>
					<path id="Layer" class="s13" d="m243.5 197.4h19.9q0.1 0 0.2 0 0-0.1 0-0.2 0-0.1 0-0.1-0.1-0.1-0.2-0.1h-19.9q-0.1 0-0.2 0.1 0 0 0 0.1 0 0.1 0 0.2 0.1 0 0.2 0z"/>
					<path id="Layer" class="s13" d="m180 197.4h60.6q0 0 0.1 0 0.1-0.1 0.1-0.2 0-0.1-0.1-0.1-0.1-0.1-0.1-0.1h-60.6q-0.1 0-0.2 0.1 0 0 0 0.1 0 0.1 0 0.2 0.1 0 0.2 0z"/>
					<path id="Layer" class="s1" d="m177 203.2h81.5c6.1 0 11-4.2 11-9.4 0-5.2-4.9-9.5-11-9.5h-81.5q-0.3 0-0.5 0.1-0.2 0.1-0.3 0.2-0.2 0.2-0.3 0.4-0.1 0.2-0.1 0.4c0 0.6 0.5 0.6 1.2 0.6q0.1 0 0.1-0.1 0.1 0 0.1-0.1 0-0.1-0.1-0.1 0-0.1-0.1-0.1c-0.4 0-0.8 0.2-0.8-0.2q0-0.2 0.1-0.3 0-0.1 0.1-0.2 0.2-0.1 0.3-0.2 0.1 0 0.3 0h81.5c5.8 0 10.6 4.1 10.6 9.1 0 4.9-4.8 9-10.6 9h-81.5q-0.1 0-0.2 0-0.1 0-0.2-0.1-0.1 0-0.2-0.1-0.1 0-0.1-0.1-0.1-0.1-0.1-0.2 0-0.1 0-0.2 0-0.1 0-0.2 0 0 0.1-0.1 0-0.1 0.1-0.2 0.1 0 0.2-0.1 0.1 0 0.2 0 0.1-0.1 0.2-0.1 0 0.1 0.1 0 0.1-0.1 0.1-0.1 0-0.1-0.1-0.2-0.1 0-0.1 0c-0.3-0.1-0.6 0-0.9 0.2-0.2 0.2-0.3 0.5-0.3 0.8 0 0.3 0.1 0.6 0.3 0.8q0.4 0.3 0.9 0.3z"/>
					<path id="Layer" class="s21" d="m189.9 190.3c0 0-2.6 5.8-1.1 10.1l2.1-3q0.3 0.4 0.6 0.7 0.3 0.4 0.6 0.8 0.3 0.3 0.5 0.7 0.3 0.4 0.6 0.8c0.2 0.2 1.6-9.6 4.7-10.1z"/>
					<path id="Layer" class="s13" d="m180 190.5h83.4q0.1 0 0.2-0.1 0 0 0-0.1 0-0.1 0-0.1-0.1-0.1-0.2-0.1h-83.4q-0.1 0-0.2 0.1 0 0 0 0.1 0 0.1 0 0.1 0.1 0.1 0.2 0.1z"/>
					<path id="Layer" class="s15" d="m273.7 167.3c0 0-3.9 9-0.6 15.7l-75.5 0.6-6.9-0.6-6.2-3.4v-5.3l1.7-4.3 5.6-2.7z"/>
					<path id="Layer" class="s22" d="m194.1 184.5h81.5q0.1 0 0.2 0 0.2-0.1 0.3-0.1 0.1-0.1 0.2-0.2 0.1 0 0.1-0.1 0.1-0.1 0.1-0.3 0.1-0.1 0.1-0.2 0-0.1-0.1-0.2 0-0.1-0.1-0.2 0-0.1-0.1-0.2-0.1-0.1-0.2-0.2-0.1 0-0.3 0-0.1-0.1-0.2-0.1h-81.5c-4.9 0-8.9-3.3-8.9-7.5 0-4.1 4-7.5 8.9-7.5h81.5c0.2 0.1 0.5 0 0.7-0.2 0.1-0.1 0.2-0.4 0.2-0.6 0-0.3-0.1-0.5-0.2-0.7-0.2-0.1-0.5-0.2-0.7-0.2h-81.5c-6 0-10.9 4.2-10.9 9.2 0 5.1 4.9 9.3 10.9 9.3z"/>
					<path id="Layer" class="s13" d="m272.6 175.4h-40q-0.1 0-0.2 0 0-0.1 0-0.2 0 0 0-0.1 0.1-0.1 0.2 0h40q0.1-0.1 0.1 0 0.1 0.1 0.1 0.1 0 0.1-0.1 0.2 0 0-0.1 0z"/>
					<path id="Layer" class="s13" d="m226.9 175.4h-38.8q-0.1 0-0.2 0 0-0.1 0-0.2 0 0 0-0.1 0.1-0.1 0.2 0h38.8q0.1-0.1 0.2 0 0.1 0.1 0.1 0.1 0 0.1-0.1 0.2-0.1 0-0.2 0z"/>
					<path id="Layer" class="s13" d="m209.1 178.9h-20q-0.1 0-0.1 0-0.1-0.1-0.1-0.2 0-0.1 0.1-0.1 0-0.1 0.1-0.1h20q0.1 0 0.1 0.1 0.1 0 0.1 0.1 0 0.1-0.1 0.2 0 0-0.1 0z"/>
					<path id="Layer" class="s13" d="m272.6 178.9h-60.6q-0.1 0-0.2 0 0-0.1 0-0.2 0-0.1 0-0.1 0.1-0.1 0.2-0.1h60.6q0.1 0 0.1 0.1 0.1 0 0.1 0.1 0 0.1-0.1 0.2 0 0-0.1 0z"/>
					<path id="Layer" class="s1" d="m275.6 184.7h-81.5c-6.1 0-11.1-4.3-11.1-9.5 0-5.2 5-9.4 11.1-9.4h81.5c0.3 0 0.6 0.1 0.8 0.3 0.2 0.2 0.4 0.5 0.4 0.8 0 0.3-0.2 0.6-0.4 0.8-0.2 0.2-0.5 0.3-0.8 0.2q-0.1 0-0.2 0 0-0.1 0-0.2 0 0 0-0.1 0.1-0.1 0.2 0 0.3 0 0.5-0.2 0.2-0.2 0.2-0.5 0-0.3-0.2-0.5-0.2-0.2-0.5-0.2h-81.5c-5.9 0-10.7 4.1-10.7 9 0 5 4.8 9.1 10.7 9.1h81.5q0.3 0 0.5-0.2 0.2-0.2 0.2-0.5 0-0.3-0.2-0.5-0.2-0.2-0.5-0.2-0.1 0-0.2 0 0-0.1 0-0.2 0 0 0-0.1 0.1 0 0.2 0c0.3-0.1 0.6 0 0.8 0.2 0.2 0.2 0.4 0.5 0.4 0.8 0 0.3-0.2 0.6-0.4 0.8-0.2 0.2-0.5 0.3-0.8 0.3z"/>
					<path id="Layer" class="s3" d="m262.7 171.8c0 0 2.5 5.8 1.1 10l-2.1-2.9q-0.3 0.4-0.6 0.7-0.3 0.4-0.6 0.7-0.3 0.4-0.6 0.8-0.3 0.3-0.5 0.7c-0.2 0.3-1.6-9.5-4.7-10z"/>
					<path id="Layer" class="s13" d="m272.6 172h-83.5q-0.1 0-0.1-0.1-0.1 0-0.1-0.1 0-0.1 0.1-0.2 0 0 0.1 0h83.5q0.1 0 0.1 0 0.1 0.1 0.1 0.2 0 0.1-0.1 0.1 0 0.1-0.1 0.1z"/>
					<path id="Layer" class="s23" d="m193.8 203.7h0.6l-1.3-18.4h-1.4z"/>
					<path id="Layer" class="s23" d="m174 203.7h-0.5l1.2-18.4h1.4z"/>
					<path id="Layer" class="s17" d="m198.4 159.5h-12.2l-6.5 26 14-1.3z"/>
					<path id="Layer" class="s24" d="m170.4 182.5c0 0 16 0.4 20.8 0.4q0.3 0 0.6-0.1 0.2-0.1 0.4-0.3 0.3-0.1 0.4-0.4 0.1-0.2 0.2-0.4l4.3-21.4q0-0.1 0-0.2 0.1-0.1 0.1-0.2 0.1-0.1 0.2-0.1 0-0.1 0.1-0.1 0.1-0.1 0.2-0.1 0.1-0.1 0.3-0.1 0.1 0 0.2 0 0.1 0 0.2 0 0.2 0 0.4 0.1 0.2 0.2 0.3 0.3 0.1 0.2 0.1 0.4 0.1 0.2 0 0.4l-4.8 24.2q0 0.1 0 0.1 0 0.1-0.1 0.1 0 0.1 0 0.2-0.1 0-0.1 0.1-0.2 0.2-0.3 0.3-0.2 0.2-0.4 0.3-0.2 0.2-0.5 0.2-0.2 0.1-0.4 0.1h-22.2q-0.3 0-0.7-0.1-0.3-0.2-0.6-0.4-0.2-0.2-0.4-0.6-0.1-0.3-0.1-0.6 0-0.4 0.1-0.8 0.1-0.3 0.4-0.6 0.2-0.3 0.6-0.5 0.3-0.1 0.7-0.2z"/>
					<path id="Layer" class="s1" d="m191.2 182.9q0.3 0.1 0.6 0 0.3-0.1 0.5-0.3 0.2-0.2 0.4-0.4 0.1-0.3 0.2-0.5l4.2-21.4q0.1-0.1 0.1-0.2 0 0 0.1-0.1 0.1-0.1 0.1-0.2 0.1 0 0.2-0.1 0.1 0 0.2-0.1 0.1 0 0.2 0 0.1 0 0.2 0 0.1 0 0.2 0 0.1 0 0.1 0 0 0 0-0.1 0-0.1-0.1-0.1-0.1 0-0.2 0-0.1 0-0.3 0-0.1 0-0.2 0.1-0.1 0-0.2 0.1-0.1 0-0.2 0.1-0.1 0.1-0.1 0.2-0.1 0.1-0.2 0.2 0 0.1 0 0.2l-4.3 21.3q0 0.3-0.2 0.5-0.1 0.2-0.3 0.4-0.2 0.1-0.5 0.2-0.2 0.1-0.5 0.1-0.1 0-0.1 0.1 0 0 0.1 0 0 0.1 0 0z"/>
					<path id="Layer" class="s1" d="m183.3 186.4h8.6q0.5 0.1 0.9 0 0.5-0.1 0.8-0.4 0.4-0.2 0.7-0.6 0.2-0.4 0.3-0.8l0.5-2.6q0 0 0-0.1-0.1 0-0.1 0-0.1 0-0.1 0 0 0 0 0.1l-0.5 2.6c0 0-0.2 1.8-2.4 1.6h-8.7q-0.1 0-0.1 0 0 0.1 0 0.1 0 0.1 0.1 0.1z"/>
					<path id="Layer" class="s1" d="m193.7 159.6h4.2q0.1 0 0.1 0 0-0.1 0-0.1 0 0 0-0.1 0 0-0.1 0h-4.2q-0.1 0-0.1 0 0 0.1 0 0.1 0 0 0 0.1 0 0 0.1 0z"/>
					<path id="Layer" class="s9" d="m188.5 168l-1.4 0.5-1.5 0.7c0 0-2.4 0.4-2.5 0.4l0.2 0.3c-2.9 0.3-12.4 0.7-13.9 0.9-1 0-1.9 1.1-2.4 1.9l0.7 0.5c0 0 8.3-0.3 8.3-0.2 0 0.1-0.3 0.8-0.6 1.8 5 0.3 12.2 0.2 13.5-1.6 1.1-1.6 0-3.8-0.4-5.2z"/>
					<path id="Layer" class="s9" d="m156.6 201.5l6.2 0.1 0.1-5.3-6.2-0.7z"/>
					<path id="Layer" class="s7" d="m150.1 202.8h12.8v-2.3q-0.2-0.3-0.5-0.4-0.3-0.2-0.6-0.3-0.3 0-0.6 0-0.3 0-0.6 0.1-0.5 0.3-1 0.5-0.5 0.1-1.1 0-0.5 0-1-0.2-0.5-0.2-0.9-0.5l-4.8 1.8c0 0-1.7 0.5-1.7 1.3z"/>
					<path id="Layer" class="s25" d="m149.7 202.8h13.2v0.8h-13.2q0 0-0.1 0 0-0.1 0-0.1v-0.6q0-0.1 0-0.1 0.1 0 0.1 0z"/>
					<path id="Layer" class="s26" d="m155.2 200.2l1.8 2.6h0.9c-0.5-0.7-1.5-2.1-2-2.8z"/>
					<path id="Layer" class="s26" d="m155.6 202.8h0.9c-0.4-0.6-1.2-1.7-1.7-2.4l-0.7 0.2z"/>
					<path id="Layer" class="s6" d="m176 182.6c0 0 5.4 0.1 9.2-0.1q0.3 0.1 0.7 0.1 0.4 0 0.7-0.1 0.4 0 0.8 0 0.3 0 0.7 0c2.6-0.6 3.3-8 0.3-12.6-3-4.5-13.4 9.5-13.4 9.5z"/>
					<path id="Layer" class="s9" d="m166.3 201.5l6.2 0.1 0.1-5.3-6.2-0.7z"/>
					<path id="Layer" class="s6" d="m159.8 202.8h12.8v-2.3q-0.2-0.3-0.5-0.4-0.2-0.2-0.6-0.3-0.3 0-0.6 0-0.3 0-0.6 0.1-0.5 0.3-1 0.5-0.5 0.1-1.1 0.1-0.5-0.1-1-0.3-0.5-0.2-0.9-0.5l-4.7 1.8c0 0-1.8 0.5-1.8 1.3z"/>
					<path id="Layer" class="s27" d="m159.4 202.8h13.2v0.8h-13.1q-0.1 0-0.1 0-0.1-0.1-0.1-0.1v-0.6q0-0.1 0.1-0.1z"/>
					<path id="Layer" class="s26" d="m164.9 200.2l1.8 2.6h0.9l-2-2.8z"/>
					<path id="Layer" class="s26" d="m165.3 202.8h0.9c-0.4-0.6-1.2-1.7-1.7-2.4l-0.7 0.2z"/>
					<path id="Layer" class="s7" d="m170.2 172.6c0 0-13.2 0.8-13.6 2.2-0.4 1.4-1.5 16.1-0.7 22.4q1 0 1.9 0.1 0.9 0 1.9-0.1 0.9 0 1.8-0.1 0.9 0 1.9-0.1l0.6-15.4 3.9-0.4 9.1-9.9z"/>
					<path id="Layer" class="s6" d="m176.6 172.4c0 0-10.2 2.6-10.6 4-0.4 1.4-1.5 14.5-0.7 20.8q1 0.1 2 0.1 1 0 1.9 0 1-0.1 2-0.1 1-0.1 1.9-0.2l0.7-14.5 2.3 0.1 5.7-9z"/>
					<path id="Layer" class="s1" d="m169.9 197.4q0.4 0 0.8 0 0.4 0 0.9-0.1 0.4 0 0.8-0.1 0.4-0.1 0.8-0.2l0.7-14.5-1 0.4v0.2l0.8-0.3-0.7 14.1q-0.5 0.1-1 0.2-0.6 0.1-1.2 0.1-0.5 0.1-1.1 0-0.5 0-1.1 0v0.1q0.7 0.1 1.3 0.1z"/>
					<path id="Layer" class="s1" d="m172.1 194.2c0.3-0.8 0.4-9.5 0.4-9.9h-0.2c0 0.1-0.1 9-0.3 9.9z"/>
					<path id="Layer" class="s1" d="m162.7 182q0.3-0.1 0.7-0.2 0.3-0.1 0.7-0.1 0.4-0.1 0.7-0.1 0.4 0 0.7 0v-0.2q-0.3 0-0.7 0-0.4 0.1-0.7 0.1-0.4 0.1-0.8 0.2-0.3 0-0.7 0.1z"/>
					<path id="Layer" class="s1" d="m159.9 197.3q0.5 0 0.9 0 0.4 0 0.9 0 0.4-0.1 0.8-0.1 0.5-0.1 0.9-0.2h0.1l0.6-15.5-0.8 0.6 0.1 0.1 0.5-0.3-0.6 15q-0.5 0.1-0.9 0.1-0.4 0.1-0.9 0.1-0.4 0.1-0.9 0.1-0.4 0-0.9 0v0.1z"/>
					<path id="Layer" class="s1" d="m162.5 194.6c0.3-1.4 0-10.5 0-10.9h-0.2c0 0.1 0.3 9.5 0 10.8z"/>
					<path id="Layer" class="s1" d="m180.1 182.7c2.3 0 5.1 0 8.3-0.2v-0.2q-2 0.1-4 0.2-1.9 0.1-3.9 0.1-2 0-4-0.1-2-0.1-3.9-0.2l-0.1 0.2c0.1 0 2.9 0.2 7.6 0.2z"/>
					<path id="Layer" class="s28" d="m176.8 167.8c-0.1 0-7.5 2.8-7.5 2.8l1.5 2.6 4.1-0.8z"/>
					<path id="Layer" class="s28" d="m187.5 155.9c0 0 3.1-0.1 4.6 0.6 2.2 1.2 1.4 7.7 1.4 7.7q-0.3-0.1-0.5-0.3-0.3-0.1-0.6-0.3-0.2-0.1-0.4-0.3-0.3-0.2-0.5-0.4c-0.1-0.3-4-7-4-7z"/>
					<path id="Layer" class="s1" d="m188.2 170l-2.3 0.5q0 0-0.1 0 0 0 0-0.1 0.1-0.1 0.1-0.1l2.3-0.4q0.1 0 0.1 0 0 0 0 0.1 0 0-0.1 0z"/>
					<path id="Layer" class="s29" d="m189.4 168.8l-1.4 0.5-1.5 0.7c0 0-2.4 0.4-2.5 0.4l0.2 0.3c-3 0.3-12.4 0.7-14 0.8-0.9 0.1-1.8 1.2-2.3 2l0.7 0.5c0 0 8.3-0.4 8.2-0.2 0 0-0.2 0.8-0.6 1.8 5.1 0.3 12.3 0.2 13.6-1.7 1.1-1.5 0-3.8-0.4-5.1z"/>
					<path id="Layer" class="s28" d="m190.5 156.4c-1.8-0.3-6.5-0.4-6.5-0.4 0 0-0.6 0.1-0.4 0.1-5.2 0.8-5.7 4.3-5.7 4.3l-2.5 10-2.8 0.1c-0.9 1.6-0.3 5.8-0.3 5.8l13.6 1.4q0.8 0 1.5-0.1 0.8-0.2 1.5-0.5 0.7-0.3 1.3-0.8 0.6-0.5 1.1-1.1c1.7-1.9 2.2-7.8 2.2-12 0 0-0.3-6.5-3-6.8z"/>
					<path id="Layer" class="s30" d="m152.4 164.1h13l4.5 10.4h-13z"/>
					<path id="Layer" class="s31" d="m169.9 174.5h-0.7l-4.5-10.4h0.7z"/>
					<path id="Layer" class="s32" d="m160.9 169c0.2 0.5 0 0.9-0.3 1-0.3 0.2-0.8-0.2-1-0.6-0.1-0.5 0-1 0.3-1.1 0.4-0.1 0.8 0.2 1 0.7z"/>
					<path id="Layer" class="s31" d="m174.2 173.7h-4.9v0.8h4.8q0.1 0 0.2 0 0.1 0 0.2-0.1 0 0 0.1-0.1 0-0.1 0-0.2 0-0.1 0-0.2-0.1 0-0.1-0.1-0.1-0.1-0.2-0.1-0.1 0-0.1 0z"/>
					<path id="Layer" class="s30" d="m169.9 174h3v0.1h-3z"/>
					<path id="Layer" class="s1" d="m185.9 170.5q0 0-0.1 0 0 0 0-0.1c0 0 1.4-5.5 2-8.9q0 0 0.1 0 0-0.1 0-0.1 0.1 0 0.1 0 0 0.1 0 0.1c-0.6 3.5-2 8.9-2 9q0 0-0.1 0z"/>
					<path id="Layer" class="s1" d="m177.1 170.4q0 0-0.1 0 0 0 0-0.1c0 0 2.1-6.1 2.6-8.2q0 0 0.1 0 0 0 0.1 0 0 0.1 0 0.1c-0.5 2.1-2.6 8.1-2.6 8.2q0 0-0.1 0z"/>
					<path id="Layer" class="s1" d="m185.7 158.9q-0.1 0-0.2 0 0 0-0.1 0 0-0.1 0-0.1 0 0 0.1 0c2.9-0.2 3.5-2.1 3.5-2.2q0.1 0 0.1 0 0 0 0 0.1c0 0-0.5 2-3.4 2.2z"/>
					<path id="Layer" class="s1" d="m176.5 169q0 0-0.1 0l-0.6-0.9 0.1-0.1 1.9-7.7q0.1-0.2 0.2-0.5 0.1-0.3 0.2-0.5 0.1-0.3 0.3-0.5 0.1-0.2 0.3-0.4 0.5-0.6 1.1-1 0.6-0.5 1.3-0.8 0.7-0.3 1.4-0.5 0.7-0.2 1.5-0.2 0 0 0.1 0 0 0.1 0 0.1 0 0-0.1 0.1-0.7 0-1.4 0.2-0.7 0.2-1.4 0.5-0.7 0.3-1.2 0.7-0.6 0.4-1.1 1-0.2 0.2-0.4 0.4-0.1 0.2-0.3 0.5-0.1 0.2-0.2 0.4-0.1 0.3-0.1 0.6l-2 7.7 0.6 0.8q0 0 0 0.1 0 0-0.1 0z"/>
					<path id="Layer" class="s1" d="m173.5 169q-0.1 0-0.1 0 0 0 0-0.1l2.5-0.9q0.1 0 0.1 0 0 0.1 0 0.1z"/>
					<path id="Layer" class="s28" d="m172.6 170.5c0 0-0.9 1.9-0.3 5.8l3.3-1.6-1-2.9z"/>
					<path id="Layer" class="s1" d="m188.9 170.6q0 0-0.1 0c-0.1 0-12.2-0.3-16.2 0q-0.1 0.4-0.2 0.9-0.1 0.4-0.2 0.9 0 0.5 0 0.9 0 0.5 0 1 0 0-0.1 0-0.1 0-0.1 0 0-0.5 0-1 0-0.5 0-1 0.1-0.4 0.2-0.9 0.1-0.5 0.3-0.9v-0.1h0.1c3.9-0.3 16.1 0.1 16.3 0.1q0 0 0 0.1z"/>
					<path id="Layer" class="s9" d="m183.3 150.2l-0.1 3.3q0 0.3 0.1 0.5 0 0.2 0.2 0.4 0.1 0.1 0.3 0.2 0.2 0.1 0.4 0.2l-0.2 1.4q-0.1 0.2 0 0.4 0 0.2 0.1 0.4 0.1 0.2 0.3 0.3 0.2 0.1 0.4 0.2 0.1 0 0.2 0 0.1 0.1 0.3 0.1 0.1 0 0.2 0 0.1 0 0.3 0 0.3 0.1 0.6 0 0.3-0.1 0.5-0.2 0.3-0.2 0.5-0.4 0.2-0.3 0.3-0.5 0.1-0.3 0-0.6 0-0.3 0-0.6 0-0.3 0-0.6 0-0.3-0.1-0.6l0.1-1-0.1-3.7z"/>
					<path id="Layer" class="s12" d="m186.7 153.9c0 0-0.2 1.8-2.7 2l0.2-1.1q0.3 0.1 0.7 0 0.3 0 0.6-0.1 0.4-0.1 0.7-0.3 0.2-0.2 0.5-0.5z"/>
					<path id="Layer" class="s11" d="m186.2 152q0-0.1 0-0.1c0 0-0.7-0.6-1.3-0.2q0 0 0 0.1 0 0 0.1 0c0.5-0.4 1.1 0.2 1.1 0.2q0 0 0.1 0z"/>
					<path id="Layer" class="s30" d="m187.9 151.6l-1.1 0.1-0.2 0.2q0-0.2 0.1-0.5 0-0.2 0-0.5 0.1-0.2 0.1-0.5 0.1-0.2 0.2-0.4c0.2-0.3 0.9 1.6 0.9 1.6z"/>
					<path id="Layer" class="s11" d="m184.1 151.7q0.1 0 0.1 0 0-0.1 0-0.1c-0.1 0-0.5-0.4-0.8-0.2q-0.1 0.1-0.1 0.1 0 0 0.1 0c0.3-0.2 0.7 0.2 0.7 0.2z"/>
					<path id="Layer" class="s5" d="m185.2 152.2q0 0.1 0 0.1 0 0 0.1 0 0.1 0 0.1 0 0 0 0-0.1 0 0 0.1 0 0-0.1-0.1-0.1 0-0.1 0-0.1-0.1 0-0.1 0-0.1 0-0.1 0 0 0.1 0 0.1 0 0 0 0.1z"/>
					<path id="Layer" class="s5" d="m183.6 152q0 0.1 0 0.1 0 0 0.1 0 0.1 0 0.1-0.1 0 0 0-0.1-0.1-0.1-0.2 0 0 0 0 0.1z"/>
					<path id="Layer" class="s9" d="m186.4 152.1q0 0.2 0.1 0.4 0 0.1 0.2 0.2 0.1 0.2 0.2 0.2 0.2 0.1 0.4 0.1 0.1 0 0.3-0.1 0.2 0 0.3-0.1 0.1-0.1 0.2-0.3 0.1-0.1 0.1-0.3 0-0.2-0.1-0.3 0-0.2-0.2-0.3-0.1-0.1-0.3-0.2-0.1-0.1-0.3-0.1-0.2 0-0.3 0.1-0.2 0-0.3 0.2-0.1 0.1-0.2 0.2-0.1 0.2-0.1 0.3z"/>
					<path id="Layer" class="s12" d="m187.4 152.6q0.1 0 0.2 0 0 0 0.1 0 0-0.1 0-0.1 0.1-0.1 0.1-0.1 0-0.1 0-0.1 0-0.1 0-0.1 0-0.1-0.1-0.1 0-0.1 0-0.1-0.1 0-0.1-0.1-0.1 0-0.2 0 0 0-0.1 0-0.1 0.1-0.1 0.1 0 0 0-0.1 0 0 0.1 0 0 0 0-0.1 0 0 0.1 0 0 0 0.1 0 0 0 0.1 0 0 0 0.1 0 0 0 0.1 0 0-0.1 0-0.1-0.1 0-0.1 0-0.1 0-0.1 0-0.1 0-0.1 0-0.1 0-0.1 0.1-0.1 0-0.1 0-0.1 0-0.1 0.1 0 0 0 0.1-0.1 0-0.1 0.1h0.1q0-0.1 0.1-0.1 0 0 0.1 0 0.1 0 0.1 0 0.1 0 0.1 0 0.1 0.1 0.1 0.1 0 0 0.1 0.1 0 0 0 0.1 0 0-0.1 0.1 0 0.1-0.1 0.1 0 0-0.1 0.1 0 0-0.1 0z"/>
					<path id="Layer" class="s12" d="m184.6 153.1q0-0.1 0-0.1l-0.5-0.1 0.2-1.1q-0.1 0-0.1 0l-0.1 1.1z"/>
					<path id="Layer" class="s33" d="m185 153.5h-1q0 0 0.1 0.1 0 0.1 0.1 0.1 0 0.1 0.1 0.1 0.1 0 0.2 0.1 0 0 0.1-0.1 0.1 0 0.2 0 0-0.1 0.1-0.1 0-0.1 0.1-0.2z"/>
					<path id="Layer" class="s30" d="m187.9 151.6c0 0 0.4-1.6-0.2-2.2-0.5-0.6-3.5-1.7-3.9-1.4-0.4 0.2 0 0.6 0 0.6 0 0-1.3-0.4-1.6 0.6-0.3 1 2.4 1.5 4 1.1q0.2 0 0.5 0.2 0.2 0.1 0.4 0.3 0.3 0.1 0.5 0.3 0.2 0.2 0.3 0.5z"/>
					<path id="Layer" class="s1" d="m188.3 177.4q-0.3 0.1-0.6 0.2-0.2 0-0.5 0.1-0.2 0-0.4 0-0.2 0.1-0.5 0.1-0.2-0.1-0.4-0.1 0 0-0.1 0 0-0.1 0-0.1 0.1 0 0.1 0 0.2 0 0.4 0 0.3 0 0.5 0 0.2 0 0.4-0.1 0.2 0 0.5-0.1 0.5-0.1 1-0.3 0.5-0.2 0.9-0.5 0.5-0.3 0.9-0.7 0.4-0.3 0.7-0.7c1.6-1.9 2.2-7.6 2.2-11.9q0 0 0.1 0 0-0.1 0-0.1 0 0 0 0.1 0.1 0 0.1 0c0 4.4-0.6 10.1-2.2 11.9q-0.3 0.4-0.7 0.7-0.3 0.4-0.7 0.6-0.4 0.3-0.9 0.5-0.4 0.3-0.8 0.4z"/>
					<path id="Layer" class="s11" d="m211.8 137.7c0 0 0.5 3.8 1.1 3.8 0.6 0-0.5 4.5-2.1 2.3-0.6-0.8-0.6-5.8 0.8-6.8 1.4-1.1 0.2 0.7 0.2 0.7z"/>
					<path id="Layer" class="s9" d="m211.6 136.7c0 0-0.6 3.6-0.1 4.2q0.1 0.1 0.2 0.2 0.1 0.1 0.2 0.1 0.1 0.1 0.2 0.1 0.1 0 0.3 0l-0.1 2.1 2.8-0.3 0.1-6c0 0-0.8-1.5-0.8-1.4z"/>
					<path id="Layer" class="s12" d="m212.4 139.7c-0.1-0.1-0.2-0.3-0.2-0.3q0.1-0.1 0.1-0.1 0.1 0 0.1-0.1 0-0.1 0.1-0.1 0-0.1 0-0.2 0 0 0-0.1 0-0.1 0-0.1 0-0.1 0-0.2 0 0-0.1-0.1 0 0.1 0.1 0.1 0 0.1 0 0.2 0 0 0 0.1 0 0.1 0 0.1 0 0.1-0.1 0.2 0 0 0 0.1-0.1 0-0.1 0.1-0.1 0-0.1 0.1c0 0 0 0.3 0.2 0.3z"/>
					<path id="Layer" class="s12" d="m212.4 142v-0.7q0.3 0 0.5-0.1 0.3 0 0.6-0.1 0.3 0 0.5-0.1 0.3-0.1 0.5-0.2-0.2 0.2-0.5 0.4-0.2 0.1-0.5 0.3-0.3 0.2-0.6 0.3-0.2 0.1-0.5 0.2z"/>
					<path id="Layer" class="s11" d="m214.3 138.5q0 0 0-0.1c0 0-0.6-0.6-1.2-0.2q-0.1 0-0.1 0.1 0 0 0.1 0c0.5-0.4 1.1 0.2 1.1 0.2q0 0 0.1 0z"/>
					<path id="Layer" class="s11" d="m212.2 138.4q0-0.1 0-0.1c0 0-0.4-0.4-0.7-0.1q-0.1 0-0.1 0 0 0 0.1 0c0.3-0.1 0.6 0.2 0.6 0.2q0.1 0 0.1 0z"/>
					<path id="Layer" class="s5" d="m213.2 138.8q0 0 0.1 0 0 0 0 0.1 0.1 0 0.1 0 0 0 0.1 0 0 0 0-0.1 0 0 0-0.1 0 0 0-0.1-0.1 0-0.1 0 0 0-0.1 0 0 0 0 0.1-0.1 0-0.1 0z"/>
					<path id="Layer" class="s5" d="m211.6 138.7q0 0.1 0.1 0.2 0.1 0 0.1 0 0.1-0.1 0.1-0.2-0.1-0.1-0.2-0.1-0.1 0-0.1 0 0 0.1 0 0.1z"/>
					<path id="Layer" class="s33" d="m213.1 139.9l-1 0.1q0 0.1 0.1 0.1 0.1 0.1 0.1 0.2 0.1 0 0.2 0 0.1 0 0.1 0 0.1 0 0.2 0 0.1-0.1 0.1-0.1 0.1-0.1 0.1-0.1 0.1-0.1 0.1-0.2z"/>
					<path id="Layer" class="s9" d="m212.8 136.8l0.7-0.9q-0.2 0.1-0.3 0.2-0.1 0-0.3 0.1-0.1 0.1-0.2 0.2-0.1 0.1-0.2 0.2 0.1 0 0.1 0.1 0.1 0 0.1 0 0 0 0.1 0.1z"/>
					<path id="Layer" class="s11" d="m214.8 136.4c0 0-0.2 1.3-3.7 1.6 0 0-0.9-2 1.7-2.7 2.6-0.6 2.8 1.2 2.8 1.1-0.1 0-0.8 0-0.8 0z"/>
					<path id="Layer" class="s11" d="m214.3 137.1q0.1 0.2 0.2 0.4 0.2 0.2 0.3 0.4 0.1 0.1 0.2 0.3 0.1 0.2 0.2 0.4c0.1 0.2-1.1 5.7 1.2 5.3h0.5c2.1 0 0.6-4.1 0.6-6.3 0-1.4-1.9-2.8-3.1-2-1.2 0.9-0.1 1.5-0.1 1.5z"/>
					<path id="Layer" class="s9" d="m214.9 138.8q0.1-0.1 0.2-0.1 0.2-0.1 0.3-0.1 0.2 0 0.3 0.1 0.2 0 0.3 0.1 0.1 0.1 0.2 0.3 0 0.1 0 0.2 0 0.2-0.1 0.3 0 0.2-0.1 0.2-0.1 0.1-0.3 0.2-0.1 0.1-0.3 0.1-0.1-0.1-0.3-0.1-0.1-0.1-0.2-0.2-0.2-0.1-0.2-0.2-0.1-0.1-0.1-0.3 0-0.1 0.1-0.3 0.1-0.1 0.2-0.2z"/>
					<path id="Layer" class="s12" d="m215.5 139.8q0 0 0.1 0 0-0.1 0.1-0.1 0 0 0-0.1 0.1 0 0.1 0 0-0.1 0-0.1 0-0.1 0-0.1 0-0.1-0.1-0.1 0-0.1 0-0.1-0.1 0-0.1 0-0.1 0-0.1 0-0.1 0-0.1 0-0.1 0-0.1 0 0-0.1 0-0.1 0 0 0.1 0 0.1-0.1 0.1-0.1 0.1 0 0.1 0 0 0 0.1 0 0 0 0.1 0-0.1 0-0.1 0-0.1 0-0.1 0-0.1 0-0.1 0-0.1 0-0.1 0 0 0-0.1 0.1-0.1 0.1-0.1 0.1 0 0 0 0.1v0.1-0.1q0.1 0 0.1-0.1 0.1 0 0.1 0 0.1 0 0.1 0 0.1 0 0.2 0.1 0 0 0.1 0.1 0 0 0 0.1-0.1 0.1-0.1 0.1 0 0-0.1 0.1-0.1 0-0.1 0-0.1 0-0.1 0 0 0 0 0.1 0 0 0.1 0z"/>
					<path id="Layer" class="s11" d="m211.4 136.1c0 0-1.2 1.2-0.9 4.5l0.8-3.3z"/>
					<path id="Layer" class="s9" d="m208.2 185.6l4.5-1.3-1.6-4.8-4.7 0.7z"/>
					<path id="Layer" class="s34" d="m205.2 189.1l8.1-4.4-1-1.5q-0.2-0.1-0.4-0.1-0.3 0-0.5 0.1-0.2 0-0.4 0.2-0.2 0.1-0.4 0.3-0.2 0.3-0.5 0.6-0.2 0.3-0.6 0.4-0.4 0.2-0.7 0.2-0.4 0.1-0.8 0l-2.3 2.8c0 0-0.8 0.9-0.5 1.4z"/>
					<path id="Layer" class="s27" d="m205 189.2l8.3-4.5 0.4 0.5-8.3 4.5q0 0-0.1 0 0 0-0.1 0 0 0-0.1 0 0-0.1 0-0.1l-0.1-0.1q-0.1-0.1-0.1-0.1 0-0.1 0-0.1 0 0 0.1-0.1z"/>
					<path id="Layer" class="s9" d="m212.1 166.3l2.1 3.8-4.6 2.1-2.1-3.9z"/>
					<path id="Layer" class="s3" d="m215.2 165.1c-0.1 0-3.9 1.6-3.9 1.6l-1.2 0.7c0 0 1.8 11.5 2.2 14.6q-0.6 0.4-1.3 0.7-0.6 0.3-1.3 0.5-0.7 0.2-1.4 0.4-0.7 0.1-1.4 0.2c-0.5 0-5.7-17.9-5.7-20.1 0-2.3 12-7.7 12-7.7l5.5 2.9c0 0 8.2 0.6 10.1 1.8 1.9 1.1-14.7 7.9-14.7 7.9z"/>
					<path id="Layer" class="s3" d="m211 166.2c0 0 9.3-5 12.5-5.8 3.2-0.7 5.5-0.1 5.8 0.8 0.4 0.9 0.7 3.5 0 4.4-0.7 0.8-12.8 4.9-15.6 5.6 0 0-2.4-2.6-2.7-5z"/>
					<path id="Layer" class="s1" d="m229.2 161.1c-0.8-1.3-8.4-2-8.8-1.9q-0.1 0-0.1 0 0 0 0-0.1 0 0-0.1 0 0-0.1 0.1-0.1 0.3 0 0.6 0 0.2 0 0.5 0.1 0.3 0 0.6 0 0.3 0 0.6 0.1 0.5 0 1 0.1 0.5 0.1 1.1 0.2 0.5 0 1 0.1 0.5 0.1 1 0.3 2.3 0.5 2.6 1.2 0 0 0 0.1 0 0-0.1 0 0 0 0-0.1z"/>
					<path id="Layer" class="s1" d="m211.9 168.7q0 0 0.1 0 0-0.1 0-0.1-0.2-0.3-0.3-0.6-0.2-0.3-0.3-0.6-0.1-0.3-0.2-0.6-0.1-0.3-0.1-0.6 1.5-0.9 3.1-1.8 1.6-0.8 3.2-1.6 1.6-0.8 3.3-1.5 1.6-0.7 3.3-1.3 0-0.1 0-0.1 0 0 0-0.1 0 0-0.1 0-1.7 0.7-3.3 1.4-1.7 0.7-3.3 1.5-1.6 0.8-3.2 1.6-1.6 0.8-3.1 1.7l-0.1 0.1q0 0.4 0.1 0.7 0.1 0.3 0.2 0.7 0.1 0.3 0.3 0.6 0.2 0.3 0.4 0.6z"/>
					<path id="Layer" class="s1" d="m222.3 160.6q0 0 0.1 0 0.1-0.1 0.2-0.2 0.1-0.1 0.2-0.2 0.2-0.1 0.3-0.2 0.1-0.1 0.3-0.2 0-0.1 0-0.1 0 0-0.1 0-0.2 0.1-0.3 0.2-0.1 0-0.3 0.1-0.1 0.1-0.2 0.2-0.1 0.2-0.2 0.3-0.1 0-0.1 0 0.1 0.1 0.1 0.1z"/>
					<path id="Layer" class="s1" d="m203.2 172h0.1q0 0 0-0.1c0-0.1-1.8-6.8-2-8-0.2-1.1 2.4-2.7 2.4-2.7q0-0.1 0.1-0.1 0 0 0-0.1-0.1 0-0.1 0-0.1 0-0.1 0c-0.1 0.1-2.7 1.7-2.5 2.9 0.2 1.2 2 8 2 8q0 0 0.1 0 0 0.1 0 0.1z"/>
					<path id="Layer" class="s1" d="m209 168.1l2.2-1.3q0 0 0-0.1-0.1 0-0.1 0l-2.2 1.2q0 0 0 0.1 0 0.1 0 0.1 0.1 0 0.1 0z"/>
					<path id="Layer" class="s1" d="m206.8 183.9h0.1c0.1-0.1 3.8-0.5 5.4-1.8l0.1-0.1-1.6-10.9-0.5-3.8q0-0.1 0-0.1-0.1 0-0.1 0-0.1 0-0.1 0 0 0.1 0 0.1l0.5 3.9 1.6 10.8c-1.6 1.2-5.3 1.7-5.4 1.7q0 0 0 0.1 0 0.1 0 0.1z"/>
					<path id="Layer" class="s1" d="m228 165.7c1-0.7 1-1.2 1-1.3q0 0-0.1 0c0 0 0 0.6-1 1.2q0 0 0 0.1 0 0 0.1 0z"/>
					<path id="Layer" class="s1" d="m227.1 165.6c1.1-0.6 1.2-1.1 1.2-1.2q-0.1-0.1-0.1-0.1 0 0.1 0 0.1-0.1 0-0.1 0c0 0-0.1 0.5-1.1 1q0 0.1 0 0.1 0 0.1 0 0.1 0.1 0 0.1 0z"/>
					<path id="Layer" class="s6" d="m212.2 149.3l1.7-6.5h4.7q0.1 0.1 0.3 0.1 0.1 0 0.3 0 0.1 0.1 0.3 0.1 0.1 0.1 0.3 0.2c1.8 0.9 7 6 6.7 9.2-0.2 3-4.9 2.4-9.5 3l-1-3.8 1.6-0.5z"/>
					<path id="Layer" class="s6" d="m213.8 150.3v-7.5h-4.7q-0.2 0.1-0.3 0.1-0.2 0-0.3 0-0.2 0.1-0.3 0.1-0.2 0.1-0.3 0.2c-1.9 0.9-7.6 6.1-7.4 9.4 0.2 2.9 5.7 2.8 8.3 3.5l1.4-4.6-0.2-0.3z"/>
					<path id="Layer" class="s6" d="m206.2 151.3l0.1 8.2c0 0 8.1 1.3 15.3-0.4 0.2-0.1-0.3-6.8-0.3-6.8 0 0 0-1.3-0.8-1.7-0.7-0.4-6.9-2.8-7-2.8-0.2 0-7.3 3.5-7.3 3.5z"/>
					<path id="Layer" class="s1" d="m214 145.1q-0.1 0-0.1 0 0-0.1 0-0.1 0.1 0 0.1 0 0-0.1 0-0.1 0.5 0.1 1-0.1 0.5-0.1 1-0.3 0.5-0.3 0.9-0.6 0.4-0.3 0.7-0.8 0.1 0 0.1 0 0 0 0 0.1-0.3 0.4-0.7 0.8-0.4 0.4-0.9 0.6-0.5 0.3-1 0.4-0.5 0.1-1.1 0.1z"/>
					<path id="Layer" class="s9" d="m211.1 142.8h5.9q-0.3 0.4-0.6 0.7-0.4 0.3-0.8 0.5-0.4 0.3-0.8 0.4-0.5 0.1-0.9 0.1-0.5 0-0.9-0.1-0.4-0.1-0.8-0.3-0.3-0.3-0.6-0.6-0.3-0.3-0.5-0.7z"/>
					<path id="Layer" class="s35" d="m214.7 153.6q0.1-0.1 0.1-0.2 0.1-0.1 0.1-0.2 0-0.1-0.1-0.2 0-0.1-0.1-0.2 0.1-0.1 0.1-0.2 0-0.1 0-0.2 0 0 0-0.1-0.1-0.1-0.1-0.2c0-0.1-1.6 0.4-2.5 0.7q-0.1 0-0.1 0-0.1 0-0.2-0.1-0.1 0-0.2-0.1-0.1 0-0.1-0.1h-0.1c0-0.4 0-0.9 0-0.9 0-0.1-0.1-0.3-0.4 0q-0.1 0.2-0.2 0.3-0.1 0.1-0.2 0.3-0.1 0.1-0.2 0.3-0.1 0.1-0.2 0.2l-1.3-0.7-1 3.4c0 0 3.1 0.4 3.6 0.4q0.4 0 0.7-0.1 0.4 0 0.7-0.1 0.3-0.1 0.7-0.2 0.3-0.2 0.6-0.3c0.5-0.4 0.4-0.7 0.4-0.7q0.1-0.1 0.1-0.2 0.1-0.1 0.1-0.2 0-0.1-0.1-0.2 0-0.1-0.1-0.2z"/>
					<path id="Layer" class="s28" d="m211.3 151.4v1q0.1 0.1 0.2 0.2 0.1 0.1 0.2 0.1 0.1 0.1 0.3 0.1 0.1 0 0.2 0l0.5-0.2-0.4-1.5z"/>
					<path id="Layer" class="s12" d="m213.7 153.3q-0.1 0-0.1 0 0-0.1 0-0.1 0.2 0 0.3-0.1 0.1 0 0.3-0.1 0.1 0 0.2-0.1 0.2-0.1 0.3-0.1 0 0 0.1 0 0 0 0 0.1-0.2 0-0.3 0.1-0.1 0.1-0.3 0.1-0.1 0.1-0.3 0.1-0.1 0.1-0.2 0.1z"/>
					<path id="Layer" class="s12" d="m213.7 154q-0.1 0-0.1 0 0 0 0-0.1 0.2 0 0.3-0.1 0.1 0 0.3 0 0.1-0.1 0.2-0.1 0.1-0.1 0.3-0.1 0.1 0 0.1 0-0.1 0-0.1 0 0 0 0 0.1-0.1 0-0.2 0.1-0.2 0-0.3 0.1-0.1 0-0.3 0-0.1 0.1-0.2 0.1z"/>
					<path id="Layer" class="s12" d="m213.8 154.8q-0.1 0-0.1 0 0 0 0-0.1 0.1 0 0.1 0 0.1-0.1 0.2-0.1 0.1 0 0.2-0.1 0.1 0 0.2-0.1 0.2 0 0.3-0.1 0 0 0 0.1 0.1 0 0 0-0.1 0.1-0.2 0.1-0.1 0.1-0.2 0.1-0.1 0.1-0.3 0.1-0.1 0-0.2 0.1z"/>
					<path id="Layer" class="s6" d="m210 152.1l-1.8-0.4-1 2.3q0 0.3 0.1 0.6 0.1 0.2 0.1 0.5 0.1 0.2 0.2 0.5 0.1 0.3 0.1 0.5 0.1 0 0.2-0.1 0.1-0.1 0.2-0.1 0-0.1 0.1-0.2 0.1-0.1 0.2-0.1z"/>
					<path id="Layer" class="s1" d="m206.7 150.6l-0.9-0.1q-0.1 0-0.1 0 0-0.1 0-0.1 0-0.1 0.1-0.1l0.8 0.1 1.6-2.3q0.1 0 0.1 0 0-0.1 0 0 0.1 0 0.1 0 0 0 0 0.1z"/>
					<path id="Layer" class="s1" d="m207 145q0 0 0.1 0 0 0 0-0.1c0.6-0.8 1.2-0.8 1.2-0.8q0.1 0 0.1-0.1 0-0.1 0-0.1 0 0-0.1 0c0 0-0.7 0-1.4 0.9q0 0.1 0 0.1 0 0 0.1 0 0 0.1 0 0.1z"/>
					<path id="Layer" class="s1" d="m207.2 145.8q0.1 0 0.1-0.1c0.5-0.9 1-1 1.1-1q0-0.1 0-0.1-0.1 0-0.1 0c0 0-0.6 0.1-1.2 1.1q0 0.1 0 0.1 0.1 0 0.1 0z"/>
					<path id="Layer" class="s12" d="m212.1 152.2q0.1 0 0.1 0 0-0.1 0-0.1-0.1 0-0.3-0.1-0.1-0.1-0.2-0.2-0.1 0-0.2-0.1-0.1-0.1-0.2-0.2-0.1 0-0.1 0 0 0.1 0 0.1 0.1 0.1 0.2 0.2 0.1 0 0.2 0.1 0.2 0.1 0.3 0.2 0.1 0.1 0.2 0.1z"/>
					<path id="Layer" class="s12" d="m212 152.9q0.1 0 0.1 0 0 0 0-0.1 0 0-0.1 0-0.1 0-0.2-0.1-0.1-0.1-0.3-0.1-0.1-0.1-0.2-0.2-0.1 0-0.2-0.1 0 0-0.1 0 0 0 0 0.1 0.1 0 0.3 0.1 0.1 0.1 0.2 0.2 0.1 0 0.2 0.1 0.2 0 0.3 0.1z"/>
					<path id="Layer" class="s12" d="m211.7 153.6q0.1 0 0.1 0 0-0.1-0.1-0.1-0.1 0-0.2-0.1-0.1 0-0.2-0.1-0.1-0.1-0.2-0.1-0.1-0.1-0.2-0.2 0 0-0.1 0 0 0.1 0 0.1 0.1 0.1 0.2 0.2 0.1 0 0.2 0.1 0.1 0.1 0.3 0.1 0.1 0.1 0.2 0.1z"/>
					<path id="Layer" class="s1" d="m219.7 150.6h0.9q0 0 0.1 0 0-0.1 0-0.1-0.1-0.1-0.1-0.1h-0.8l-1.1-2.6q0 0-0.1 0 0 0-0.1 0 0 0.1 0 0.1z"/>
					<path id="Layer" class="s6" d="m216 151.6l0.9 4q0.2-0.2 0.5-0.4 0.2-0.2 0.5-0.4 0.2-0.2 0.4-0.4 0.3-0.2 0.5-0.4-0.1-0.3-0.2-0.5 0-0.3-0.1-0.5-0.1-0.3-0.2-0.5-0.1-0.3-0.2-0.5c0-0.1-2.1-0.4-2.1-0.4z"/>
					<path id="Layer" class="s1" d="m216.8 155.7h0.1q0.6-0.1 1.2-0.2 0.6-0.1 1.2-0.2 0.6-0.2 1.2-0.3 0.6-0.2 1.2-0.4 0 0 0-0.1 0.1 0 0.1 0 0-0.1-0.1-0.1 0 0-0.1 0-0.5 0.2-1.1 0.4-0.6 0.1-1.2 0.3-0.5 0.1-1.1 0.2-0.6 0.1-1.2 0.2l-0.8-3.8 3.6-1.1q0-0.1 0.1-0.1 0-0.1-0.1-0.1-0.1 0-0.1 0l-3.7 1.2z"/>
					<path id="Layer" class="s1" d="m209.5 155.7h-0.1q-0.6-0.1-1.2-0.2-0.6-0.1-1.2-0.2-0.6-0.2-1.2-0.3-0.6-0.2-1.2-0.4 0 0 0-0.1 0-0.1 0-0.1 0.1 0 0.1 0 0.6 0.2 1.1 0.4 0.6 0.1 1.2 0.3 0.6 0.1 1.2 0.2 0.5 0.1 1.1 0.2l0.8-3.8-3.6-1.1q0 0 0-0.1-0.1 0-0.1 0 0 0 0.1-0.1 0.1 0 0.1 0l3.8 1.2z"/>
					<path id="Layer" class="s11" d="m204.3 151c0-0.4 0.3-0.7 0.7-0.7h16.8c0.4 0 0.7 0.3 0.7 0.7v8.3c0 0.4-0.3 0.7-0.7 0.7h-16.8c-0.4 0-0.7-0.3-0.7-0.7z"/>
					<path id="Layer" class="s15" d="m214.3 154.3c0-0.3-0.1-0.6-0.4-0.7-0.2-0.1-0.6-0.1-0.8 0.1-0.2 0.2-0.3 0.5-0.2 0.8 0.1 0.3 0.4 0.5 0.7 0.5q0.1 0 0.3-0.1 0.1 0 0.2-0.1 0.1-0.1 0.2-0.2 0-0.1 0-0.3z"/>
					<path id="Layer" fill-rule="evenodd" class="s6" d="m215.7 108.9l0.3 1.9 0.2 2-3 0.8q-0.1 0.5-0.2 0.9-0.1 0.5-0.2 0.9-0.1 0.4-0.3 0.8-0.2 0.4-0.4 0.8l2.1 2.2-1.3 1.6-1.4 1.5-2.8-1.3q-0.4 0.2-0.8 0.5-0.4 0.2-0.8 0.5-0.5 0.2-0.9 0.3-0.4 0.2-0.9 0.4l-0.2 2.9-2.2 0.2-2.1 0.2-1-2.7q-0.4-0.1-0.9-0.2-0.5 0-1-0.2-0.4-0.1-0.9-0.2-0.5-0.2-0.9-0.4l-2.4 1.9-3.4-2.4 1.5-2.6q-0.3-0.3-0.6-0.7-0.3-0.3-0.5-0.7-0.3-0.4-0.5-0.8-0.2-0.4-0.3-0.8l-3.2-0.2-0.3-2-0.2-2 3-0.8q0.1-0.5 0.2-0.9 0.1-0.4 0.2-0.9 0.1-0.4 0.3-0.8 0.2-0.4 0.4-0.8l-2.1-2.2 1.3-1.5 1.4-1.6 2.8 1.4q0.4-0.3 0.8-0.5 0.4-0.3 0.8-0.5 0.4-0.2 0.9-0.4 0.4-0.2 0.9-0.3l0.2-2.9 2.1-0.3 2.2-0.2 0.9 2.8q0.5 0 1 0.1 0.5 0.1 0.9 0.2 0.5 0.1 1 0.3 0.4 0.1 0.9 0.3l2.4-1.9 1.7 1.2 1.7 1.3-1.5 2.5q0.3 0.4 0.6 0.7 0.3 0.4 0.5 0.8 0.2 0.4 0.4 0.8 0.2 0.4 0.4 0.8zm-6.4 2.7c-0.5-4.1-4.6-7-9.1-6.5-4.4 0.5-7.6 4.2-7.1 8.2 0.5 4.1 4.6 7 9.1 6.5 4.5-0.5 7.7-4.2 7.1-8.2z"/>
					<path id="Layer" class="s5" d="m202.9 125.9q-0.1 0-0.1-0.1 0 0 0-0.1 0.1 0 0.1 0l2.1-0.2 0.2-2.9h0.1q0.4-0.2 0.9-0.4 0.4-0.1 0.8-0.4 0.4-0.2 0.8-0.4 0.4-0.3 0.8-0.5l0.1-0.1 2.8 1.4 2.6-3-2.1-2.1v-0.1q0.2-0.4 0.4-0.8 0.1-0.4 0.3-0.8 0.1-0.5 0.2-0.9 0.1-0.4 0.1-0.9 0 0 0.1 0 0-0.1 0-0.1 0.1 0 0.1 0 0 0.1 0.1 0.1 0 0 0 0.1-0.1 0.4-0.2 0.8-0.1 0.5-0.2 0.9-0.1 0.4-0.3 0.8-0.1 0.4-0.3 0.8l2.1 2.2-2.8 3.2-2.9-1.3q-0.4 0.3-0.8 0.5-0.4 0.2-0.8 0.4-0.4 0.3-0.8 0.4-0.4 0.2-0.9 0.4l-0.2 2.9-2.2 0.2zm-9.3-1.5l-1.8-1.3q0-0.1 0-0.1 0-0.1 0-0.1 0.1 0 0.1 0 0.1 0 0.1 0l1.6 1.2 2.4-1.9h0.1q0.4 0.2 0.9 0.4 0.4 0.1 0.9 0.2 0.4 0.1 0.9 0.2 0.5 0.1 1 0.2 0.1 0 0.1 0 0 0.1 0 0.1-0.1 0-0.1 0.1 0 0-0.1 0-0.4-0.1-0.9-0.1-0.5-0.1-1-0.2-0.4-0.2-0.9-0.3-0.4-0.2-0.9-0.3zm-1.9-5.1q-0.1 0-0.1 0-0.3-0.4-0.6-0.7-0.3-0.4-0.5-0.8-0.2-0.3-0.4-0.7-0.2-0.4-0.4-0.9l-3.2-0.1-0.6-4.1 3.1-0.9q0.1-0.4 0.2-0.9 0.1-0.4 0.2-0.8 0.1-0.4 0.3-0.8 0.1-0.4 0.3-0.8l-2.1-2.2 2.8-3.2 2.9 1.3q0.4-0.2 0.7-0.5 0.4-0.2 0.9-0.4 0.4-0.2 0.8-0.4 0.4-0.2 0.9-0.3l0.2-2.9 2.2-0.3q0.1 0 0.1 0 0 0 0 0.1 0.1 0 0.1 0 0 0.1 0 0.1-0.1 0-0.1 0l-2.1 0.3-0.2 2.8-0.1 0.1q-0.4 0.1-0.9 0.3-0.4 0.2-0.8 0.4-0.4 0.2-0.8 0.4-0.4 0.3-0.8 0.6h-0.1l-2.8-1.3-2.6 2.9 2.1 2.2q-0.2 0.4-0.4 0.8-0.1 0.4-0.3 0.9-0.1 0.4-0.2 0.8-0.1 0.5-0.1 0.9l-0.1 0.1-3 0.8 0.5 3.7 3.2 0.2v0.1q0.2 0.4 0.4 0.8 0.2 0.4 0.4 0.8 0.2 0.4 0.5 0.7 0.3 0.4 0.6 0.7 0 0 0 0.1 0 0.1 0 0.1-0.1 0-0.1 0zm1.3-5.9q0 0-0.1 0 0 0 0-0.1c-0.6-4.1 2.7-7.9 7.2-8.4 4.6-0.5 8.7 2.5 9.2 6.6q0 0 0 0.1 0 0-0.1 0 0 0-0.1 0 0 0 0-0.1c-0.5-4-4.5-6.8-8.9-6.3-4.5 0.4-7.6 4.1-7.1 8.1q0 0.1 0 0.1-0.1 0-0.1 0zm22.9-2.5q0 0-0.1 0 0-0.1 0-0.1l-0.3-1.8-3.1-0.2-0.1-0.1q-0.1-0.4-0.3-0.8-0.2-0.4-0.5-0.8-0.2-0.4-0.5-0.7-0.3-0.4-0.5-0.7l-0.1-0.1 1.5-2.5-3.3-2.4-2.4 1.9q-0.5-0.2-0.9-0.3-0.5-0.2-1-0.3-0.4-0.1-0.9-0.2-0.5-0.1-0.9-0.1-0.1 0-0.1 0 0-0.1 0-0.1-0.1 0 0-0.1 0-0.1 0-0.1 0.1 0 0.1 0 0.5 0.1 0.9 0.2 0.5 0.1 1 0.2 0.4 0.1 0.9 0.2 0.5 0.2 0.9 0.4l2.4-1.9 3.6 2.5-1.5 2.6q0.3 0.3 0.5 0.7 0.3 0.3 0.5 0.7 0.3 0.4 0.5 0.8 0.2 0.3 0.3 0.8l3.2 0.1 0.3 2.1q0 0.1 0 0.1 0 0-0.1 0z"/>
					<path id="Layer" class="s22" d="m150.6 73c0 0-3.9-5.9-13.4-4.4 0 0 6.4 8.6 13.4 4.4z"/>
					<path id="Layer" class="s21" d="m156.8 74.6c0 0-1.1-11.9-17.1-16 0 0 2.7 17.7 17.1 16z"/>
					<path id="Layer" fill-rule="evenodd" class="s36" d="m194.6 88.5l-1.4 3.4-1.5 3.4-5.8-0.9q-0.5 0.6-1.1 1.3-0.5 0.6-1.2 1.2-0.6 0.6-1.3 1.1-0.6 0.6-1.3 1.1l1.3 5.2-3.6 1.4-3.7 1.5-3.3-4.4q-0.9 0.2-1.8 0.3-0.9 0-1.8 0.1-0.9 0-1.8-0.1-0.9 0-1.8-0.1l-3.1 4.5-7.5-2.6 1.1-5.2q-0.8-0.5-1.5-1-0.7-0.5-1.3-1.1-0.7-0.5-1.3-1.2-0.6-0.6-1.1-1.2l-5.7 1.2-1.7-3.3-1.6-3.3 4.8-3.1q-0.1-0.8-0.2-1.6-0.1-0.8-0.1-1.6-0.1-0.8 0-1.6 0-0.9 0.2-1.7l-5.1-2.8 2.9-6.8 5.8 1q0.6-0.7 1.1-1.3 0.6-0.6 1.2-1.2 0.6-0.6 1.3-1.2 0.7-0.5 1.4-1l-1.4-5.2 3.7-1.5 3.7-1.4 3.3 4.4q0.9-0.2 1.8-0.3 0.9-0.1 1.8-0.1 0.9 0 1.8 0.1 0.9 0 1.8 0.1l3-4.5 7.6 2.6-1.1 5.2q0.7 0.5 1.4 1 0.7 0.5 1.4 1.1 0.6 0.5 1.2 1.1 0.6 0.7 1.2 1.3l5.7-1.2 3.3 6.6-4.9 3.1q0.2 0.8 0.3 1.6 0.1 0.8 0.1 1.6 0 0.8 0 1.6-0.1 0.9-0.2 1.7zm-12.1-7.2c-1-7.5-8.5-12.9-16.8-12-8.3 0.9-14.2 7.7-13.2 15.2 1 7.5 8.5 12.9 16.8 12 8.3-0.9 14.2-7.7 13.2-15.2z"/>
					<path id="Layer" class="s5" d="m161.5 109.7l-7.8-2.7 1.1-5.3q-0.7-0.4-1.4-0.9-0.7-0.5-1.3-1.1-0.7-0.6-1.3-1.2-0.6-0.6-1.1-1.2 0-0.1-0.1-0.1 0.1-0.1 0.1-0.1 0.1 0 0.1 0 0.1 0 0.1 0 0.5 0.7 1.1 1.3 0.6 0.6 1.3 1.2 0.6 0.5 1.3 1 0.7 0.5 1.4 1h0.1l-1.1 5.2 7.3 2.6 3.1-4.5h0.1q0.9 0.1 1.8 0.1 0.9 0.1 1.8 0.1 0.9-0.1 1.8-0.1 0.9-0.1 1.7-0.3 0.1 0 0.1 0 0 0 0.1 0.1 0 0 0 0.1-0.1 0-0.1 0-0.9 0.2-1.8 0.3-0.9 0.1-1.8 0.1-0.9 0-1.8 0-0.9-0.1-1.8-0.2zm17.3-1.8q-0.1 0-0.1 0-0.1 0-0.1 0 0-0.1 0-0.1 0 0 0-0.1 0 0 0.1 0l3.6-1.4-1.4-5.2 0.1-0.1q0.7-0.4 1.4-1 0.6-0.5 1.2-1.1 0.7-0.6 1.2-1.2 0.6-0.7 1.1-1.3l0.1-0.1 5.7 1 2.8-6.7-5-2.7 0.1-0.1q0.1-0.8 0.1-1.6 0.1-0.8 0.1-1.7-0.1-0.8-0.2-1.6-0.1-0.8-0.2-1.6v-0.1l4.8-3-3.2-6.5q0-0.1 0-0.1 0-0.1 0-0.1 0 0 0.1 0 0 0 0.1 0 0 0 0 0.1l3.3 6.7-4.9 3q0.2 0.8 0.3 1.6 0.1 0.8 0.1 1.6 0 0.8 0 1.6-0.1 0.9-0.2 1.6l5.1 2.8-3 7-5.8-1q-0.5 0.7-1.1 1.3-0.6 0.7-1.2 1.3-0.6 0.5-1.2 1.1-0.7 0.5-1.4 1l1.4 5.2-3.8 1.5zm-36.3-12.7q-0.1 0-0.1 0l-1.7-3.4 4.9-3.1q-0.2-0.8-0.3-1.6-0.1-0.8-0.1-1.6 0-0.8 0.1-1.6 0-0.8 0.1-1.6l-5-2.8 3-7 5.8 1q0.5-0.6 1-1.3 0.6-0.6 1.2-1.2 0.6-0.6 1.3-1.1 0.6-0.5 1.3-1l-1.3-5.2 3.7-1.5q0 0 0.1 0 0 0 0.1 0 0 0.1 0 0.1 0 0 0 0.1-0.1 0-0.1 0l-3.6 1.4 1.4 5.2h-0.1q-0.7 0.5-1.3 1.1-0.7 0.5-1.3 1.1-0.6 0.6-1.2 1.2-0.6 0.6-1.1 1.3v0.1l-5.8-1-2.8 6.6 5 2.8v0.1q-0.1 0.8-0.2 1.6-0.1 0.8 0 1.6 0 0.8 0.1 1.7 0.1 0.8 0.3 1.6l-4.9 3 1.6 3.3q0 0.1 0 0.1 0 0-0.1 0zm10.1-8.4q0 0 0-0.1-0.1 0-0.1 0c-1-7.6 5-14.5 13.3-15.4 8.4-0.9 16 4.6 16.9 12.1q0 0 0 0.1 0 0-0.1 0.1 0 0 0-0.1 0 0-0.1 0c-1-7.5-8.4-12.8-16.6-11.9-8.3 0.8-14.1 7.6-13.2 15q0 0.1 0 0.1 0 0.1-0.1 0.1zm27.6-18.3q-0.1 0-0.1 0 0 0 0-0.1l1-5.2-7.3-2.6-3.1 4.6q-0.9-0.2-1.8-0.2-0.9 0-1.8 0-0.9 0-1.8 0.1-0.9 0.1-1.8 0.2 0 0-0.1 0 0 0 0-0.1 0 0 0-0.1 0.1 0 0.1 0 0.9-0.2 1.8-0.2 0.8-0.1 1.7-0.2 0.9 0 1.8 0.1 0.9 0 1.8 0.1l3.1-4.5 7.7 2.7-1.1 5.3q0 0 0 0.1-0.1 0-0.1 0z"/>
					<path id="Layer" fill-rule="evenodd" class="s28" d="m232.6 84.7l0.8 1.2 0.7 1.1-1.7 1.3q0.1 0.3 0.2 0.6 0.1 0.3 0.1 0.6 0.1 0.3 0.1 0.6 0 0.3 0 0.6l1.9 0.8-0.4 1.3-0.3 1.3-2.2-0.2q-0.2 0.3-0.3 0.5-0.2 0.3-0.4 0.5-0.2 0.3-0.4 0.5-0.3 0.2-0.5 0.4l0.7 1.9-1.3 0.6-1.2 0.7-1.4-1.5q-0.4 0.1-0.7 0.1-0.3 0.1-0.6 0.2-0.4 0-0.7 0-0.3 0-0.7 0l-0.9 1.8-1.4-0.4-1.4-0.3 0.1-2q-0.2-0.1-0.5-0.3-0.3-0.1-0.6-0.3-0.2-0.2-0.5-0.4-0.2-0.2-0.4-0.4l-2.1 0.6-0.7-1.1-0.8-1.2 1.7-1.3q-0.1-0.3-0.2-0.5 0-0.3-0.1-0.6 0-0.3 0-0.6-0.1-0.3 0-0.6l-2-0.9 0.8-2.6 2.1 0.2q0.2-0.3 0.4-0.5 0.2-0.3 0.4-0.5 0.2-0.2 0.4-0.5 0.2-0.2 0.4-0.4l-0.7-1.8 2.6-1.4 1.4 1.5q0.3-0.1 0.6-0.1 0.3-0.1 0.7-0.1 0.3-0.1 0.6-0.1 0.4 0 0.7 0l0.9-1.7 1.5 0.3 1.4 0.4-0.2 1.9q0.3 0.1 0.6 0.3 0.2 0.2 0.5 0.3 0.3 0.2 0.5 0.4 0.3 0.2 0.5 0.5zm-3.7 8.8q0.7-0.8 1-1.7 0.3-1 0.2-2-0.2-1.1-0.7-1.9-0.6-0.9-1.5-1.5-0.9-0.6-1.9-0.9-1.1-0.3-2.2-0.1-1 0.1-2 0.6-0.9 0.4-1.6 1.2-0.6 0.8-0.9 1.8-0.3 1-0.2 2 0.1 1 0.7 1.9 0.6 0.9 1.5 1.5 0.9 0.6 1.9 0.8 1.1 0.3 2.1 0.2 1.1-0.2 2-0.7 1-0.4 1.6-1.2z"/>
					<path id="Layer" class="s15" d="m155.2 130.2c0-0.5 0.4-0.9 0.9-0.9h25c0.5 0 0.9 0.4 0.9 0.9v13.2c0 0.5-0.4 0.9-0.9 0.9h-25c-0.5 0-0.9-0.4-0.9-0.9z"/>
					<path id="Layer" class="s37" d="m179.5 132.1h-22.4q0 0-0.1 0 0-0.1 0-0.1-0.1 0-0.1 0 0 0 0-0.1-0.1 0-0.1 0 0-0.1 0-0.1 0 0 0-0.1 0 0 0.1 0 0-0.1 0-0.1 0 0 0.1 0 0.1-0.1 0.1-0.1h22.4q0.1 0.1 0.1 0.1 0.1 0.1 0.1 0.2 0 0.1-0.1 0.2 0 0.1-0.1 0.1z"/>
					<path id="Layer" class="s37" d="m179.5 134.9h-22.4q0 0-0.1 0-0.1 0-0.1 0 0-0.1 0-0.1-0.1 0-0.1 0 0-0.1 0-0.1 0-0.1 0-0.1 0 0 0.1 0 0-0.1 0-0.1 0 0 0.1 0 0-0.1 0-0.1 0.1 0 0.1 0h22.4q0.1 0 0.1 0.1 0.1 0.1 0.1 0.2 0 0.1-0.1 0.2 0 0-0.1 0z"/>
					<path id="Layer" class="s37" d="m171.6 137.8h-14.5q0 0-0.1 0-0.1 0-0.1 0 0-0.1 0-0.1-0.1 0-0.1-0.1 0-0.1 0-0.1 0 0 0.1-0.1 0 0 0.1-0.1 0.1 0 0.1 0h14.5q0.1 0 0.2 0.1 0.1 0.1 0.1 0.2 0 0.1-0.1 0.1-0.1 0.1-0.2 0.1z"/>
					<path id="Layer" class="s37" d="m179.6 137.8h-5.8q-0.1 0-0.1-0.1-0.1 0-0.1-0.1 0-0.1 0.1-0.2 0-0.1 0.1-0.1h5.8q0.1 0 0.2 0.1 0.1 0.1 0.1 0.2 0 0.1-0.1 0.1-0.1 0.1-0.2 0.1z"/>
					<path id="Layer" class="s37" d="m166.2 140.7h-9.1q0 0-0.1 0-0.1 0-0.1-0.1-0.1-0.1-0.1-0.1 0 0 0-0.1 0-0.1 0.1-0.1 0-0.1 0.1-0.1 0.1 0 0.1 0h9.1q0.1 0 0.1 0 0.1 0 0.1 0 0 0 0 0.1 0.1 0 0.1 0 0 0 0 0.1 0 0.1 0 0.1 0 0 0 0.1 0 0-0.1 0 0 0.1 0 0.1 0 0-0.1 0 0 0-0.1 0z"/>
					<path id="Layer" class="s37" d="m179.6 140.7h-11.3q-0.1 0-0.2-0.1-0.1 0-0.1-0.2 0-0.1 0.1-0.1 0.1-0.1 0.2-0.1h11.3q0.1 0 0.2 0.1 0.1 0 0.1 0.1 0 0.2-0.1 0.2-0.1 0.1-0.2 0.1z"/>
					<path id="Layer" class="s15" d="m173.8 143.6c0 0.1 4.3 5.2 4.4 5.1 0-0.2-0.5-5.5-0.5-5.5z"/>
					<path id="Layer" class="s15" d="m228.6 115.6c0-0.5 0.4-0.9 0.9-0.9h25c0.5 0 0.9 0.4 0.9 0.9v9.6c0 0.5-0.4 0.9-0.9 0.9h-25c-0.5 0-0.9-0.4-0.9-0.9z"/>
					<path id="Layer" class="s37" d="m252.9 117.5h-22.4q-0.1 0-0.2-0.1-0.1-0.1-0.1-0.2 0-0.1 0.1-0.2 0.1 0 0.2 0h22.4q0.1 0 0.2 0 0 0.1 0 0.2 0 0.1 0 0.2-0.1 0.1-0.2 0.1z"/>
					<path id="Layer" class="s37" d="m252.9 120.4h-22.4q-0.1 0-0.2-0.1-0.1-0.1-0.1-0.2 0-0.1 0.1-0.2 0.1-0.1 0.2-0.1h22.4q0.1 0 0.2 0.1 0 0.1 0 0.2 0 0.1 0 0.2-0.1 0.1-0.2 0.1z"/>
					<path id="Layer" class="s37" d="m253 123.2h-5.8q-0.1 0-0.2 0 0-0.1 0-0.2 0-0.1 0-0.2 0.1-0.1 0.2-0.1h5.8q0.1 0 0.2 0.1 0.1 0.1 0.1 0.2 0 0.1-0.1 0.2-0.1 0-0.2 0z"/>
					<path id="Layer" class="s15" d="m247.2 125.7c0 0.1 4.3 5.2 4.4 5.1 0-0.2-0.5-5.5-0.5-5.5z"/>
					<path id="Layer" class="s37" d="m244.9 123.2h-13.6c-0.3 0-0.6-0.1-0.6-0.2 0-0.2 0.3-0.3 0.6-0.3h13.6c0.4 0 0.7 0.1 0.7 0.3 0 0.1-0.3 0.2-0.7 0.2z"/>
					<path id="Layer" class="s9" d="m244.8 181.9l2.1 1.1 2.5-2.2v-0.4l-0.6-4-4.8 0.8z"/>
					<path id="Layer" class="s38" d="m248.4 183.1l-6.8 0.8q0 0-0.1 0c-0.7-0.1-0.5-0.5-0.5-0.5l2.9-2.2 0.1-0.2c0-0.5 0.5-0.7 1-0.5l1.3 0.6c0 0 2.9 0.1 3.1-0.7l0.3 1.9c0 0 0.3 0.6-1.3 0.8z"/>
					<path id="Layer" class="s9" d="m236.1 182.2l2.1 1.1 2.5-2.3 0.1-0.3-0.6-4.1-4.9 0.8z"/>
					<path id="Layer" class="s38" d="m239.7 183.4l-6.7 0.8q0 0-0.1 0 0 0-0.1 0c-0.6-0.1-0.5-0.5-0.5-0.5l3-2.2v-0.3c0-0.4 0.6-0.6 1.1-0.4l1.2 0.6c0 0 2.9 0 3.2-0.7l0.2 1.9c0 0 0.3 0.6-1.3 0.8z"/>
					<path id="Layer" class="s11" d="m252.6 166c0 0 8.3 0.4 10.6-0.1 2.4-0.5 2.9-7 0.3-11.1-2.6-4-11.9 8.4-11.9 8.4z"/>
					<path id="Layer" class="s38" d="m247.4 156.2c0 0-11.7 1.7-12 2.9-0.3 1.2-1.3 14.2-0.6 19.8q0.8 0.1 1.7 0.1 0.8 0 1.6 0 0.8-0.1 1.6-0.1 0.9-0.1 1.7-0.2l0.6-12.7h3.6l7.8-9.9z"/>
					<path id="Layer" class="s11" d="m253.1 157c0 0-9.1 2.3-9.4 3.5-0.3 1.3-1.3 12.9-0.6 18.4q0.9 0.1 1.7 0.1 0.9 0 1.8 0 0.8-0.1 1.7-0.1 0.9-0.1 1.7-0.2l0.6-12.8 2 0.1 5-7.9z"/>
					<path id="Layer" class="s39" d="m258.6 141.4c0 0 4 0.1 5 0.6 0.9 0.5 5.1 6.8 6 9.5q-0.5 0.5-1.2 0.8-0.7 0.4-1.4 0.6-0.6 0.3-1.4 0.4-0.7 0.1-1.4 0.2l-0.8-1.3 0.4 2.6-8 2.2q-1.1 0.3-2.1 0.4-1.1 0.1-2.1 0.1-1.1 0-2.1-0.2-1.1-0.2-2.1-0.6l-0.8-0.2c0 0 0-12.4 2.4-13.7 2.2-1.1 6.9-1.7 9.6-1.4z"/>
					<path id="Layer" class="s9" d="m253.6 135.4v3.5q0 0.2 0.1 0.4 0.1 0.3 0.2 0.4 0.2 0.2 0.4 0.3 0.2 0.2 0.4 0.2l-0.2 1.6q0 0.2 0 0.4 0.1 0.2 0.2 0.4 0.2 0.2 0.3 0.3 0.2 0.1 0.4 0.2 0.2 0 0.3 0.1 0.1 0 0.3 0 0.1 0 0.2 0 0.2 0 0.3 0 0.3 0.1 0.7 0 0.3-0.1 0.6-0.3 0.3-0.2 0.5-0.4 0.2-0.3 0.3-0.6 0-0.3 0-0.6 0-0.3 0-0.7-0.1-0.3-0.1-0.6 0-0.3-0.1-0.6l0.1-1.1-0.2-4z"/>
					<path id="Layer" class="s1" d="m256.8 137.1q0-0.1 0-0.1c0 0-0.7-0.7-1.4-0.2q0 0 0 0.1c0.6-0.4 1.3 0.2 1.3 0.2q0.1 0 0.1 0z"/>
					<path id="Layer" class="s1" d="m254.5 136.8q0 0 0.1 0 0 0 0-0.1c0 0-0.6-0.4-0.9-0.1q0 0.1 0 0.1 0.1 0 0.1 0c0.2-0.2 0.7 0.1 0.7 0.1z"/>
					<path id="Layer" class="s5" d="m255.8 137.5c0 0-0.1-0.1-0.1-0.2 0-0.1 0.1-0.1 0.1-0.1 0.1 0 0.2 0 0.2 0.1 0 0.1-0.1 0.2-0.2 0.2z"/>
					<path id="Layer" class="s5" d="m254.1 137.3c-0.1 0-0.1 0-0.1-0.1 0-0.1 0-0.2 0.1-0.2 0.1 0 0.2 0.1 0.2 0.2 0 0.1-0.1 0.1-0.2 0.1z"/>
					<path id="Layer" class="s1" d="m258.2 134.5l-1 1.2c0 0-2.7 0.9-4.1-0.2-1.4-1.2-1-1.7-0.6-2.3q0.3-0.2 0.5-0.4 0.3-0.1 0.6-0.1 0.4-0.1 0.7-0.1 0.3 0.1 0.6 0.2c0.6 0.3 1.1-0.5 1.9-0.1 0.8 0.4 1.6 1.1 1.5 1.3-0.1 0.3-0.1 0.5-0.1 0.5z"/>
					<path id="Layer" class="s1" d="m258.1 134q0.3 0 0.5 0.1 0.2 0 0.5 0.2 0.2 0.1 0.3 0.3 0.2 0.2 0.3 0.4 0.1 0.3 0.1 0.5 0 0.3 0 0.5 0 0.3-0.1 0.5 0 0.3-0.1 0.5c-0.1 0.4 0.2 2.6-1.5 2.4l-0.5-3.6 0.6-1.5z"/>
					<path id="Layer" class="s9" d="m258 138.2c-0.5 0-1-0.4-1-0.9 0-0.5 0.5-0.9 1-0.9 0.5 0 1 0.4 1 0.9 0 0.5-0.5 0.9-1 0.9z"/>
					<path id="Layer" class="s12" d="m258.1 137.8q0 0 0.1 0 0.1 0 0.1-0.1 0.1 0 0.1 0 0-0.1 0.1-0.2 0 0 0-0.1 0 0 0-0.1-0.1 0-0.1-0.1 0 0-0.1-0.1-0.1 0-0.1 0-0.1 0-0.2 0 0 0-0.1 0-0.1 0-0.1 0.1 0-0.1 0-0.1 0 0 0.1-0.1 0.1 0 0.1-0.1 0 0 0.1 0 0.1 0 0.1 0 0.1 0 0.1 0 0.1 0 0.1 0 0.1 0 0.1 0-0.1 0-0.1 0 0 0-0.1-0.1 0 0-0.1 0-0.1 0-0.1 0.1-0.1 0-0.1 0-0.1 0-0.1 0.1-0.1 0-0.1 0 0 0.1 0 0.1-0.1 0.1-0.1 0.1v0.1l0.1-0.1q0 0 0.1 0 0-0.1 0.1-0.1 0.1 0 0.2 0 0 0.1 0.1 0.1 0 0 0.1 0 0 0.1 0 0.1 0 0.1 0 0.1 0 0.1 0 0.1 0 0.1 0 0.1-0.1 0.1-0.1 0.1-0.1 0-0.1 0.1-0.1 0-0.1 0-0.1 0-0.1 0 0 0 0.1 0z"/>
					<path id="Layer" class="s12" d="m257.4 139.2c0 0-0.1 2-2.8 2.2l0.1-1.2q0.4 0.1 0.8 0 0.3 0 0.7-0.1 0.3-0.2 0.6-0.4 0.3-0.2 0.6-0.5z"/>
					<path id="Layer" class="s1" d="m263.5 152.4q0.8-0.1 1.5-0.3 0.7-0.2 1.4-0.5 0.7-0.3 1.3-0.7 0.6-0.4 1.2-0.8l-0.1-0.1q-0.6 0.4-1.2 0.8-0.6 0.4-1.3 0.7-0.7 0.2-1.4 0.4-0.7 0.2-1.4 0.3z"/>
					<path id="Layer" class="s1" d="m247.2 179.1q0.3 0 0.7 0 0.3 0 0.7-0.1 0.4 0 0.7-0.1 0.4 0 0.8-0.1l0.6-12.9-0.9 0.4 0.1 0.1 0.6-0.2-0.6 12.5q-0.4 0.1-0.9 0.1-0.5 0.1-1 0.1-0.5 0.1-1 0.1-0.5-0.1-1-0.1v0.1q0.6 0.1 1.2 0.1z"/>
					<path id="Layer" class="s1" d="m249.1 176.3c0.3-0.8 0.3-8.5 0.3-8.8h-0.1c0 0.1-0.1 8-0.3 8.8z"/>
					<path id="Layer" class="s1" d="m238.3 179.1q0.4 0 0.8 0 0.4 0 0.8 0 0.4-0.1 0.8-0.1 0.4-0.1 0.8-0.2l0.5-12.8-0.7 0.4 0.1 0.1 0.4-0.3-0.5 12.5q-0.4 0.1-0.8 0.1-0.4 0.1-0.8 0.1-0.3 0.1-0.7 0.1-0.4 0-0.8 0v0.1z"/>
					<path id="Layer" class="s1" d="m240.6 176.6c0.2-1.2 0-9.2 0-9.6h-0.2c0 0.1 0.3 8.4 0 9.6z"/>
					<path id="Layer" class="s9" d="m248.7 157.6l0.9-1.3c0.5-0.7 1.3-1.7 2.2-1.8 1.4-0.1 9.8-0.4 12.5-0.7l-0.1-0.3 2.2-0.3 1.4-0.6 1.2-0.5c0.4 1.2 1.3 3.2 0.3 4.6-1.8 2.6-15.6 1.3-16.8 1l-1.1 1.1-0.3 0.3q0 0.1-0.1 0.1 0 0-0.1 0.1-0.1 0-0.1 0-0.1-0.1-0.2-0.1 0 0-0.1-0.1 0 0 0-0.1 0-0.1 0-0.1 0-0.1 0-0.1l-0.1 0.1q0 0-0.1 0.1 0 0-0.1 0-0.1 0-0.1 0-0.1 0-0.2 0 0.1-0.1 0.1-0.1 0-0.1 0-0.2 0 0-0.1-0.1 0 0-0.1-0.1 0 0-0.1 0-0.1 0-0.1 0-0.1 0-0.2 0 0 0.1-0.1 0.1 0 0-0.1 0 0-0.1 0-0.2 0 0 0-0.1 0-0.1 0-0.1l0.1-0.2q0 0.1 0 0.1-0.1 0-0.1 0 0 0.1 0 0.1-0.1 0-0.1 0 0 0-0.1 0-0.1 0-0.1 0-0.1 0-0.1-0.1 0 0-0.1 0 0-0.1 0-0.1-0.1-0.1-0.1-0.1 0-0.1 0-0.1 0-0.1 0.1-0.1z"/>
					<path id="Layer" class="s1" d="m264.1 153.6h0.1q0.7-0.1 1.4-0.2 0.8-0.2 1.5-0.5 0.7-0.2 1.3-0.5 0.7-0.4 1.3-0.8h0.1l-1.8-3.5h-0.1l1.7 3.4q-0.6 0.4-1.3 0.7-0.6 0.4-1.3 0.6-0.7 0.3-1.4 0.4-0.7 0.2-1.4 0.2l-0.7-1.3h-0.2z"/>
					<path id="Layer" class="s12" d="m265.3 155q0.1 0 0.1 0 0 0 0-0.1l-1-1.1q0-0.1 0-0.1 0 0-0.1 0 0 0.1 0 0.1l1 1.2z"/>
					<path id="Layer" class="s12" d="m249.2 158.2l1.3-1.6q0 0 0-0.1-0.1 0-0.1 0l-1.3 1.6q0 0.1 0 0.1 0.1 0 0.1 0z"/>
					<path id="Layer" class="s12" d="m249.7 158.7q0.1 0 0.1 0l1.2-1.7q0 0 0-0.1-0.1 0-0.1 0 0 0 0 0.1l-1.2 1.6q0 0.1 0 0.1z"/>
					<path id="Layer" class="s12" d="m250.4 159q0.1 0 0.1 0l1-1.4q0-0.1 0-0.1 0 0-0.1 0l-1 1.4q0 0.1 0 0.1z"/>
					<path id="Layer" class="s1" d="m256.1 166.1c-4.1 0-6.6-0.2-6.6-0.2v-0.2q1.8 0.2 3.5 0.2 1.8 0.1 3.5 0.1 1.8 0 3.5-0.1 1.8 0 3.5-0.2v0.2c-2.8 0.2-5.3 0.2-7.4 0.2z"/>
					<path id="Layer" class="s1" d="m250.1 152.6l0.3-6.2h0.1l-0.2 6.2z"/>
					<path id="Layer" class="s1" d="m260.9 146.9l0.1-0.1 3.2 6.8h-0.1z"/>
					<path id="Layer" class="s1" d="m263.3 151.8h0.1l0.4 2h-0.2z"/>
					<path id="Layer" class="s12" d="m255.1 138.3l-0.5-0.2 0.1-1.2-0.2 1.2z"/>
					<path id="Layer" class="s33" d="m255.5 138.8h-1q0 0.1 0.2 0.3 0.1 0.1 0.3 0.1 0.2 0 0.3-0.1 0.2-0.1 0.2-0.3z"/>
					<path id="Layer" class="s6" d="m232.9 148.1h12.9l4.5 10.4h-12.9z"/>
					<path id="Layer" class="s7" d="m250.3 158.5h-0.6l-4.5-10.4h0.6z"/>
					<path id="Layer" class="s32" d="m241.4 152.9c0.1 0.5 0 1-0.3 1.1-0.4 0.1-0.8-0.2-1-0.7-0.2-0.5 0-0.9 0.3-1 0.3-0.1 0.8 0.2 1 0.6z"/>
					<path id="Layer" class="s7" d="m254.6 157.6h-4.8v0.9h4.8q0.1 0 0.2-0.1 0.1 0 0.1 0 0.1-0.1 0.1-0.2 0.1-0.1 0.1-0.1 0-0.1-0.1-0.2 0-0.1-0.1-0.2 0 0-0.1 0-0.1-0.1-0.2-0.1z"/>
					<path id="Layer" class="s6" d="m250.3 157.9h3.1v0.2h-3.1z"/>
					<path id="Layer" class="s11" d="m248.5 158.5h5.7v1.8h-5.7z"/>
					<path id="Layer" class="s15" d="m151.3 51.4q2.9-0.1 5.8 0 2.8 0 5.7 0.2 2.9 0.1 5.7 0.3 2.9 0.3 5.7 0.6 1.3 0.1 2.5-0.2 1.2-0.3 2.2-1.1 1-0.8 1.6-2 0.6-1.1 0.7-2.4 0-0.6-0.1-1.3-0.1-0.7-0.3-1.3-0.2-0.6-0.5-1.2-0.3-0.6-0.7-1.2c-4.7-7.4-14.3-0.9-14.5 2.7 0 0-1.5-5.6-7.2-4.8-5.6 0.7-4.2 8.7-4.2 8.7q-0.4-0.1-0.8-0.1-0.4 0-0.8 0-0.4 0.1-0.8 0.2-0.3 0.1-0.7 0.3-0.4 0.2-0.6 0.6-0.2 0.5-0.1 1 0.2 0.4 0.6 0.7 0.3 0.3 0.8 0.3z"/>
					<path id="Layer" class="s15" d="m42.4 72c6.9-0.5 23.7-1.5 33.9-0.2q0.5 0.1 0.9-0.1 0.4-0.2 0.7-0.6 0.2-0.4 0.2-0.9 0-0.5-0.4-0.8-0.4-0.4-0.9-0.7-0.4-0.3-1-0.5-0.5-0.1-1.1-0.2-0.5-0.1-1.1 0c-0.3 0 1.9-8.6-7.2-9.3-9.3-0.8-9.4 8.2-9.4 8.2 0 0-5.5-4.6-8.1 1.2 0 0-5.8-2.2-8.3 0.6q-0.4 0.5-0.5 1.1 0 0.7 0.3 1.2 0.3 0.5 0.9 0.8 0.5 0.3 1.1 0.2z"/>
					<path id="Layer" class="s34" d="m318.9 100.4c0-12.8-11.5-23.3-25.7-23.3-14.2 0-25.7 10.5-25.7 23.3q0 2.4 0.5 4.6 0.5 2.3 1.5 4.4 0.9 2.1 2.3 4 1.4 1.9 3.1 3.4c0 0 7.8 7.5 10.4 15.8q1 0.3 2 0.5 0.9 0.2 1.9 0.4 1 0.2 2 0.3 1 0.1 2 0.2 1-0.1 2-0.2 1-0.1 2-0.3 1-0.2 1.9-0.4 1-0.2 2-0.5c2.6-8.3 10.4-15.8 10.4-15.8q1.7-1.5 3.1-3.4 1.4-1.9 2.3-4 1-2.1 1.5-4.4 0.5-2.2 0.5-4.6z"/>
					<path id="Layer" class="s6" d="m293.2 146.2q-0.8 0.1-1.5-0.2-0.7-0.2-1.3-0.7-0.5-0.5-0.8-1.2-0.4-0.7-0.4-1.5h8q-0.1 0.8-0.4 1.5-0.3 0.7-0.9 1.2-0.5 0.5-1.2 0.7-0.8 0.3-1.5 0.2z"/>
					<path id="Layer" class="s6" d="m284.6 130.7h17.2v6.4c0 3.6-3.3 6.5-7.2 6.5h-2.8c-4 0-7.2-2.9-7.2-6.5z"/>
					<path id="Layer" class="s40" d="m318.9 100.4q0-1.7-0.3-3.4-0.3-1.7-0.8-3.4-0.5-1.6-1.3-3.1-0.8-1.6-1.9-3c-7.5 16.8-19.5 28.1-36.8 32.5q1.1 1.2 2 2.5 1 1.3 1.8 2.6 0.9 1.3 1.6 2.7 0.8 1.5 1.4 2.9h17.2c3-7.5 9.7-13.9 9.7-13.9q1.7-1.5 3.1-3.4 1.4-1.9 2.3-4 1-2.1 1.5-4.4 0.5-2.2 0.5-4.6z"/>
					<path id="Layer" fill-rule="evenodd" class="s24" d="m297.4 130.8l-0.7-0.2c0-0.1 2.4-8.1 4-16.2 2.9-14.2 1.3-17.2 0-17.8q-1.9-0.8-2.9 0.3-0.1 0-0.1 0.1 0 0-0.1 0 0 0.1 0 0.1 0.5 0.2 0.8 0.5 0.4 0.3 0.7 0.7 0.3 0.4 0.5 0.9 0.2 0.4 0.3 0.9 0.2 0.6 0.1 1.1-0.1 0.6-0.3 1.1-0.2 0.5-0.7 0.9-0.4 0.4-0.9 0.6-0.2 0-0.4 0-0.2 0-0.4-0.1-0.2 0-0.3-0.2-0.2-0.1-0.3-0.3-0.3-0.7-0.5-1.4-0.2-0.7-0.2-1.5-0.1-0.7 0.1-1.5 0.1-0.7 0.4-1.4-0.3-0.1-0.7-0.2-0.4-0.1-0.8-0.2-0.4-0.1-0.8-0.1-0.4 0-0.8 0c-0.3 0-1.3 0-1.6 0q-0.4 0-0.8 0.1-0.4 0.1-0.8 0.2-0.4 0.1-0.8 0.2 0.3 0.7 0.5 1.4 0.1 0.8 0.1 1.5 0 0.8-0.2 1.5-0.2 0.7-0.5 1.4-0.2 0.2-0.3 0.3-0.2 0.2-0.4 0.2-0.2 0.1-0.4 0.1-0.2 0-0.4 0-0.5-0.2-0.9-0.6-0.4-0.4-0.6-0.9-0.3-0.5-0.4-1.1 0-0.5 0.1-1.1 0.1-0.5 0.3-0.9 0.2-0.5 0.5-0.9 0.3-0.4 0.7-0.7 0.4-0.3 0.9-0.5-0.1-0.1-0.2-0.2-1-1.1-3-0.3c-1.2 0.6-2.9 3.6 0 17.8 1.7 8.1 4.1 16.1 4.1 16.2l-0.7 0.2c-0.1-0.1-2.5-8.1-4.1-16.3-2.4-11.3-2.2-17.4 0.4-18.5 2-0.9 3.2-0.2 3.9 0.5q0.1 0.1 0.1 0.1 0 0.1 0.1 0.1 0 0 0 0.1 0.5-0.2 0.9-0.3 0.4-0.1 0.9-0.2 0.4-0.1 0.9-0.1 0.5 0 0.9 0c0.3 0 1.4 0 1.7 0q0.4 0 0.9 0.1 0.4 0.1 0.9 0.2 0.4 0.1 0.8 0.3 0-0.1 0.1-0.1 0 0 0-0.1 0.1 0 0.1-0.1 0 0 0.1 0c0.6-0.7 1.8-1.4 3.9-0.5 2.6 1.1 2.7 7.2 0.4 18.5-1.7 8.2-4.1 16.2-4.1 16.3zm-8.7-33.1q-0.4 0.2-0.7 0.4-0.3 0.3-0.6 0.6-0.2 0.4-0.4 0.7-0.2 0.4-0.2 0.8-0.1 0.4-0.1 0.9 0 0.4 0.2 0.8 0.2 0.4 0.5 0.7 0.3 0.3 0.7 0.5c0 0 0.2 0.1 0.5-0.3q0.3-0.6 0.5-1.2 0.1-0.7 0.1-1.3 0.1-0.7-0.1-1.3-0.1-0.7-0.4-1.3zm8.5 0q-0.2 0.6-0.4 1.3-0.1 0.6-0.1 1.3 0 0.6 0.2 1.3 0.1 0.6 0.4 1.2c0.3 0.4 0.5 0.4 0.6 0.3q0.4-0.2 0.7-0.5 0.3-0.3 0.5-0.7 0.1-0.4 0.2-0.8 0-0.5-0.1-0.9-0.1-0.4-0.3-0.8-0.1-0.3-0.4-0.7-0.2-0.3-0.6-0.6-0.3-0.2-0.7-0.4z"/>
					<path id="Layer" class="s1" d="m284.5 130.9c-0.2-0.6-0.3-0.8-0.5-1.2l-0.1-0.2q-0.9-1.8-1.9-3.4-1-1.7-2.2-3.2-1.1-1.6-2.4-3.1-1.3-1.5-2.6-2.9h-0.1q-1.7-1.5-3.1-3.4-1.4-1.9-2.3-4-1-2.2-1.5-4.4-0.5-2.3-0.5-4.7c0-12.9 11.6-23.4 25.9-23.4q3.1-0.1 6.2 0.6 3.1 0.7 5.9 2.1 2.8 1.4 5.3 3.4 2.4 2 4.3 4.5l-0.3 0.2q-1.9-2.5-4.3-4.5-2.4-1.9-5.2-3.3-2.7-1.4-5.8-2.1-3-0.6-6.1-0.6c-14.1 0-25.5 10.4-25.5 23.1q0 2.3 0.5 4.6 0.5 2.2 1.4 4.3 1 2.1 2.4 4 1.3 1.8 3 3.4l0.3 0.2q1.3 1.4 2.6 2.9 1.2 1.4 2.3 3 1.2 1.5 2.2 3.2 1 1.6 1.8 3.3l0.1 0.3q0.1 0.1 0.2 0.3 0.1 0.1 0.1 0.3 0.1 0.1 0.1 0.2 0.1 0.2 0.2 0.3z"/>
					<path id="Layer" class="s1" d="m275.2 89.7l-0.3-0.1q0.5-1.4 1.3-2.6 0.9-1.3 2-2.3 1-1 2.3-1.8 1.3-0.8 2.7-1.3l0.1 0.4q-1.3 0.4-2.6 1.2-1.2 0.7-2.3 1.7-1 1-1.8 2.2-0.8 1.2-1.4 2.6z"/>
					<path id="Layer" class="s1" d="m276.4 91.8l-0.3-0.1q0.5-1.4 1.3-2.7 0.9-1.2 1.9-2.2 1.1-1.1 2.4-1.8 1.3-0.8 2.7-1.3l0.1 0.3q-1.4 0.5-2.6 1.2-1.2 0.8-2.3 1.8-1 1-1.8 2.2-0.8 1.2-1.4 2.6z"/>
					<path id="Layer" class="s1" d="m294.1 143.8h-1.8c-4.4 0-7.9-3.2-7.9-7.1v-6.2h17.4v0.4h-17v5.8c0 3.7 3.4 6.7 7.5 6.7h1.8q0.7 0.1 1.4-0.1 0.7-0.1 1.4-0.3 0.7-0.3 1.3-0.7 0.6-0.3 1.1-0.8l0.3 0.3q-0.5 0.5-1.2 0.8-0.6 0.4-1.3 0.7-0.7 0.2-1.5 0.4-0.7 0.1-1.5 0.1z"/>
					<path id="Layer" class="s1" d="m293.3 146.4q-0.7 0.1-1.4-0.2-0.8-0.2-1.3-0.6-0.6-0.5-1-1.1-0.4-0.6-0.6-1.4h0.4q0.2 0.7 0.5 1.2 0.4 0.6 0.9 1.1 0.6 0.4 1.3 0.6 0.6 0.1 1.3 0.1v0.3z"/>
					<path id="Layer" class="s1" d="m310.8 113.5l-0.2-0.3q0.8-0.5 1.4-1.2 0.7-0.7 1.2-1.5 0.5-0.8 0.8-1.6 0.4-0.9 0.5-1.8h0.4q-0.2 1-0.5 1.9-0.4 0.9-0.9 1.7-0.5 0.8-1.2 1.5-0.7 0.7-1.5 1.3z"/>
					<path id="Layer" class="s1" d="m310.1 111.8l-0.2-0.3q0.5-0.4 1-0.8 0.5-0.5 0.8-1.1 0.4-0.6 0.6-1.2 0.3-0.7 0.4-1.3h0.4q-0.1 0.7-0.4 1.4-0.2 0.7-0.6 1.3-0.4 0.6-0.9 1.1-0.5 0.5-1.1 0.9z"/>
					<path id="Layer" class="s1" d="m283.8 133.8v-0.3c0.2 0 14.6-0.2 19.2-1.8l0.1 0.4c-4.6 1.5-18.7 1.7-19.3 1.7z"/>
					<path id="Layer" class="s1" d="m283.8 136.7v-0.3c0.2 0 15.9-0.3 18.8-1.7l0.2 0.3c-3 1.4-18.3 1.7-19 1.7z"/>
					<path id="Layer" class="s1" d="m284.6 139.7v-0.3c0.2 0 14.2-0.2 18-1.9l0.2 0.3c-3.9 1.8-17.6 1.9-18.2 1.9z"/>
					<path id="Layer" class="s24" d="m260.9 96.8l-9.1-0.7q-0.1 0-0.2-0.1 0 0-0.1 0-0.1-0.1-0.1-0.1-0.1-0.1-0.1-0.1 0-0.1-0.1-0.2 0 0 0-0.1 0-0.1 0.1-0.1 0-0.1 0-0.2 0.1 0 0.2-0.1 0 0 0.1 0 0.1-0.1 0.1-0.1 0.1 0 0.2 0l9.1 0.7q0.1 0 0.2 0.1 0.1 0 0.2 0.1 0 0.1 0.1 0.2 0 0.1 0 0.2 0 0.1 0 0.2-0.1 0.1-0.2 0.1-0.1 0.1-0.2 0.1-0.1 0.1-0.2 0.1z"/>
					<path id="Layer" class="s24" d="m265.6 83.6q-0.1 0-0.1 0-0.1 0-0.1 0-0.1 0-0.1-0.1l-7.5-4.6q-0.1-0.1-0.2-0.2 0-0.1-0.1-0.2 0-0.1 0-0.2 0.1-0.1 0.1-0.2 0.1 0 0.2-0.1 0.1-0.1 0.2-0.1 0.1 0 0.2 0 0.1 0.1 0.2 0.1l7.6 4.7q0 0 0.1 0.1 0 0.1 0.1 0.1 0 0.1 0 0.2 0 0.1 0 0.2 0 0-0.1 0.1-0.1 0.1-0.1 0.1-0.1 0.1-0.2 0.1-0.1 0-0.2 0z"/>
					<path id="Layer" class="s24" d="m279.3 74.2q-0.1 0-0.2 0-0.1 0-0.2-0.1 0 0-0.1-0.1 0 0-0.1-0.1l-3.4-7.7q-0.1-0.1-0.1-0.2 0.1-0.1 0.1-0.2 0-0.1 0.1-0.2 0.1 0 0.2-0.1 0.1 0 0.2 0 0.1 0 0.2 0 0.1 0.1 0.2 0.2 0.1 0 0.2 0.1l3.4 7.7q0 0.1 0 0.1 0 0.1 0 0.1 0 0.1 0 0.2 0 0-0.1 0.1 0 0-0.1 0.1 0 0-0.1 0.1 0 0-0.1 0-0.1 0-0.1 0z"/>
					<path id="Layer" class="s24" d="m325 98.3q-0.1 0-0.2-0.1-0.1 0-0.2-0.1 0 0-0.1-0.1 0-0.1 0-0.2 0-0.1 0-0.2 0-0.1 0.1-0.2 0.1-0.1 0.2-0.1 0.1-0.1 0.2-0.1l9.1-0.5q0.1 0 0.2 0 0.1 0 0.2 0.1 0.1 0.1 0.1 0.2 0.1 0.1 0.1 0.2 0 0.1-0.1 0.2 0 0.1-0.1 0.1 0 0.1-0.1 0.2-0.1 0-0.2 0z"/>
					<path id="Layer" class="s24" d="m320.6 85q-0.1 0-0.2 0-0.1 0-0.1-0.1-0.1 0-0.2-0.1 0 0-0.1-0.1 0-0.1 0-0.2 0-0.1 0-0.2 0.1 0 0.1-0.1 0.1-0.1 0.2-0.1l7.6-4.5q0.1-0.1 0.2-0.1 0.1 0 0.2 0 0.1 0 0.2 0.1 0.1 0 0.2 0.1 0.1 0.1 0.1 0.2 0 0.1 0 0.2 0 0.1-0.1 0.2-0.1 0.1-0.2 0.1l-7.6 4.6q0 0-0.1 0 0 0-0.1 0-0.1 0-0.1 0z"/>
					<path id="Layer" class="s24" d="m308.9 74.2q-0.1 0-0.1 0 0 0-0.1 0 0-0.1 0-0.1-0.1 0-0.2-0.1-0.1 0-0.1-0.1-0.1-0.1-0.1-0.2 0.1-0.1 0.1-0.2l3.6-7.6q0-0.1 0.1-0.2 0.1-0.1 0.2-0.1 0.1-0.1 0.2-0.1 0.1 0 0.2 0.1 0.1 0 0.2 0.1 0.1 0.1 0.1 0.2 0.1 0.1 0.1 0.2 0 0.1-0.1 0.2l-3.6 7.6q0 0 0 0.1-0.1 0.1-0.2 0.1 0 0-0.1 0.1-0.1 0-0.2 0z"/>
					<path id="Layer" class="s24" d="m294.3 70.2h-0.1q-0.1 0-0.2-0.1-0.1 0-0.1-0.1-0.1-0.1-0.2-0.2 0-0.1 0-0.2l0.1-8.2q0-0.1 0.1-0.2 0-0.1 0.1-0.2 0.1-0.1 0.2-0.1 0.1-0.1 0.2-0.1 0.1 0 0.2 0.1 0.1 0 0.2 0.1 0.1 0.1 0.1 0.2 0.1 0.1 0.1 0.2l-0.2 8.2q0 0.2 0 0.2-0.1 0.1-0.2 0.2 0 0.1-0.1 0.1-0.1 0.1-0.3 0.1z"/>
					<g id="Layer" style="opacity: .5">
						<path id="Layer" class="s41" d="m299.9 83c0.9-1.2 4-0.9 6.9 0.8 2.9 1.7 4.6 4.1 3.7 5.4-0.9 1.3-4 0.9-7-0.8-2.9-1.7-4.5-4.1-3.6-5.4z"/>
					</g>
					<path id="Layer" class="s1" d="m324.3 203.9h-302.5v-0.7h302.5z"/>
					<path id="Layer" class="s33" d="m75.7 101.2c0-0.1-1.8-0.2-1.8-0.2q0 0.2 0.1 0.3 0.1 0.1 0.2 0.2 0.1 0.1 0.2 0.2 0.2 0 0.3 0 0.2 0.1 0.3 0 0.2 0 0.3-0.1 0.1-0.1 0.2-0.2 0.1-0.1 0.2-0.2z"/>
				</g>
			</g>
		</g>
	</g>
</svg>